<?xml version="1.0" encoding="UTF-8" standalone="no"?>
<!DOCTYPE svg PUBLIC "-//W3C//DTD SVG 1.1//EN"
 "http://www.w3.org/Graphics/SVG/1.1/DTD/svg11.dtd">
<!-- Generated by graphviz version 2.38.0 (20140413.2041)
 -->
<!-- Title: DataFlow::Consolidator&lt; T, K &gt; Pages: 1 -->
<svg width="179pt" height="398pt"
 viewBox="0.00 0.00 179.00 398.00" xmlns="http://www.w3.org/2000/svg" xmlns:xlink="http://www.w3.org/1999/xlink">
<g id="graph0" class="graph" transform="scale(1 1) rotate(0) translate(4 394)">
<title>DataFlow::Consolidator&lt; T, K &gt;</title>
<!-- Node0 -->
<g id="node1" class="node"><title>Node0</title>
<polygon fill="#bfbfbf" stroke="black" points="26,-171.5 26,-283.5 145,-283.5 145,-171.5 26,-171.5"/>
<text text-anchor="start" x="34" y="-271.5" font-family="Helvetica,sans-Serif" font-size="10.00">DataFlow::Consolidator</text>
<text text-anchor="middle" x="85.5" y="-260.5" font-family="Helvetica,sans-Serif" font-size="10.00">&lt; T, K &gt;</text>
<polyline fill="none" stroke="black" points="26,-253.5 145,-253.5 "/>
<text text-anchor="start" x="34" y="-241.5" font-family="Helvetica,sans-Serif" font-size="10.00">&#45; consolidationMethod</text>
<text text-anchor="start" x="34" y="-230.5" font-family="Helvetica,sans-Serif" font-size="10.00">&#45; sources</text>
<polyline fill="none" stroke="black" points="26,-223.5 145,-223.5 "/>
<text text-anchor="start" x="34" y="-211.5" font-family="Helvetica,sans-Serif" font-size="10.00">+ attach()</text>
<text text-anchor="start" x="34" y="-200.5" font-family="Helvetica,sans-Serif" font-size="10.00">+ detach()</text>
<text text-anchor="start" x="34" y="-189.5" font-family="Helvetica,sans-Serif" font-size="10.00">+ getMethod()</text>
<text text-anchor="start" x="34" y="-178.5" font-family="Helvetica,sans-Serif" font-size="10.00">+ get()</text>
</g>
<!-- Node2 -->
<g id="node3" class="node"><title>Node2</title>
<g id="a_node3"><a xlink:href="classDataFlow_1_1Consolidator.html" target="_top" xlink:title="{DataFlow::Consolidator\l\&lt; T, Consolidation::Accumulation \&gt;\n|&#45; consolidationMethod\l&#45; sources\l|+ attach()\l+ detach()\l+ getMethod()\l+ get()\l}">
<polygon fill="none" stroke="black" points="0,-0.5 0,-112.5 171,-112.5 171,-0.5 0,-0.5"/>
<text text-anchor="start" x="8" y="-100.5" font-family="Helvetica,sans-Serif" font-size="10.00">DataFlow::Consolidator</text>
<text text-anchor="middle" x="85.5" y="-89.5" font-family="Helvetica,sans-Serif" font-size="10.00">&lt; T, Consolidation::Accumulation &gt;</text>
<polyline fill="none" stroke="black" points="0,-82.5 171,-82.5 "/>
<text text-anchor="start" x="8" y="-70.5" font-family="Helvetica,sans-Serif" font-size="10.00">&#45; consolidationMethod</text>
<text text-anchor="start" x="8" y="-59.5" font-family="Helvetica,sans-Serif" font-size="10.00">&#45; sources</text>
<polyline fill="none" stroke="black" points="0,-52.5 171,-52.5 "/>
<text text-anchor="start" x="8" y="-40.5" font-family="Helvetica,sans-Serif" font-size="10.00">+ attach()</text>
<text text-anchor="start" x="8" y="-29.5" font-family="Helvetica,sans-Serif" font-size="10.00">+ detach()</text>
<text text-anchor="start" x="8" y="-18.5" font-family="Helvetica,sans-Serif" font-size="10.00">+ getMethod()</text>
<text text-anchor="start" x="8" y="-7.5" font-family="Helvetica,sans-Serif" font-size="10.00">+ get()</text>
</a>
</g>
</g>
<!-- Node0&#45;&gt;Node2 -->
<g id="edge2" class="edge"><title>Node0&#45;&gt;Node2</title>
<path fill="none" stroke="orange" d="M85.5,-160.857C85.5,-144.93 85.5,-128.061 85.5,-112.672"/>
<polygon fill="orange" stroke="orange" points="82.0001,-161.163 85.5,-171.163 89.0001,-161.163 82.0001,-161.163"/>
<text text-anchor="start" x="85.5" y="-145" font-family="Helvetica,sans-Serif" font-size="10.00"> &lt; T, Consolidation</text>
<text text-anchor="middle" x="127.5" y="-134" font-family="Helvetica,sans-Serif" font-size="10.00">::Accumulation &gt;</text>
</g>
<!-- Node1 -->
<g id="node2" class="node"><title>Node1</title>
<g id="a_node2"><a xlink:href="classDataFlow_1_1iSource.html" target="_top" xlink:title="{DataFlow::iSource\&lt; T \&gt;\n||+ get()\l+ ~iSource()\l}">
<polygon fill="none" stroke="black" points="24.5,-321.5 24.5,-389.5 146.5,-389.5 146.5,-321.5 24.5,-321.5"/>
<text text-anchor="middle" x="85.5" y="-377.5" font-family="Helvetica,sans-Serif" font-size="10.00">DataFlow::iSource&lt; T &gt;</text>
<polyline fill="none" stroke="black" points="24.5,-370.5 146.5,-370.5 "/>
<text text-anchor="middle" x="85.5" y="-358.5" font-family="Helvetica,sans-Serif" font-size="10.00"> </text>
<polyline fill="none" stroke="black" points="24.5,-351.5 146.5,-351.5 "/>
<text text-anchor="start" x="32.5" y="-339.5" font-family="Helvetica,sans-Serif" font-size="10.00">+ get()</text>
<text text-anchor="start" x="32.5" y="-328.5" font-family="Helvetica,sans-Serif" font-size="10.00">+ ~iSource()</text>
</a>
</g>
</g>
<!-- Node1&#45;&gt;Node0 -->
<g id="edge1" class="edge"><title>Node1&#45;&gt;Node0</title>
<path fill="none" stroke="midnightblue" d="M85.5,-311.311C85.5,-302.452 85.5,-293.011 85.5,-283.794"/>
<polygon fill="none" stroke="midnightblue" points="82.0001,-311.395 85.5,-321.395 89.0001,-311.395 82.0001,-311.395"/>
</g>
</g>
</svg>
