<?xml version="1.0" encoding="UTF-8" standalone="no"?>
<!DOCTYPE svg PUBLIC "-//W3C//DTD SVG 1.1//EN"
 "http://www.w3.org/Graphics/SVG/1.1/DTD/svg11.dtd">
<!-- Generated by graphviz version 2.38.0 (20140413.2041)
 -->
<!-- Title: iTransitioner&lt; T &gt; Pages: 1 -->
<svg width="102pt" height="204pt"
 viewBox="0.00 0.00 102.00 204.00" xmlns="http://www.w3.org/2000/svg" xmlns:xlink="http://www.w3.org/1999/xlink">
<g id="graph0" class="graph" transform="scale(1 1) rotate(0) translate(4 200)">
<title>iTransitioner&lt; T &gt;</title>
<!-- Node0 -->
<g id="node1" class="node"><title>Node0</title>
<polygon fill="#bfbfbf" stroke="black" points="0,-116.5 0,-195.5 94,-195.5 94,-116.5 0,-116.5"/>
<text text-anchor="middle" x="47" y="-183.5" font-family="Helvetica,sans-Serif" font-size="10.00">iTransitioner&lt; T &gt;</text>
<polyline fill="none" stroke="black" points="0,-176.5 94,-176.5 "/>
<text text-anchor="middle" x="47" y="-164.5" font-family="Helvetica,sans-Serif" font-size="10.00"> </text>
<polyline fill="none" stroke="black" points="0,-157.5 94,-157.5 "/>
<text text-anchor="start" x="8" y="-145.5" font-family="Helvetica,sans-Serif" font-size="10.00">+ step()</text>
<text text-anchor="start" x="8" y="-134.5" font-family="Helvetica,sans-Serif" font-size="10.00">+ init()</text>
<text text-anchor="start" x="8" y="-123.5" font-family="Helvetica,sans-Serif" font-size="10.00">+ ~iTransitioner()</text>
</g>
<!-- Node1 -->
<g id="node2" class="node"><title>Node1</title>
<g id="a_node2"><a xlink:href="classTransitioner.html" target="_top" xlink:title="{Transitioner\&lt; T \&gt;\n||+ init()\l+ step()\l+ Transitioner()\l}">
<polygon fill="none" stroke="black" points="1,-0.5 1,-79.5 93,-79.5 93,-0.5 1,-0.5"/>
<text text-anchor="middle" x="47" y="-67.5" font-family="Helvetica,sans-Serif" font-size="10.00">Transitioner&lt; T &gt;</text>
<polyline fill="none" stroke="black" points="1,-60.5 93,-60.5 "/>
<text text-anchor="middle" x="47" y="-48.5" font-family="Helvetica,sans-Serif" font-size="10.00"> </text>
<polyline fill="none" stroke="black" points="1,-41.5 93,-41.5 "/>
<text text-anchor="start" x="9" y="-29.5" font-family="Helvetica,sans-Serif" font-size="10.00">+ init()</text>
<text text-anchor="start" x="9" y="-18.5" font-family="Helvetica,sans-Serif" font-size="10.00">+ step()</text>
<text text-anchor="start" x="9" y="-7.5" font-family="Helvetica,sans-Serif" font-size="10.00">+ Transitioner()</text>
</a>
</g>
</g>
<!-- Node0&#45;&gt;Node1 -->
<g id="edge1" class="edge"><title>Node0&#45;&gt;Node1</title>
<path fill="none" stroke="midnightblue" d="M47,-106.146C47,-97.256 47,-88.0961 47,-79.5555"/>
<polygon fill="none" stroke="midnightblue" points="43.5001,-106.405 47,-116.405 50.5001,-106.405 43.5001,-106.405"/>
</g>
</g>
</svg>
