<?xml version="1.0" encoding="UTF-8" standalone="no"?>
<!DOCTYPE svg PUBLIC "-//W3C//DTD SVG 1.1//EN"
 "http://www.w3.org/Graphics/SVG/1.1/DTD/svg11.dtd">
<!-- Generated by graphviz version 2.38.0 (20140413.2041)
 -->
<!-- Title: DataFlow::iSource&lt; T &gt; Pages: 1 -->
<!--zoomable 431 -->
<svg id="main" version="1.1" xmlns="http://www.w3.org/2000/svg" xmlns:xlink="http://www.w3.org/1999/xlink" xml:space="preserve" onload="init(evt)">
<style type="text/css"><![CDATA[
.edge:hover path { stroke: red; }
.edge:hover polygon { stroke: red; fill: red; }
]]></style>
<script type="text/javascript"><![CDATA[
var edges = document.getElementsByTagName('g');
if (edges && edges.length) {
  for (var i=0;i<edges.length;i++) {
    if (edges[i].id.substr(0,4)=='edge') {
      edges[i].setAttribute('class','edge');
    }
  }
}
]]></script>
        <defs>
                <circle id="rim" cx="0" cy="0" r="7"/>
                <circle id="rim2" cx="0" cy="0" r="3.5"/>
                <g id="zoomPlus">
                        <use xlink:href="#rim" fill="#404040">
                                <set attributeName="fill" to="#808080" begin="zoomplus.mouseover" end="zoomplus.mouseout"/>
                        </use>
                        <path d="M-4,0h8M0,-4v8" fill="none" stroke="white" stroke-width="1.5" pointer-events="none"/>
                </g>
                <g id="zoomMin">
                        <use xlink:href="#rim" fill="#404040">
                                <set attributeName="fill" to="#808080" begin="zoomminus.mouseover" end="zoomminus.mouseout"/>
                        </use>
                        <path d="M-4,0h8" fill="none" stroke="white" stroke-width="1.5" pointer-events="none"/>
                </g>
                <g id="dirArrow">
                        <path fill="none" stroke="white" stroke-width="1.5" d="M0,-3.0v7 M-2.5,-0.5L0,-3.0L2.5,-0.5"/>
                </g>
               <g id="resetDef">
                       <use xlink:href="#rim2" fill="#404040">
                               <set attributeName="fill" to="#808080" begin="reset.mouseover" end="reset.mouseout"/>
                       </use>
               </g>
        </defs>

<script type="text/javascript">
var viewWidth = 1839;
var viewHeight = 431;
var sectionId = 'dynsection-0';
</script>
<script xlink:href="svgpan.js"/>
<svg id="graph" class="graph">
<g id="viewport">
<title>DataFlow::iSource&lt; T &gt;</title>
<!-- Node0 -->
<g id="node1" class="node"><title>Node0</title>
<polygon fill="#bfbfbf" stroke="black" points="827.5,-354.5 827.5,-422.5 949.5,-422.5 949.5,-354.5 827.5,-354.5"/>
<text text-anchor="middle" x="888.5" y="-410.5" font-family="Helvetica,sans-Serif" font-size="10.00">DataFlow::iSource&lt; T &gt;</text>
<polyline fill="none" stroke="black" points="827.5,-403.5 949.5,-403.5 "/>
<text text-anchor="middle" x="888.5" y="-391.5" font-family="Helvetica,sans-Serif" font-size="10.00"> </text>
<polyline fill="none" stroke="black" points="827.5,-384.5 949.5,-384.5 "/>
<text text-anchor="start" x="835.5" y="-372.5" font-family="Helvetica,sans-Serif" font-size="10.00">+ get()</text>
<text text-anchor="start" x="835.5" y="-361.5" font-family="Helvetica,sans-Serif" font-size="10.00">+ ~iSource()</text>
</g>
<!-- Node1 -->
<g id="node2" class="node"><title>Node1</title>
<g id="a_node2"><a xlink:href="classDataFlow_1_1Applicator.html" target="_top" xlink:title="{Applicator\&lt; T, VolumeControl \&gt;\n||+ get()\l+ getMethod()\l+ attach()\l}">
<polygon fill="none" stroke="black" points="0,-204.5 0,-283.5 155,-283.5 155,-204.5 0,-204.5"/>
<text text-anchor="middle" x="77.5" y="-271.5" font-family="Helvetica,sans-Serif" font-size="10.00">Applicator&lt; T, VolumeControl &gt;</text>
<polyline fill="none" stroke="black" points="0,-264.5 155,-264.5 "/>
<text text-anchor="middle" x="77.5" y="-252.5" font-family="Helvetica,sans-Serif" font-size="10.00"> </text>
<polyline fill="none" stroke="black" points="0,-245.5 155,-245.5 "/>
<text text-anchor="start" x="8" y="-233.5" font-family="Helvetica,sans-Serif" font-size="10.00">+ get()</text>
<text text-anchor="start" x="8" y="-222.5" font-family="Helvetica,sans-Serif" font-size="10.00">+ getMethod()</text>
<text text-anchor="start" x="8" y="-211.5" font-family="Helvetica,sans-Serif" font-size="10.00">+ attach()</text>
</a>
</g>
</g>
<!-- Node0&#45;&gt;Node1 -->
<g id="edge1" class="edge"><title>Node0&#45;&gt;Node1</title>
<path fill="none" stroke="midnightblue" d="M817.298,-385.842C658.73,-381.306 281.308,-365.589 164.5,-317 146.217,-309.395 128.818,-296.583 114.452,-283.858"/>
<polygon fill="none" stroke="midnightblue" points="817.327,-389.344 827.421,-386.125 817.523,-382.347 817.327,-389.344"/>
</g>
<!-- Node2 -->
<g id="node3" class="node"><title>Node2</title>
<g id="a_node3"><a xlink:href="classDataFlow_1_1Consolidator.html" target="_top" xlink:title="{Consolidator\&lt; T, Consolidation\l::Accumulation \&gt;\n||+ attach()\l+ detach()\l+ getMethod()\l+ get()\l}">
<polygon fill="none" stroke="black" points="173.5,-193.5 173.5,-294.5 325.5,-294.5 325.5,-193.5 173.5,-193.5"/>
<text text-anchor="start" x="181.5" y="-282.5" font-family="Helvetica,sans-Serif" font-size="10.00">Consolidator&lt; T, Consolidation</text>
<text text-anchor="middle" x="249.5" y="-271.5" font-family="Helvetica,sans-Serif" font-size="10.00">::Accumulation &gt;</text>
<polyline fill="none" stroke="black" points="173.5,-264.5 325.5,-264.5 "/>
<text text-anchor="middle" x="249.5" y="-252.5" font-family="Helvetica,sans-Serif" font-size="10.00"> </text>
<polyline fill="none" stroke="black" points="173.5,-245.5 325.5,-245.5 "/>
<text text-anchor="start" x="181.5" y="-233.5" font-family="Helvetica,sans-Serif" font-size="10.00">+ attach()</text>
<text text-anchor="start" x="181.5" y="-222.5" font-family="Helvetica,sans-Serif" font-size="10.00">+ detach()</text>
<text text-anchor="start" x="181.5" y="-211.5" font-family="Helvetica,sans-Serif" font-size="10.00">+ getMethod()</text>
<text text-anchor="start" x="181.5" y="-200.5" font-family="Helvetica,sans-Serif" font-size="10.00">+ get()</text>
</a>
</g>
</g>
<!-- Node0&#45;&gt;Node2 -->
<g id="edge2" class="edge"><title>Node0&#45;&gt;Node2</title>
<path fill="none" stroke="midnightblue" d="M817.025,-383.46C687.494,-375.311 419.495,-354.415 334.5,-317 321.933,-311.468 309.798,-303.466 298.823,-294.79"/>
<polygon fill="none" stroke="midnightblue" points="817.039,-386.968 827.237,-384.094 817.473,-379.981 817.039,-386.968"/>
</g>
<!-- Node3 -->
<g id="node4" class="node"><title>Node3</title>
<g id="a_node4"><a xlink:href="classDataFlow_1_1Applicator.html" target="_top" xlink:title="{DataFlow::Applicator\&lt; T \&gt;\n||+ get()\l+ getMethod()\l+ attach()\l}">
<polygon fill="none" stroke="black" points="343.5,-204.5 343.5,-283.5 475.5,-283.5 475.5,-204.5 343.5,-204.5"/>
<text text-anchor="middle" x="409.5" y="-271.5" font-family="Helvetica,sans-Serif" font-size="10.00">DataFlow::Applicator&lt; T &gt;</text>
<polyline fill="none" stroke="black" points="343.5,-264.5 475.5,-264.5 "/>
<text text-anchor="middle" x="409.5" y="-252.5" font-family="Helvetica,sans-Serif" font-size="10.00"> </text>
<polyline fill="none" stroke="black" points="343.5,-245.5 475.5,-245.5 "/>
<text text-anchor="start" x="351.5" y="-233.5" font-family="Helvetica,sans-Serif" font-size="10.00">+ get()</text>
<text text-anchor="start" x="351.5" y="-222.5" font-family="Helvetica,sans-Serif" font-size="10.00">+ getMethod()</text>
<text text-anchor="start" x="351.5" y="-211.5" font-family="Helvetica,sans-Serif" font-size="10.00">+ attach()</text>
</a>
</g>
</g>
<!-- Node0&#45;&gt;Node3 -->
<g id="edge3" class="edge"><title>Node0&#45;&gt;Node3</title>
<path fill="none" stroke="midnightblue" d="M816.999,-387.433C733.042,-384.636 591.658,-371.281 484.5,-317 468.398,-308.844 453.432,-296.073 441.171,-283.538"/>
<polygon fill="none" stroke="midnightblue" points="817.1,-390.937 827.198,-387.73 817.304,-383.94 817.1,-390.937"/>
</g>
<!-- Node5 -->
<g id="node6" class="node"><title>Node5</title>
<g id="a_node6"><a xlink:href="classDataFlow_1_1Consolidator.html" target="_top" xlink:title="{DataFlow::Consolidator\&lt; T \&gt;\n||+ attach()\l+ detach()\l+ getMethod()\l+ get()\l}">
<polygon fill="none" stroke="black" points="494,-199 494,-289 637,-289 637,-199 494,-199"/>
<text text-anchor="middle" x="565.5" y="-277" font-family="Helvetica,sans-Serif" font-size="10.00">DataFlow::Consolidator&lt; T &gt;</text>
<polyline fill="none" stroke="black" points="494,-270 637,-270 "/>
<text text-anchor="middle" x="565.5" y="-258" font-family="Helvetica,sans-Serif" font-size="10.00"> </text>
<polyline fill="none" stroke="black" points="494,-251 637,-251 "/>
<text text-anchor="start" x="502" y="-239" font-family="Helvetica,sans-Serif" font-size="10.00">+ attach()</text>
<text text-anchor="start" x="502" y="-228" font-family="Helvetica,sans-Serif" font-size="10.00">+ detach()</text>
<text text-anchor="start" x="502" y="-217" font-family="Helvetica,sans-Serif" font-size="10.00">+ getMethod()</text>
<text text-anchor="start" x="502" y="-206" font-family="Helvetica,sans-Serif" font-size="10.00">+ get()</text>
</a>
</g>
</g>
<!-- Node0&#45;&gt;Node5 -->
<g id="edge5" class="edge"><title>Node0&#45;&gt;Node5</title>
<path fill="none" stroke="midnightblue" d="M817.561,-375.693C767.258,-365.277 699.394,-346.976 645.5,-317 632.11,-309.552 619.09,-299.489 607.576,-289.249"/>
<polygon fill="none" stroke="midnightblue" points="816.883,-379.126 827.378,-377.672 818.267,-372.264 816.883,-379.126"/>
</g>
<!-- Node7 -->
<g id="node8" class="node"><title>Node7</title>
<g id="a_node8"><a xlink:href="classDataFlow_1_1iBuffer.html" target="_top" xlink:title="{DataFlow::iBuffer\&lt; T \&gt;\n||+ put()\l+ size()\l+ ~iBuffer()\l}">
<polygon fill="none" stroke="black" points="655,-204.5 655,-283.5 772,-283.5 772,-204.5 655,-204.5"/>
<text text-anchor="middle" x="713.5" y="-271.5" font-family="Helvetica,sans-Serif" font-size="10.00">DataFlow::iBuffer&lt; T &gt;</text>
<polyline fill="none" stroke="black" points="655,-264.5 772,-264.5 "/>
<text text-anchor="middle" x="713.5" y="-252.5" font-family="Helvetica,sans-Serif" font-size="10.00"> </text>
<polyline fill="none" stroke="black" points="655,-245.5 772,-245.5 "/>
<text text-anchor="start" x="663" y="-233.5" font-family="Helvetica,sans-Serif" font-size="10.00">+ put()</text>
<text text-anchor="start" x="663" y="-222.5" font-family="Helvetica,sans-Serif" font-size="10.00">+ size()</text>
<text text-anchor="start" x="663" y="-211.5" font-family="Helvetica,sans-Serif" font-size="10.00">+ ~iBuffer()</text>
</a>
</g>
</g>
<!-- Node0&#45;&gt;Node7 -->
<g id="edge7" class="edge"><title>Node0&#45;&gt;Node7</title>
<path fill="none" stroke="midnightblue" d="M823.699,-348.865C809.004,-339.116 793.816,-328.212 780.5,-317 768.614,-306.992 756.712,-295.001 746.308,-283.702"/>
<polygon fill="none" stroke="midnightblue" points="821.99,-351.929 832.277,-354.465 825.817,-346.068 821.99,-351.929"/>
</g>
<!-- Node10 -->
<g id="node11" class="node"><title>Node10</title>
<g id="a_node11"><a xlink:href="classMixer_1_1ComplexWaveformGenerator.html" target="_top" xlink:title="{Mixer::ComplexWaveformGenerator\&lt; T \&gt;\n||+ get()\l+ getComponent()\l+ setComponent()\l+ setComponent()\l+ ComplexWaveformGenerator()\l}">
<polygon fill="none" stroke="black" points="790,-193.5 790,-294.5 987,-294.5 987,-193.5 790,-193.5"/>
<text text-anchor="middle" x="888.5" y="-282.5" font-family="Helvetica,sans-Serif" font-size="10.00">Mixer::ComplexWaveformGenerator&lt; T &gt;</text>
<polyline fill="none" stroke="black" points="790,-275.5 987,-275.5 "/>
<text text-anchor="middle" x="888.5" y="-263.5" font-family="Helvetica,sans-Serif" font-size="10.00"> </text>
<polyline fill="none" stroke="black" points="790,-256.5 987,-256.5 "/>
<text text-anchor="start" x="798" y="-244.5" font-family="Helvetica,sans-Serif" font-size="10.00">+ get()</text>
<text text-anchor="start" x="798" y="-233.5" font-family="Helvetica,sans-Serif" font-size="10.00">+ getComponent()</text>
<text text-anchor="start" x="798" y="-222.5" font-family="Helvetica,sans-Serif" font-size="10.00">+ setComponent()</text>
<text text-anchor="start" x="798" y="-211.5" font-family="Helvetica,sans-Serif" font-size="10.00">+ setComponent()</text>
<text text-anchor="start" x="798" y="-200.5" font-family="Helvetica,sans-Serif" font-size="10.00">+ ComplexWaveformGenerator()</text>
</a>
</g>
</g>
<!-- Node0&#45;&gt;Node10 -->
<g id="edge10" class="edge"><title>Node0&#45;&gt;Node10</title>
<path fill="none" stroke="midnightblue" d="M888.5,-344.032C888.5,-328.431 888.5,-310.724 888.5,-294.64"/>
<polygon fill="none" stroke="midnightblue" points="885,-344.449 888.5,-354.449 892,-344.449 885,-344.449"/>
</g>
<!-- Node11 -->
<g id="node12" class="node"><title>Node11</title>
<g id="a_node12"><a xlink:href="classMixer_1_1iWaveformGenerator.html" target="_top" xlink:title="{Mixer::iWaveformGenerator\&lt; T \&gt;\n||+ getFrequency()\l+ setFrequency()\l+ setFrequency()\l+ ~iWaveformGenerator()\l}">
<polygon fill="none" stroke="black" points="1005,-199 1005,-289 1166,-289 1166,-199 1005,-199"/>
<text text-anchor="middle" x="1085.5" y="-277" font-family="Helvetica,sans-Serif" font-size="10.00">Mixer::iWaveformGenerator&lt; T &gt;</text>
<polyline fill="none" stroke="black" points="1005,-270 1166,-270 "/>
<text text-anchor="middle" x="1085.5" y="-258" font-family="Helvetica,sans-Serif" font-size="10.00"> </text>
<polyline fill="none" stroke="black" points="1005,-251 1166,-251 "/>
<text text-anchor="start" x="1013" y="-239" font-family="Helvetica,sans-Serif" font-size="10.00">+ getFrequency()</text>
<text text-anchor="start" x="1013" y="-228" font-family="Helvetica,sans-Serif" font-size="10.00">+ setFrequency()</text>
<text text-anchor="start" x="1013" y="-217" font-family="Helvetica,sans-Serif" font-size="10.00">+ setFrequency()</text>
<text text-anchor="start" x="1013" y="-206" font-family="Helvetica,sans-Serif" font-size="10.00">+ ~iWaveformGenerator()</text>
</a>
</g>
</g>
<!-- Node0&#45;&gt;Node11 -->
<g id="edge11" class="edge"><title>Node0&#45;&gt;Node11</title>
<path fill="none" stroke="midnightblue" d="M949.238,-348.876C964.527,-338.774 980.774,-327.707 995.5,-317 1007.48,-308.292 1020.05,-298.603 1031.87,-289.226"/>
<polygon fill="none" stroke="midnightblue" points="947.294,-345.965 940.858,-354.38 951.137,-351.815 947.294,-345.965"/>
</g>
<!-- Node18 -->
<g id="node19" class="node"><title>Node18</title>
<g id="a_node19"><a xlink:href="classMixer_1_1Multiplexer.html" target="_top" xlink:title="{Mixer::Multiplexer\&lt; T \&gt;\n||+ get()\l+ setChannel()\l+ clearChannel()\l+ setChannelCount()\l+ getChannelCount()\l+ clear()\l+ Multiplexer()\l+ Multiplexer()\l}">
<polygon fill="none" stroke="black" points="1184.5,-177 1184.5,-311 1302.5,-311 1302.5,-177 1184.5,-177"/>
<text text-anchor="middle" x="1243.5" y="-299" font-family="Helvetica,sans-Serif" font-size="10.00">Mixer::Multiplexer&lt; T &gt;</text>
<polyline fill="none" stroke="black" points="1184.5,-292 1302.5,-292 "/>
<text text-anchor="middle" x="1243.5" y="-280" font-family="Helvetica,sans-Serif" font-size="10.00"> </text>
<polyline fill="none" stroke="black" points="1184.5,-273 1302.5,-273 "/>
<text text-anchor="start" x="1192.5" y="-261" font-family="Helvetica,sans-Serif" font-size="10.00">+ get()</text>
<text text-anchor="start" x="1192.5" y="-250" font-family="Helvetica,sans-Serif" font-size="10.00">+ setChannel()</text>
<text text-anchor="start" x="1192.5" y="-239" font-family="Helvetica,sans-Serif" font-size="10.00">+ clearChannel()</text>
<text text-anchor="start" x="1192.5" y="-228" font-family="Helvetica,sans-Serif" font-size="10.00">+ setChannelCount()</text>
<text text-anchor="start" x="1192.5" y="-217" font-family="Helvetica,sans-Serif" font-size="10.00">+ getChannelCount()</text>
<text text-anchor="start" x="1192.5" y="-206" font-family="Helvetica,sans-Serif" font-size="10.00">+ clear()</text>
<text text-anchor="start" x="1192.5" y="-195" font-family="Helvetica,sans-Serif" font-size="10.00">+ Multiplexer()</text>
<text text-anchor="start" x="1192.5" y="-184" font-family="Helvetica,sans-Serif" font-size="10.00">+ Multiplexer()</text>
</a>
</g>
</g>
<!-- Node0&#45;&gt;Node18 -->
<g id="edge18" class="edge"><title>Node0&#45;&gt;Node18</title>
<path fill="none" stroke="midnightblue" d="M959.901,-381.119C1020.41,-373.18 1107.75,-355.592 1174.5,-317 1177.8,-315.094 1181.04,-312.983 1184.21,-310.718"/>
<polygon fill="none" stroke="midnightblue" points="959.163,-377.684 949.677,-382.402 960.035,-384.63 959.163,-377.684"/>
</g>
<!-- Node19 -->
<g id="node20" class="node"><title>Node19</title>
<g id="a_node20"><a xlink:href="classMixer_1_1SimpleNote.html" target="_top" xlink:title="{Mixer::SimpleNote\&lt; T \&gt;\n||+ attach()\l+ setAttack()\l+ setDecay()\l+ size()\l+ bakeNote()\l+ clear()\l+ get()\l+ SimpleNote()\l}">
<polygon fill="none" stroke="black" points="1320.5,-177 1320.5,-311 1442.5,-311 1442.5,-177 1320.5,-177"/>
<text text-anchor="middle" x="1381.5" y="-299" font-family="Helvetica,sans-Serif" font-size="10.00">Mixer::SimpleNote&lt; T &gt;</text>
<polyline fill="none" stroke="black" points="1320.5,-292 1442.5,-292 "/>
<text text-anchor="middle" x="1381.5" y="-280" font-family="Helvetica,sans-Serif" font-size="10.00"> </text>
<polyline fill="none" stroke="black" points="1320.5,-273 1442.5,-273 "/>
<text text-anchor="start" x="1328.5" y="-261" font-family="Helvetica,sans-Serif" font-size="10.00">+ attach()</text>
<text text-anchor="start" x="1328.5" y="-250" font-family="Helvetica,sans-Serif" font-size="10.00">+ setAttack()</text>
<text text-anchor="start" x="1328.5" y="-239" font-family="Helvetica,sans-Serif" font-size="10.00">+ setDecay()</text>
<text text-anchor="start" x="1328.5" y="-228" font-family="Helvetica,sans-Serif" font-size="10.00">+ size()</text>
<text text-anchor="start" x="1328.5" y="-217" font-family="Helvetica,sans-Serif" font-size="10.00">+ bakeNote()</text>
<text text-anchor="start" x="1328.5" y="-206" font-family="Helvetica,sans-Serif" font-size="10.00">+ clear()</text>
<text text-anchor="start" x="1328.5" y="-195" font-family="Helvetica,sans-Serif" font-size="10.00">+ get()</text>
<text text-anchor="start" x="1328.5" y="-184" font-family="Helvetica,sans-Serif" font-size="10.00">+ SimpleNote()</text>
</a>
</g>
</g>
<!-- Node0&#45;&gt;Node19 -->
<g id="edge19" class="edge"><title>Node0&#45;&gt;Node19</title>
<path fill="none" stroke="midnightblue" d="M959.986,-381.018C1064.12,-370.667 1251.66,-348.331 1311.5,-317 1314.9,-315.221 1318.23,-313.216 1321.48,-311.037"/>
<polygon fill="none" stroke="midnightblue" points="959.478,-377.551 949.868,-382.012 960.163,-384.517 959.478,-377.551"/>
</g>
<!-- Node20 -->
<g id="node21" class="node"><title>Node20</title>
<g id="a_node21"><a xlink:href="classMixer_1_1SimplePlayer.html" target="_top" xlink:title="{Mixer::SimplePlayer\&lt; T \&gt;\n||+ get()\l+ pause()\l+ stop()\l+ play()\l+ attach()\l+ SimplePlayer()\l}">
<polygon fill="none" stroke="black" points="1460.5,-188 1460.5,-300 1588.5,-300 1588.5,-188 1460.5,-188"/>
<text text-anchor="middle" x="1524.5" y="-288" font-family="Helvetica,sans-Serif" font-size="10.00">Mixer::SimplePlayer&lt; T &gt;</text>
<polyline fill="none" stroke="black" points="1460.5,-281 1588.5,-281 "/>
<text text-anchor="middle" x="1524.5" y="-269" font-family="Helvetica,sans-Serif" font-size="10.00"> </text>
<polyline fill="none" stroke="black" points="1460.5,-262 1588.5,-262 "/>
<text text-anchor="start" x="1468.5" y="-250" font-family="Helvetica,sans-Serif" font-size="10.00">+ get()</text>
<text text-anchor="start" x="1468.5" y="-239" font-family="Helvetica,sans-Serif" font-size="10.00">+ pause()</text>
<text text-anchor="start" x="1468.5" y="-228" font-family="Helvetica,sans-Serif" font-size="10.00">+ stop()</text>
<text text-anchor="start" x="1468.5" y="-217" font-family="Helvetica,sans-Serif" font-size="10.00">+ play()</text>
<text text-anchor="start" x="1468.5" y="-206" font-family="Helvetica,sans-Serif" font-size="10.00">+ attach()</text>
<text text-anchor="start" x="1468.5" y="-195" font-family="Helvetica,sans-Serif" font-size="10.00">+ SimplePlayer()</text>
</a>
</g>
</g>
<!-- Node0&#45;&gt;Node20 -->
<g id="edge20" class="edge"><title>Node0&#45;&gt;Node20</title>
<path fill="none" stroke="midnightblue" d="M959.914,-384.253C1091.43,-377.346 1366.28,-358.327 1451.5,-317 1460.47,-312.65 1469.01,-306.758 1476.87,-300.207"/>
<polygon fill="none" stroke="midnightblue" points="959.357,-380.777 949.55,-384.788 959.717,-387.768 959.357,-380.777"/>
</g>
<!-- Node21 -->
<g id="node22" class="node"><title>Node21</title>
<g id="a_node22"><a xlink:href="classOggFileLoader.html" target="_top" xlink:title="{OggFileLoader\&lt; T \&gt;\n||+ open()\l+ init()\l+ close()\l+ clear()\l+ get()\l+ getDecoder()\l+ OggFileLoader()\l+ ~OggFileLoader()\l+ init()\l}">
<polygon fill="none" stroke="black" points="1606.5,-171.5 1606.5,-316.5 1710.5,-316.5 1710.5,-171.5 1606.5,-171.5"/>
<text text-anchor="middle" x="1658.5" y="-304.5" font-family="Helvetica,sans-Serif" font-size="10.00">OggFileLoader&lt; T &gt;</text>
<polyline fill="none" stroke="black" points="1606.5,-297.5 1710.5,-297.5 "/>
<text text-anchor="middle" x="1658.5" y="-285.5" font-family="Helvetica,sans-Serif" font-size="10.00"> </text>
<polyline fill="none" stroke="black" points="1606.5,-278.5 1710.5,-278.5 "/>
<text text-anchor="start" x="1614.5" y="-266.5" font-family="Helvetica,sans-Serif" font-size="10.00">+ open()</text>
<text text-anchor="start" x="1614.5" y="-255.5" font-family="Helvetica,sans-Serif" font-size="10.00">+ init()</text>
<text text-anchor="start" x="1614.5" y="-244.5" font-family="Helvetica,sans-Serif" font-size="10.00">+ close()</text>
<text text-anchor="start" x="1614.5" y="-233.5" font-family="Helvetica,sans-Serif" font-size="10.00">+ clear()</text>
<text text-anchor="start" x="1614.5" y="-222.5" font-family="Helvetica,sans-Serif" font-size="10.00">+ get()</text>
<text text-anchor="start" x="1614.5" y="-211.5" font-family="Helvetica,sans-Serif" font-size="10.00">+ getDecoder()</text>
<text text-anchor="start" x="1614.5" y="-200.5" font-family="Helvetica,sans-Serif" font-size="10.00">+ OggFileLoader()</text>
<text text-anchor="start" x="1614.5" y="-189.5" font-family="Helvetica,sans-Serif" font-size="10.00">+ ~OggFileLoader()</text>
<text text-anchor="start" x="1614.5" y="-178.5" font-family="Helvetica,sans-Serif" font-size="10.00">+ init()</text>
</a>
</g>
</g>
<!-- Node0&#45;&gt;Node21 -->
<g id="edge21" class="edge"><title>Node0&#45;&gt;Node21</title>
<path fill="none" stroke="midnightblue" d="M959.764,-387.131C1116.94,-385.251 1488.07,-374.649 1597.5,-317 1600.54,-315.396 1603.5,-313.572 1606.36,-311.572"/>
<polygon fill="none" stroke="midnightblue" points="959.686,-383.632 949.726,-387.243 959.764,-390.631 959.686,-383.632"/>
</g>
<!-- Node4 -->
<g id="node5" class="node"><title>Node4</title>
<g id="a_node5"><a xlink:href="classDataFlow_1_1Applicator.html" target="_top" xlink:title="{DataFlow::Applicator\l\&lt; T, VolumeControl \&gt;\n||+ get()\l+ getMethod()\l+ attach()\l}">
<polygon fill="none" stroke="black" points="148,-11.5 148,-101.5 259,-101.5 259,-11.5 148,-11.5"/>
<text text-anchor="start" x="156" y="-89.5" font-family="Helvetica,sans-Serif" font-size="10.00">DataFlow::Applicator</text>
<text text-anchor="middle" x="203.5" y="-78.5" font-family="Helvetica,sans-Serif" font-size="10.00">&lt; T, VolumeControl &gt;</text>
<polyline fill="none" stroke="black" points="148,-71.5 259,-71.5 "/>
<text text-anchor="middle" x="203.5" y="-59.5" font-family="Helvetica,sans-Serif" font-size="10.00"> </text>
<polyline fill="none" stroke="black" points="148,-52.5 259,-52.5 "/>
<text text-anchor="start" x="156" y="-40.5" font-family="Helvetica,sans-Serif" font-size="10.00">+ get()</text>
<text text-anchor="start" x="156" y="-29.5" font-family="Helvetica,sans-Serif" font-size="10.00">+ getMethod()</text>
<text text-anchor="start" x="156" y="-18.5" font-family="Helvetica,sans-Serif" font-size="10.00">+ attach()</text>
</a>
</g>
</g>
<!-- Node3&#45;&gt;Node4 -->
<g id="edge4" class="edge"><title>Node3&#45;&gt;Node4</title>
<path fill="none" stroke="orange" d="M362.499,-197.169C353.295,-188.397 343.656,-179.348 334.5,-171 305.395,-144.465 297.267,-138.791 267.5,-113 263.276,-109.34 258.896,-105.544 254.499,-101.733"/>
<polygon fill="orange" stroke="orange" points="360.125,-199.742 369.77,-204.127 364.965,-194.684 360.125,-199.742"/>
<text text-anchor="middle" x="363.5" y="-139.5" font-family="Helvetica,sans-Serif" font-size="10.00"> &lt; T, VolumeControl &gt;</text>
</g>
<!-- Node6 -->
<g id="node7" class="node"><title>Node6</title>
<g id="a_node7"><a xlink:href="classDataFlow_1_1Consolidator.html" target="_top" xlink:title="{DataFlow::Consolidator\l\&lt; T, Consolidation::Accumulation \&gt;\n||+ attach()\l+ detach()\l+ getMethod()\l+ get()\l}">
<polygon fill="none" stroke="black" points="277,-6 277,-107 448,-107 448,-6 277,-6"/>
<text text-anchor="start" x="285" y="-95" font-family="Helvetica,sans-Serif" font-size="10.00">DataFlow::Consolidator</text>
<text text-anchor="middle" x="362.5" y="-84" font-family="Helvetica,sans-Serif" font-size="10.00">&lt; T, Consolidation::Accumulation &gt;</text>
<polyline fill="none" stroke="black" points="277,-77 448,-77 "/>
<text text-anchor="middle" x="362.5" y="-65" font-family="Helvetica,sans-Serif" font-size="10.00"> </text>
<polyline fill="none" stroke="black" points="277,-58 448,-58 "/>
<text text-anchor="start" x="285" y="-46" font-family="Helvetica,sans-Serif" font-size="10.00">+ attach()</text>
<text text-anchor="start" x="285" y="-35" font-family="Helvetica,sans-Serif" font-size="10.00">+ detach()</text>
<text text-anchor="start" x="285" y="-24" font-family="Helvetica,sans-Serif" font-size="10.00">+ getMethod()</text>
<text text-anchor="start" x="285" y="-13" font-family="Helvetica,sans-Serif" font-size="10.00">+ get()</text>
</a>
</g>
</g>
<!-- Node5&#45;&gt;Node6 -->
<g id="edge6" class="edge"><title>Node5&#45;&gt;Node6</title>
<path fill="none" stroke="orange" d="M509.551,-191.874C480.674,-165.487 445.591,-133.428 416.936,-107.243"/>
<polygon fill="orange" stroke="orange" points="507.391,-194.642 517.134,-198.804 512.113,-189.474 507.391,-194.642"/>
<text text-anchor="start" x="464.5" y="-145" font-family="Helvetica,sans-Serif" font-size="10.00"> &lt; T, Consolidation</text>
<text text-anchor="middle" x="506.5" y="-134" font-family="Helvetica,sans-Serif" font-size="10.00">::Accumulation &gt;</text>
</g>
<!-- Node8 -->
<g id="node9" class="node"><title>Node8</title>
<g id="a_node9"><a xlink:href="classDataFlow_1_1QueueBuffer.html" target="_top" xlink:title="{DataFlow::QueueBuffer\&lt; T \&gt;\n||+ get()\l+ get()\l+ put()\l+ put()\l+ clear()\l+ size()\l}">
<polygon fill="none" stroke="black" points="466,-0.5 466,-112.5 609,-112.5 609,-0.5 466,-0.5"/>
<text text-anchor="middle" x="537.5" y="-100.5" font-family="Helvetica,sans-Serif" font-size="10.00">DataFlow::QueueBuffer&lt; T &gt;</text>
<polyline fill="none" stroke="black" points="466,-93.5 609,-93.5 "/>
<text text-anchor="middle" x="537.5" y="-81.5" font-family="Helvetica,sans-Serif" font-size="10.00"> </text>
<polyline fill="none" stroke="black" points="466,-74.5 609,-74.5 "/>
<text text-anchor="start" x="474" y="-62.5" font-family="Helvetica,sans-Serif" font-size="10.00">+ get()</text>
<text text-anchor="start" x="474" y="-51.5" font-family="Helvetica,sans-Serif" font-size="10.00">+ get()</text>
<text text-anchor="start" x="474" y="-40.5" font-family="Helvetica,sans-Serif" font-size="10.00">+ put()</text>
<text text-anchor="start" x="474" y="-29.5" font-family="Helvetica,sans-Serif" font-size="10.00">+ put()</text>
<text text-anchor="start" x="474" y="-18.5" font-family="Helvetica,sans-Serif" font-size="10.00">+ clear()</text>
<text text-anchor="start" x="474" y="-7.5" font-family="Helvetica,sans-Serif" font-size="10.00">+ size()</text>
</a>
</g>
</g>
<!-- Node7&#45;&gt;Node8 -->
<g id="edge8" class="edge"><title>Node7&#45;&gt;Node8</title>
<path fill="none" stroke="midnightblue" d="M670.1,-196.996C661.933,-188.353 653.46,-179.396 645.5,-171 627.442,-151.951 607.652,-131.136 590.001,-112.592"/>
<polygon fill="none" stroke="midnightblue" points="667.766,-199.622 677.178,-204.488 672.855,-194.815 667.766,-199.622"/>
</g>
<!-- Node9 -->
<g id="node10" class="node"><title>Node9</title>
<g id="a_node10"><a xlink:href="classDataFlow_1_1RepeatingBuffer.html" target="_top" xlink:title="{DataFlow::RepeatingBuffer\&lt; T \&gt;\n||+ get()\l+ put()\l+ clear()\l+ size()\l+ RepeatingBuffer()\l+ RepeatingBuffer()\l}">
<polygon fill="none" stroke="black" points="627,-0.5 627,-112.5 786,-112.5 786,-0.5 627,-0.5"/>
<text text-anchor="middle" x="706.5" y="-100.5" font-family="Helvetica,sans-Serif" font-size="10.00">DataFlow::RepeatingBuffer&lt; T &gt;</text>
<polyline fill="none" stroke="black" points="627,-93.5 786,-93.5 "/>
<text text-anchor="middle" x="706.5" y="-81.5" font-family="Helvetica,sans-Serif" font-size="10.00"> </text>
<polyline fill="none" stroke="black" points="627,-74.5 786,-74.5 "/>
<text text-anchor="start" x="635" y="-62.5" font-family="Helvetica,sans-Serif" font-size="10.00">+ get()</text>
<text text-anchor="start" x="635" y="-51.5" font-family="Helvetica,sans-Serif" font-size="10.00">+ put()</text>
<text text-anchor="start" x="635" y="-40.5" font-family="Helvetica,sans-Serif" font-size="10.00">+ clear()</text>
<text text-anchor="start" x="635" y="-29.5" font-family="Helvetica,sans-Serif" font-size="10.00">+ size()</text>
<text text-anchor="start" x="635" y="-18.5" font-family="Helvetica,sans-Serif" font-size="10.00">+ RepeatingBuffer()</text>
<text text-anchor="start" x="635" y="-7.5" font-family="Helvetica,sans-Serif" font-size="10.00">+ RepeatingBuffer()</text>
</a>
</g>
</g>
<!-- Node7&#45;&gt;Node9 -->
<g id="edge9" class="edge"><title>Node7&#45;&gt;Node9</title>
<path fill="none" stroke="midnightblue" d="M711.655,-194.095C710.709,-169.027 709.553,-138.408 708.576,-112.519"/>
<polygon fill="none" stroke="midnightblue" points="708.158,-194.252 712.033,-204.113 715.153,-193.988 708.158,-194.252"/>
</g>
<!-- Node12 -->
<g id="node13" class="node"><title>Node12</title>
<g id="a_node13"><a xlink:href="classMixer_1_1CheapSawtoothGenerator.html" target="_top" xlink:title="{Mixer::CheapSawtoothGenerator\&lt; T \&gt;\n||+ get()\l+ getFrequency()\l+ setFrequency()\l+ setFrequency()\l+ CheapSawtoothGenerator()\l}">
<polygon fill="none" stroke="black" points="804,-6 804,-107 987,-107 987,-6 804,-6"/>
<text text-anchor="middle" x="895.5" y="-95" font-family="Helvetica,sans-Serif" font-size="10.00">Mixer::CheapSawtoothGenerator&lt; T &gt;</text>
<polyline fill="none" stroke="black" points="804,-88 987,-88 "/>
<text text-anchor="middle" x="895.5" y="-76" font-family="Helvetica,sans-Serif" font-size="10.00"> </text>
<polyline fill="none" stroke="black" points="804,-69 987,-69 "/>
<text text-anchor="start" x="812" y="-57" font-family="Helvetica,sans-Serif" font-size="10.00">+ get()</text>
<text text-anchor="start" x="812" y="-46" font-family="Helvetica,sans-Serif" font-size="10.00">+ getFrequency()</text>
<text text-anchor="start" x="812" y="-35" font-family="Helvetica,sans-Serif" font-size="10.00">+ setFrequency()</text>
<text text-anchor="start" x="812" y="-24" font-family="Helvetica,sans-Serif" font-size="10.00">+ setFrequency()</text>
<text text-anchor="start" x="812" y="-13" font-family="Helvetica,sans-Serif" font-size="10.00">+ CheapSawtoothGenerator()</text>
</a>
</g>
</g>
<!-- Node11&#45;&gt;Node12 -->
<g id="edge12" class="edge"><title>Node11&#45;&gt;Node12</title>
<path fill="none" stroke="midnightblue" d="M1032.55,-191.301C1005.59,-164.983 972.975,-133.14 946.326,-107.122"/>
<polygon fill="none" stroke="midnightblue" points="1030.39,-194.087 1039.99,-198.568 1035.28,-189.078 1030.39,-194.087"/>
</g>
<!-- Node13 -->
<g id="node14" class="node"><title>Node13</title>
<g id="a_node14"><a xlink:href="classMixer_1_1CheapSquareGenerator.html" target="_top" xlink:title="{Mixer::CheapSquareGenerator\&lt; T \&gt;\n||+ get()\l+ getFrequency()\l+ setFrequency()\l+ setFrequency()\l+ CheapSquareGenerator()\l}">
<polygon fill="none" stroke="black" points="1005,-6 1005,-107 1178,-107 1178,-6 1005,-6"/>
<text text-anchor="middle" x="1091.5" y="-95" font-family="Helvetica,sans-Serif" font-size="10.00">Mixer::CheapSquareGenerator&lt; T &gt;</text>
<polyline fill="none" stroke="black" points="1005,-88 1178,-88 "/>
<text text-anchor="middle" x="1091.5" y="-76" font-family="Helvetica,sans-Serif" font-size="10.00"> </text>
<polyline fill="none" stroke="black" points="1005,-69 1178,-69 "/>
<text text-anchor="start" x="1013" y="-57" font-family="Helvetica,sans-Serif" font-size="10.00">+ get()</text>
<text text-anchor="start" x="1013" y="-46" font-family="Helvetica,sans-Serif" font-size="10.00">+ getFrequency()</text>
<text text-anchor="start" x="1013" y="-35" font-family="Helvetica,sans-Serif" font-size="10.00">+ setFrequency()</text>
<text text-anchor="start" x="1013" y="-24" font-family="Helvetica,sans-Serif" font-size="10.00">+ setFrequency()</text>
<text text-anchor="start" x="1013" y="-13" font-family="Helvetica,sans-Serif" font-size="10.00">+ CheapSquareGenerator()</text>
</a>
</g>
</g>
<!-- Node11&#45;&gt;Node13 -->
<g id="edge13" class="edge"><title>Node11&#45;&gt;Node13</title>
<path fill="none" stroke="midnightblue" d="M1087.27,-188.24C1088.1,-162.542 1089.09,-132.139 1089.89,-107.122"/>
<polygon fill="none" stroke="midnightblue" points="1083.76,-188.46 1086.94,-198.568 1090.76,-188.687 1083.76,-188.46"/>
</g>
<!-- Node14 -->
<g id="node15" class="node"><title>Node14</title>
<g id="a_node15"><a xlink:href="classMixer_1_1SawtoothGenerator.html" target="_top" xlink:title="{Mixer::SawtoothGenerator\&lt; T \&gt;\n||+ get()\l+ getFrequency()\l+ setFrequency()\l+ setFrequency()\l+ SawtoothGenerator()\l}">
<polygon fill="none" stroke="black" points="1196,-6 1196,-107 1351,-107 1351,-6 1196,-6"/>
<text text-anchor="middle" x="1273.5" y="-95" font-family="Helvetica,sans-Serif" font-size="10.00">Mixer::SawtoothGenerator&lt; T &gt;</text>
<polyline fill="none" stroke="black" points="1196,-88 1351,-88 "/>
<text text-anchor="middle" x="1273.5" y="-76" font-family="Helvetica,sans-Serif" font-size="10.00"> </text>
<polyline fill="none" stroke="black" points="1196,-69 1351,-69 "/>
<text text-anchor="start" x="1204" y="-57" font-family="Helvetica,sans-Serif" font-size="10.00">+ get()</text>
<text text-anchor="start" x="1204" y="-46" font-family="Helvetica,sans-Serif" font-size="10.00">+ getFrequency()</text>
<text text-anchor="start" x="1204" y="-35" font-family="Helvetica,sans-Serif" font-size="10.00">+ setFrequency()</text>
<text text-anchor="start" x="1204" y="-24" font-family="Helvetica,sans-Serif" font-size="10.00">+ setFrequency()</text>
<text text-anchor="start" x="1204" y="-13" font-family="Helvetica,sans-Serif" font-size="10.00">+ SawtoothGenerator()</text>
</a>
</g>
</g>
<!-- Node11&#45;&gt;Node14 -->
<g id="edge14" class="edge"><title>Node11&#45;&gt;Node14</title>
<path fill="none" stroke="midnightblue" d="M1137.9,-191.301C1164.57,-164.983 1196.84,-133.14 1223.21,-107.122"/>
<polygon fill="none" stroke="midnightblue" points="1135.19,-189.053 1130.53,-198.568 1140.11,-194.036 1135.19,-189.053"/>
</g>
<!-- Node15 -->
<g id="node16" class="node"><title>Node15</title>
<g id="a_node16"><a xlink:href="classMixer_1_1SineGenerator.html" target="_top" xlink:title="{Mixer::SineGenerator\&lt; T \&gt;\n||+ get()\l+ getFrequency()\l+ setFrequency()\l+ setFrequency()\l+ SineGenerator()\l}">
<polygon fill="none" stroke="black" points="1369,-6 1369,-107 1502,-107 1502,-6 1369,-6"/>
<text text-anchor="middle" x="1435.5" y="-95" font-family="Helvetica,sans-Serif" font-size="10.00">Mixer::SineGenerator&lt; T &gt;</text>
<polyline fill="none" stroke="black" points="1369,-88 1502,-88 "/>
<text text-anchor="middle" x="1435.5" y="-76" font-family="Helvetica,sans-Serif" font-size="10.00"> </text>
<polyline fill="none" stroke="black" points="1369,-69 1502,-69 "/>
<text text-anchor="start" x="1377" y="-57" font-family="Helvetica,sans-Serif" font-size="10.00">+ get()</text>
<text text-anchor="start" x="1377" y="-46" font-family="Helvetica,sans-Serif" font-size="10.00">+ getFrequency()</text>
<text text-anchor="start" x="1377" y="-35" font-family="Helvetica,sans-Serif" font-size="10.00">+ setFrequency()</text>
<text text-anchor="start" x="1377" y="-24" font-family="Helvetica,sans-Serif" font-size="10.00">+ setFrequency()</text>
<text text-anchor="start" x="1377" y="-13" font-family="Helvetica,sans-Serif" font-size="10.00">+ SineGenerator()</text>
</a>
</g>
</g>
<!-- Node11&#45;&gt;Node15 -->
<g id="edge15" class="edge"><title>Node11&#45;&gt;Node15</title>
<path fill="none" stroke="midnightblue" d="M1142.1,-192.624C1152.73,-184.67 1164.1,-177.079 1175.5,-171 1251.15,-130.643 1282.98,-151.684 1359.5,-113 1363.15,-111.157 1366.8,-109.145 1370.44,-107.014"/>
<polygon fill="none" stroke="midnightblue" points="1139.92,-189.887 1134.12,-198.758 1144.18,-195.436 1139.92,-189.887"/>
</g>
<!-- Node16 -->
<g id="node17" class="node"><title>Node16</title>
<g id="a_node17"><a xlink:href="classMixer_1_1SquareGenerator.html" target="_top" xlink:title="{Mixer::SquareGenerator\&lt; T \&gt;\n||+ get()\l+ getFrequency()\l+ setFrequency()\l+ setFrequency()\l+ SquareGenerator()\l}">
<polygon fill="none" stroke="black" points="1520.5,-6 1520.5,-107 1664.5,-107 1664.5,-6 1520.5,-6"/>
<text text-anchor="middle" x="1592.5" y="-95" font-family="Helvetica,sans-Serif" font-size="10.00">Mixer::SquareGenerator&lt; T &gt;</text>
<polyline fill="none" stroke="black" points="1520.5,-88 1664.5,-88 "/>
<text text-anchor="middle" x="1592.5" y="-76" font-family="Helvetica,sans-Serif" font-size="10.00"> </text>
<polyline fill="none" stroke="black" points="1520.5,-69 1664.5,-69 "/>
<text text-anchor="start" x="1528.5" y="-57" font-family="Helvetica,sans-Serif" font-size="10.00">+ get()</text>
<text text-anchor="start" x="1528.5" y="-46" font-family="Helvetica,sans-Serif" font-size="10.00">+ getFrequency()</text>
<text text-anchor="start" x="1528.5" y="-35" font-family="Helvetica,sans-Serif" font-size="10.00">+ setFrequency()</text>
<text text-anchor="start" x="1528.5" y="-24" font-family="Helvetica,sans-Serif" font-size="10.00">+ setFrequency()</text>
<text text-anchor="start" x="1528.5" y="-13" font-family="Helvetica,sans-Serif" font-size="10.00">+ SquareGenerator()</text>
</a>
</g>
</g>
<!-- Node11&#45;&gt;Node16 -->
<g id="edge16" class="edge"><title>Node11&#45;&gt;Node16</title>
<path fill="none" stroke="midnightblue" d="M1139.54,-192.693C1150.77,-184.346 1163.01,-176.599 1175.5,-171 1219.1,-151.451 1234.41,-161.111 1281.5,-153 1383.32,-135.463 1414.7,-151.703 1510.5,-113 1514.8,-111.261 1519.11,-109.272 1523.37,-107.104"/>
<polygon fill="none" stroke="midnightblue" points="1137.33,-189.977 1131.55,-198.856 1141.6,-195.52 1137.33,-189.977"/>
</g>
<!-- Node17 -->
<g id="node18" class="node"><title>Node17</title>
<g id="a_node18"><a xlink:href="classMixer_1_1TriangleGenerator.html" target="_top" xlink:title="{Mixer::TriangleGenerator\&lt; T \&gt;\n||+ get()\l+ getFrequency()\l+ setFrequency()\l+ setFrequency()\l+ TriangleGenerator()\l+ TriangleGenerator()\l}">
<polygon fill="none" stroke="black" points="1682.5,-0.5 1682.5,-112.5 1830.5,-112.5 1830.5,-0.5 1682.5,-0.5"/>
<text text-anchor="middle" x="1756.5" y="-100.5" font-family="Helvetica,sans-Serif" font-size="10.00">Mixer::TriangleGenerator&lt; T &gt;</text>
<polyline fill="none" stroke="black" points="1682.5,-93.5 1830.5,-93.5 "/>
<text text-anchor="middle" x="1756.5" y="-81.5" font-family="Helvetica,sans-Serif" font-size="10.00"> </text>
<polyline fill="none" stroke="black" points="1682.5,-74.5 1830.5,-74.5 "/>
<text text-anchor="start" x="1690.5" y="-62.5" font-family="Helvetica,sans-Serif" font-size="10.00">+ get()</text>
<text text-anchor="start" x="1690.5" y="-51.5" font-family="Helvetica,sans-Serif" font-size="10.00">+ getFrequency()</text>
<text text-anchor="start" x="1690.5" y="-40.5" font-family="Helvetica,sans-Serif" font-size="10.00">+ setFrequency()</text>
<text text-anchor="start" x="1690.5" y="-29.5" font-family="Helvetica,sans-Serif" font-size="10.00">+ setFrequency()</text>
<text text-anchor="start" x="1690.5" y="-18.5" font-family="Helvetica,sans-Serif" font-size="10.00">+ TriangleGenerator()</text>
<text text-anchor="start" x="1690.5" y="-7.5" font-family="Helvetica,sans-Serif" font-size="10.00">+ TriangleGenerator()</text>
</a>
</g>
</g>
<!-- Node11&#45;&gt;Node17 -->
<g id="edge17" class="edge"><title>Node11&#45;&gt;Node17</title>
<path fill="none" stroke="midnightblue" d="M1138.39,-192.452C1149.87,-183.949 1162.49,-176.206 1175.5,-171 1218.37,-153.842 1336.61,-158.145 1382.5,-153 1512.24,-138.452 1551.46,-159.355 1673.5,-113 1676.42,-111.892 1679.33,-110.666 1682.24,-109.343"/>
<polygon fill="none" stroke="midnightblue" points="1136.02,-189.865 1130.25,-198.753 1140.3,-195.401 1136.02,-189.865"/>
</g>
</g>
</svg>
        <g id="navigator" transform="translate(0 0)" fill="#404254">
                <rect fill="#f2f5e9" fill-opacity="0.5" stroke="#606060" stroke-width=".5" x="0" y="0" width="60" height="60"/>
                <use id="zoomplus" xlink:href="#zoomPlus" x="17" y="9" onmousedown="handleZoom(evt,'in')"/>
                <use id="zoomminus" xlink:href="#zoomMin" x="42" y="9" onmousedown="handleZoom(evt,'out')"/>
                <use id="reset" xlink:href="#resetDef" x="30" y="36" onmousedown="handleReset()"/>
                <g id="arrowUp" xlink:href="#dirArrow" transform="translate(30 24)" onmousedown="handlePan(0,-1)">
                  <use xlink:href="#rim" fill="#404040">
                        <set attributeName="fill" to="#808080" begin="arrowUp.mouseover" end="arrowUp.mouseout"/>
                  </use>
                  <path fill="none" stroke="white" stroke-width="1.5" d="M0,-3.0v7 M-2.5,-0.5L0,-3.0L2.5,-0.5"/>
                </g>
                <g id="arrowRight" xlink:href="#dirArrow" transform="rotate(90) translate(36 -43)" onmousedown="handlePan(1,0)">
                  <use xlink:href="#rim" fill="#404040">
                        <set attributeName="fill" to="#808080" begin="arrowRight.mouseover" end="arrowRight.mouseout"/>
                  </use>
                  <path fill="none" stroke="white" stroke-width="1.5" d="M0,-3.0v7 M-2.5,-0.5L0,-3.0L2.5,-0.5"/>
                </g>
                <g id="arrowDown" xlink:href="#dirArrow" transform="rotate(180) translate(-30 -48)" onmousedown="handlePan(0,1)">
                  <use xlink:href="#rim" fill="#404040">
                        <set attributeName="fill" to="#808080" begin="arrowDown.mouseover" end="arrowDown.mouseout"/>
                  </use>
                  <path fill="none" stroke="white" stroke-width="1.5" d="M0,-3.0v7 M-2.5,-0.5L0,-3.0L2.5,-0.5"/>
                </g>
                <g id="arrowLeft" xlink:href="#dirArrow" transform="rotate(270) translate(-36 17)" onmousedown="handlePan(-1,0)">
                  <use xlink:href="#rim" fill="#404040">
                        <set attributeName="fill" to="#808080" begin="arrowLeft.mouseover" end="arrowLeft.mouseout"/>
                  </use>
                  <path fill="none" stroke="white" stroke-width="1.5" d="M0,-3.0v7 M-2.5,-0.5L0,-3.0L2.5,-0.5"/>
                </g>
        </g>
        <svg viewBox="0 0 15 15" width="100%" height="30px" preserveAspectRatio="xMaxYMin meet">
         <g id="arrow_out" transform="scale(0.3 0.3)">
          <a xlink:href="classDataFlow_1_1iSource__inherit__graph_org.svg" target="_base">
           <rect id="button" ry="5" rx="5" y="6" x="6" height="38" width="38"
                fill="#f2f5e9" fill-opacity="0.5" stroke="#606060" stroke-width="1.0"/>
           <path id="arrow"
             d="M 11.500037,31.436501 C 11.940474,20.09759 22.043105,11.32322 32.158766,21.979434 L 37.068811,17.246167 C 37.068811,17.246167 37.088388,32 37.088388,32 L 22.160133,31.978069 C 22.160133,31.978069 26.997745,27.140456 26.997745,27.140456 C 18.528582,18.264221 13.291696,25.230495 11.500037,31.436501 z"
             style="fill:#404040;"/>
          </a>
         </g>
        </svg>
</svg>
