<?xml version="1.0" encoding="UTF-8" standalone="no"?>
<!DOCTYPE svg PUBLIC "-//W3C//DTD SVG 1.1//EN"
 "http://www.w3.org/Graphics/SVG/1.1/DTD/svg11.dtd">
<!-- Generated by graphviz version 2.38.0 (20140413.2041)
 -->
<!-- Title: DataFlow::iSource&lt; T &gt; Pages: 1 -->
<svg width="1719pt" height="259pt"
 viewBox="0.00 0.00 1718.50 259.00" xmlns="http://www.w3.org/2000/svg" xmlns:xlink="http://www.w3.org/1999/xlink">
<g id="graph0" class="graph" transform="scale(1 1) rotate(0) translate(4 255)">
<title>DataFlow::iSource&lt; T &gt;</title>
<!-- Node0 -->
<g id="node1" class="node"><title>Node0</title>
<polygon fill="#bfbfbf" stroke="black" points="827.5,-182.5 827.5,-250.5 949.5,-250.5 949.5,-182.5 827.5,-182.5"/>
<text text-anchor="middle" x="888.5" y="-238.5" font-family="Helvetica,sans-Serif" font-size="10.00">DataFlow::iSource&lt; T &gt;</text>
<polyline fill="none" stroke="black" points="827.5,-231.5 949.5,-231.5 "/>
<text text-anchor="middle" x="888.5" y="-219.5" font-family="Helvetica,sans-Serif" font-size="10.00"> </text>
<polyline fill="none" stroke="black" points="827.5,-212.5 949.5,-212.5 "/>
<text text-anchor="start" x="835.5" y="-200.5" font-family="Helvetica,sans-Serif" font-size="10.00">+ get()</text>
<text text-anchor="start" x="835.5" y="-189.5" font-family="Helvetica,sans-Serif" font-size="10.00">+ ~iSource()</text>
</g>
<!-- Node1 -->
<g id="node2" class="node"><title>Node1</title>
<g id="a_node2"><a xlink:href="classDataFlow_1_1Applicator.html" target="_top" xlink:title="{Applicator\&lt; T, VolumeControl \&gt;\n||+ get()\l+ getMethod()\l+ attach()\l}">
<polygon fill="none" stroke="black" points="0,-33.5 0,-112.5 155,-112.5 155,-33.5 0,-33.5"/>
<text text-anchor="middle" x="77.5" y="-100.5" font-family="Helvetica,sans-Serif" font-size="10.00">Applicator&lt; T, VolumeControl &gt;</text>
<polyline fill="none" stroke="black" points="0,-93.5 155,-93.5 "/>
<text text-anchor="middle" x="77.5" y="-81.5" font-family="Helvetica,sans-Serif" font-size="10.00"> </text>
<polyline fill="none" stroke="black" points="0,-74.5 155,-74.5 "/>
<text text-anchor="start" x="8" y="-62.5" font-family="Helvetica,sans-Serif" font-size="10.00">+ get()</text>
<text text-anchor="start" x="8" y="-51.5" font-family="Helvetica,sans-Serif" font-size="10.00">+ getMethod()</text>
<text text-anchor="start" x="8" y="-40.5" font-family="Helvetica,sans-Serif" font-size="10.00">+ attach()</text>
</a>
</g>
</g>
<!-- Node0&#45;&gt;Node1 -->
<g id="edge1" class="edge"><title>Node0&#45;&gt;Node1</title>
<path fill="none" stroke="midnightblue" d="M817.3,-213.951C658.738,-209.655 281.325,-194.503 164.5,-146 146.212,-138.407 128.812,-125.598 114.447,-112.871"/>
<polygon fill="none" stroke="midnightblue" points="817.334,-217.453 827.423,-214.219 817.519,-210.456 817.334,-217.453"/>
</g>
<!-- Node2 -->
<g id="node3" class="node"><title>Node2</title>
<g id="a_node3"><a xlink:href="classDataFlow_1_1Consolidator.html" target="_top" xlink:title="{Consolidator\&lt; T, Consolidation\l::Accumulation \&gt;\n||+ attach()\l+ detach()\l+ getMethod()\l+ get()\l}">
<polygon fill="none" stroke="black" points="173.5,-22.5 173.5,-123.5 325.5,-123.5 325.5,-22.5 173.5,-22.5"/>
<text text-anchor="start" x="181.5" y="-111.5" font-family="Helvetica,sans-Serif" font-size="10.00">Consolidator&lt; T, Consolidation</text>
<text text-anchor="middle" x="249.5" y="-100.5" font-family="Helvetica,sans-Serif" font-size="10.00">::Accumulation &gt;</text>
<polyline fill="none" stroke="black" points="173.5,-93.5 325.5,-93.5 "/>
<text text-anchor="middle" x="249.5" y="-81.5" font-family="Helvetica,sans-Serif" font-size="10.00"> </text>
<polyline fill="none" stroke="black" points="173.5,-74.5 325.5,-74.5 "/>
<text text-anchor="start" x="181.5" y="-62.5" font-family="Helvetica,sans-Serif" font-size="10.00">+ attach()</text>
<text text-anchor="start" x="181.5" y="-51.5" font-family="Helvetica,sans-Serif" font-size="10.00">+ detach()</text>
<text text-anchor="start" x="181.5" y="-40.5" font-family="Helvetica,sans-Serif" font-size="10.00">+ getMethod()</text>
<text text-anchor="start" x="181.5" y="-29.5" font-family="Helvetica,sans-Serif" font-size="10.00">+ get()</text>
</a>
</g>
</g>
<!-- Node0&#45;&gt;Node2 -->
<g id="edge2" class="edge"><title>Node0&#45;&gt;Node2</title>
<path fill="none" stroke="midnightblue" d="M817.027,-211.602C687.501,-203.709 419.509,-183.331 334.5,-146 321.928,-140.479 309.791,-132.482 298.815,-123.808"/>
<polygon fill="none" stroke="midnightblue" points="817.047,-215.11 827.24,-212.216 817.468,-208.122 817.047,-215.11"/>
</g>
<!-- Node3 -->
<g id="node4" class="node"><title>Node3</title>
<g id="a_node4"><a xlink:href="classDataFlow_1_1Applicator.html" target="_top" xlink:title="{DataFlow::Applicator\&lt; T \&gt;\n||+ get()\l+ getMethod()\l+ attach()\l}">
<polygon fill="none" stroke="red" points="343.5,-33.5 343.5,-112.5 475.5,-112.5 475.5,-33.5 343.5,-33.5"/>
<text text-anchor="middle" x="409.5" y="-100.5" font-family="Helvetica,sans-Serif" font-size="10.00">DataFlow::Applicator&lt; T &gt;</text>
<polyline fill="none" stroke="red" points="343.5,-93.5 475.5,-93.5 "/>
<text text-anchor="middle" x="409.5" y="-81.5" font-family="Helvetica,sans-Serif" font-size="10.00"> </text>
<polyline fill="none" stroke="red" points="343.5,-74.5 475.5,-74.5 "/>
<text text-anchor="start" x="351.5" y="-62.5" font-family="Helvetica,sans-Serif" font-size="10.00">+ get()</text>
<text text-anchor="start" x="351.5" y="-51.5" font-family="Helvetica,sans-Serif" font-size="10.00">+ getMethod()</text>
<text text-anchor="start" x="351.5" y="-40.5" font-family="Helvetica,sans-Serif" font-size="10.00">+ attach()</text>
</a>
</g>
</g>
<!-- Node0&#45;&gt;Node3 -->
<g id="edge3" class="edge"><title>Node0&#45;&gt;Node3</title>
<path fill="none" stroke="midnightblue" d="M817.006,-215.649C733.056,-213.099 591.678,-200.13 484.5,-146 468.389,-137.863 453.42,-125.097 441.16,-112.559"/>
<polygon fill="none" stroke="midnightblue" points="817.116,-219.153 827.204,-215.916 817.299,-212.156 817.116,-219.153"/>
</g>
<!-- Node5 -->
<g id="node5" class="node"><title>Node5</title>
<g id="a_node5"><a xlink:href="classDataFlow_1_1Consolidator.html" target="_top" xlink:title="{DataFlow::Consolidator\&lt; T \&gt;\n||+ attach()\l+ detach()\l+ getMethod()\l+ get()\l}">
<polygon fill="none" stroke="red" points="494,-28 494,-118 637,-118 637,-28 494,-28"/>
<text text-anchor="middle" x="565.5" y="-106" font-family="Helvetica,sans-Serif" font-size="10.00">DataFlow::Consolidator&lt; T &gt;</text>
<polyline fill="none" stroke="red" points="494,-99 637,-99 "/>
<text text-anchor="middle" x="565.5" y="-87" font-family="Helvetica,sans-Serif" font-size="10.00"> </text>
<polyline fill="none" stroke="red" points="494,-80 637,-80 "/>
<text text-anchor="start" x="502" y="-68" font-family="Helvetica,sans-Serif" font-size="10.00">+ attach()</text>
<text text-anchor="start" x="502" y="-57" font-family="Helvetica,sans-Serif" font-size="10.00">+ detach()</text>
<text text-anchor="start" x="502" y="-46" font-family="Helvetica,sans-Serif" font-size="10.00">+ getMethod()</text>
<text text-anchor="start" x="502" y="-35" font-family="Helvetica,sans-Serif" font-size="10.00">+ get()</text>
</a>
</g>
</g>
<!-- Node0&#45;&gt;Node5 -->
<g id="edge4" class="edge"><title>Node0&#45;&gt;Node5</title>
<path fill="none" stroke="midnightblue" d="M817.559,-204.037C767.256,-193.854 699.392,-175.841 645.5,-146 632.096,-138.578 619.07,-128.523 607.557,-118.284"/>
<polygon fill="none" stroke="midnightblue" points="816.889,-207.473 827.377,-205.971 818.242,-200.604 816.889,-207.473"/>
</g>
<!-- Node7 -->
<g id="node6" class="node"><title>Node7</title>
<g id="a_node6"><a xlink:href="classDataFlow_1_1iBuffer.html" target="_top" xlink:title="{DataFlow::iBuffer\&lt; T \&gt;\n||+ put()\l+ size()\l+ ~iBuffer()\l}">
<polygon fill="none" stroke="red" points="655,-33.5 655,-112.5 772,-112.5 772,-33.5 655,-33.5"/>
<text text-anchor="middle" x="713.5" y="-100.5" font-family="Helvetica,sans-Serif" font-size="10.00">DataFlow::iBuffer&lt; T &gt;</text>
<polyline fill="none" stroke="red" points="655,-93.5 772,-93.5 "/>
<text text-anchor="middle" x="713.5" y="-81.5" font-family="Helvetica,sans-Serif" font-size="10.00"> </text>
<polyline fill="none" stroke="red" points="655,-74.5 772,-74.5 "/>
<text text-anchor="start" x="663" y="-62.5" font-family="Helvetica,sans-Serif" font-size="10.00">+ put()</text>
<text text-anchor="start" x="663" y="-51.5" font-family="Helvetica,sans-Serif" font-size="10.00">+ size()</text>
<text text-anchor="start" x="663" y="-40.5" font-family="Helvetica,sans-Serif" font-size="10.00">+ ~iBuffer()</text>
</a>
</g>
</g>
<!-- Node0&#45;&gt;Node7 -->
<g id="edge5" class="edge"><title>Node0&#45;&gt;Node7</title>
<path fill="none" stroke="midnightblue" d="M822.722,-176.891C808.324,-167.434 793.51,-156.882 780.5,-146 768.582,-136.031 756.67,-124.051 746.267,-112.75"/>
<polygon fill="none" stroke="midnightblue" points="820.835,-179.839 831.134,-182.326 824.635,-173.959 820.835,-179.839"/>
</g>
<!-- Node10 -->
<g id="node7" class="node"><title>Node10</title>
<g id="a_node7"><a xlink:href="classMixer_1_1ComplexWaveformGenerator.html" target="_top" xlink:title="{Mixer::ComplexWaveformGenerator\&lt; T \&gt;\n||+ get()\l+ getComponent()\l+ setComponent()\l+ setComponent()\l+ ComplexWaveformGenerator()\l}">
<polygon fill="none" stroke="black" points="790,-22.5 790,-123.5 987,-123.5 987,-22.5 790,-22.5"/>
<text text-anchor="middle" x="888.5" y="-111.5" font-family="Helvetica,sans-Serif" font-size="10.00">Mixer::ComplexWaveformGenerator&lt; T &gt;</text>
<polyline fill="none" stroke="black" points="790,-104.5 987,-104.5 "/>
<text text-anchor="middle" x="888.5" y="-92.5" font-family="Helvetica,sans-Serif" font-size="10.00"> </text>
<polyline fill="none" stroke="black" points="790,-85.5 987,-85.5 "/>
<text text-anchor="start" x="798" y="-73.5" font-family="Helvetica,sans-Serif" font-size="10.00">+ get()</text>
<text text-anchor="start" x="798" y="-62.5" font-family="Helvetica,sans-Serif" font-size="10.00">+ getComponent()</text>
<text text-anchor="start" x="798" y="-51.5" font-family="Helvetica,sans-Serif" font-size="10.00">+ setComponent()</text>
<text text-anchor="start" x="798" y="-40.5" font-family="Helvetica,sans-Serif" font-size="10.00">+ setComponent()</text>
<text text-anchor="start" x="798" y="-29.5" font-family="Helvetica,sans-Serif" font-size="10.00">+ ComplexWaveformGenerator()</text>
</a>
</g>
</g>
<!-- Node0&#45;&gt;Node10 -->
<g id="edge6" class="edge"><title>Node0&#45;&gt;Node10</title>
<path fill="none" stroke="midnightblue" d="M888.5,-172.081C888.5,-156.754 888.5,-139.406 888.5,-123.606"/>
<polygon fill="none" stroke="midnightblue" points="885,-172.325 888.5,-182.325 892,-172.325 885,-172.325"/>
</g>
<!-- Node11 -->
<g id="node8" class="node"><title>Node11</title>
<g id="a_node8"><a xlink:href="classMixer_1_1iWaveformGenerator.html" target="_top" xlink:title="{Mixer::iWaveformGenerator\&lt; T \&gt;\n||+ getFrequency()\l+ setFrequency()\l+ setFrequency()\l+ ~iWaveformGenerator()\l}">
<polygon fill="none" stroke="red" points="1005,-28 1005,-118 1166,-118 1166,-28 1005,-28"/>
<text text-anchor="middle" x="1085.5" y="-106" font-family="Helvetica,sans-Serif" font-size="10.00">Mixer::iWaveformGenerator&lt; T &gt;</text>
<polyline fill="none" stroke="red" points="1005,-99 1166,-99 "/>
<text text-anchor="middle" x="1085.5" y="-87" font-family="Helvetica,sans-Serif" font-size="10.00"> </text>
<polyline fill="none" stroke="red" points="1005,-80 1166,-80 "/>
<text text-anchor="start" x="1013" y="-68" font-family="Helvetica,sans-Serif" font-size="10.00">+ getFrequency()</text>
<text text-anchor="start" x="1013" y="-57" font-family="Helvetica,sans-Serif" font-size="10.00">+ setFrequency()</text>
<text text-anchor="start" x="1013" y="-46" font-family="Helvetica,sans-Serif" font-size="10.00">+ setFrequency()</text>
<text text-anchor="start" x="1013" y="-35" font-family="Helvetica,sans-Serif" font-size="10.00">+ ~iWaveformGenerator()</text>
</a>
</g>
</g>
<!-- Node0&#45;&gt;Node11 -->
<g id="edge7" class="edge"><title>Node0&#45;&gt;Node11</title>
<path fill="none" stroke="midnightblue" d="M951.287,-176.724C966.311,-167.001 982.151,-156.375 996.5,-146 1008.42,-137.383 1020.88,-127.732 1032.58,-118.364"/>
<polygon fill="none" stroke="midnightblue" points="949.074,-173.985 942.552,-182.335 952.857,-179.875 949.074,-173.985"/>
</g>
<!-- Node18 -->
<g id="node9" class="node"><title>Node18</title>
<g id="a_node9"><a xlink:href="classMixer_1_1Multiplexer.html" target="_top" xlink:title="{Mixer::Multiplexer\&lt; T \&gt;\n||+ get()\l+ setChannel()\l+ clearChannel()\l+ setChannelCount()\l+ getChannelCount()\l+ clear()\l+ Multiplexer()\l+ Multiplexer()\l}">
<polygon fill="none" stroke="black" points="1184.5,-6 1184.5,-140 1302.5,-140 1302.5,-6 1184.5,-6"/>
<text text-anchor="middle" x="1243.5" y="-128" font-family="Helvetica,sans-Serif" font-size="10.00">Mixer::Multiplexer&lt; T &gt;</text>
<polyline fill="none" stroke="black" points="1184.5,-121 1302.5,-121 "/>
<text text-anchor="middle" x="1243.5" y="-109" font-family="Helvetica,sans-Serif" font-size="10.00"> </text>
<polyline fill="none" stroke="black" points="1184.5,-102 1302.5,-102 "/>
<text text-anchor="start" x="1192.5" y="-90" font-family="Helvetica,sans-Serif" font-size="10.00">+ get()</text>
<text text-anchor="start" x="1192.5" y="-79" font-family="Helvetica,sans-Serif" font-size="10.00">+ setChannel()</text>
<text text-anchor="start" x="1192.5" y="-68" font-family="Helvetica,sans-Serif" font-size="10.00">+ clearChannel()</text>
<text text-anchor="start" x="1192.5" y="-57" font-family="Helvetica,sans-Serif" font-size="10.00">+ setChannelCount()</text>
<text text-anchor="start" x="1192.5" y="-46" font-family="Helvetica,sans-Serif" font-size="10.00">+ getChannelCount()</text>
<text text-anchor="start" x="1192.5" y="-35" font-family="Helvetica,sans-Serif" font-size="10.00">+ clear()</text>
<text text-anchor="start" x="1192.5" y="-24" font-family="Helvetica,sans-Serif" font-size="10.00">+ Multiplexer()</text>
<text text-anchor="start" x="1192.5" y="-13" font-family="Helvetica,sans-Serif" font-size="10.00">+ Multiplexer()</text>
</a>
</g>
</g>
<!-- Node0&#45;&gt;Node18 -->
<g id="edge8" class="edge"><title>Node0&#45;&gt;Node18</title>
<path fill="none" stroke="midnightblue" d="M959.93,-209.625C1020.71,-202.054 1108.54,-184.855 1175.5,-146 1178.62,-144.188 1181.69,-142.189 1184.69,-140.045"/>
<polygon fill="none" stroke="midnightblue" points="959.18,-206.19 949.663,-210.845 960.006,-213.141 959.18,-206.19"/>
</g>
<!-- Node19 -->
<g id="node10" class="node"><title>Node19</title>
<g id="a_node10"><a xlink:href="classMixer_1_1SimpleNote.html" target="_top" xlink:title="{Mixer::SimpleNote\&lt; T \&gt;\n||+ attach()\l+ setAttack()\l+ setDecay()\l+ size()\l+ bakeNote()\l+ clear()\l+ get()\l+ SimpleNote()\l}">
<polygon fill="none" stroke="black" points="1320.5,-6 1320.5,-140 1442.5,-140 1442.5,-6 1320.5,-6"/>
<text text-anchor="middle" x="1381.5" y="-128" font-family="Helvetica,sans-Serif" font-size="10.00">Mixer::SimpleNote&lt; T &gt;</text>
<polyline fill="none" stroke="black" points="1320.5,-121 1442.5,-121 "/>
<text text-anchor="middle" x="1381.5" y="-109" font-family="Helvetica,sans-Serif" font-size="10.00"> </text>
<polyline fill="none" stroke="black" points="1320.5,-102 1442.5,-102 "/>
<text text-anchor="start" x="1328.5" y="-90" font-family="Helvetica,sans-Serif" font-size="10.00">+ attach()</text>
<text text-anchor="start" x="1328.5" y="-79" font-family="Helvetica,sans-Serif" font-size="10.00">+ setAttack()</text>
<text text-anchor="start" x="1328.5" y="-68" font-family="Helvetica,sans-Serif" font-size="10.00">+ setDecay()</text>
<text text-anchor="start" x="1328.5" y="-57" font-family="Helvetica,sans-Serif" font-size="10.00">+ size()</text>
<text text-anchor="start" x="1328.5" y="-46" font-family="Helvetica,sans-Serif" font-size="10.00">+ bakeNote()</text>
<text text-anchor="start" x="1328.5" y="-35" font-family="Helvetica,sans-Serif" font-size="10.00">+ clear()</text>
<text text-anchor="start" x="1328.5" y="-24" font-family="Helvetica,sans-Serif" font-size="10.00">+ get()</text>
<text text-anchor="start" x="1328.5" y="-13" font-family="Helvetica,sans-Serif" font-size="10.00">+ SimpleNote()</text>
</a>
</g>
</g>
<!-- Node0&#45;&gt;Node19 -->
<g id="edge9" class="edge"><title>Node0&#45;&gt;Node19</title>
<path fill="none" stroke="midnightblue" d="M959.983,-209.202C1064.12,-199.117 1251.64,-177.25 1311.5,-146 1314.9,-144.225 1318.23,-142.223 1321.48,-140.047"/>
<polygon fill="none" stroke="midnightblue" points="959.487,-205.734 949.865,-210.171 960.153,-212.702 959.487,-205.734"/>
</g>
<!-- Node20 -->
<g id="node11" class="node"><title>Node20</title>
<g id="a_node11"><a xlink:href="classMixer_1_1SimplePlayer.html" target="_top" xlink:title="{Mixer::SimplePlayer\&lt; T \&gt;\n||+ get()\l+ pause()\l+ stop()\l+ play()\l+ attach()\l+ SimplePlayer()\l}">
<polygon fill="none" stroke="black" points="1460.5,-17 1460.5,-129 1588.5,-129 1588.5,-17 1460.5,-17"/>
<text text-anchor="middle" x="1524.5" y="-117" font-family="Helvetica,sans-Serif" font-size="10.00">Mixer::SimplePlayer&lt; T &gt;</text>
<polyline fill="none" stroke="black" points="1460.5,-110 1588.5,-110 "/>
<text text-anchor="middle" x="1524.5" y="-98" font-family="Helvetica,sans-Serif" font-size="10.00"> </text>
<polyline fill="none" stroke="black" points="1460.5,-91 1588.5,-91 "/>
<text text-anchor="start" x="1468.5" y="-79" font-family="Helvetica,sans-Serif" font-size="10.00">+ get()</text>
<text text-anchor="start" x="1468.5" y="-68" font-family="Helvetica,sans-Serif" font-size="10.00">+ pause()</text>
<text text-anchor="start" x="1468.5" y="-57" font-family="Helvetica,sans-Serif" font-size="10.00">+ stop()</text>
<text text-anchor="start" x="1468.5" y="-46" font-family="Helvetica,sans-Serif" font-size="10.00">+ play()</text>
<text text-anchor="start" x="1468.5" y="-35" font-family="Helvetica,sans-Serif" font-size="10.00">+ attach()</text>
<text text-anchor="start" x="1468.5" y="-24" font-family="Helvetica,sans-Serif" font-size="10.00">+ SimplePlayer()</text>
</a>
</g>
</g>
<!-- Node0&#45;&gt;Node20 -->
<g id="edge10" class="edge"><title>Node0&#45;&gt;Node20</title>
<path fill="none" stroke="midnightblue" d="M959.91,-212.392C1091.42,-205.74 1366.26,-187.243 1451.5,-146 1460.47,-141.658 1469.01,-135.77 1476.88,-129.221"/>
<polygon fill="none" stroke="midnightblue" points="959.362,-208.915 949.548,-212.907 959.709,-215.907 959.362,-208.915"/>
</g>
<!-- Node21 -->
<g id="node12" class="node"><title>Node21</title>
<g id="a_node12"><a xlink:href="classOggFileLoader.html" target="_top" xlink:title="{OggFileLoader\&lt; T \&gt;\n||+ open()\l+ init()\l+ close()\l+ clear()\l+ get()\l+ getDecoder()\l+ OggFileLoader()\l+ ~OggFileLoader()\l+ init()\l}">
<polygon fill="none" stroke="black" points="1606.5,-0.5 1606.5,-145.5 1710.5,-145.5 1710.5,-0.5 1606.5,-0.5"/>
<text text-anchor="middle" x="1658.5" y="-133.5" font-family="Helvetica,sans-Serif" font-size="10.00">OggFileLoader&lt; T &gt;</text>
<polyline fill="none" stroke="black" points="1606.5,-126.5 1710.5,-126.5 "/>
<text text-anchor="middle" x="1658.5" y="-114.5" font-family="Helvetica,sans-Serif" font-size="10.00"> </text>
<polyline fill="none" stroke="black" points="1606.5,-107.5 1710.5,-107.5 "/>
<text text-anchor="start" x="1614.5" y="-95.5" font-family="Helvetica,sans-Serif" font-size="10.00">+ open()</text>
<text text-anchor="start" x="1614.5" y="-84.5" font-family="Helvetica,sans-Serif" font-size="10.00">+ init()</text>
<text text-anchor="start" x="1614.5" y="-73.5" font-family="Helvetica,sans-Serif" font-size="10.00">+ close()</text>
<text text-anchor="start" x="1614.5" y="-62.5" font-family="Helvetica,sans-Serif" font-size="10.00">+ clear()</text>
<text text-anchor="start" x="1614.5" y="-51.5" font-family="Helvetica,sans-Serif" font-size="10.00">+ get()</text>
<text text-anchor="start" x="1614.5" y="-40.5" font-family="Helvetica,sans-Serif" font-size="10.00">+ getDecoder()</text>
<text text-anchor="start" x="1614.5" y="-29.5" font-family="Helvetica,sans-Serif" font-size="10.00">+ OggFileLoader()</text>
<text text-anchor="start" x="1614.5" y="-18.5" font-family="Helvetica,sans-Serif" font-size="10.00">+ ~OggFileLoader()</text>
<text text-anchor="start" x="1614.5" y="-7.5" font-family="Helvetica,sans-Serif" font-size="10.00">+ init()</text>
</a>
</g>
</g>
<!-- Node0&#45;&gt;Node21 -->
<g id="edge11" class="edge"><title>Node0&#45;&gt;Node21</title>
<path fill="none" stroke="midnightblue" d="M959.749,-215.221C1116.89,-213.54 1487.97,-203.417 1597.5,-146 1600.55,-144.403 1603.5,-142.583 1606.37,-140.588"/>
<polygon fill="none" stroke="midnightblue" points="959.678,-211.721 949.713,-215.32 959.747,-218.721 959.678,-211.721"/>
</g>
</g>
</svg>
