<?xml version="1.0" encoding="UTF-8" standalone="no"?>
<!DOCTYPE svg PUBLIC "-//W3C//DTD SVG 1.1//EN"
 "http://www.w3.org/Graphics/SVG/1.1/DTD/svg11.dtd">
<!-- Generated by graphviz version 2.38.0 (20140413.2041)
 -->
<!-- Title: DataFlow::iSource&lt; T &gt; Pages: 1 -->
<!--zoomable 424 -->
<svg id="main" version="1.1" xmlns="http://www.w3.org/2000/svg" xmlns:xlink="http://www.w3.org/1999/xlink" xml:space="preserve" onload="init(evt)">
<style type="text/css"><![CDATA[
.edge:hover path { stroke: red; }
.edge:hover polygon { stroke: red; fill: red; }
]]></style>
<script type="text/javascript"><![CDATA[
var edges = document.getElementsByTagName('g');
if (edges && edges.length) {
  for (var i=0;i<edges.length;i++) {
    if (edges[i].id.substr(0,4)=='edge') {
      edges[i].setAttribute('class','edge');
    }
  }
}
]]></script>
        <defs>
                <circle id="rim" cx="0" cy="0" r="7"/>
                <circle id="rim2" cx="0" cy="0" r="3.5"/>
                <g id="zoomPlus">
                        <use xlink:href="#rim" fill="#404040">
                                <set attributeName="fill" to="#808080" begin="zoomplus.mouseover" end="zoomplus.mouseout"/>
                        </use>
                        <path d="M-4,0h8M0,-4v8" fill="none" stroke="white" stroke-width="1.5" pointer-events="none"/>
                </g>
                <g id="zoomMin">
                        <use xlink:href="#rim" fill="#404040">
                                <set attributeName="fill" to="#808080" begin="zoomminus.mouseover" end="zoomminus.mouseout"/>
                        </use>
                        <path d="M-4,0h8" fill="none" stroke="white" stroke-width="1.5" pointer-events="none"/>
                </g>
                <g id="dirArrow">
                        <path fill="none" stroke="white" stroke-width="1.5" d="M0,-3.0v7 M-2.5,-0.5L0,-3.0L2.5,-0.5"/>
                </g>
               <g id="resetDef">
                       <use xlink:href="#rim2" fill="#404040">
                               <set attributeName="fill" to="#808080" begin="reset.mouseover" end="reset.mouseout"/>
                       </use>
               </g>
        </defs>

<script type="text/javascript">
var viewWidth = 1176;
var viewHeight = 424;
var sectionId = 'dynsection-0';
</script>
<script xlink:href="svgpan.js"/>
<svg id="graph" class="graph">
<g id="viewport">
<title>DataFlow::iSource&lt; T &gt;</title>
<!-- Node0 -->
<g id="node1" class="node"><title>Node0</title>
<polygon fill="#bfbfbf" stroke="black" points="557,-347.5 557,-415.5 679,-415.5 679,-347.5 557,-347.5"/>
<text text-anchor="middle" x="618" y="-403.5" font-family="Helvetica,sans-Serif" font-size="10.00">DataFlow::iSource&lt; T &gt;</text>
<polyline fill="none" stroke="black" points="557,-396.5 679,-396.5 "/>
<text text-anchor="middle" x="618" y="-384.5" font-family="Helvetica,sans-Serif" font-size="10.00"> </text>
<polyline fill="none" stroke="black" points="557,-377.5 679,-377.5 "/>
<text text-anchor="start" x="565" y="-365.5" font-family="Helvetica,sans-Serif" font-size="10.00">+ get()</text>
<text text-anchor="start" x="565" y="-354.5" font-family="Helvetica,sans-Serif" font-size="10.00">+ ~iSource()</text>
</g>
<!-- Node1 -->
<g id="node2" class="node"><title>Node1</title>
<g id="a_node2"><a xlink:href="classDataFlow_1_1Consolidator.html" target="_top" xlink:title="{Consolidator\&lt; T, Consolidation\l::Accumulation \&gt;\n|&#45; consolidationMethod\l&#45; sources\l|+ attach()\l+ detach()\l+ getMethod()\l+ get()\l}">
<polygon fill="none" stroke="black" points="0,-94 0,-206 152,-206 152,-94 0,-94"/>
<text text-anchor="start" x="8" y="-194" font-family="Helvetica,sans-Serif" font-size="10.00">Consolidator&lt; T, Consolidation</text>
<text text-anchor="middle" x="76" y="-183" font-family="Helvetica,sans-Serif" font-size="10.00">::Accumulation &gt;</text>
<polyline fill="none" stroke="black" points="0,-176 152,-176 "/>
<text text-anchor="start" x="8" y="-164" font-family="Helvetica,sans-Serif" font-size="10.00">&#45; consolidationMethod</text>
<text text-anchor="start" x="8" y="-153" font-family="Helvetica,sans-Serif" font-size="10.00">&#45; sources</text>
<polyline fill="none" stroke="black" points="0,-146 152,-146 "/>
<text text-anchor="start" x="8" y="-134" font-family="Helvetica,sans-Serif" font-size="10.00">+ attach()</text>
<text text-anchor="start" x="8" y="-123" font-family="Helvetica,sans-Serif" font-size="10.00">+ detach()</text>
<text text-anchor="start" x="8" y="-112" font-family="Helvetica,sans-Serif" font-size="10.00">+ getMethod()</text>
<text text-anchor="start" x="8" y="-101" font-family="Helvetica,sans-Serif" font-size="10.00">+ get()</text>
</a>
</g>
</g>
<!-- Node0&#45;&gt;Node1 -->
<g id="edge1" class="edge"><title>Node0&#45;&gt;Node1</title>
<path fill="none" stroke="midnightblue" d="M546.501,-375.29C433.959,-365.887 222.008,-342.946 161,-300 128.855,-277.372 107.26,-238.464 93.8827,-206.082"/>
<polygon fill="none" stroke="midnightblue" points="546.49,-378.801 556.743,-376.132 547.063,-371.825 546.49,-378.801"/>
</g>
<!-- Node2 -->
<g id="node3" class="node"><title>Node2</title>
<g id="a_node3"><a xlink:href="classDataFlow_1_1Applicator.html" target="_top" xlink:title="{DataFlow::Applicator\&lt; T \&gt;\n|&#45; method\l&#45; source\l|+ get()\l+ getMethod()\l+ attach()\l}">
<polygon fill="none" stroke="red" points="170,-105 170,-195 302,-195 302,-105 170,-105"/>
<text text-anchor="middle" x="236" y="-183" font-family="Helvetica,sans-Serif" font-size="10.00">DataFlow::Applicator&lt; T &gt;</text>
<polyline fill="none" stroke="red" points="170,-176 302,-176 "/>
<text text-anchor="start" x="178" y="-164" font-family="Helvetica,sans-Serif" font-size="10.00">&#45; method</text>
<text text-anchor="start" x="178" y="-153" font-family="Helvetica,sans-Serif" font-size="10.00">&#45; source</text>
<polyline fill="none" stroke="red" points="170,-146 302,-146 "/>
<text text-anchor="start" x="178" y="-134" font-family="Helvetica,sans-Serif" font-size="10.00">+ get()</text>
<text text-anchor="start" x="178" y="-123" font-family="Helvetica,sans-Serif" font-size="10.00">+ getMethod()</text>
<text text-anchor="start" x="178" y="-112" font-family="Helvetica,sans-Serif" font-size="10.00">+ attach()</text>
</a>
</g>
</g>
<!-- Node0&#45;&gt;Node2 -->
<g id="edge2" class="edge"><title>Node0&#45;&gt;Node2</title>
<path fill="none" stroke="midnightblue" d="M546.786,-378.185C479.313,-372.522 378.523,-354.654 311,-300 278.135,-273.398 258.362,-228.676 247.438,-195.154"/>
<polygon fill="none" stroke="midnightblue" points="546.666,-381.686 556.905,-378.963 547.203,-374.706 546.666,-381.686"/>
</g>
<!-- Node4 -->
<g id="node4" class="node"><title>Node4</title>
<g id="a_node4"><a xlink:href="classDataFlow_1_1Consolidator.html" target="_top" xlink:title="{DataFlow::Consolidator\&lt; T \&gt;\n|&#45; consolidationMethod\l&#45; sources\l|+ attach()\l+ detach()\l+ getMethod()\l+ get()\l}">
<polygon fill="none" stroke="red" points="320.5,-99.5 320.5,-200.5 463.5,-200.5 463.5,-99.5 320.5,-99.5"/>
<text text-anchor="middle" x="392" y="-188.5" font-family="Helvetica,sans-Serif" font-size="10.00">DataFlow::Consolidator&lt; T &gt;</text>
<polyline fill="none" stroke="red" points="320.5,-181.5 463.5,-181.5 "/>
<text text-anchor="start" x="328.5" y="-169.5" font-family="Helvetica,sans-Serif" font-size="10.00">&#45; consolidationMethod</text>
<text text-anchor="start" x="328.5" y="-158.5" font-family="Helvetica,sans-Serif" font-size="10.00">&#45; sources</text>
<polyline fill="none" stroke="red" points="320.5,-151.5 463.5,-151.5 "/>
<text text-anchor="start" x="328.5" y="-139.5" font-family="Helvetica,sans-Serif" font-size="10.00">+ attach()</text>
<text text-anchor="start" x="328.5" y="-128.5" font-family="Helvetica,sans-Serif" font-size="10.00">+ detach()</text>
<text text-anchor="start" x="328.5" y="-117.5" font-family="Helvetica,sans-Serif" font-size="10.00">+ getMethod()</text>
<text text-anchor="start" x="328.5" y="-106.5" font-family="Helvetica,sans-Serif" font-size="10.00">+ get()</text>
</a>
</g>
</g>
<!-- Node0&#45;&gt;Node4 -->
<g id="edge3" class="edge"><title>Node0&#45;&gt;Node4</title>
<path fill="none" stroke="midnightblue" d="M547.588,-351.947C521.588,-338.923 493.301,-321.54 472,-300 444.129,-271.816 423.406,-231.922 410.043,-200.506"/>
<polygon fill="none" stroke="midnightblue" points="546.151,-355.14 556.674,-356.371 549.216,-348.846 546.151,-355.14"/>
</g>
<!-- Node6 -->
<g id="node5" class="node"><title>Node6</title>
<g id="a_node5"><a xlink:href="classDataFlow_1_1iBuffer.html" target="_top" xlink:title="{DataFlow::iBuffer\&lt; T \&gt;\n||+ add()\l+ add()\l+ isEmpty()\l+ isFull()\l+ clear()\l+ capacity()\l+ size()\l+ ~iBuffer()\l}">
<polygon fill="none" stroke="red" points="481.5,-83 481.5,-217 598.5,-217 598.5,-83 481.5,-83"/>
<text text-anchor="middle" x="540" y="-205" font-family="Helvetica,sans-Serif" font-size="10.00">DataFlow::iBuffer&lt; T &gt;</text>
<polyline fill="none" stroke="red" points="481.5,-198 598.5,-198 "/>
<text text-anchor="middle" x="540" y="-186" font-family="Helvetica,sans-Serif" font-size="10.00"> </text>
<polyline fill="none" stroke="red" points="481.5,-179 598.5,-179 "/>
<text text-anchor="start" x="489.5" y="-167" font-family="Helvetica,sans-Serif" font-size="10.00">+ add()</text>
<text text-anchor="start" x="489.5" y="-156" font-family="Helvetica,sans-Serif" font-size="10.00">+ add()</text>
<text text-anchor="start" x="489.5" y="-145" font-family="Helvetica,sans-Serif" font-size="10.00">+ isEmpty()</text>
<text text-anchor="start" x="489.5" y="-134" font-family="Helvetica,sans-Serif" font-size="10.00">+ isFull()</text>
<text text-anchor="start" x="489.5" y="-123" font-family="Helvetica,sans-Serif" font-size="10.00">+ clear()</text>
<text text-anchor="start" x="489.5" y="-112" font-family="Helvetica,sans-Serif" font-size="10.00">+ capacity()</text>
<text text-anchor="start" x="489.5" y="-101" font-family="Helvetica,sans-Serif" font-size="10.00">+ size()</text>
<text text-anchor="start" x="489.5" y="-90" font-family="Helvetica,sans-Serif" font-size="10.00">+ ~iBuffer()</text>
</a>
</g>
</g>
<!-- Node0&#45;&gt;Node6 -->
<g id="edge4" class="edge"><title>Node0&#45;&gt;Node6</title>
<path fill="none" stroke="midnightblue" d="M603.396,-337.529C591.886,-303.664 575.638,-255.859 562.474,-217.125"/>
<polygon fill="none" stroke="midnightblue" points="600.126,-338.787 606.658,-347.129 606.754,-336.534 600.126,-338.787"/>
</g>
<!-- Node8 -->
<g id="node6" class="node"><title>Node8</title>
<g id="a_node6"><a xlink:href="classMixer_1_1iWaveformGenerator.html" target="_top" xlink:title="{Mixer::iWaveformGenerator\&lt; T \&gt;\n||+ getFrequency()\l+ setFrequency()\l+ setFrequency()\l+ ~iWaveformGenerator()\l}">
<polygon fill="none" stroke="red" points="616.5,-105 616.5,-195 777.5,-195 777.5,-105 616.5,-105"/>
<text text-anchor="middle" x="697" y="-183" font-family="Helvetica,sans-Serif" font-size="10.00">Mixer::iWaveformGenerator&lt; T &gt;</text>
<polyline fill="none" stroke="red" points="616.5,-176 777.5,-176 "/>
<text text-anchor="middle" x="697" y="-164" font-family="Helvetica,sans-Serif" font-size="10.00"> </text>
<polyline fill="none" stroke="red" points="616.5,-157 777.5,-157 "/>
<text text-anchor="start" x="624.5" y="-145" font-family="Helvetica,sans-Serif" font-size="10.00">+ getFrequency()</text>
<text text-anchor="start" x="624.5" y="-134" font-family="Helvetica,sans-Serif" font-size="10.00">+ setFrequency()</text>
<text text-anchor="start" x="624.5" y="-123" font-family="Helvetica,sans-Serif" font-size="10.00">+ setFrequency()</text>
<text text-anchor="start" x="624.5" y="-112" font-family="Helvetica,sans-Serif" font-size="10.00">+ ~iWaveformGenerator()</text>
</a>
</g>
</g>
<!-- Node0&#45;&gt;Node8 -->
<g id="edge5" class="edge"><title>Node0&#45;&gt;Node8</title>
<path fill="none" stroke="midnightblue" d="M632.802,-337.498C646.806,-296.818 667.725,-236.045 681.844,-195.03"/>
<polygon fill="none" stroke="midnightblue" points="629.433,-336.534 629.487,-347.129 636.052,-338.812 629.433,-336.534"/>
</g>
<!-- Node13 -->
<g id="node7" class="node"><title>Node13</title>
<g id="a_node7"><a xlink:href="classMixer_1_1SimplePlayer.html" target="_top" xlink:title="{Mixer::SimplePlayer\&lt; T \&gt;\n|&#45; backend\l&#45; source\l&#45; paused\l|+ get()\l+ pause()\l+ stop()\l+ play()\l+ attach()\l+ SimplePlayer()\l}">
<polygon fill="none" stroke="black" points="796,-83 796,-217 924,-217 924,-83 796,-83"/>
<text text-anchor="middle" x="860" y="-205" font-family="Helvetica,sans-Serif" font-size="10.00">Mixer::SimplePlayer&lt; T &gt;</text>
<polyline fill="none" stroke="black" points="796,-198 924,-198 "/>
<text text-anchor="start" x="804" y="-186" font-family="Helvetica,sans-Serif" font-size="10.00">&#45; backend</text>
<text text-anchor="start" x="804" y="-175" font-family="Helvetica,sans-Serif" font-size="10.00">&#45; source</text>
<text text-anchor="start" x="804" y="-164" font-family="Helvetica,sans-Serif" font-size="10.00">&#45; paused</text>
<polyline fill="none" stroke="black" points="796,-157 924,-157 "/>
<text text-anchor="start" x="804" y="-145" font-family="Helvetica,sans-Serif" font-size="10.00">+ get()</text>
<text text-anchor="start" x="804" y="-134" font-family="Helvetica,sans-Serif" font-size="10.00">+ pause()</text>
<text text-anchor="start" x="804" y="-123" font-family="Helvetica,sans-Serif" font-size="10.00">+ stop()</text>
<text text-anchor="start" x="804" y="-112" font-family="Helvetica,sans-Serif" font-size="10.00">+ play()</text>
<text text-anchor="start" x="804" y="-101" font-family="Helvetica,sans-Serif" font-size="10.00">+ attach()</text>
<text text-anchor="start" x="804" y="-90" font-family="Helvetica,sans-Serif" font-size="10.00">+ SimplePlayer()</text>
</a>
</g>
</g>
<!-- Node0&#45;&gt;Node13 -->
<g id="edge6" class="edge"><title>Node0&#45;&gt;Node13</title>
<path fill="none" stroke="midnightblue" d="M688.626,-358.707C721.385,-345.799 758.96,-326.661 786,-300 809.24,-277.085 826.382,-245.369 838.281,-217.086"/>
<polygon fill="none" stroke="midnightblue" points="687.176,-355.514 679.081,-362.349 689.671,-362.055 687.176,-355.514"/>
</g>
<!-- Node14 -->
<g id="node8" class="node"><title>Node14</title>
<g id="a_node8"><a xlink:href="classOggFileLoader.html" target="_top" xlink:title="{OggFileLoader\&lt; T \&gt;\n|&#45; infile\l&#45; eos\l&#45; buffer\l&#45; oy\l&#45; os\l&#45; currentPage\l&#45; currentPacket\l&#45; decoder\l&#45; overflow\l&#45; streamInitialized\l|+ open()\l+ init()\l+ close()\l+ clear()\l+ get()\l+ getDecoder()\l+ OggFileLoader()\l+ ~OggFileLoader()\l+ init()\l&#45; initStream()\l&#45; read()\l&#45; readNextPage()\l&#45; nextPage()\l&#45; nextPacket()\l}">
<polygon fill="none" stroke="black" points="942,-0.5 942,-299.5 1046,-299.5 1046,-0.5 942,-0.5"/>
<text text-anchor="middle" x="994" y="-287.5" font-family="Helvetica,sans-Serif" font-size="10.00">OggFileLoader&lt; T &gt;</text>
<polyline fill="none" stroke="black" points="942,-280.5 1046,-280.5 "/>
<text text-anchor="start" x="950" y="-268.5" font-family="Helvetica,sans-Serif" font-size="10.00">&#45; infile</text>
<text text-anchor="start" x="950" y="-257.5" font-family="Helvetica,sans-Serif" font-size="10.00">&#45; eos</text>
<text text-anchor="start" x="950" y="-246.5" font-family="Helvetica,sans-Serif" font-size="10.00">&#45; buffer</text>
<text text-anchor="start" x="950" y="-235.5" font-family="Helvetica,sans-Serif" font-size="10.00">&#45; oy</text>
<text text-anchor="start" x="950" y="-224.5" font-family="Helvetica,sans-Serif" font-size="10.00">&#45; os</text>
<text text-anchor="start" x="950" y="-213.5" font-family="Helvetica,sans-Serif" font-size="10.00">&#45; currentPage</text>
<text text-anchor="start" x="950" y="-202.5" font-family="Helvetica,sans-Serif" font-size="10.00">&#45; currentPacket</text>
<text text-anchor="start" x="950" y="-191.5" font-family="Helvetica,sans-Serif" font-size="10.00">&#45; decoder</text>
<text text-anchor="start" x="950" y="-180.5" font-family="Helvetica,sans-Serif" font-size="10.00">&#45; overflow</text>
<text text-anchor="start" x="950" y="-169.5" font-family="Helvetica,sans-Serif" font-size="10.00">&#45; streamInitialized</text>
<polyline fill="none" stroke="black" points="942,-162.5 1046,-162.5 "/>
<text text-anchor="start" x="950" y="-150.5" font-family="Helvetica,sans-Serif" font-size="10.00">+ open()</text>
<text text-anchor="start" x="950" y="-139.5" font-family="Helvetica,sans-Serif" font-size="10.00">+ init()</text>
<text text-anchor="start" x="950" y="-128.5" font-family="Helvetica,sans-Serif" font-size="10.00">+ close()</text>
<text text-anchor="start" x="950" y="-117.5" font-family="Helvetica,sans-Serif" font-size="10.00">+ clear()</text>
<text text-anchor="start" x="950" y="-106.5" font-family="Helvetica,sans-Serif" font-size="10.00">+ get()</text>
<text text-anchor="start" x="950" y="-95.5" font-family="Helvetica,sans-Serif" font-size="10.00">+ getDecoder()</text>
<text text-anchor="start" x="950" y="-84.5" font-family="Helvetica,sans-Serif" font-size="10.00">+ OggFileLoader()</text>
<text text-anchor="start" x="950" y="-73.5" font-family="Helvetica,sans-Serif" font-size="10.00">+ ~OggFileLoader()</text>
<text text-anchor="start" x="950" y="-62.5" font-family="Helvetica,sans-Serif" font-size="10.00">+ init()</text>
<text text-anchor="start" x="950" y="-51.5" font-family="Helvetica,sans-Serif" font-size="10.00">&#45; initStream()</text>
<text text-anchor="start" x="950" y="-40.5" font-family="Helvetica,sans-Serif" font-size="10.00">&#45; read()</text>
<text text-anchor="start" x="950" y="-29.5" font-family="Helvetica,sans-Serif" font-size="10.00">&#45; readNextPage()</text>
<text text-anchor="start" x="950" y="-18.5" font-family="Helvetica,sans-Serif" font-size="10.00">&#45; nextPage()</text>
<text text-anchor="start" x="950" y="-7.5" font-family="Helvetica,sans-Serif" font-size="10.00">&#45; nextPacket()</text>
</a>
</g>
</g>
<!-- Node0&#45;&gt;Node14 -->
<g id="edge7" class="edge"><title>Node0&#45;&gt;Node14</title>
<path fill="none" stroke="midnightblue" d="M689.077,-380.035C759.011,-375.891 864.926,-359.251 933,-300 936.057,-297.339 938.964,-294.502 941.727,-291.516"/>
<polygon fill="none" stroke="midnightblue" points="688.833,-376.542 679.029,-380.559 689.198,-383.533 688.833,-376.542"/>
</g>
<!-- Node15 -->
<g id="node9" class="node"><title>Node15</title>
<g id="a_node9"><a xlink:href="classDataFlow_1_1iSource.html" target="_top" xlink:title="{DataFlow::iSource\&lt;\l float \&gt;\n||+ get()\l+ ~iSource()\l}">
<polygon fill="none" stroke="red" points="1064,-110.5 1064,-189.5 1168,-189.5 1168,-110.5 1064,-110.5"/>
<text text-anchor="start" x="1072" y="-177.5" font-family="Helvetica,sans-Serif" font-size="10.00">DataFlow::iSource&lt;</text>
<text text-anchor="middle" x="1116" y="-166.5" font-family="Helvetica,sans-Serif" font-size="10.00"> float &gt;</text>
<polyline fill="none" stroke="red" points="1064,-159.5 1168,-159.5 "/>
<text text-anchor="middle" x="1116" y="-147.5" font-family="Helvetica,sans-Serif" font-size="10.00"> </text>
<polyline fill="none" stroke="red" points="1064,-140.5 1168,-140.5 "/>
<text text-anchor="start" x="1072" y="-128.5" font-family="Helvetica,sans-Serif" font-size="10.00">+ get()</text>
<text text-anchor="start" x="1072" y="-117.5" font-family="Helvetica,sans-Serif" font-size="10.00">+ ~iSource()</text>
</a>
</g>
</g>
<!-- Node0&#45;&gt;Node15 -->
<g id="edge8" class="edge"><title>Node0&#45;&gt;Node15</title>
<path fill="none" stroke="orange" d="M689.631,-375.725C798.95,-367.077 1000.49,-345.348 1055,-300 1088.2,-272.379 1103.54,-223.827 1110.49,-189.669"/>
<polygon fill="orange" stroke="orange" points="689.048,-372.26 679.348,-376.522 689.588,-379.239 689.048,-372.26"/>
<text text-anchor="middle" x="1037" y="-321" font-family="Helvetica,sans-Serif" font-size="10.00"> &lt; float &gt;</text>
</g>
</g>
</svg>
        <g id="navigator" transform="translate(0 0)" fill="#404254">
                <rect fill="#f2f5e9" fill-opacity="0.5" stroke="#606060" stroke-width=".5" x="0" y="0" width="60" height="60"/>
                <use id="zoomplus" xlink:href="#zoomPlus" x="17" y="9" onmousedown="handleZoom(evt,'in')"/>
                <use id="zoomminus" xlink:href="#zoomMin" x="42" y="9" onmousedown="handleZoom(evt,'out')"/>
                <use id="reset" xlink:href="#resetDef" x="30" y="36" onmousedown="handleReset()"/>
                <g id="arrowUp" xlink:href="#dirArrow" transform="translate(30 24)" onmousedown="handlePan(0,-1)">
                  <use xlink:href="#rim" fill="#404040">
                        <set attributeName="fill" to="#808080" begin="arrowUp.mouseover" end="arrowUp.mouseout"/>
                  </use>
                  <path fill="none" stroke="white" stroke-width="1.5" d="M0,-3.0v7 M-2.5,-0.5L0,-3.0L2.5,-0.5"/>
                </g>
                <g id="arrowRight" xlink:href="#dirArrow" transform="rotate(90) translate(36 -43)" onmousedown="handlePan(1,0)">
                  <use xlink:href="#rim" fill="#404040">
                        <set attributeName="fill" to="#808080" begin="arrowRight.mouseover" end="arrowRight.mouseout"/>
                  </use>
                  <path fill="none" stroke="white" stroke-width="1.5" d="M0,-3.0v7 M-2.5,-0.5L0,-3.0L2.5,-0.5"/>
                </g>
                <g id="arrowDown" xlink:href="#dirArrow" transform="rotate(180) translate(-30 -48)" onmousedown="handlePan(0,1)">
                  <use xlink:href="#rim" fill="#404040">
                        <set attributeName="fill" to="#808080" begin="arrowDown.mouseover" end="arrowDown.mouseout"/>
                  </use>
                  <path fill="none" stroke="white" stroke-width="1.5" d="M0,-3.0v7 M-2.5,-0.5L0,-3.0L2.5,-0.5"/>
                </g>
                <g id="arrowLeft" xlink:href="#dirArrow" transform="rotate(270) translate(-36 17)" onmousedown="handlePan(-1,0)">
                  <use xlink:href="#rim" fill="#404040">
                        <set attributeName="fill" to="#808080" begin="arrowLeft.mouseover" end="arrowLeft.mouseout"/>
                  </use>
                  <path fill="none" stroke="white" stroke-width="1.5" d="M0,-3.0v7 M-2.5,-0.5L0,-3.0L2.5,-0.5"/>
                </g>
        </g>
        <svg viewBox="0 0 15 15" width="100%" height="30px" preserveAspectRatio="xMaxYMin meet">
         <g id="arrow_out" transform="scale(0.3 0.3)">
          <a xlink:href="classDataFlow_1_1iSource__inherit__graph_org.svg" target="_base">
           <rect id="button" ry="5" rx="5" y="6" x="6" height="38" width="38"
                fill="#f2f5e9" fill-opacity="0.5" stroke="#606060" stroke-width="1.0"/>
           <path id="arrow"
             d="M 11.500037,31.436501 C 11.940474,20.09759 22.043105,11.32322 32.158766,21.979434 L 37.068811,17.246167 C 37.068811,17.246167 37.088388,32 37.088388,32 L 22.160133,31.978069 C 22.160133,31.978069 26.997745,27.140456 26.997745,27.140456 C 18.528582,18.264221 13.291696,25.230495 11.500037,31.436501 z"
             style="fill:#404040;"/>
          </a>
         </g>
        </svg>
</svg>
