<?xml version="1.0" encoding="UTF-8" standalone="no"?>
<!DOCTYPE svg PUBLIC "-//W3C//DTD SVG 1.1//EN"
 "http://www.w3.org/Graphics/SVG/1.1/DTD/svg11.dtd">
<!-- Generated by graphviz version 2.38.0 (20140413.2041)
 -->
<!-- Title: DataFlow::iSource&lt; T &gt; Pages: 1 -->
<svg width="884pt" height="413pt"
 viewBox="0.00 0.00 884.00 413.00" xmlns="http://www.w3.org/2000/svg" xmlns:xlink="http://www.w3.org/1999/xlink">
<g id="graph0" class="graph" transform="scale(1 1) rotate(0) translate(4 409)">
<title>DataFlow::iSource&lt; T &gt;</title>
<!-- Node0 -->
<g id="node1" class="node"><title>Node0</title>
<polygon fill="#bfbfbf" stroke="black" points="387,-336.5 387,-404.5 509,-404.5 509,-336.5 387,-336.5"/>
<text text-anchor="middle" x="448" y="-392.5" font-family="Helvetica,sans-Serif" font-size="10.00">DataFlow::iSource&lt; T &gt;</text>
<polyline fill="none" stroke="black" points="387,-385.5 509,-385.5 "/>
<text text-anchor="middle" x="448" y="-373.5" font-family="Helvetica,sans-Serif" font-size="10.00"> </text>
<polyline fill="none" stroke="black" points="387,-366.5 509,-366.5 "/>
<text text-anchor="start" x="395" y="-354.5" font-family="Helvetica,sans-Serif" font-size="10.00">+ get()</text>
<text text-anchor="start" x="395" y="-343.5" font-family="Helvetica,sans-Serif" font-size="10.00">+ ~iSource()</text>
</g>
<!-- Node1 -->
<g id="node2" class="node"><title>Node1</title>
<g id="a_node2"><a xlink:href="classDataFlow_1_1Applicator.html" target="_top" xlink:title="{DataFlow::Applicator\&lt; T \&gt;\n|&#45; method\l&#45; source\l|+ get()\l+ getMethod()\l+ attach()\l}">
<polygon fill="none" stroke="black" points="0,-105 0,-195 132,-195 132,-105 0,-105"/>
<text text-anchor="middle" x="66" y="-183" font-family="Helvetica,sans-Serif" font-size="10.00">DataFlow::Applicator&lt; T &gt;</text>
<polyline fill="none" stroke="black" points="0,-176 132,-176 "/>
<text text-anchor="start" x="8" y="-164" font-family="Helvetica,sans-Serif" font-size="10.00">&#45; method</text>
<text text-anchor="start" x="8" y="-153" font-family="Helvetica,sans-Serif" font-size="10.00">&#45; source</text>
<polyline fill="none" stroke="black" points="0,-146 132,-146 "/>
<text text-anchor="start" x="8" y="-134" font-family="Helvetica,sans-Serif" font-size="10.00">+ get()</text>
<text text-anchor="start" x="8" y="-123" font-family="Helvetica,sans-Serif" font-size="10.00">+ getMethod()</text>
<text text-anchor="start" x="8" y="-112" font-family="Helvetica,sans-Serif" font-size="10.00">+ attach()</text>
</a>
</g>
</g>
<!-- Node0&#45;&gt;Node1 -->
<g id="edge1" class="edge"><title>Node0&#45;&gt;Node1</title>
<path fill="none" stroke="midnightblue" d="M376.536,-360.475C297.673,-349.298 177.103,-328.226 141,-300 107.576,-273.869 87.8449,-228.85 77.0811,-195.118"/>
<polygon fill="none" stroke="midnightblue" points="376.506,-364.005 386.894,-361.921 377.474,-357.072 376.506,-364.005"/>
</g>
<!-- Node2 -->
<g id="node3" class="node"><title>Node2</title>
<g id="a_node3"><a xlink:href="classDataFlow_1_1Consolidator.html" target="_top" xlink:title="{DataFlow::Consolidator\&lt; T \&gt;\n|&#45; consolidationMethod\l&#45; sources\l|+ attach()\l+ detach()\l+ getMethod()\l+ get()\l}">
<polygon fill="none" stroke="black" points="150.5,-99.5 150.5,-200.5 293.5,-200.5 293.5,-99.5 150.5,-99.5"/>
<text text-anchor="middle" x="222" y="-188.5" font-family="Helvetica,sans-Serif" font-size="10.00">DataFlow::Consolidator&lt; T &gt;</text>
<polyline fill="none" stroke="black" points="150.5,-181.5 293.5,-181.5 "/>
<text text-anchor="start" x="158.5" y="-169.5" font-family="Helvetica,sans-Serif" font-size="10.00">&#45; consolidationMethod</text>
<text text-anchor="start" x="158.5" y="-158.5" font-family="Helvetica,sans-Serif" font-size="10.00">&#45; sources</text>
<polyline fill="none" stroke="black" points="150.5,-151.5 293.5,-151.5 "/>
<text text-anchor="start" x="158.5" y="-139.5" font-family="Helvetica,sans-Serif" font-size="10.00">+ attach()</text>
<text text-anchor="start" x="158.5" y="-128.5" font-family="Helvetica,sans-Serif" font-size="10.00">+ detach()</text>
<text text-anchor="start" x="158.5" y="-117.5" font-family="Helvetica,sans-Serif" font-size="10.00">+ getMethod()</text>
<text text-anchor="start" x="158.5" y="-106.5" font-family="Helvetica,sans-Serif" font-size="10.00">+ get()</text>
</a>
</g>
</g>
<!-- Node0&#45;&gt;Node2 -->
<g id="edge2" class="edge"><title>Node0&#45;&gt;Node2</title>
<path fill="none" stroke="midnightblue" d="M377.217,-346.454C351.307,-335.444 323.18,-320.177 302,-300 273.195,-272.558 252.471,-232.423 239.342,-200.72"/>
<polygon fill="none" stroke="midnightblue" points="376.065,-349.764 386.646,-350.319 378.721,-343.288 376.065,-349.764"/>
</g>
<!-- Node3 -->
<g id="node4" class="node"><title>Node3</title>
<g id="a_node4"><a xlink:href="classDataFlow_1_1iBuffer.html" target="_top" xlink:title="{DataFlow::iBuffer\&lt; T \&gt;\n||+ add()\l+ add()\l+ isEmpty()\l+ isFull()\l+ clear()\l+ capacity()\l+ size()\l+ ~iBuffer()\l}">
<polygon fill="none" stroke="red" points="311.5,-83 311.5,-217 428.5,-217 428.5,-83 311.5,-83"/>
<text text-anchor="middle" x="370" y="-205" font-family="Helvetica,sans-Serif" font-size="10.00">DataFlow::iBuffer&lt; T &gt;</text>
<polyline fill="none" stroke="red" points="311.5,-198 428.5,-198 "/>
<text text-anchor="middle" x="370" y="-186" font-family="Helvetica,sans-Serif" font-size="10.00"> </text>
<polyline fill="none" stroke="red" points="311.5,-179 428.5,-179 "/>
<text text-anchor="start" x="319.5" y="-167" font-family="Helvetica,sans-Serif" font-size="10.00">+ add()</text>
<text text-anchor="start" x="319.5" y="-156" font-family="Helvetica,sans-Serif" font-size="10.00">+ add()</text>
<text text-anchor="start" x="319.5" y="-145" font-family="Helvetica,sans-Serif" font-size="10.00">+ isEmpty()</text>
<text text-anchor="start" x="319.5" y="-134" font-family="Helvetica,sans-Serif" font-size="10.00">+ isFull()</text>
<text text-anchor="start" x="319.5" y="-123" font-family="Helvetica,sans-Serif" font-size="10.00">+ clear()</text>
<text text-anchor="start" x="319.5" y="-112" font-family="Helvetica,sans-Serif" font-size="10.00">+ capacity()</text>
<text text-anchor="start" x="319.5" y="-101" font-family="Helvetica,sans-Serif" font-size="10.00">+ size()</text>
<text text-anchor="start" x="319.5" y="-90" font-family="Helvetica,sans-Serif" font-size="10.00">+ ~iBuffer()</text>
</a>
</g>
</g>
<!-- Node0&#45;&gt;Node3 -->
<g id="edge3" class="edge"><title>Node0&#45;&gt;Node3</title>
<path fill="none" stroke="midnightblue" d="M432.695,-326.625C421.566,-295.451 406.293,-252.667 393.608,-217.132"/>
<polygon fill="none" stroke="midnightblue" points="429.495,-328.073 436.153,-336.315 436.088,-325.72 429.495,-328.073"/>
</g>
<!-- Node5 -->
<g id="node5" class="node"><title>Node5</title>
<g id="a_node5"><a xlink:href="classMixer_1_1iWaveformGenerator.html" target="_top" xlink:title="{Mixer::iWaveformGenerator\&lt; T \&gt;\n||+ getFrequency()\l+ setFrequency()\l+ setFrequency()\l+ ~iWaveformGenerator()\l}">
<polygon fill="none" stroke="red" points="446.5,-105 446.5,-195 607.5,-195 607.5,-105 446.5,-105"/>
<text text-anchor="middle" x="527" y="-183" font-family="Helvetica,sans-Serif" font-size="10.00">Mixer::iWaveformGenerator&lt; T &gt;</text>
<polyline fill="none" stroke="red" points="446.5,-176 607.5,-176 "/>
<text text-anchor="middle" x="527" y="-164" font-family="Helvetica,sans-Serif" font-size="10.00"> </text>
<polyline fill="none" stroke="red" points="446.5,-157 607.5,-157 "/>
<text text-anchor="start" x="454.5" y="-145" font-family="Helvetica,sans-Serif" font-size="10.00">+ getFrequency()</text>
<text text-anchor="start" x="454.5" y="-134" font-family="Helvetica,sans-Serif" font-size="10.00">+ setFrequency()</text>
<text text-anchor="start" x="454.5" y="-123" font-family="Helvetica,sans-Serif" font-size="10.00">+ setFrequency()</text>
<text text-anchor="start" x="454.5" y="-112" font-family="Helvetica,sans-Serif" font-size="10.00">+ ~iWaveformGenerator()</text>
</a>
</g>
</g>
<!-- Node0&#45;&gt;Node5 -->
<g id="edge4" class="edge"><title>Node0&#45;&gt;Node5</title>
<path fill="none" stroke="midnightblue" d="M463.522,-326.57C477.252,-288.593 497.202,-233.416 511.058,-195.093"/>
<polygon fill="none" stroke="midnightblue" points="460.107,-325.72 459.998,-336.315 466.69,-328.1 460.107,-325.72"/>
</g>
<!-- Node7 -->
<g id="node6" class="node"><title>Node7</title>
<g id="a_node6"><a xlink:href="classMixer_1_1SimplePlayer.html" target="_top" xlink:title="{Mixer::SimplePlayer\&lt; T \&gt;\n|&#45; backend\l&#45; source\l&#45; paused\l|+ get()\l+ pause()\l+ stop()\l+ play()\l+ attach()\l+ SimplePlayer()\l}">
<polygon fill="none" stroke="black" points="626,-83 626,-217 754,-217 754,-83 626,-83"/>
<text text-anchor="middle" x="690" y="-205" font-family="Helvetica,sans-Serif" font-size="10.00">Mixer::SimplePlayer&lt; T &gt;</text>
<polyline fill="none" stroke="black" points="626,-198 754,-198 "/>
<text text-anchor="start" x="634" y="-186" font-family="Helvetica,sans-Serif" font-size="10.00">&#45; backend</text>
<text text-anchor="start" x="634" y="-175" font-family="Helvetica,sans-Serif" font-size="10.00">&#45; source</text>
<text text-anchor="start" x="634" y="-164" font-family="Helvetica,sans-Serif" font-size="10.00">&#45; paused</text>
<polyline fill="none" stroke="black" points="626,-157 754,-157 "/>
<text text-anchor="start" x="634" y="-145" font-family="Helvetica,sans-Serif" font-size="10.00">+ get()</text>
<text text-anchor="start" x="634" y="-134" font-family="Helvetica,sans-Serif" font-size="10.00">+ pause()</text>
<text text-anchor="start" x="634" y="-123" font-family="Helvetica,sans-Serif" font-size="10.00">+ stop()</text>
<text text-anchor="start" x="634" y="-112" font-family="Helvetica,sans-Serif" font-size="10.00">+ play()</text>
<text text-anchor="start" x="634" y="-101" font-family="Helvetica,sans-Serif" font-size="10.00">+ attach()</text>
<text text-anchor="start" x="634" y="-90" font-family="Helvetica,sans-Serif" font-size="10.00">+ SimplePlayer()</text>
</a>
</g>
</g>
<!-- Node0&#45;&gt;Node7 -->
<g id="edge5" class="edge"><title>Node0&#45;&gt;Node7</title>
<path fill="none" stroke="midnightblue" d="M518.677,-352.959C551.724,-342.318 589.709,-325.562 617,-300 640.862,-277.65 657.915,-245.829 669.505,-217.329"/>
<polygon fill="none" stroke="midnightblue" points="517.571,-349.637 509.05,-355.934 519.638,-356.325 517.571,-349.637"/>
</g>
<!-- Node8 -->
<g id="node7" class="node"><title>Node8</title>
<g id="a_node7"><a xlink:href="classOggFileLoader.html" target="_top" xlink:title="{OggFileLoader\&lt; T \&gt;\n|&#45; infile\l&#45; eos\l&#45; buffer\l&#45; oy\l&#45; os\l&#45; currentPage\l&#45; currentPacket\l&#45; decoder\l&#45; overflow\l&#45; streamInitialized\l|+ open()\l+ init()\l+ close()\l+ clear()\l+ get()\l+ getDecoder()\l+ OggFileLoader()\l+ ~OggFileLoader()\l+ init()\l&#45; initStream()\l&#45; read()\l&#45; readNextPage()\l&#45; nextPage()\l&#45; nextPacket()\l}">
<polygon fill="none" stroke="black" points="772,-0.5 772,-299.5 876,-299.5 876,-0.5 772,-0.5"/>
<text text-anchor="middle" x="824" y="-287.5" font-family="Helvetica,sans-Serif" font-size="10.00">OggFileLoader&lt; T &gt;</text>
<polyline fill="none" stroke="black" points="772,-280.5 876,-280.5 "/>
<text text-anchor="start" x="780" y="-268.5" font-family="Helvetica,sans-Serif" font-size="10.00">&#45; infile</text>
<text text-anchor="start" x="780" y="-257.5" font-family="Helvetica,sans-Serif" font-size="10.00">&#45; eos</text>
<text text-anchor="start" x="780" y="-246.5" font-family="Helvetica,sans-Serif" font-size="10.00">&#45; buffer</text>
<text text-anchor="start" x="780" y="-235.5" font-family="Helvetica,sans-Serif" font-size="10.00">&#45; oy</text>
<text text-anchor="start" x="780" y="-224.5" font-family="Helvetica,sans-Serif" font-size="10.00">&#45; os</text>
<text text-anchor="start" x="780" y="-213.5" font-family="Helvetica,sans-Serif" font-size="10.00">&#45; currentPage</text>
<text text-anchor="start" x="780" y="-202.5" font-family="Helvetica,sans-Serif" font-size="10.00">&#45; currentPacket</text>
<text text-anchor="start" x="780" y="-191.5" font-family="Helvetica,sans-Serif" font-size="10.00">&#45; decoder</text>
<text text-anchor="start" x="780" y="-180.5" font-family="Helvetica,sans-Serif" font-size="10.00">&#45; overflow</text>
<text text-anchor="start" x="780" y="-169.5" font-family="Helvetica,sans-Serif" font-size="10.00">&#45; streamInitialized</text>
<polyline fill="none" stroke="black" points="772,-162.5 876,-162.5 "/>
<text text-anchor="start" x="780" y="-150.5" font-family="Helvetica,sans-Serif" font-size="10.00">+ open()</text>
<text text-anchor="start" x="780" y="-139.5" font-family="Helvetica,sans-Serif" font-size="10.00">+ init()</text>
<text text-anchor="start" x="780" y="-128.5" font-family="Helvetica,sans-Serif" font-size="10.00">+ close()</text>
<text text-anchor="start" x="780" y="-117.5" font-family="Helvetica,sans-Serif" font-size="10.00">+ clear()</text>
<text text-anchor="start" x="780" y="-106.5" font-family="Helvetica,sans-Serif" font-size="10.00">+ get()</text>
<text text-anchor="start" x="780" y="-95.5" font-family="Helvetica,sans-Serif" font-size="10.00">+ getDecoder()</text>
<text text-anchor="start" x="780" y="-84.5" font-family="Helvetica,sans-Serif" font-size="10.00">+ OggFileLoader()</text>
<text text-anchor="start" x="780" y="-73.5" font-family="Helvetica,sans-Serif" font-size="10.00">+ ~OggFileLoader()</text>
<text text-anchor="start" x="780" y="-62.5" font-family="Helvetica,sans-Serif" font-size="10.00">+ init()</text>
<text text-anchor="start" x="780" y="-51.5" font-family="Helvetica,sans-Serif" font-size="10.00">&#45; initStream()</text>
<text text-anchor="start" x="780" y="-40.5" font-family="Helvetica,sans-Serif" font-size="10.00">&#45; read()</text>
<text text-anchor="start" x="780" y="-29.5" font-family="Helvetica,sans-Serif" font-size="10.00">&#45; readNextPage()</text>
<text text-anchor="start" x="780" y="-18.5" font-family="Helvetica,sans-Serif" font-size="10.00">&#45; nextPage()</text>
<text text-anchor="start" x="780" y="-7.5" font-family="Helvetica,sans-Serif" font-size="10.00">&#45; nextPacket()</text>
</a>
</g>
</g>
<!-- Node0&#45;&gt;Node8 -->
<g id="edge6" class="edge"><title>Node0&#45;&gt;Node8</title>
<path fill="none" stroke="midnightblue" d="M519.495,-361.482C600.726,-351.065 726.74,-330.522 763,-300 766.101,-297.39 769.046,-294.598 771.843,-291.652"/>
<polygon fill="none" stroke="midnightblue" points="518.812,-358.041 509.328,-362.763 519.687,-364.986 518.812,-358.041"/>
</g>
</g>
</svg>
