<?xml version="1.0" encoding="UTF-8" standalone="no"?>
<!DOCTYPE svg PUBLIC "-//W3C//DTD SVG 1.1//EN"
 "http://www.w3.org/Graphics/SVG/1.1/DTD/svg11.dtd">
<!-- Generated by graphviz version 2.38.0 (20140413.2041)
 -->
<!-- Title: DataFlow::iConsolidationMethod&lt; T &gt; Pages: 1 -->
<svg width="173pt" height="226pt"
 viewBox="0.00 0.00 173.00 226.00" xmlns="http://www.w3.org/2000/svg" xmlns:xlink="http://www.w3.org/1999/xlink">
<g id="graph0" class="graph" transform="scale(1 1) rotate(0) translate(4 222)">
<title>DataFlow::iConsolidationMethod&lt; T &gt;</title>
<!-- Node0 -->
<g id="node1" class="node"><title>Node0</title>
<polygon fill="#bfbfbf" stroke="black" points="17,-116.5 17,-217.5 148,-217.5 148,-116.5 17,-116.5"/>
<text text-anchor="start" x="25" y="-205.5" font-family="Helvetica,sans-Serif" font-size="10.00">DataFlow::iConsolidation</text>
<text text-anchor="middle" x="82.5" y="-194.5" font-family="Helvetica,sans-Serif" font-size="10.00">Method&lt; T &gt;</text>
<polyline fill="none" stroke="black" points="17,-187.5 148,-187.5 "/>
<text text-anchor="middle" x="82.5" y="-175.5" font-family="Helvetica,sans-Serif" font-size="10.00"> </text>
<polyline fill="none" stroke="black" points="17,-168.5 148,-168.5 "/>
<text text-anchor="start" x="25" y="-156.5" font-family="Helvetica,sans-Serif" font-size="10.00">+ init()</text>
<text text-anchor="start" x="25" y="-145.5" font-family="Helvetica,sans-Serif" font-size="10.00">+ add()</text>
<text text-anchor="start" x="25" y="-134.5" font-family="Helvetica,sans-Serif" font-size="10.00">+ get()</text>
<text text-anchor="start" x="25" y="-123.5" font-family="Helvetica,sans-Serif" font-size="10.00">+ ~iConsolidationMethod()</text>
</g>
<!-- Node1 -->
<g id="node2" class="node"><title>Node1</title>
<g id="a_node2"><a xlink:href="classConsolidation_1_1Accumulation.html" target="_top" xlink:title="{Consolidation::Accumulation\&lt; T \&gt;\n|&#45; workspace\l|+ init()\l+ add()\l+ get()\l}">
<polygon fill="none" stroke="black" points="0,-0.5 0,-79.5 165,-79.5 165,-0.5 0,-0.5"/>
<text text-anchor="middle" x="82.5" y="-67.5" font-family="Helvetica,sans-Serif" font-size="10.00">Consolidation::Accumulation&lt; T &gt;</text>
<polyline fill="none" stroke="black" points="0,-60.5 165,-60.5 "/>
<text text-anchor="start" x="8" y="-48.5" font-family="Helvetica,sans-Serif" font-size="10.00">&#45; workspace</text>
<polyline fill="none" stroke="black" points="0,-41.5 165,-41.5 "/>
<text text-anchor="start" x="8" y="-29.5" font-family="Helvetica,sans-Serif" font-size="10.00">+ init()</text>
<text text-anchor="start" x="8" y="-18.5" font-family="Helvetica,sans-Serif" font-size="10.00">+ add()</text>
<text text-anchor="start" x="8" y="-7.5" font-family="Helvetica,sans-Serif" font-size="10.00">+ get()</text>
</a>
</g>
</g>
<!-- Node0&#45;&gt;Node1 -->
<g id="edge1" class="edge"><title>Node0&#45;&gt;Node1</title>
<path fill="none" stroke="midnightblue" d="M82.5,-106.186C82.5,-97.2207 82.5,-88.1815 82.5,-79.8082"/>
<polygon fill="none" stroke="midnightblue" points="79.0001,-106.237 82.5,-116.238 86.0001,-106.238 79.0001,-106.237"/>
</g>
</g>
</svg>
