<?xml version="1.0" encoding="UTF-8" standalone="no"?>
<!DOCTYPE svg PUBLIC "-//W3C//DTD SVG 1.1//EN"
 "http://www.w3.org/Graphics/SVG/1.1/DTD/svg11.dtd">
<!-- Generated by graphviz version 2.38.0 (20140413.2041)
 -->
<!-- Title: DataFlow::iBuffer&lt; T &gt; Pages: 1 -->
<svg width="328pt" height="342pt"
 viewBox="0.00 0.00 328.00 342.00" xmlns="http://www.w3.org/2000/svg" xmlns:xlink="http://www.w3.org/1999/xlink">
<g id="graph0" class="graph" transform="scale(1 1) rotate(0) translate(4 338)">
<title>DataFlow::iBuffer&lt; T &gt;</title>
<!-- Node0 -->
<g id="node1" class="node"><title>Node0</title>
<polygon fill="#bfbfbf" stroke="black" points="97,-149.5 97,-228.5 214,-228.5 214,-149.5 97,-149.5"/>
<text text-anchor="middle" x="155.5" y="-216.5" font-family="Helvetica,sans-Serif" font-size="10.00">DataFlow::iBuffer&lt; T &gt;</text>
<polyline fill="none" stroke="black" points="97,-209.5 214,-209.5 "/>
<text text-anchor="middle" x="155.5" y="-197.5" font-family="Helvetica,sans-Serif" font-size="10.00"> </text>
<polyline fill="none" stroke="black" points="97,-190.5 214,-190.5 "/>
<text text-anchor="start" x="105" y="-178.5" font-family="Helvetica,sans-Serif" font-size="10.00">+ put()</text>
<text text-anchor="start" x="105" y="-167.5" font-family="Helvetica,sans-Serif" font-size="10.00">+ size()</text>
<text text-anchor="start" x="105" y="-156.5" font-family="Helvetica,sans-Serif" font-size="10.00">+ ~iBuffer()</text>
</g>
<!-- Node2 -->
<g id="node3" class="node"><title>Node2</title>
<g id="a_node3"><a xlink:href="classDataFlow_1_1QueueBuffer.html" target="_top" xlink:title="{DataFlow::QueueBuffer\&lt; T \&gt;\n||+ get()\l+ get()\l+ put()\l+ put()\l+ clear()\l+ size()\l}">
<polygon fill="none" stroke="black" points="0,-0.5 0,-112.5 143,-112.5 143,-0.5 0,-0.5"/>
<text text-anchor="middle" x="71.5" y="-100.5" font-family="Helvetica,sans-Serif" font-size="10.00">DataFlow::QueueBuffer&lt; T &gt;</text>
<polyline fill="none" stroke="black" points="0,-93.5 143,-93.5 "/>
<text text-anchor="middle" x="71.5" y="-81.5" font-family="Helvetica,sans-Serif" font-size="10.00"> </text>
<polyline fill="none" stroke="black" points="0,-74.5 143,-74.5 "/>
<text text-anchor="start" x="8" y="-62.5" font-family="Helvetica,sans-Serif" font-size="10.00">+ get()</text>
<text text-anchor="start" x="8" y="-51.5" font-family="Helvetica,sans-Serif" font-size="10.00">+ get()</text>
<text text-anchor="start" x="8" y="-40.5" font-family="Helvetica,sans-Serif" font-size="10.00">+ put()</text>
<text text-anchor="start" x="8" y="-29.5" font-family="Helvetica,sans-Serif" font-size="10.00">+ put()</text>
<text text-anchor="start" x="8" y="-18.5" font-family="Helvetica,sans-Serif" font-size="10.00">+ clear()</text>
<text text-anchor="start" x="8" y="-7.5" font-family="Helvetica,sans-Serif" font-size="10.00">+ size()</text>
</a>
</g>
</g>
<!-- Node0&#45;&gt;Node2 -->
<g id="edge2" class="edge"><title>Node0&#45;&gt;Node2</title>
<path fill="none" stroke="midnightblue" d="M125.053,-140.698C119.226,-131.645 113.077,-122.092 107.105,-112.814"/>
<polygon fill="none" stroke="midnightblue" points="122.169,-142.685 130.525,-149.199 128.055,-138.896 122.169,-142.685"/>
</g>
<!-- Node3 -->
<g id="node4" class="node"><title>Node3</title>
<g id="a_node4"><a xlink:href="classDataFlow_1_1RepeatingBuffer.html" target="_top" xlink:title="{DataFlow::RepeatingBuffer\&lt; T \&gt;\n||+ get()\l+ put()\l+ clear()\l+ size()\l+ RepeatingBuffer()\l+ RepeatingBuffer()\l}">
<polygon fill="none" stroke="black" points="161,-0.5 161,-112.5 320,-112.5 320,-0.5 161,-0.5"/>
<text text-anchor="middle" x="240.5" y="-100.5" font-family="Helvetica,sans-Serif" font-size="10.00">DataFlow::RepeatingBuffer&lt; T &gt;</text>
<polyline fill="none" stroke="black" points="161,-93.5 320,-93.5 "/>
<text text-anchor="middle" x="240.5" y="-81.5" font-family="Helvetica,sans-Serif" font-size="10.00"> </text>
<polyline fill="none" stroke="black" points="161,-74.5 320,-74.5 "/>
<text text-anchor="start" x="169" y="-62.5" font-family="Helvetica,sans-Serif" font-size="10.00">+ get()</text>
<text text-anchor="start" x="169" y="-51.5" font-family="Helvetica,sans-Serif" font-size="10.00">+ put()</text>
<text text-anchor="start" x="169" y="-40.5" font-family="Helvetica,sans-Serif" font-size="10.00">+ clear()</text>
<text text-anchor="start" x="169" y="-29.5" font-family="Helvetica,sans-Serif" font-size="10.00">+ size()</text>
<text text-anchor="start" x="169" y="-18.5" font-family="Helvetica,sans-Serif" font-size="10.00">+ RepeatingBuffer()</text>
<text text-anchor="start" x="169" y="-7.5" font-family="Helvetica,sans-Serif" font-size="10.00">+ RepeatingBuffer()</text>
</a>
</g>
</g>
<!-- Node0&#45;&gt;Node3 -->
<g id="edge3" class="edge"><title>Node0&#45;&gt;Node3</title>
<path fill="none" stroke="midnightblue" d="M186.31,-140.698C192.206,-131.645 198.428,-122.092 204.472,-112.814"/>
<polygon fill="none" stroke="midnightblue" points="183.298,-138.909 180.773,-149.199 189.163,-142.73 183.298,-138.909"/>
</g>
<!-- Node1 -->
<g id="node2" class="node"><title>Node1</title>
<g id="a_node2"><a xlink:href="classDataFlow_1_1iSource.html" target="_top" xlink:title="{DataFlow::iSource\&lt; T \&gt;\n||+ get()\l+ ~iSource()\l}">
<polygon fill="none" stroke="black" points="94.5,-265.5 94.5,-333.5 216.5,-333.5 216.5,-265.5 94.5,-265.5"/>
<text text-anchor="middle" x="155.5" y="-321.5" font-family="Helvetica,sans-Serif" font-size="10.00">DataFlow::iSource&lt; T &gt;</text>
<polyline fill="none" stroke="black" points="94.5,-314.5 216.5,-314.5 "/>
<text text-anchor="middle" x="155.5" y="-302.5" font-family="Helvetica,sans-Serif" font-size="10.00"> </text>
<polyline fill="none" stroke="black" points="94.5,-295.5 216.5,-295.5 "/>
<text text-anchor="start" x="102.5" y="-283.5" font-family="Helvetica,sans-Serif" font-size="10.00">+ get()</text>
<text text-anchor="start" x="102.5" y="-272.5" font-family="Helvetica,sans-Serif" font-size="10.00">+ ~iSource()</text>
</a>
</g>
</g>
<!-- Node1&#45;&gt;Node0 -->
<g id="edge1" class="edge"><title>Node1&#45;&gt;Node0</title>
<path fill="none" stroke="midnightblue" d="M155.5,-255.274C155.5,-246.476 155.5,-237.275 155.5,-228.649"/>
<polygon fill="none" stroke="midnightblue" points="152,-255.357 155.5,-265.357 159,-255.357 152,-255.357"/>
</g>
</g>
</svg>
