<?xml version="1.0" encoding="UTF-8" standalone="no"?>
<!DOCTYPE svg PUBLIC "-//W3C//DTD SVG 1.1//EN"
 "http://www.w3.org/Graphics/SVG/1.1/DTD/svg11.dtd">
<!-- Generated by graphviz version 2.38.0 (20140413.2041)
 -->
<!-- Title: Oszt치lyhierarchia&#45;치bra Pages: 1 -->
<svg width="528pt" height="366pt"
 viewBox="0.00 0.00 528.00 366.00" xmlns="http://www.w3.org/2000/svg" xmlns:xlink="http://www.w3.org/1999/xlink">
<g id="graph0" class="graph" transform="scale(1 1) rotate(0) translate(4 362)">
<title>Oszt치lyhierarchia&#45;치bra</title>
<!-- Node43 -->
<g id="node1" class="node"><title>Node43</title>
<g id="a_node1"><a xlink:href="classMixer_1_1AudioSource.html" target="_top" xlink:title="Mixer::AudioSource">
<polygon fill="none" stroke="black" points="192.5,-152.5 192.5,-171.5 294.5,-171.5 294.5,-152.5 192.5,-152.5"/>
<text text-anchor="middle" x="243.5" y="-159.5" font-family="Helvetica,sans-Serif" font-size="10.00">Mixer::AudioSource</text>
</a>
</g>
</g>
<!-- Node7 -->
<g id="node2" class="node"><title>Node7</title>
<g id="a_node2"><a xlink:href="classMixer_1_1SawtoothGenerator.html" target="_top" xlink:title="Mixer::SawtoothGenerator\&lt; T \&gt;">
<polygon fill="none" stroke="black" points="365,-245.5 365,-264.5 520,-264.5 520,-245.5 365,-245.5"/>
<text text-anchor="middle" x="442.5" y="-252.5" font-family="Helvetica,sans-Serif" font-size="10.00">Mixer::SawtoothGenerator&lt; T &gt;</text>
</a>
</g>
</g>
<!-- Node43&#45;&gt;Node7 -->
<g id="edge1" class="edge"><title>Node43&#45;&gt;Node7</title>
<path fill="none" stroke="midnightblue" d="M304.341,-170.678C312.941,-173.269 321.43,-176.632 329,-181 349.433,-192.788 345.901,-206.155 365,-220 379.9,-230.801 398.665,-239.448 413.88,-245.445"/>
<polygon fill="midnightblue" stroke="midnightblue" points="305.193,-167.283 294.627,-168.07 303.377,-174.043 305.193,-167.283"/>
</g>
<!-- Node11 -->
<g id="node3" class="node"><title>Node11</title>
<g id="a_node3"><a xlink:href="classMixer_1_1SimplePlayer.html" target="_top" xlink:title="Mixer::SimplePlayer\l\&lt; T, K \&gt;">
<polygon fill="none" stroke="black" points="390.5,-109 390.5,-139 494.5,-139 494.5,-109 390.5,-109"/>
<text text-anchor="start" x="398.5" y="-127" font-family="Helvetica,sans-Serif" font-size="10.00">Mixer::SimplePlayer</text>
<text text-anchor="middle" x="442.5" y="-116" font-family="Helvetica,sans-Serif" font-size="10.00">&lt; T, K &gt;</text>
</a>
</g>
</g>
<!-- Node43&#45;&gt;Node11 -->
<g id="edge2" class="edge"><title>Node43&#45;&gt;Node11</title>
<path fill="none" stroke="midnightblue" d="M303.867,-150.549C331.418,-145.234 363.846,-138.979 390.304,-133.875"/>
<polygon fill="midnightblue" stroke="midnightblue" points="303.113,-147.129 293.957,-152.46 304.439,-154.003 303.113,-147.129"/>
</g>
<!-- Node8 -->
<g id="node4" class="node"><title>Node8</title>
<g id="a_node4"><a xlink:href="classMixer_1_1SineGenerator.html" target="_top" xlink:title="Mixer::SineGenerator\&lt; T \&gt;">
<polygon fill="none" stroke="black" points="376,-191.5 376,-210.5 509,-210.5 509,-191.5 376,-191.5"/>
<text text-anchor="middle" x="442.5" y="-198.5" font-family="Helvetica,sans-Serif" font-size="10.00">Mixer::SineGenerator&lt; T &gt;</text>
</a>
</g>
</g>
<!-- Node43&#45;&gt;Node8 -->
<g id="edge3" class="edge"><title>Node43&#45;&gt;Node8</title>
<path fill="none" stroke="midnightblue" d="M302.662,-173.514C331.57,-179.237 366.082,-186.07 393.465,-191.491"/>
<polygon fill="midnightblue" stroke="midnightblue" points="303.181,-170.049 292.692,-171.54 301.822,-176.916 303.181,-170.049"/>
</g>
<!-- Node9 -->
<g id="node5" class="node"><title>Node9</title>
<g id="a_node5"><a xlink:href="classMixer_1_1SquareGenerator.html" target="_top" xlink:title="Mixer::SquareGenerator\&lt; T \&gt;">
<polygon fill="none" stroke="black" points="370.5,-333.5 370.5,-352.5 514.5,-352.5 514.5,-333.5 370.5,-333.5"/>
<text text-anchor="middle" x="442.5" y="-340.5" font-family="Helvetica,sans-Serif" font-size="10.00">Mixer::SquareGenerator&lt; T &gt;</text>
</a>
</g>
</g>
<!-- Node43&#45;&gt;Node9 -->
<g id="edge4" class="edge"><title>Node43&#45;&gt;Node9</title>
<path fill="none" stroke="midnightblue" d="M304.205,-166.759C313.395,-169.796 322.105,-174.324 329,-181 374.847,-225.391 320.755,-274.012 365,-320 370.577,-325.797 377.554,-330.147 385.009,-333.409"/>
<polygon fill="midnightblue" stroke="midnightblue" points="305.078,-163.37 294.508,-164.108 303.231,-170.122 305.078,-163.37"/>
</g>
<!-- Node10 -->
<g id="node6" class="node"><title>Node10</title>
<g id="a_node6"><a xlink:href="classMixer_1_1TriangleGenerator.html" target="_top" xlink:title="Mixer::TriangleGenerator\&lt; T \&gt;">
<polygon fill="none" stroke="black" points="368.5,-291.5 368.5,-310.5 516.5,-310.5 516.5,-291.5 368.5,-291.5"/>
<text text-anchor="middle" x="442.5" y="-298.5" font-family="Helvetica,sans-Serif" font-size="10.00">Mixer::TriangleGenerator&lt; T &gt;</text>
</a>
</g>
</g>
<!-- Node43&#45;&gt;Node10 -->
<g id="edge5" class="edge"><title>Node43&#45;&gt;Node10</title>
<path fill="none" stroke="midnightblue" d="M304.501,-167.756C313.427,-170.704 321.974,-174.945 329,-181 362.574,-209.935 333.192,-243.134 365,-274 373.086,-281.847 383.589,-287.426 394.209,-291.389"/>
<polygon fill="midnightblue" stroke="midnightblue" points="305.292,-164.343 294.72,-165.039 303.418,-171.088 305.292,-164.343"/>
</g>
<!-- Node34 -->
<g id="node7" class="node"><title>Node34</title>
<g id="a_node7"><a xlink:href="classMixer_1_1iPlayer.html" target="_top" xlink:title="Mixer::iPlayer">
<polygon fill="none" stroke="black" points="205,-76.5 205,-95.5 282,-95.5 282,-76.5 205,-76.5"/>
<text text-anchor="middle" x="243.5" y="-83.5" font-family="Helvetica,sans-Serif" font-size="10.00">Mixer::iPlayer</text>
</a>
</g>
</g>
<!-- Node34&#45;&gt;Node11 -->
<g id="edge6" class="edge"><title>Node34&#45;&gt;Node11</title>
<path fill="none" stroke="midnightblue" d="M292.14,-95.1894C321.833,-100.917 360.024,-108.284 390.354,-114.134"/>
<polygon fill="midnightblue" stroke="midnightblue" points="292.5,-91.6944 282.018,-93.237 291.174,-98.5677 292.5,-91.6944"/>
</g>
<!-- Node0 -->
<g id="node8" class="node"><title>Node0</title>
<g id="a_node8"><a xlink:href="classDataFlow_1_1iSource.html" target="_top" xlink:title="DataFlow::iSource\&lt; T \&gt;">
<polygon fill="none" stroke="black" points="0,-196.5 0,-215.5 122,-215.5 122,-196.5 0,-196.5"/>
<text text-anchor="middle" x="61" y="-203.5" font-family="Helvetica,sans-Serif" font-size="10.00">DataFlow::iSource&lt; T &gt;</text>
</a>
</g>
</g>
<!-- Node0&#45;&gt;Node11 -->
<g id="edge17" class="edge"><title>Node0&#45;&gt;Node11</title>
<path fill="none" stroke="midnightblue" d="M80.5618,-189.567C98.8448,-174.471 128.279,-152.976 158,-143 235.864,-116.865 332.367,-116.689 390.326,-119.76"/>
<polygon fill="midnightblue" stroke="midnightblue" points="77.8883,-187.245 72.5298,-196.385 82.4184,-192.582 77.8883,-187.245"/>
</g>
<!-- Node1 -->
<g id="node9" class="node"><title>Node1</title>
<g id="a_node9"><a xlink:href="classDataFlow_1_1Consolidator.html" target="_top" xlink:title="DataFlow::Consolidator\l\&lt; T, Consolidation::Accumulation \&gt;">
<polygon fill="none" stroke="black" points="158,-289 158,-319 329,-319 329,-289 158,-289"/>
<text text-anchor="start" x="166" y="-307" font-family="Helvetica,sans-Serif" font-size="10.00">DataFlow::Consolidator</text>
<text text-anchor="middle" x="243.5" y="-296" font-family="Helvetica,sans-Serif" font-size="10.00">&lt; T, Consolidation::Accumulation &gt;</text>
</a>
</g>
</g>
<!-- Node0&#45;&gt;Node1 -->
<g id="edge7" class="edge"><title>Node0&#45;&gt;Node1</title>
<path fill="none" stroke="midnightblue" d="M79.2481,-222.618C97.4625,-239.323 127.688,-264.727 158,-280 164.673,-283.362 171.888,-286.317 179.192,-288.896"/>
<polygon fill="midnightblue" stroke="midnightblue" points="81.4619,-219.896 71.7674,-215.622 76.6807,-225.009 81.4619,-219.896"/>
</g>
<!-- Node2 -->
<g id="node10" class="node"><title>Node2</title>
<g id="a_node10"><a xlink:href="classDataFlow_1_1Applicator.html" target="_top" xlink:title="DataFlow::Applicator\l\&lt; T, K \&gt;">
<polygon fill="none" stroke="black" points="189.5,-240 189.5,-270 297.5,-270 297.5,-240 189.5,-240"/>
<text text-anchor="start" x="197.5" y="-258" font-family="Helvetica,sans-Serif" font-size="10.00">DataFlow::Applicator</text>
<text text-anchor="middle" x="243.5" y="-247" font-family="Helvetica,sans-Serif" font-size="10.00">&lt; T, K &gt;</text>
</a>
</g>
</g>
<!-- Node0&#45;&gt;Node2 -->
<g id="edge8" class="edge"><title>Node0&#45;&gt;Node2</title>
<path fill="none" stroke="midnightblue" d="M107.144,-218.255C132.05,-225.016 163.124,-233.452 189.215,-240.535"/>
<polygon fill="midnightblue" stroke="midnightblue" points="107.798,-214.806 97.2307,-215.564 105.964,-221.562 107.798,-214.806"/>
</g>
<!-- Node3 -->
<g id="node11" class="node"><title>Node3</title>
<g id="a_node11"><a xlink:href="classDataFlow_1_1Consolidator.html" target="_top" xlink:title="DataFlow::Consolidator\l\&lt; T, K \&gt;">
<polygon fill="none" stroke="black" points="184,-191 184,-221 303,-221 303,-191 184,-191"/>
<text text-anchor="start" x="192" y="-209" font-family="Helvetica,sans-Serif" font-size="10.00">DataFlow::Consolidator</text>
<text text-anchor="middle" x="243.5" y="-198" font-family="Helvetica,sans-Serif" font-size="10.00">&lt; T, K &gt;</text>
</a>
</g>
</g>
<!-- Node0&#45;&gt;Node3 -->
<g id="edge9" class="edge"><title>Node0&#45;&gt;Node3</title>
<path fill="none" stroke="midnightblue" d="M132.535,-206C149.529,-206 167.503,-206 183.885,-206"/>
<polygon fill="midnightblue" stroke="midnightblue" points="132.104,-202.5 122.104,-206 132.104,-209.5 132.104,-202.5"/>
</g>
<!-- Node4 -->
<g id="node12" class="node"><title>Node4</title>
<g id="a_node12"><a xlink:href="classDataFlow_1_1iBuffer.html" target="_top" xlink:title="DataFlow::iBuffer\&lt; T \&gt;">
<polygon fill="none" stroke="black" points="185,-38.5 185,-57.5 302,-57.5 302,-38.5 185,-38.5"/>
<text text-anchor="middle" x="243.5" y="-45.5" font-family="Helvetica,sans-Serif" font-size="10.00">DataFlow::iBuffer&lt; T &gt;</text>
</a>
</g>
</g>
<!-- Node0&#45;&gt;Node4 -->
<g id="edge10" class="edge"><title>Node0&#45;&gt;Node4</title>
<path fill="none" stroke="midnightblue" d="M69.6437,-186.943C82.8668,-156.536 112.989,-97.3838 158,-67 165.976,-61.6158 175.245,-57.7362 184.663,-54.9455"/>
<polygon fill="midnightblue" stroke="midnightblue" points="66.3152,-185.83 65.6745,-196.405 72.7703,-188.538 66.3152,-185.83"/>
</g>
<!-- Node6 -->
<g id="node14" class="node"><title>Node6</title>
<g id="a_node14"><a xlink:href="classMixer_1_1iWaveformGenerator.html" target="_top" xlink:title="Mixer::iWaveformGenerator\&lt; T \&gt;">
<polygon fill="none" stroke="black" points="163,-338.5 163,-357.5 324,-357.5 324,-338.5 163,-338.5"/>
<text text-anchor="middle" x="243.5" y="-345.5" font-family="Helvetica,sans-Serif" font-size="10.00">Mixer::iWaveformGenerator&lt; T &gt;</text>
</a>
</g>
</g>
<!-- Node0&#45;&gt;Node6 -->
<g id="edge12" class="edge"><title>Node0&#45;&gt;Node6</title>
<path fill="none" stroke="midnightblue" d="M71.0612,-224.419C85.5066,-251.756 116.423,-302.665 158,-329 164.097,-332.862 170.879,-335.944 177.874,-338.402"/>
<polygon fill="midnightblue" stroke="midnightblue" points="74.1688,-222.808 66.4952,-215.503 67.9383,-225.999 74.1688,-222.808"/>
</g>
<!-- Node12 -->
<g id="node15" class="node"><title>Node12</title>
<g id="a_node15"><a xlink:href="classOggFileLoader.html" target="_top" xlink:title="OggFileLoader\&lt; T, K \&gt;">
<polygon fill="none" stroke="black" points="185.5,-0.5 185.5,-19.5 301.5,-19.5 301.5,-0.5 185.5,-0.5"/>
<text text-anchor="middle" x="243.5" y="-7.5" font-family="Helvetica,sans-Serif" font-size="10.00">OggFileLoader&lt; T, K &gt;</text>
</a>
</g>
</g>
<!-- Node0&#45;&gt;Node12 -->
<g id="edge18" class="edge"><title>Node0&#45;&gt;Node12</title>
<path fill="none" stroke="midnightblue" d="M66.7984,-186.529C76.9412,-149.659 104.179,-69.7035 158,-29 166.035,-22.9232 175.653,-18.7258 185.473,-15.8402"/>
<polygon fill="midnightblue" stroke="midnightblue" points="63.3355,-185.937 64.1889,-196.498 70.1073,-187.71 63.3355,-185.937"/>
</g>
<!-- Node5 -->
<g id="node13" class="node"><title>Node5</title>
<g id="a_node13"><a xlink:href="classQueueBuffer.html" target="_top" xlink:title="QueueBuffer\&lt; T \&gt;">
<polygon fill="none" stroke="black" points="395,-38.5 395,-57.5 490,-57.5 490,-38.5 395,-38.5"/>
<text text-anchor="middle" x="442.5" y="-45.5" font-family="Helvetica,sans-Serif" font-size="10.00">QueueBuffer&lt; T &gt;</text>
</a>
</g>
</g>
<!-- Node4&#45;&gt;Node5 -->
<g id="edge11" class="edge"><title>Node4&#45;&gt;Node5</title>
<path fill="none" stroke="midnightblue" d="M312.255,-48C339.484,-48 370.197,-48 394.849,-48"/>
<polygon fill="midnightblue" stroke="midnightblue" points="312.01,-44.5001 302.01,-48 312.01,-51.5001 312.01,-44.5001"/>
</g>
<!-- Node6&#45;&gt;Node7 -->
<g id="edge13" class="edge"><title>Node6&#45;&gt;Node7</title>
<path fill="none" stroke="midnightblue" d="M318.483,-334.698C322.144,-333.018 325.675,-331.127 329,-329 351.164,-314.819 343.711,-297.464 365,-282 375.597,-274.302 388.591,-268.634 400.841,-264.537"/>
<polygon fill="midnightblue" stroke="midnightblue" points="317.127,-331.471 309.161,-338.457 319.745,-337.963 317.127,-331.471"/>
</g>
<!-- Node6&#45;&gt;Node8 -->
<g id="edge14" class="edge"><title>Node6&#45;&gt;Node8</title>
<path fill="none" stroke="midnightblue" d="M323.305,-333.315C325.29,-331.991 327.195,-330.555 329,-329 362.574,-300.065 334.61,-268.263 365,-236 376.116,-224.199 391.975,-216.052 406.373,-210.608"/>
<polygon fill="midnightblue" stroke="midnightblue" points="321.159,-330.505 314.139,-338.441 324.575,-336.615 321.159,-330.505"/>
</g>
<!-- Node6&#45;&gt;Node9 -->
<g id="edge15" class="edge"><title>Node6&#45;&gt;Node9</title>
<path fill="none" stroke="midnightblue" d="M334.155,-345.724C346.243,-345.418 358.511,-345.106 370.221,-344.809"/>
<polygon fill="midnightblue" stroke="midnightblue" points="333.968,-342.228 324.06,-345.981 334.145,-349.226 333.968,-342.228"/>
</g>
<!-- Node6&#45;&gt;Node10 -->
<g id="edge16" class="edge"><title>Node6&#45;&gt;Node10</title>
<path fill="none" stroke="midnightblue" d="M297.75,-336.22C308.124,-333.871 318.91,-331.39 329,-329 354.069,-323.063 382.194,-316.063 404.052,-310.547"/>
<polygon fill="midnightblue" stroke="midnightblue" points="296.951,-332.812 287.965,-338.426 298.49,-339.641 296.951,-332.812"/>
</g>
</g>
</svg>
