<?xml version="1.0" encoding="UTF-8" standalone="no"?>
<!DOCTYPE svg PUBLIC "-//W3C//DTD SVG 1.1//EN"
 "http://www.w3.org/Graphics/SVG/1.1/DTD/svg11.dtd">
<!-- Generated by graphviz version 2.38.0 (20140413.2041)
 -->
<!-- Title: Oszt치lyhierarchia&#45;치bra Pages: 1 -->
<svg width="496pt" height="288pt"
 viewBox="0.00 0.00 496.00 288.00" xmlns="http://www.w3.org/2000/svg" xmlns:xlink="http://www.w3.org/1999/xlink">
<g id="graph0" class="graph" transform="scale(1 1) rotate(0) translate(4 284)">
<title>Oszt치lyhierarchia&#45;치bra</title>
<!-- Node37 -->
<g id="node1" class="node"><title>Node37</title>
<g id="a_node1"><a xlink:href="classMixer_1_1AudioSource.html" target="_top" xlink:title="Mixer::AudioSource">
<polygon fill="none" stroke="black" points="10,-260.5 10,-279.5 112,-279.5 112,-260.5 10,-260.5"/>
<text text-anchor="middle" x="61" y="-267.5" font-family="Helvetica,sans-Serif" font-size="10.00">Mixer::AudioSource</text>
</a>
</g>
</g>
<!-- Node7 -->
<g id="node2" class="node"><title>Node7</title>
<g id="a_node2"><a xlink:href="classMixer_1_1SimplePlayer.html" target="_top" xlink:title="Mixer::SimplePlayer\l\&lt; T, K \&gt;">
<polygon fill="none" stroke="black" points="186.5,-214 186.5,-244 290.5,-244 290.5,-214 186.5,-214"/>
<text text-anchor="start" x="194.5" y="-232" font-family="Helvetica,sans-Serif" font-size="10.00">Mixer::SimplePlayer</text>
<text text-anchor="middle" x="238.5" y="-221" font-family="Helvetica,sans-Serif" font-size="10.00">&lt; T, K &gt;</text>
</a>
</g>
</g>
<!-- Node37&#45;&gt;Node7 -->
<g id="edge1" class="edge"><title>Node37&#45;&gt;Node7</title>
<path fill="none" stroke="midnightblue" d="M112.668,-258.163C135.796,-252.76 163.136,-246.373 186.325,-240.955"/>
<polygon fill="midnightblue" stroke="midnightblue" points="111.646,-254.807 102.704,-260.491 113.238,-261.624 111.646,-254.807"/>
</g>
<!-- Node6 -->
<g id="node3" class="node"><title>Node6</title>
<g id="a_node3"><a xlink:href="classMixer_1_1SineGenerator.html" target="_top" xlink:title="Mixer::SineGenerator\&lt; T \&gt;">
<polygon fill="none" stroke="black" points="355,-219.5 355,-238.5 488,-238.5 488,-219.5 355,-219.5"/>
<text text-anchor="middle" x="421.5" y="-226.5" font-family="Helvetica,sans-Serif" font-size="10.00">Mixer::SineGenerator&lt; T &gt;</text>
</a>
</g>
</g>
<!-- Node37&#45;&gt;Node6 -->
<g id="edge2" class="edge"><title>Node37&#45;&gt;Node6</title>
<path fill="none" stroke="midnightblue" d="M122.14,-269.297C174.432,-267.962 252.093,-264.238 319,-254 342.321,-250.432 368.131,-244.04 387.888,-238.614"/>
<polygon fill="midnightblue" stroke="midnightblue" points="121.947,-265.8 112.031,-269.533 122.11,-272.798 121.947,-265.8"/>
</g>
<!-- Node28 -->
<g id="node4" class="node"><title>Node28</title>
<g id="a_node4"><a xlink:href="classMixer_1_1iPlayer.html" target="_top" xlink:title="Mixer::iPlayer">
<polygon fill="none" stroke="black" points="22.5,-219.5 22.5,-238.5 99.5,-238.5 99.5,-219.5 22.5,-219.5"/>
<text text-anchor="middle" x="61" y="-226.5" font-family="Helvetica,sans-Serif" font-size="10.00">Mixer::iPlayer</text>
</a>
</g>
</g>
<!-- Node28&#45;&gt;Node7 -->
<g id="edge3" class="edge"><title>Node28&#45;&gt;Node7</title>
<path fill="none" stroke="midnightblue" d="M109.811,-229C133.5,-229 162.125,-229 186.264,-229"/>
<polygon fill="midnightblue" stroke="midnightblue" points="109.649,-225.5 99.6492,-229 109.649,-232.5 109.649,-225.5"/>
</g>
<!-- Node0 -->
<g id="node5" class="node"><title>Node0</title>
<g id="a_node5"><a xlink:href="classDataFlow_1_1iSource.html" target="_top" xlink:title="DataFlow::iSource\&lt; T \&gt;">
<polygon fill="none" stroke="black" points="0,-106.5 0,-125.5 122,-125.5 122,-106.5 0,-106.5"/>
<text text-anchor="middle" x="61" y="-113.5" font-family="Helvetica,sans-Serif" font-size="10.00">DataFlow::iSource&lt; T &gt;</text>
</a>
</g>
</g>
<!-- Node0&#45;&gt;Node7 -->
<g id="edge10" class="edge"><title>Node0&#45;&gt;Node7</title>
<path fill="none" stroke="midnightblue" d="M76.5695,-133.317C94.0372,-153.051 125.099,-185.018 158,-204 166.772,-209.061 176.692,-213.224 186.474,-216.601"/>
<polygon fill="midnightblue" stroke="midnightblue" points="79.1452,-130.945 69.9499,-125.682 73.8562,-135.531 79.1452,-130.945"/>
</g>
<!-- Node1 -->
<g id="node6" class="node"><title>Node1</title>
<g id="a_node6"><a xlink:href="classDataFlow_1_1Applicator.html" target="_top" xlink:title="DataFlow::Applicator\l\&lt; T, K \&gt;">
<polygon fill="none" stroke="black" points="184.5,-126 184.5,-156 292.5,-156 292.5,-126 184.5,-126"/>
<text text-anchor="start" x="192.5" y="-144" font-family="Helvetica,sans-Serif" font-size="10.00">DataFlow::Applicator</text>
<text text-anchor="middle" x="238.5" y="-133" font-family="Helvetica,sans-Serif" font-size="10.00">&lt; T, K &gt;</text>
</a>
</g>
</g>
<!-- Node0&#45;&gt;Node1 -->
<g id="edge4" class="edge"><title>Node0&#45;&gt;Node1</title>
<path fill="none" stroke="midnightblue" d="M132.455,-126.036C149.756,-128.501 167.992,-131.099 184.325,-133.425"/>
<polygon fill="midnightblue" stroke="midnightblue" points="132.791,-122.549 122.397,-124.604 131.804,-129.479 132.791,-122.549"/>
</g>
<!-- Node2 -->
<g id="node7" class="node"><title>Node2</title>
<g id="a_node7"><a xlink:href="classDataFlow_1_1Consolidator.html" target="_top" xlink:title="DataFlow::Consolidator\l\&lt; T, K \&gt;">
<polygon fill="none" stroke="black" points="179,-77 179,-107 298,-107 298,-77 179,-77"/>
<text text-anchor="start" x="187" y="-95" font-family="Helvetica,sans-Serif" font-size="10.00">DataFlow::Consolidator</text>
<text text-anchor="middle" x="238.5" y="-84" font-family="Helvetica,sans-Serif" font-size="10.00">&lt; T, K &gt;</text>
</a>
</g>
</g>
<!-- Node0&#45;&gt;Node2 -->
<g id="edge5" class="edge"><title>Node0&#45;&gt;Node2</title>
<path fill="none" stroke="midnightblue" d="M132.381,-106.375C147.767,-104.271 163.896,-102.065 178.771,-100.031"/>
<polygon fill="midnightblue" stroke="midnightblue" points="131.831,-102.918 122.397,-107.741 132.779,-109.853 131.831,-102.918"/>
</g>
<!-- Node3 -->
<g id="node8" class="node"><title>Node3</title>
<g id="a_node8"><a xlink:href="classDataFlow_1_1iBuffer.html" target="_top" xlink:title="DataFlow::iBuffer\&lt; T \&gt;">
<polygon fill="none" stroke="black" points="180,-38.5 180,-57.5 297,-57.5 297,-38.5 180,-38.5"/>
<text text-anchor="middle" x="238.5" y="-45.5" font-family="Helvetica,sans-Serif" font-size="10.00">DataFlow::iBuffer&lt; T &gt;</text>
</a>
</g>
</g>
<!-- Node0&#45;&gt;Node3 -->
<g id="edge6" class="edge"><title>Node0&#45;&gt;Node3</title>
<path fill="none" stroke="midnightblue" d="M86.641,-101.36C105.61,-90.6049 132.768,-76.3041 158,-67 167.986,-63.3178 178.944,-60.1624 189.448,-57.5411"/>
<polygon fill="midnightblue" stroke="midnightblue" points="84.6948,-98.4416 77.7766,-106.466 88.1888,-104.507 84.6948,-98.4416"/>
</g>
<!-- Node5 -->
<g id="node10" class="node"><title>Node5</title>
<g id="a_node10"><a xlink:href="classMixer_1_1iWaveformGenerator.html" target="_top" xlink:title="Mixer::iWaveformGenerator\&lt; T \&gt;">
<polygon fill="none" stroke="black" points="158,-175.5 158,-194.5 319,-194.5 319,-175.5 158,-175.5"/>
<text text-anchor="middle" x="238.5" y="-182.5" font-family="Helvetica,sans-Serif" font-size="10.00">Mixer::iWaveformGenerator&lt; T &gt;</text>
</a>
</g>
</g>
<!-- Node0&#45;&gt;Node5 -->
<g id="edge8" class="edge"><title>Node0&#45;&gt;Node5</title>
<path fill="none" stroke="midnightblue" d="M87.013,-130.746C105.982,-141.434 132.973,-155.603 158,-165 168.792,-169.052 180.714,-172.543 191.97,-175.421"/>
<polygon fill="midnightblue" stroke="midnightblue" points="88.5517,-127.594 78.1337,-125.666 85.0758,-133.67 88.5517,-127.594"/>
</g>
<!-- Node8 -->
<g id="node11" class="node"><title>Node8</title>
<g id="a_node11"><a xlink:href="classOggFileLoader.html" target="_top" xlink:title="OggFileLoader\&lt; T, K \&gt;">
<polygon fill="none" stroke="black" points="180.5,-0.5 180.5,-19.5 296.5,-19.5 296.5,-0.5 180.5,-0.5"/>
<text text-anchor="middle" x="238.5" y="-7.5" font-family="Helvetica,sans-Serif" font-size="10.00">OggFileLoader&lt; T, K &gt;</text>
</a>
</g>
</g>
<!-- Node0&#45;&gt;Node8 -->
<g id="edge11" class="edge"><title>Node0&#45;&gt;Node8</title>
<path fill="none" stroke="midnightblue" d="M76.1154,-98.7867C93.3568,-78.9224 124.404,-46.7229 158,-29 165.28,-25.1597 173.342,-22.0843 181.458,-19.6242"/>
<polygon fill="midnightblue" stroke="midnightblue" points="73.4015,-96.5755 69.6044,-106.467 78.7409,-101.102 73.4015,-96.5755"/>
</g>
<!-- Node4 -->
<g id="node9" class="node"><title>Node4</title>
<g id="a_node9"><a xlink:href="classQueueBuffer.html" target="_top" xlink:title="QueueBuffer\&lt; T \&gt;">
<polygon fill="none" stroke="black" points="374,-38.5 374,-57.5 469,-57.5 469,-38.5 374,-38.5"/>
<text text-anchor="middle" x="421.5" y="-45.5" font-family="Helvetica,sans-Serif" font-size="10.00">QueueBuffer&lt; T &gt;</text>
</a>
</g>
</g>
<!-- Node3&#45;&gt;Node4 -->
<g id="edge7" class="edge"><title>Node3&#45;&gt;Node4</title>
<path fill="none" stroke="midnightblue" d="M307.298,-48C329.472,-48 353.59,-48 373.845,-48"/>
<polygon fill="midnightblue" stroke="midnightblue" points="307.267,-44.5001 297.267,-48 307.267,-51.5001 307.267,-44.5001"/>
</g>
<!-- Node5&#45;&gt;Node6 -->
<g id="edge9" class="edge"><title>Node5&#45;&gt;Node6</title>
<path fill="none" stroke="midnightblue" d="M289.545,-196.905C299.316,-199.245 309.481,-201.69 319,-204 339.811,-209.05 363.002,-214.756 381.957,-219.44"/>
<polygon fill="midnightblue" stroke="midnightblue" points="290.089,-193.436 279.549,-194.514 288.461,-200.244 290.089,-193.436"/>
</g>
</g>
</svg>
