<?xml version="1.0" encoding="UTF-8" standalone="no"?>
<!DOCTYPE svg PUBLIC "-//W3C//DTD SVG 1.1//EN"
 "http://www.w3.org/Graphics/SVG/1.1/DTD/svg11.dtd">
<!-- Generated by graphviz version 2.38.0 (20140413.2041)
 -->
<!-- Title: Oszt치lyhierarchia&#45;치bra Pages: 1 -->
<svg width="570pt" height="458pt"
 viewBox="0.00 0.00 570.00 457.50" xmlns="http://www.w3.org/2000/svg" xmlns:xlink="http://www.w3.org/1999/xlink">
<g id="graph0" class="graph" transform="scale(1 1) rotate(0) translate(4 453.5)">
<title>Oszt치lyhierarchia&#45;치bra</title>
<!-- Node48 -->
<g id="node1" class="node"><title>Node48</title>
<g id="a_node1"><a xlink:href="classMixer_1_1AudioSource.html" target="_top" xlink:title="Mixer::AudioSource">
<polygon fill="none" stroke="black" points="192.5,-240 192.5,-259 294.5,-259 294.5,-240 192.5,-240"/>
<text text-anchor="middle" x="243.5" y="-247" font-family="Helvetica,sans-Serif" font-size="10.00">Mixer::AudioSource</text>
</a>
</g>
</g>
<!-- Node8 -->
<g id="node2" class="node"><title>Node8</title>
<g id="a_node2"><a xlink:href="classMixer_1_1CheapSawtoothGenerator.html" target="_top" xlink:title="Mixer::CheapSawtoothGenerator\&lt; T \&gt;">
<polygon fill="none" stroke="black" points="372,-202 372,-221 555,-221 555,-202 372,-202"/>
<text text-anchor="middle" x="463.5" y="-209" font-family="Helvetica,sans-Serif" font-size="10.00">Mixer::CheapSawtoothGenerator&lt; T &gt;</text>
</a>
</g>
</g>
<!-- Node48&#45;&gt;Node8 -->
<g id="edge1" class="edge"><title>Node48&#45;&gt;Node8</title>
<path fill="none" stroke="midnightblue" d="M304.711,-239.004C336.955,-233.384 376.377,-226.512 407.75,-221.044"/>
<polygon fill="midnightblue" stroke="midnightblue" points="303.764,-235.617 294.514,-240.782 304.966,-242.513 303.764,-235.617"/>
</g>
<!-- Node9 -->
<g id="node3" class="node"><title>Node9</title>
<g id="a_node3"><a xlink:href="classMixer_1_1CheapSquareGenerator.html" target="_top" xlink:title="Mixer::CheapSquareGenerator\&lt; T \&gt;">
<polygon fill="none" stroke="black" points="377,-392 377,-411 550,-411 550,-392 377,-392"/>
<text text-anchor="middle" x="463.5" y="-399" font-family="Helvetica,sans-Serif" font-size="10.00">Mixer::CheapSquareGenerator&lt; T &gt;</text>
</a>
</g>
</g>
<!-- Node48&#45;&gt;Node9 -->
<g id="edge2" class="edge"><title>Node48&#45;&gt;Node9</title>
<path fill="none" stroke="midnightblue" d="M304.522,-254.77C313.523,-257.767 322.088,-262.15 329,-268.5 368.128,-304.446 325.36,-347.119 365,-382.5 369.246,-386.29 374.017,-389.418 379.108,-391.992"/>
<polygon fill="midnightblue" stroke="midnightblue" points="305.212,-251.329 294.641,-252.033 303.344,-258.075 305.212,-251.329"/>
</g>
<!-- Node6 -->
<g id="node4" class="node"><title>Node6</title>
<g id="a_node4"><a xlink:href="classMixer_1_1ComplexWaveformGenerator.html" target="_top" xlink:title="Mixer::ComplexWaveformGenerator\&lt; T \&gt;">
<polygon fill="none" stroke="black" points="365,-164 365,-183 562,-183 562,-164 365,-164"/>
<text text-anchor="middle" x="463.5" y="-171" font-family="Helvetica,sans-Serif" font-size="10.00">Mixer::ComplexWaveformGenerator&lt; T &gt;</text>
</a>
</g>
</g>
<!-- Node48&#45;&gt;Node6 -->
<g id="edge3" class="edge"><title>Node48&#45;&gt;Node6</title>
<path fill="none" stroke="midnightblue" d="M304.29,-240.734C312.897,-238.155 321.401,-234.818 329,-230.5 349.226,-219.005 344.611,-203.703 365,-192.5 372.104,-188.597 379.885,-185.486 387.857,-183.009"/>
<polygon fill="midnightblue" stroke="midnightblue" points="303.327,-237.368 294.572,-243.335 305.137,-244.13 303.327,-237.368"/>
</g>
<!-- Node10 -->
<g id="node5" class="node"><title>Node10</title>
<g id="a_node5"><a xlink:href="classMixer_1_1SawtoothGenerator.html" target="_top" xlink:title="Mixer::SawtoothGenerator\&lt; T \&gt;">
<polygon fill="none" stroke="black" points="386,-354 386,-373 541,-373 541,-354 386,-354"/>
<text text-anchor="middle" x="463.5" y="-361" font-family="Helvetica,sans-Serif" font-size="10.00">Mixer::SawtoothGenerator&lt; T &gt;</text>
</a>
</g>
</g>
<!-- Node48&#45;&gt;Node10 -->
<g id="edge4" class="edge"><title>Node48&#45;&gt;Node10</title>
<path fill="none" stroke="midnightblue" d="M304.447,-255.81C313.305,-258.698 321.844,-262.774 329,-268.5 358.184,-291.85 335.484,-321.571 365,-344.5 371.265,-349.367 378.426,-353.098 385.96,-355.944"/>
<polygon fill="midnightblue" stroke="midnightblue" points="305.333,-252.424 294.761,-253.121 303.461,-259.169 305.333,-252.424"/>
</g>
<!-- Node14 -->
<g id="node6" class="node"><title>Node14</title>
<g id="a_node6"><a xlink:href="classMixer_1_1SimpleNote.html" target="_top" xlink:title="Mixer::SimpleNote\&lt;\l T, A, D \&gt;">
<polygon fill="none" stroke="black" points="411.5,-114.5 411.5,-144.5 515.5,-144.5 515.5,-114.5 411.5,-114.5"/>
<text text-anchor="start" x="419.5" y="-132.5" font-family="Helvetica,sans-Serif" font-size="10.00">Mixer::SimpleNote&lt;</text>
<text text-anchor="middle" x="463.5" y="-121.5" font-family="Helvetica,sans-Serif" font-size="10.00"> T, A, D &gt;</text>
</a>
</g>
</g>
<!-- Node48&#45;&gt;Node14 -->
<g id="edge5" class="edge"><title>Node48&#45;&gt;Node14</title>
<path fill="none" stroke="midnightblue" d="M304.447,-243.19C313.305,-240.302 321.844,-236.226 329,-230.5 358.184,-207.15 336.167,-178.283 365,-154.5 378.009,-143.77 395.064,-137.577 411.267,-134.025"/>
<polygon fill="midnightblue" stroke="midnightblue" points="303.461,-239.831 294.761,-245.879 305.333,-246.576 303.461,-239.831"/>
</g>
<!-- Node15 -->
<g id="node7" class="node"><title>Node15</title>
<g id="a_node7"><a xlink:href="classMixer_1_1SimplePlayer.html" target="_top" xlink:title="Mixer::SimplePlayer\l\&lt; T, K \&gt;">
<polygon fill="none" stroke="black" points="411.5,-65.5 411.5,-95.5 515.5,-95.5 515.5,-65.5 411.5,-65.5"/>
<text text-anchor="start" x="419.5" y="-83.5" font-family="Helvetica,sans-Serif" font-size="10.00">Mixer::SimplePlayer</text>
<text text-anchor="middle" x="463.5" y="-72.5" font-family="Helvetica,sans-Serif" font-size="10.00">&lt; T, K &gt;</text>
</a>
</g>
</g>
<!-- Node48&#45;&gt;Node15 -->
<g id="edge6" class="edge"><title>Node48&#45;&gt;Node15</title>
<path fill="none" stroke="midnightblue" d="M304.673,-244.393C313.656,-241.376 322.176,-236.945 329,-230.5 371.342,-190.51 323.064,-144.915 365,-104.5 377.427,-92.5242 394.823,-86.2217 411.488,-82.9956"/>
<polygon fill="midnightblue" stroke="midnightblue" points="303.497,-241.087 294.801,-247.14 305.374,-247.831 303.497,-241.087"/>
</g>
<!-- Node11 -->
<g id="node8" class="node"><title>Node11</title>
<g id="a_node8"><a xlink:href="classMixer_1_1SineGenerator.html" target="_top" xlink:title="Mixer::SineGenerator\&lt; T \&gt;">
<polygon fill="none" stroke="black" points="397,-316 397,-335 530,-335 530,-316 397,-316"/>
<text text-anchor="middle" x="463.5" y="-323" font-family="Helvetica,sans-Serif" font-size="10.00">Mixer::SineGenerator&lt; T &gt;</text>
</a>
</g>
</g>
<!-- Node48&#45;&gt;Node11 -->
<g id="edge7" class="edge"><title>Node48&#45;&gt;Node11</title>
<path fill="none" stroke="midnightblue" d="M304.29,-258.266C312.897,-260.845 321.401,-264.182 329,-268.5 349.226,-279.995 344.611,-295.297 365,-306.5 374.749,-311.857 385.774,-315.72 396.814,-318.503"/>
<polygon fill="midnightblue" stroke="midnightblue" points="305.137,-254.87 294.572,-255.665 303.327,-261.632 305.137,-254.87"/>
</g>
<!-- Node12 -->
<g id="node9" class="node"><title>Node12</title>
<g id="a_node9"><a xlink:href="classMixer_1_1SquareGenerator.html" target="_top" xlink:title="Mixer::SquareGenerator\&lt; T \&gt;">
<polygon fill="none" stroke="black" points="391.5,-278 391.5,-297 535.5,-297 535.5,-278 391.5,-278"/>
<text text-anchor="middle" x="463.5" y="-285" font-family="Helvetica,sans-Serif" font-size="10.00">Mixer::SquareGenerator&lt; T &gt;</text>
</a>
</g>
</g>
<!-- Node48&#45;&gt;Node12 -->
<g id="edge8" class="edge"><title>Node48&#45;&gt;Node12</title>
<path fill="none" stroke="midnightblue" d="M304.711,-259.996C336.955,-265.616 376.377,-272.488 407.75,-277.956"/>
<polygon fill="midnightblue" stroke="midnightblue" points="304.966,-256.487 294.514,-258.218 303.764,-263.383 304.966,-256.487"/>
</g>
<!-- Node13 -->
<g id="node10" class="node"><title>Node13</title>
<g id="a_node10"><a xlink:href="classMixer_1_1TriangleGenerator.html" target="_top" xlink:title="Mixer::TriangleGenerator\&lt; T \&gt;">
<polygon fill="none" stroke="black" points="389.5,-240 389.5,-259 537.5,-259 537.5,-240 389.5,-240"/>
<text text-anchor="middle" x="463.5" y="-247" font-family="Helvetica,sans-Serif" font-size="10.00">Mixer::TriangleGenerator&lt; T &gt;</text>
</a>
</g>
</g>
<!-- Node48&#45;&gt;Node13 -->
<g id="edge9" class="edge"><title>Node48&#45;&gt;Node13</title>
<path fill="none" stroke="midnightblue" d="M304.657,-249.5C330.802,-249.5 361.674,-249.5 389.15,-249.5"/>
<polygon fill="midnightblue" stroke="midnightblue" points="304.514,-246 294.514,-249.5 304.514,-253 304.514,-246"/>
</g>
<!-- Node39 -->
<g id="node11" class="node"><title>Node39</title>
<g id="a_node11"><a xlink:href="classMixer_1_1iPlayer.html" target="_top" xlink:title="Mixer::iPlayer">
<polygon fill="none" stroke="black" points="205,-50 205,-69 282,-69 282,-50 205,-50"/>
<text text-anchor="middle" x="243.5" y="-57" font-family="Helvetica,sans-Serif" font-size="10.00">Mixer::iPlayer</text>
</a>
</g>
</g>
<!-- Node39&#45;&gt;Node15 -->
<g id="edge10" class="edge"><title>Node39&#45;&gt;Node15</title>
<path fill="none" stroke="midnightblue" d="M292.52,-64.1258C327.766,-67.521 375.553,-72.1244 411.483,-75.5855"/>
<polygon fill="midnightblue" stroke="midnightblue" points="292.762,-60.633 282.473,-63.1579 292.091,-67.6007 292.762,-60.633"/>
</g>
<!-- Node0 -->
<g id="node12" class="node"><title>Node0</title>
<g id="a_node12"><a xlink:href="classDataFlow_1_1iSource.html" target="_top" xlink:title="DataFlow::iSource\&lt; T \&gt;">
<polygon fill="none" stroke="black" points="0,-202 0,-221 122,-221 122,-202 0,-202"/>
<text text-anchor="middle" x="61" y="-209" font-family="Helvetica,sans-Serif" font-size="10.00">DataFlow::iSource&lt; T &gt;</text>
</a>
</g>
</g>
<!-- Node0&#45;&gt;Node6 -->
<g id="edge16" class="edge"><title>Node0&#45;&gt;Node6</title>
<path fill="none" stroke="midnightblue" d="M113.959,-199.906C128.176,-197.093 143.628,-194.362 158,-192.5 226.812,-183.584 304.934,-178.818 364.82,-176.289"/>
<polygon fill="midnightblue" stroke="midnightblue" points="112.961,-196.537 103.858,-201.958 114.355,-203.397 112.961,-196.537"/>
</g>
<!-- Node0&#45;&gt;Node14 -->
<g id="edge24" class="edge"><title>Node0&#45;&gt;Node14</title>
<path fill="none" stroke="midnightblue" d="M92.3245,-197.826C110.937,-189.936 135.451,-180.433 158,-174.5 245.468,-151.485 350.376,-139.232 411.432,-133.571"/>
<polygon fill="midnightblue" stroke="midnightblue" points="90.6997,-194.715 82.907,-201.893 93.4751,-201.141 90.6997,-194.715"/>
</g>
<!-- Node0&#45;&gt;Node15 -->
<g id="edge25" class="edge"><title>Node0&#45;&gt;Node15</title>
<path fill="none" stroke="midnightblue" d="M79.1346,-195.083C97.2579,-178.675 127.411,-154.002 158,-140.5 242.044,-103.403 349.208,-89.1059 411.415,-83.6937"/>
<polygon fill="midnightblue" stroke="midnightblue" points="76.656,-192.608 71.6958,-201.97 81.4116,-197.744 76.656,-192.608"/>
</g>
<!-- Node1 -->
<g id="node13" class="node"><title>Node1</title>
<g id="a_node13"><a xlink:href="classDataFlow_1_1Consolidator.html" target="_top" xlink:title="DataFlow::Consolidator\l\&lt; T, Consolidation::Accumulation \&gt;">
<polygon fill="none" stroke="black" points="158,-0.5 158,-30.5 329,-30.5 329,-0.5 158,-0.5"/>
<text text-anchor="start" x="166" y="-18.5" font-family="Helvetica,sans-Serif" font-size="10.00">DataFlow::Consolidator</text>
<text text-anchor="middle" x="243.5" y="-7.5" font-family="Helvetica,sans-Serif" font-size="10.00">&lt; T, Consolidation::Accumulation &gt;</text>
</a>
</g>
</g>
<!-- Node0&#45;&gt;Node1 -->
<g id="edge11" class="edge"><title>Node0&#45;&gt;Node1</title>
<path fill="none" stroke="midnightblue" d="M67.5549,-191.992C78.6835,-156.456 107.111,-81.1032 158,-40.5 162.903,-36.588 168.403,-33.2877 174.183,-30.5037"/>
<polygon fill="midnightblue" stroke="midnightblue" points="64.1758,-191.075 64.6508,-201.66 70.8798,-193.089 64.1758,-191.075"/>
</g>
<!-- Node2 -->
<g id="node14" class="node"><title>Node2</title>
<g id="a_node14"><a xlink:href="classDataFlow_1_1Applicator.html" target="_top" xlink:title="DataFlow::Applicator\l\&lt; T, K \&gt;">
<polygon fill="none" stroke="black" points="189.5,-403.5 189.5,-433.5 297.5,-433.5 297.5,-403.5 189.5,-403.5"/>
<text text-anchor="start" x="197.5" y="-421.5" font-family="Helvetica,sans-Serif" font-size="10.00">DataFlow::Applicator</text>
<text text-anchor="middle" x="243.5" y="-410.5" font-family="Helvetica,sans-Serif" font-size="10.00">&lt; T, K &gt;</text>
</a>
</g>
</g>
<!-- Node0&#45;&gt;Node2 -->
<g id="edge12" class="edge"><title>Node0&#45;&gt;Node2</title>
<path fill="none" stroke="midnightblue" d="M66.8106,-231.343C76.9745,-268.973 104.246,-350.835 158,-394.5 166.996,-401.808 178.098,-406.892 189.263,-410.428"/>
<polygon fill="midnightblue" stroke="midnightblue" points="70.0763,-229.989 64.1952,-221.177 63.297,-231.733 70.0763,-229.989"/>
</g>
<!-- Node3 -->
<g id="node15" class="node"><title>Node3</title>
<g id="a_node15"><a xlink:href="classDataFlow_1_1Consolidator.html" target="_top" xlink:title="DataFlow::Consolidator\l\&lt; T, K \&gt;">
<polygon fill="none" stroke="black" points="184,-354.5 184,-384.5 303,-384.5 303,-354.5 184,-354.5"/>
<text text-anchor="start" x="192" y="-372.5" font-family="Helvetica,sans-Serif" font-size="10.00">DataFlow::Consolidator</text>
<text text-anchor="middle" x="243.5" y="-361.5" font-family="Helvetica,sans-Serif" font-size="10.00">&lt; T, K &gt;</text>
</a>
</g>
</g>
<!-- Node0&#45;&gt;Node3 -->
<g id="edge13" class="edge"><title>Node0&#45;&gt;Node3</title>
<path fill="none" stroke="midnightblue" d="M70.6929,-230.626C84.8386,-259.603 115.582,-314.434 158,-344.5 165.738,-349.985 174.685,-354.28 183.8,-357.639"/>
<polygon fill="midnightblue" stroke="midnightblue" points="73.6808,-228.757 66.2414,-221.213 67.3528,-231.749 73.6808,-228.757"/>
</g>
<!-- Node4 -->
<g id="node16" class="node"><title>Node4</title>
<g id="a_node16"><a xlink:href="classDataFlow_1_1iBuffer.html" target="_top" xlink:title="DataFlow::iBuffer\&lt; T \&gt;">
<polygon fill="none" stroke="black" points="185,-316 185,-335 302,-335 302,-316 185,-316"/>
<text text-anchor="middle" x="243.5" y="-323" font-family="Helvetica,sans-Serif" font-size="10.00">DataFlow::iBuffer&lt; T &gt;</text>
</a>
</g>
</g>
<!-- Node0&#45;&gt;Node4 -->
<g id="edge14" class="edge"><title>Node0&#45;&gt;Node4</title>
<path fill="none" stroke="midnightblue" d="M74.7201,-229.119C91.3496,-250.799 122.565,-287.111 158,-306.5 166.178,-310.975 175.352,-314.397 184.558,-317.013"/>
<polygon fill="midnightblue" stroke="midnightblue" points="77.4958,-226.987 68.7044,-221.074 71.8897,-231.179 77.4958,-226.987"/>
</g>
<!-- Node7 -->
<g id="node18" class="node"><title>Node7</title>
<g id="a_node18"><a xlink:href="classMixer_1_1iWaveformGenerator.html" target="_top" xlink:title="Mixer::iWaveformGenerator\&lt; T \&gt;">
<polygon fill="none" stroke="black" points="163,-278 163,-297 324,-297 324,-278 163,-278"/>
<text text-anchor="middle" x="243.5" y="-285" font-family="Helvetica,sans-Serif" font-size="10.00">Mixer::iWaveformGenerator&lt; T &gt;</text>
</a>
</g>
</g>
<!-- Node0&#45;&gt;Node7 -->
<g id="edge17" class="edge"><title>Node0&#45;&gt;Node7</title>
<path fill="none" stroke="midnightblue" d="M83.3825,-226.879C102.196,-239.738 130.758,-257.667 158,-268.5 167.501,-272.278 177.917,-275.39 188.091,-277.922"/>
<polygon fill="midnightblue" stroke="midnightblue" points="85.1851,-223.869 74.9786,-221.027 81.185,-229.614 85.1851,-223.869"/>
</g>
<!-- Node16 -->
<g id="node19" class="node"><title>Node16</title>
<g id="a_node19"><a xlink:href="classOggFileLoader.html" target="_top" xlink:title="OggFileLoader\&lt; T, K \&gt;">
<polygon fill="none" stroke="black" points="185.5,-202 185.5,-221 301.5,-221 301.5,-202 185.5,-202"/>
<text text-anchor="middle" x="243.5" y="-209" font-family="Helvetica,sans-Serif" font-size="10.00">OggFileLoader&lt; T, K &gt;</text>
</a>
</g>
</g>
<!-- Node0&#45;&gt;Node16 -->
<g id="edge26" class="edge"><title>Node0&#45;&gt;Node16</title>
<path fill="none" stroke="midnightblue" d="M132.315,-211.5C149.902,-211.5 168.552,-211.5 185.41,-211.5"/>
<polygon fill="midnightblue" stroke="midnightblue" points="132.104,-208 122.104,-211.5 132.104,-215 132.104,-208"/>
</g>
<!-- Node5 -->
<g id="node17" class="node"><title>Node5</title>
<g id="a_node17"><a xlink:href="classQueueBuffer.html" target="_top" xlink:title="QueueBuffer\&lt; T \&gt;">
<polygon fill="none" stroke="black" points="416,-430 416,-449 511,-449 511,-430 416,-430"/>
<text text-anchor="middle" x="463.5" y="-437" font-family="Helvetica,sans-Serif" font-size="10.00">QueueBuffer&lt; T &gt;</text>
</a>
</g>
</g>
<!-- Node4&#45;&gt;Node5 -->
<g id="edge15" class="edge"><title>Node4&#45;&gt;Node5</title>
<path fill="none" stroke="midnightblue" d="M312.03,-335.497C318.13,-338.124 323.914,-341.405 329,-345.5 357.8,-368.687 335.742,-397.893 365,-420.5 379.329,-431.572 398.306,-436.757 415.707,-439.023"/>
<polygon fill="midnightblue" stroke="midnightblue" points="312.833,-332.063 302.239,-331.886 310.41,-338.63 312.833,-332.063"/>
</g>
<!-- Node7&#45;&gt;Node8 -->
<g id="edge18" class="edge"><title>Node7&#45;&gt;Node8</title>
<path fill="none" stroke="midnightblue" d="M316.594,-274.444C320.898,-272.704 325.07,-270.733 329,-268.5 349.226,-257.005 344.611,-241.703 365,-230.5 372.104,-226.597 379.885,-223.486 387.857,-221.009"/>
<polygon fill="midnightblue" stroke="midnightblue" points="315.232,-271.214 307.007,-277.893 317.601,-277.801 315.232,-271.214"/>
</g>
<!-- Node7&#45;&gt;Node9 -->
<g id="edge19" class="edge"><title>Node7&#45;&gt;Node9</title>
<path fill="none" stroke="midnightblue" d="M322.35,-301.862C324.668,-303.273 326.894,-304.815 329,-306.5 358.184,-329.85 335.484,-359.571 365,-382.5 369.903,-386.309 375.355,-389.422 381.105,-391.96"/>
<polygon fill="midnightblue" stroke="midnightblue" points="323.498,-298.516 313.006,-297.044 320.29,-304.738 323.498,-298.516"/>
</g>
<!-- Node7&#45;&gt;Node10 -->
<g id="edge20" class="edge"><title>Node7&#45;&gt;Node10</title>
<path fill="none" stroke="midnightblue" d="M316.594,-300.556C320.898,-302.296 325.07,-304.267 329,-306.5 349.226,-317.995 344.611,-333.297 365,-344.5 372.104,-348.403 379.885,-351.514 387.857,-353.991"/>
<polygon fill="midnightblue" stroke="midnightblue" points="317.601,-297.199 307.007,-297.107 315.232,-303.786 317.601,-297.199"/>
</g>
<!-- Node7&#45;&gt;Node11 -->
<g id="edge21" class="edge"><title>Node7&#45;&gt;Node11</title>
<path fill="none" stroke="midnightblue" d="M309.188,-298.776C340.551,-304.243 377.813,-310.738 407.748,-315.956"/>
<polygon fill="midnightblue" stroke="midnightblue" points="309.682,-295.309 299.229,-297.04 308.48,-302.205 309.682,-295.309"/>
</g>
<!-- Node7&#45;&gt;Node12 -->
<g id="edge22" class="edge"><title>Node7&#45;&gt;Node12</title>
<path fill="none" stroke="midnightblue" d="M334.296,-287.5C353.325,-287.5 373.161,-287.5 391.383,-287.5"/>
<polygon fill="midnightblue" stroke="midnightblue" points="334.128,-284 324.128,-287.5 334.128,-291 334.128,-284"/>
</g>
<!-- Node7&#45;&gt;Node13 -->
<g id="edge23" class="edge"><title>Node7&#45;&gt;Node13</title>
<path fill="none" stroke="midnightblue" d="M309.188,-276.224C340.551,-270.757 377.813,-264.262 407.748,-259.044"/>
<polygon fill="midnightblue" stroke="midnightblue" points="308.48,-272.795 299.229,-277.96 309.682,-279.691 308.48,-272.795"/>
</g>
</g>
</svg>
