<?xml version="1.0" encoding="UTF-8" standalone="no"?>
<!DOCTYPE svg PUBLIC "-//W3C//DTD SVG 1.1//EN"
 "http://www.w3.org/Graphics/SVG/1.1/DTD/svg11.dtd">
<!-- Generated by graphviz version 2.38.0 (20140413.2041)
 -->
<!-- Title: Oszt치lyhierarchia&#45;치bra Pages: 1 -->
<svg width="570pt" height="487pt"
 viewBox="0.00 0.00 570.00 487.46" xmlns="http://www.w3.org/2000/svg" xmlns:xlink="http://www.w3.org/1999/xlink">
<g id="graph0" class="graph" transform="scale(1 1) rotate(0) translate(4 483.463)">
<title>Oszt치lyhierarchia&#45;치bra</title>
<!-- Node50 -->
<g id="node1" class="node"><title>Node50</title>
<g id="a_node1"><a xlink:href="classMixer_1_1AudioSource.html" target="_top" xlink:title="Mixer::AudioSource">
<polygon fill="none" stroke="black" points="192.5,-198.463 192.5,-217.463 294.5,-217.463 294.5,-198.463 192.5,-198.463"/>
<text text-anchor="middle" x="243.5" y="-205.463" font-family="Helvetica,sans-Serif" font-size="10.00">Mixer::AudioSource</text>
</a>
</g>
</g>
<!-- Node9 -->
<g id="node2" class="node"><title>Node9</title>
<g id="a_node2"><a xlink:href="classMixer_1_1CheapSawtoothGenerator.html" target="_top" xlink:title="Mixer::CheapSawtoothGenerator\&lt; T \&gt;">
<polygon fill="none" stroke="black" points="372,-339.463 372,-358.463 555,-358.463 555,-339.463 372,-339.463"/>
<text text-anchor="middle" x="463.5" y="-346.463" font-family="Helvetica,sans-Serif" font-size="10.00">Mixer::CheapSawtoothGenerator&lt; T &gt;</text>
</a>
</g>
</g>
<!-- Node50&#45;&gt;Node9 -->
<g id="edge1" class="edge"><title>Node50&#45;&gt;Node9</title>
<path fill="none" stroke="midnightblue" d="M304.676,-213.519C313.581,-216.492 322.075,-220.792 329,-226.963 365.205,-259.224 328.336,-298.224 365,-329.963 369.303,-333.687 374.116,-336.768 379.238,-339.307"/>
<polygon fill="midnightblue" stroke="midnightblue" points="305.48,-210.11 294.907,-210.789 303.595,-216.851 305.48,-210.11"/>
</g>
<!-- Node10 -->
<g id="node3" class="node"><title>Node10</title>
<g id="a_node3"><a xlink:href="classMixer_1_1CheapSquareGenerator.html" target="_top" xlink:title="Mixer::CheapSquareGenerator\&lt; T \&gt;">
<polygon fill="none" stroke="black" points="377,-301.463 377,-320.463 550,-320.463 550,-301.463 377,-301.463"/>
<text text-anchor="middle" x="463.5" y="-308.463" font-family="Helvetica,sans-Serif" font-size="10.00">Mixer::CheapSquareGenerator&lt; T &gt;</text>
</a>
</g>
</g>
<!-- Node50&#45;&gt;Node10 -->
<g id="edge2" class="edge"><title>Node50&#45;&gt;Node10</title>
<path fill="none" stroke="midnightblue" d="M304.739,-214.867C313.422,-217.69 321.831,-221.591 329,-226.963 355.427,-246.766 338.291,-272.541 365,-291.963 370.161,-295.715 375.866,-298.78 381.851,-301.278"/>
<polygon fill="midnightblue" stroke="midnightblue" points="305.443,-211.429 294.87,-212.116 303.563,-218.172 305.443,-211.429"/>
</g>
<!-- Node7 -->
<g id="node4" class="node"><title>Node7</title>
<g id="a_node4"><a xlink:href="classMixer_1_1ComplexWaveformGenerator.html" target="_top" xlink:title="Mixer::ComplexWaveformGenerator\&lt; T \&gt;">
<polygon fill="none" stroke="black" points="365,-111.463 365,-130.463 562,-130.463 562,-111.463 365,-111.463"/>
<text text-anchor="middle" x="463.5" y="-118.463" font-family="Helvetica,sans-Serif" font-size="10.00">Mixer::ComplexWaveformGenerator&lt; T &gt;</text>
</a>
</g>
</g>
<!-- Node50&#45;&gt;Node7 -->
<g id="edge3" class="edge"><title>Node50&#45;&gt;Node7</title>
<path fill="none" stroke="midnightblue" d="M304.479,-200.131C313.127,-197.427 321.594,-193.806 329,-188.963 351.616,-174.172 342.174,-154.427 365,-139.963 371.118,-136.086 377.853,-132.97 384.838,-130.469"/>
<polygon fill="midnightblue" stroke="midnightblue" points="303.406,-196.796 294.685,-202.811 305.254,-203.547 303.406,-196.796"/>
</g>
<!-- Node51 -->
<g id="node5" class="node"><title>Node51</title>
<g id="a_node5"><a xlink:href="classMixer_1_1Recorder.html" target="_top" xlink:title="Mixer::Recorder\&lt; T \&gt;">
<polygon fill="none" stroke="black" points="408.5,-149.463 408.5,-168.463 518.5,-168.463 518.5,-149.463 408.5,-149.463"/>
<text text-anchor="middle" x="463.5" y="-156.463" font-family="Helvetica,sans-Serif" font-size="10.00">Mixer::Recorder&lt; T &gt;</text>
</a>
</g>
</g>
<!-- Node50&#45;&gt;Node51 -->
<g id="edge4" class="edge"><title>Node50&#45;&gt;Node51</title>
<path fill="none" stroke="midnightblue" d="M299.84,-196.148C309.588,-193.888 319.614,-191.448 329,-188.963 345.173,-184.68 348.767,-182.013 365,-177.963 378.972,-174.477 394.202,-171.244 408.383,-168.469"/>
<polygon fill="midnightblue" stroke="midnightblue" points="298.794,-192.797 289.822,-198.432 300.35,-199.622 298.794,-192.797"/>
</g>
<!-- Node11 -->
<g id="node6" class="node"><title>Node11</title>
<g id="a_node6"><a xlink:href="classMixer_1_1SawtoothGenerator.html" target="_top" xlink:title="Mixer::SawtoothGenerator\&lt; T \&gt;">
<polygon fill="none" stroke="black" points="386,-263.463 386,-282.463 541,-282.463 541,-263.463 386,-263.463"/>
<text text-anchor="middle" x="463.5" y="-270.463" font-family="Helvetica,sans-Serif" font-size="10.00">Mixer::SawtoothGenerator&lt; T &gt;</text>
</a>
</g>
</g>
<!-- Node50&#45;&gt;Node11 -->
<g id="edge5" class="edge"><title>Node50&#45;&gt;Node11</title>
<path fill="none" stroke="midnightblue" d="M304.611,-218.165C312.992,-220.534 321.346,-223.431 329,-226.963 347.16,-235.343 346.722,-245.844 365,-253.963 373.747,-257.848 383.284,-260.941 392.858,-263.404"/>
<polygon fill="midnightblue" stroke="midnightblue" points="305.36,-214.743 294.801,-215.619 303.601,-221.519 305.36,-214.743"/>
</g>
<!-- Node16 -->
<g id="node7" class="node"><title>Node16</title>
<g id="a_node7"><a xlink:href="classMixer_1_1SimpleNote.html" target="_top" xlink:title="Mixer::SimpleNote\&lt;\l T, A, D \&gt;">
<polygon fill="none" stroke="black" points="411.5,-61.9626 411.5,-91.9626 515.5,-91.9626 515.5,-61.9626 411.5,-61.9626"/>
<text text-anchor="start" x="419.5" y="-79.9626" font-family="Helvetica,sans-Serif" font-size="10.00">Mixer::SimpleNote&lt;</text>
<text text-anchor="middle" x="463.5" y="-68.9626" font-family="Helvetica,sans-Serif" font-size="10.00"> T, A, D &gt;</text>
</a>
</g>
</g>
<!-- Node50&#45;&gt;Node16 -->
<g id="edge6" class="edge"><title>Node50&#45;&gt;Node16</title>
<path fill="none" stroke="midnightblue" d="M304.381,-202.066C313.322,-199.135 321.905,-194.937 329,-188.963 361.011,-162.01 333.395,-129.389 365,-101.963 377.868,-90.7958 395.077,-84.5087 411.454,-81.004"/>
<polygon fill="midnightblue" stroke="midnightblue" points="303.297,-198.735 294.592,-204.774 305.164,-205.481 303.297,-198.735"/>
</g>
<!-- Node17 -->
<g id="node8" class="node"><title>Node17</title>
<g id="a_node8"><a xlink:href="classMixer_1_1SimplePlayer.html" target="_top" xlink:title="Mixer::SimplePlayer\l\&lt; T, K \&gt;">
<polygon fill="none" stroke="black" points="411.5,-12.9626 411.5,-42.9626 515.5,-42.9626 515.5,-12.9626 411.5,-12.9626"/>
<text text-anchor="start" x="419.5" y="-30.9626" font-family="Helvetica,sans-Serif" font-size="10.00">Mixer::SimplePlayer</text>
<text text-anchor="middle" x="463.5" y="-19.9626" font-family="Helvetica,sans-Serif" font-size="10.00">&lt; T, K &gt;</text>
</a>
</g>
</g>
<!-- Node50&#45;&gt;Node17 -->
<g id="edge7" class="edge"><title>Node50&#45;&gt;Node17</title>
<path fill="none" stroke="midnightblue" d="M304.791,-202.98C313.761,-199.948 322.245,-195.48 329,-188.963 374.306,-145.25 320.137,-96.1305 365,-51.9626 377.298,-39.855 394.666,-33.5226 411.343,-30.3094"/>
<polygon fill="midnightblue" stroke="midnightblue" points="303.618,-199.674 294.928,-205.734 305.5,-206.416 303.618,-199.674"/>
</g>
<!-- Node12 -->
<g id="node9" class="node"><title>Node12</title>
<g id="a_node9"><a xlink:href="classMixer_1_1SineGenerator.html" target="_top" xlink:title="Mixer::SineGenerator\&lt; T \&gt;">
<polygon fill="none" stroke="black" points="397,-225.463 397,-244.463 530,-244.463 530,-225.463 397,-225.463"/>
<text text-anchor="middle" x="463.5" y="-232.463" font-family="Helvetica,sans-Serif" font-size="10.00">Mixer::SineGenerator&lt; T &gt;</text>
</a>
</g>
</g>
<!-- Node50&#45;&gt;Node12 -->
<g id="edge8" class="edge"><title>Node50&#45;&gt;Node12</title>
<path fill="none" stroke="midnightblue" d="M304.747,-215.424C333.264,-218.956 367.39,-223.183 396.595,-226.8"/>
<polygon fill="midnightblue" stroke="midnightblue" points="304.868,-211.913 294.514,-214.157 304.008,-218.86 304.868,-211.913"/>
</g>
<!-- Node13 -->
<g id="node10" class="node"><title>Node13</title>
<g id="a_node10"><a xlink:href="classMixer_1_1SquareGenerator.html" target="_top" xlink:title="Mixer::SquareGenerator\&lt; T \&gt;">
<polygon fill="none" stroke="black" points="391.5,-187.463 391.5,-206.463 535.5,-206.463 535.5,-187.463 391.5,-187.463"/>
<text text-anchor="middle" x="463.5" y="-194.463" font-family="Helvetica,sans-Serif" font-size="10.00">Mixer::SquareGenerator&lt; T &gt;</text>
</a>
</g>
</g>
<!-- Node50&#45;&gt;Node13 -->
<g id="edge9" class="edge"><title>Node50&#45;&gt;Node13</title>
<path fill="none" stroke="midnightblue" d="M304.535,-204.933C331.37,-203.579 363.203,-201.973 391.237,-200.559"/>
<polygon fill="midnightblue" stroke="midnightblue" points="304.324,-201.439 294.514,-205.439 304.677,-208.431 304.324,-201.439"/>
</g>
<!-- Node14 -->
<g id="node11" class="node"><title>Node14</title>
<g id="a_node11"><a xlink:href="classMixer_1_1TriangleGenerator.html" target="_top" xlink:title="Mixer::TriangleGenerator\&lt; T \&gt;">
<polygon fill="none" stroke="black" points="389.5,-377.463 389.5,-396.463 537.5,-396.463 537.5,-377.463 389.5,-377.463"/>
<text text-anchor="middle" x="463.5" y="-384.463" font-family="Helvetica,sans-Serif" font-size="10.00">Mixer::TriangleGenerator&lt; T &gt;</text>
</a>
</g>
</g>
<!-- Node50&#45;&gt;Node14 -->
<g id="edge10" class="edge"><title>Node50&#45;&gt;Node14</title>
<path fill="none" stroke="midnightblue" d="M304.224,-212.702C313.413,-215.741 322.117,-220.275 329,-226.963 375.387,-272.033 317.97,-323.563 365,-367.963 371.897,-374.474 380.331,-379.064 389.323,-382.259"/>
<polygon fill="midnightblue" stroke="midnightblue" points="305.098,-209.313 294.529,-210.049 303.251,-216.064 305.098,-209.313"/>
</g>
<!-- Node41 -->
<g id="node12" class="node"><title>Node41</title>
<g id="a_node12"><a xlink:href="classMixer_1_1iPlayer.html" target="_top" xlink:title="Mixer::iPlayer">
<polygon fill="none" stroke="black" points="205,-46.4626 205,-65.4626 282,-65.4626 282,-46.4626 205,-46.4626"/>
<text text-anchor="middle" x="243.5" y="-53.4626" font-family="Helvetica,sans-Serif" font-size="10.00">Mixer::iPlayer</text>
</a>
</g>
</g>
<!-- Node41&#45;&gt;Node17 -->
<g id="edge11" class="edge"><title>Node41&#45;&gt;Node17</title>
<path fill="none" stroke="midnightblue" d="M292.52,-49.7949C327.766,-45.268 375.553,-39.1301 411.483,-34.5152"/>
<polygon fill="midnightblue" stroke="midnightblue" points="291.945,-46.3399 282.473,-51.0854 292.837,-53.2829 291.945,-46.3399"/>
</g>
<!-- Node0 -->
<g id="node13" class="node"><title>Node0</title>
<g id="a_node13"><a xlink:href="classDataFlow_1_1iSource.html" target="_top" xlink:title="DataFlow::iSource\&lt; T \&gt;">
<polygon fill="none" stroke="black" points="0,-255.463 0,-274.463 122,-274.463 122,-255.463 0,-255.463"/>
<text text-anchor="middle" x="61" y="-262.463" font-family="Helvetica,sans-Serif" font-size="10.00">DataFlow::iSource&lt; T &gt;</text>
</a>
</g>
</g>
<!-- Node0&#45;&gt;Node7 -->
<g id="edge18" class="edge"><title>Node0&#45;&gt;Node7</title>
<path fill="none" stroke="midnightblue" d="M71.6784,-246.134C86.3707,-219.738 116.99,-172.551 158,-150.963 221.34,-117.62 302.365,-111.066 364.909,-112.338"/>
<polygon fill="midnightblue" stroke="midnightblue" points="68.4915,-244.67 66.8388,-255.135 74.657,-247.985 68.4915,-244.67"/>
</g>
<!-- Node0&#45;&gt;Node16 -->
<g id="edge27" class="edge"><title>Node0&#45;&gt;Node16</title>
<path fill="none" stroke="midnightblue" d="M67.7463,-245.347C78.9054,-211.118 107.006,-141.07 158,-108.963 198.99,-83.1541 335.944,-77.8742 411.452,-76.974"/>
<polygon fill="midnightblue" stroke="midnightblue" points="64.3382,-244.52 64.7109,-255.109 71.0225,-246.599 64.3382,-244.52"/>
</g>
<!-- Node0&#45;&gt;Node17 -->
<g id="edge28" class="edge"><title>Node0&#45;&gt;Node17</title>
<path fill="none" stroke="midnightblue" d="M63.4679,-245.281C68.0595,-199.491 86.4797,-85.988 158,-36.9626 233.577,14.8432 346.32,0.651048 411.311,-13.9369"/>
<polygon fill="midnightblue" stroke="midnightblue" points="59.9691,-245.114 62.5746,-255.384 66.9419,-245.731 59.9691,-245.114"/>
</g>
<!-- Node1 -->
<g id="node14" class="node"><title>Node1</title>
<g id="a_node14"><a xlink:href="classDataFlow_1_1Consolidator.html" target="_top" xlink:title="DataFlow::Consolidator\l\&lt; T, Consolidation::Accumulation \&gt;">
<polygon fill="none" stroke="black" points="158,-448.963 158,-478.963 329,-478.963 329,-448.963 158,-448.963"/>
<text text-anchor="start" x="166" y="-466.963" font-family="Helvetica,sans-Serif" font-size="10.00">DataFlow::Consolidator</text>
<text text-anchor="middle" x="243.5" y="-455.963" font-family="Helvetica,sans-Serif" font-size="10.00">&lt; T, Consolidation::Accumulation &gt;</text>
</a>
</g>
</g>
<!-- Node0&#45;&gt;Node1 -->
<g id="edge12" class="edge"><title>Node0&#45;&gt;Node1</title>
<path fill="none" stroke="midnightblue" d="M67.2232,-284.46C77.948,-320.69 105.935,-398.468 158,-439.963 162.293,-443.384 167.05,-446.318 172.055,-448.834"/>
<polygon fill="midnightblue" stroke="midnightblue" points="70.5337,-283.305 64.4415,-274.637 63.7985,-285.212 70.5337,-283.305"/>
</g>
<!-- Node2 -->
<g id="node15" class="node"><title>Node2</title>
<g id="a_node15"><a xlink:href="classDataFlow_1_1Applicator.html" target="_top" xlink:title="DataFlow::Applicator\l\&lt; T, K \&gt;">
<polygon fill="none" stroke="black" points="189.5,-399.963 189.5,-429.963 297.5,-429.963 297.5,-399.963 189.5,-399.963"/>
<text text-anchor="start" x="197.5" y="-417.963" font-family="Helvetica,sans-Serif" font-size="10.00">DataFlow::Applicator</text>
<text text-anchor="middle" x="243.5" y="-406.963" font-family="Helvetica,sans-Serif" font-size="10.00">&lt; T, K &gt;</text>
</a>
</g>
</g>
<!-- Node0&#45;&gt;Node2 -->
<g id="edge13" class="edge"><title>Node0&#45;&gt;Node2</title>
<path fill="none" stroke="midnightblue" d="M71.1343,-283.537C85.6744,-311.16 116.712,-362.823 158,-390.963 167.325,-397.318 178.32,-402.005 189.24,-405.456"/>
<polygon fill="midnightblue" stroke="midnightblue" points="74.2021,-281.849 66.5354,-274.536 67.9686,-285.033 74.2021,-281.849"/>
</g>
<!-- Node3 -->
<g id="node16" class="node"><title>Node3</title>
<g id="a_node16"><a xlink:href="classDataFlow_1_1Consolidator.html" target="_top" xlink:title="DataFlow::Consolidator\l\&lt; T, K \&gt;">
<polygon fill="none" stroke="black" points="184,-350.963 184,-380.963 303,-380.963 303,-350.963 184,-350.963"/>
<text text-anchor="start" x="192" y="-368.963" font-family="Helvetica,sans-Serif" font-size="10.00">DataFlow::Consolidator</text>
<text text-anchor="middle" x="243.5" y="-357.963" font-family="Helvetica,sans-Serif" font-size="10.00">&lt; T, K &gt;</text>
</a>
</g>
</g>
<!-- Node0&#45;&gt;Node3 -->
<g id="edge14" class="edge"><title>Node0&#45;&gt;Node3</title>
<path fill="none" stroke="midnightblue" d="M78.9061,-281.711C97.0478,-298.827 127.402,-325.086 158,-340.963 166.012,-345.12 174.819,-348.689 183.629,-351.72"/>
<polygon fill="midnightblue" stroke="midnightblue" points="81.1061,-278.971 71.4731,-274.56 76.253,-284.015 81.1061,-278.971"/>
</g>
<!-- Node4 -->
<g id="node17" class="node"><title>Node4</title>
<g id="a_node17"><a xlink:href="classDataFlow_1_1iBuffer.html" target="_top" xlink:title="DataFlow::iBuffer\&lt; T \&gt;">
<polygon fill="none" stroke="black" points="185,-312.463 185,-331.463 302,-331.463 302,-312.463 185,-312.463"/>
<text text-anchor="middle" x="243.5" y="-319.463" font-family="Helvetica,sans-Serif" font-size="10.00">DataFlow::iBuffer&lt; T &gt;</text>
</a>
</g>
</g>
<!-- Node0&#45;&gt;Node4 -->
<g id="edge15" class="edge"><title>Node0&#45;&gt;Node4</title>
<path fill="none" stroke="midnightblue" d="M92.8246,-278.584C111.44,-286.452 135.785,-296.114 158,-302.963 169.495,-306.506 182.058,-309.691 193.898,-312.394"/>
<polygon fill="midnightblue" stroke="midnightblue" points="93.959,-275.263 83.3887,-274.543 91.2032,-281.698 93.959,-275.263"/>
</g>
<!-- Node8 -->
<g id="node20" class="node"><title>Node8</title>
<g id="a_node20"><a xlink:href="classMixer_1_1iWaveformGenerator.html" target="_top" xlink:title="Mixer::iWaveformGenerator\&lt; T \&gt;">
<polygon fill="none" stroke="black" points="163,-274.463 163,-293.463 324,-293.463 324,-274.463 163,-274.463"/>
<text text-anchor="middle" x="243.5" y="-281.463" font-family="Helvetica,sans-Serif" font-size="10.00">Mixer::iWaveformGenerator&lt; T &gt;</text>
</a>
</g>
</g>
<!-- Node0&#45;&gt;Node8 -->
<g id="edge19" class="edge"><title>Node0&#45;&gt;Node8</title>
<path fill="none" stroke="midnightblue" d="M132.344,-272.367C142.31,-273.416 152.617,-274.501 162.745,-275.567"/>
<polygon fill="midnightblue" stroke="midnightblue" points="132.415,-268.856 122.104,-271.289 131.683,-275.817 132.415,-268.856"/>
</g>
<!-- Node15 -->
<g id="node21" class="node"><title>Node15</title>
<g id="a_node21"><a xlink:href="classMixer_1_1Multiplexer.html" target="_top" xlink:title="Mixer::Multiplexer\&lt; T \&gt;">
<polygon fill="none" stroke="black" points="184.5,-236.463 184.5,-255.463 302.5,-255.463 302.5,-236.463 184.5,-236.463"/>
<text text-anchor="middle" x="243.5" y="-243.463" font-family="Helvetica,sans-Serif" font-size="10.00">Mixer::Multiplexer&lt; T &gt;</text>
</a>
</g>
</g>
<!-- Node0&#45;&gt;Node15 -->
<g id="edge26" class="edge"><title>Node0&#45;&gt;Node15</title>
<path fill="none" stroke="midnightblue" d="M132.159,-257.578C149.474,-255.755 167.83,-253.823 184.496,-252.068"/>
<polygon fill="midnightblue" stroke="midnightblue" points="131.683,-254.108 122.104,-258.636 132.415,-261.07 131.683,-254.108"/>
</g>
<!-- Node18 -->
<g id="node22" class="node"><title>Node18</title>
<g id="a_node22"><a xlink:href="classOggFileLoader.html" target="_top" xlink:title="OggFileLoader\&lt; T, K \&gt;">
<polygon fill="none" stroke="black" points="185.5,-160.463 185.5,-179.463 301.5,-179.463 301.5,-160.463 185.5,-160.463"/>
<text text-anchor="middle" x="243.5" y="-167.463" font-family="Helvetica,sans-Serif" font-size="10.00">OggFileLoader&lt; T, K &gt;</text>
</a>
</g>
</g>
<!-- Node0&#45;&gt;Node18 -->
<g id="edge29" class="edge"><title>Node0&#45;&gt;Node18</title>
<path fill="none" stroke="midnightblue" d="M78.4129,-248.08C96.3502,-230.63 126.725,-203.893 158,-188.963 166.549,-184.881 176.007,-181.658 185.41,-179.118"/>
<polygon fill="midnightblue" stroke="midnightblue" points="75.7081,-245.834 71.0881,-255.369 80.6455,-250.796 75.7081,-245.834"/>
</g>
<!-- Node5 -->
<g id="node18" class="node"><title>Node5</title>
<g id="a_node18"><a xlink:href="classDataFlow_1_1QueueBuffer.html" target="_top" xlink:title="DataFlow::QueueBuffer\&lt; T \&gt;">
<polygon fill="none" stroke="black" points="392,-453.463 392,-472.463 535,-472.463 535,-453.463 392,-453.463"/>
<text text-anchor="middle" x="463.5" y="-460.463" font-family="Helvetica,sans-Serif" font-size="10.00">DataFlow::QueueBuffer&lt; T &gt;</text>
</a>
</g>
</g>
<!-- Node4&#45;&gt;Node5 -->
<g id="edge16" class="edge"><title>Node4&#45;&gt;Node5</title>
<path fill="none" stroke="midnightblue" d="M311.794,-331.083C318.066,-333.868 323.952,-337.427 329,-341.963 364.761,-374.092 328.605,-412.554 365,-443.963 372.703,-450.61 382.034,-455.203 391.834,-458.335"/>
<polygon fill="midnightblue" stroke="midnightblue" points="312.972,-327.787 302.38,-327.532 310.501,-334.336 312.972,-327.787"/>
</g>
<!-- Node6 -->
<g id="node19" class="node"><title>Node6</title>
<g id="a_node19"><a xlink:href="classDataFlow_1_1RepeatingBuffer.html" target="_top" xlink:title="DataFlow::RepeatingBuffer\&lt; T \&gt;">
<polygon fill="none" stroke="black" points="384,-415.463 384,-434.463 543,-434.463 543,-415.463 384,-415.463"/>
<text text-anchor="middle" x="463.5" y="-422.463" font-family="Helvetica,sans-Serif" font-size="10.00">DataFlow::RepeatingBuffer&lt; T &gt;</text>
</a>
</g>
</g>
<!-- Node4&#45;&gt;Node6 -->
<g id="edge17" class="edge"><title>Node4&#45;&gt;Node6</title>
<path fill="none" stroke="midnightblue" d="M312.04,-332.422C318.092,-334.96 323.863,-338.094 329,-341.963 355.071,-361.594 338.542,-386.856 365,-405.963 370.732,-410.102 377.129,-413.403 383.831,-416.028"/>
<polygon fill="midnightblue" stroke="midnightblue" points="312.945,-329.027 302.351,-328.906 310.557,-335.608 312.945,-329.027"/>
</g>
<!-- Node8&#45;&gt;Node9 -->
<g id="edge20" class="edge"><title>Node8&#45;&gt;Node9</title>
<path fill="none" stroke="midnightblue" d="M312.202,-296.466C317.989,-298.348 323.665,-300.501 329,-302.963 347.16,-311.343 346.722,-321.844 365,-329.963 373.747,-333.848 383.284,-336.941 392.858,-339.404"/>
<polygon fill="midnightblue" stroke="midnightblue" points="312.979,-293.046 302.397,-293.551 310.984,-299.756 312.979,-293.046"/>
</g>
<!-- Node8&#45;&gt;Node10 -->
<g id="edge21" class="edge"><title>Node8&#45;&gt;Node10</title>
<path fill="none" stroke="midnightblue" d="M331.739,-294.768C349.555,-296.974 368.178,-299.281 385.601,-301.438"/>
<polygon fill="midnightblue" stroke="midnightblue" points="331.713,-291.238 321.359,-293.482 330.853,-298.185 331.713,-291.238"/>
</g>
<!-- Node8&#45;&gt;Node11 -->
<g id="edge22" class="edge"><title>Node8&#45;&gt;Node11</title>
<path fill="none" stroke="midnightblue" d="M334.17,-279.438C351.377,-278.57 369.249,-277.668 385.995,-276.823"/>
<polygon fill="midnightblue" stroke="midnightblue" points="333.939,-275.945 324.128,-279.945 334.292,-282.936 333.939,-275.945"/>
</g>
<!-- Node8&#45;&gt;Node12 -->
<g id="edge23" class="edge"><title>Node8&#45;&gt;Node12</title>
<path fill="none" stroke="midnightblue" d="M299.84,-272.148C309.588,-269.888 319.614,-267.448 329,-264.963 345.173,-260.68 348.767,-258.013 365,-253.963 378.972,-250.477 394.202,-247.244 408.383,-244.469"/>
<polygon fill="midnightblue" stroke="midnightblue" points="298.794,-268.797 289.822,-274.432 300.35,-275.622 298.794,-268.797"/>
</g>
<!-- Node8&#45;&gt;Node13 -->
<g id="edge24" class="edge"><title>Node8&#45;&gt;Node13</title>
<path fill="none" stroke="midnightblue" d="M319.068,-270.49C322.525,-268.852 325.858,-267.018 329,-264.963 351.616,-250.172 342.174,-230.427 365,-215.963 373.012,-210.886 382.082,-207.113 391.385,-204.319"/>
<polygon fill="midnightblue" stroke="midnightblue" points="317.573,-267.321 309.675,-274.383 320.253,-273.788 317.573,-267.321"/>
</g>
<!-- Node8&#45;&gt;Node14 -->
<g id="edge25" class="edge"><title>Node8&#45;&gt;Node14</title>
<path fill="none" stroke="midnightblue" d="M321.068,-297.851C323.836,-299.386 326.494,-301.085 329,-302.963 355.427,-322.766 338.291,-348.541 365,-367.963 372.253,-373.237 380.582,-377.152 389.251,-380.043"/>
<polygon fill="midnightblue" stroke="midnightblue" points="322.436,-294.626 311.903,-293.482 319.424,-300.945 322.436,-294.626"/>
</g>
</g>
</svg>
