<?xml version="1.0" encoding="UTF-8" standalone="no"?>
<!DOCTYPE svg PUBLIC "-//W3C//DTD SVG 1.1//EN"
 "http://www.w3.org/Graphics/SVG/1.1/DTD/svg11.dtd">
<!-- Generated by graphviz version 2.38.0 (20140413.2041)
 -->
<!-- Title: DataFlow::Consolidator&lt; T, K &gt; Pages: 1 -->
<svg width="130pt" height="226pt"
 viewBox="0.00 0.00 130.00 226.00" xmlns="http://www.w3.org/2000/svg" xmlns:xlink="http://www.w3.org/1999/xlink">
<g id="graph0" class="graph" transform="scale(1 1) rotate(0) translate(4 222)">
<title>DataFlow::Consolidator&lt; T, K &gt;</title>
<!-- Node0 -->
<g id="node1" class="node"><title>Node0</title>
<polygon fill="#bfbfbf" stroke="black" points="1.5,-0.5 1.5,-112.5 120.5,-112.5 120.5,-0.5 1.5,-0.5"/>
<text text-anchor="start" x="9.5" y="-100.5" font-family="Helvetica,sans-Serif" font-size="10.00">DataFlow::Consolidator</text>
<text text-anchor="middle" x="61" y="-89.5" font-family="Helvetica,sans-Serif" font-size="10.00">&lt; T, K &gt;</text>
<polyline fill="none" stroke="black" points="1.5,-82.5 120.5,-82.5 "/>
<text text-anchor="start" x="9.5" y="-70.5" font-family="Helvetica,sans-Serif" font-size="10.00">&#45; consolidationMethod</text>
<text text-anchor="start" x="9.5" y="-59.5" font-family="Helvetica,sans-Serif" font-size="10.00">&#45; sources</text>
<polyline fill="none" stroke="black" points="1.5,-52.5 120.5,-52.5 "/>
<text text-anchor="start" x="9.5" y="-40.5" font-family="Helvetica,sans-Serif" font-size="10.00">+ attach()</text>
<text text-anchor="start" x="9.5" y="-29.5" font-family="Helvetica,sans-Serif" font-size="10.00">+ detach()</text>
<text text-anchor="start" x="9.5" y="-18.5" font-family="Helvetica,sans-Serif" font-size="10.00">+ getMethod()</text>
<text text-anchor="start" x="9.5" y="-7.5" font-family="Helvetica,sans-Serif" font-size="10.00">+ get()</text>
</g>
<!-- Node1 -->
<g id="node2" class="node"><title>Node1</title>
<g id="a_node2"><a xlink:href="$classDataFlow_1_1iSource.html" xlink:title="{DataFlow::iSource\&lt; T \&gt;\n||+ get()\l+ ~iSource()\l}">
<polygon fill="none" stroke="black" points="0,-149.5 0,-217.5 122,-217.5 122,-149.5 0,-149.5"/>
<text text-anchor="middle" x="61" y="-205.5" font-family="Helvetica,sans-Serif" font-size="10.00">DataFlow::iSource&lt; T &gt;</text>
<polyline fill="none" stroke="black" points="0,-198.5 122,-198.5 "/>
<text text-anchor="middle" x="61" y="-186.5" font-family="Helvetica,sans-Serif" font-size="10.00"> </text>
<polyline fill="none" stroke="black" points="0,-179.5 122,-179.5 "/>
<text text-anchor="start" x="8" y="-167.5" font-family="Helvetica,sans-Serif" font-size="10.00">+ get()</text>
<text text-anchor="start" x="8" y="-156.5" font-family="Helvetica,sans-Serif" font-size="10.00">+ ~iSource()</text>
</a>
</g>
</g>
<!-- Node1&#45;&gt;Node0 -->
<g id="edge1" class="edge"><title>Node1&#45;&gt;Node0</title>
<path fill="none" stroke="midnightblue" d="M61,-139.182C61,-130.604 61,-121.493 61,-112.585"/>
<polygon fill="none" stroke="midnightblue" points="57.5001,-139.33 61,-149.33 64.5001,-139.331 57.5001,-139.33"/>
</g>
</g>
</svg>
