<?xml version="1.0" encoding="UTF-8" standalone="no"?>
<!DOCTYPE svg PUBLIC "-//W3C//DTD SVG 1.1//EN"
 "http://www.w3.org/Graphics/SVG/1.1/DTD/svg11.dtd">
<!-- Generated by graphviz version 2.38.0 (20140413.2041)
 -->
<!-- Title: DataFlow::iSource&lt; T &gt; Pages: 1 -->
<svg width="1531pt" height="270pt"
 viewBox="0.00 0.00 1531.00 270.00" xmlns="http://www.w3.org/2000/svg" xmlns:xlink="http://www.w3.org/1999/xlink">
<g id="graph0" class="graph" transform="scale(1 1) rotate(0) translate(4 266)">
<title>DataFlow::iSource&lt; T &gt;</title>
<!-- Node0 -->
<g id="node1" class="node"><title>Node0</title>
<polygon fill="#bfbfbf" stroke="black" points="752,-193.5 752,-261.5 874,-261.5 874,-193.5 752,-193.5"/>
<text text-anchor="middle" x="813" y="-249.5" font-family="Helvetica,sans-Serif" font-size="10.00">DataFlow::iSource&lt; T &gt;</text>
<polyline fill="none" stroke="black" points="752,-242.5 874,-242.5 "/>
<text text-anchor="middle" x="813" y="-230.5" font-family="Helvetica,sans-Serif" font-size="10.00"> </text>
<polyline fill="none" stroke="black" points="752,-223.5 874,-223.5 "/>
<text text-anchor="start" x="760" y="-211.5" font-family="Helvetica,sans-Serif" font-size="10.00">+ get()</text>
<text text-anchor="start" x="760" y="-200.5" font-family="Helvetica,sans-Serif" font-size="10.00">+ ~iSource()</text>
</g>
<!-- Node1 -->
<g id="node2" class="node"><title>Node1</title>
<g id="a_node2"><a xlink:href="$classDataFlow_1_1Consolidator.html" xlink:title="{Consolidator\&lt; T, Consolidation\l::Accumulation \&gt;\n||+ attach()\l+ detach()\l+ getMethod()\l+ get()\l}">
<polygon fill="none" stroke="black" points="0,-22.5 0,-123.5 152,-123.5 152,-22.5 0,-22.5"/>
<text text-anchor="start" x="8" y="-111.5" font-family="Helvetica,sans-Serif" font-size="10.00">Consolidator&lt; T, Consolidation</text>
<text text-anchor="middle" x="76" y="-100.5" font-family="Helvetica,sans-Serif" font-size="10.00">::Accumulation &gt;</text>
<polyline fill="none" stroke="black" points="0,-93.5 152,-93.5 "/>
<text text-anchor="middle" x="76" y="-81.5" font-family="Helvetica,sans-Serif" font-size="10.00"> </text>
<polyline fill="none" stroke="black" points="0,-74.5 152,-74.5 "/>
<text text-anchor="start" x="8" y="-62.5" font-family="Helvetica,sans-Serif" font-size="10.00">+ attach()</text>
<text text-anchor="start" x="8" y="-51.5" font-family="Helvetica,sans-Serif" font-size="10.00">+ detach()</text>
<text text-anchor="start" x="8" y="-40.5" font-family="Helvetica,sans-Serif" font-size="10.00">+ getMethod()</text>
<text text-anchor="start" x="8" y="-29.5" font-family="Helvetica,sans-Serif" font-size="10.00">+ get()</text>
</a>
</g>
</g>
<!-- Node0&#45;&gt;Node1 -->
<g id="edge1" class="edge"><title>Node0&#45;&gt;Node1</title>
<path fill="none" stroke="midnightblue" d="M741.723,-222.988C594.83,-214.897 263.578,-192.013 161,-146 148.472,-140.38 136.354,-132.339 125.384,-123.653"/>
<polygon fill="none" stroke="midnightblue" points="741.8,-226.497 751.975,-223.545 742.18,-219.507 741.8,-226.497"/>
</g>
<!-- Node2 -->
<g id="node3" class="node"><title>Node2</title>
<g id="a_node3"><a xlink:href="$classDataFlow_1_1Applicator.html" xlink:title="{DataFlow::Applicator\&lt; T \&gt;\n||+ get()\l+ getMethod()\l+ attach()\l}">
<polygon fill="none" stroke="red" points="170,-33.5 170,-112.5 302,-112.5 302,-33.5 170,-33.5"/>
<text text-anchor="middle" x="236" y="-100.5" font-family="Helvetica,sans-Serif" font-size="10.00">DataFlow::Applicator&lt; T &gt;</text>
<polyline fill="none" stroke="red" points="170,-93.5 302,-93.5 "/>
<text text-anchor="middle" x="236" y="-81.5" font-family="Helvetica,sans-Serif" font-size="10.00"> </text>
<polyline fill="none" stroke="red" points="170,-74.5 302,-74.5 "/>
<text text-anchor="start" x="178" y="-62.5" font-family="Helvetica,sans-Serif" font-size="10.00">+ get()</text>
<text text-anchor="start" x="178" y="-51.5" font-family="Helvetica,sans-Serif" font-size="10.00">+ getMethod()</text>
<text text-anchor="start" x="178" y="-40.5" font-family="Helvetica,sans-Serif" font-size="10.00">+ attach()</text>
</a>
</g>
</g>
<!-- Node0&#45;&gt;Node2 -->
<g id="edge2" class="edge"><title>Node0&#45;&gt;Node2</title>
<path fill="none" stroke="midnightblue" d="M741.783,-220.353C621.849,-209.134 385.376,-183.035 311,-146 294.843,-137.955 279.864,-125.208 267.609,-112.661"/>
<polygon fill="none" stroke="midnightblue" points="741.685,-223.859 751.965,-221.296 742.331,-216.889 741.685,-223.859"/>
</g>
<!-- Node4 -->
<g id="node4" class="node"><title>Node4</title>
<g id="a_node4"><a xlink:href="$classDataFlow_1_1Consolidator.html" xlink:title="{DataFlow::Consolidator\&lt; T \&gt;\n||+ attach()\l+ detach()\l+ getMethod()\l+ get()\l}">
<polygon fill="none" stroke="red" points="320.5,-28 320.5,-118 463.5,-118 463.5,-28 320.5,-28"/>
<text text-anchor="middle" x="392" y="-106" font-family="Helvetica,sans-Serif" font-size="10.00">DataFlow::Consolidator&lt; T &gt;</text>
<polyline fill="none" stroke="red" points="320.5,-99 463.5,-99 "/>
<text text-anchor="middle" x="392" y="-87" font-family="Helvetica,sans-Serif" font-size="10.00"> </text>
<polyline fill="none" stroke="red" points="320.5,-80 463.5,-80 "/>
<text text-anchor="start" x="328.5" y="-68" font-family="Helvetica,sans-Serif" font-size="10.00">+ attach()</text>
<text text-anchor="start" x="328.5" y="-57" font-family="Helvetica,sans-Serif" font-size="10.00">+ detach()</text>
<text text-anchor="start" x="328.5" y="-46" font-family="Helvetica,sans-Serif" font-size="10.00">+ getMethod()</text>
<text text-anchor="start" x="328.5" y="-35" font-family="Helvetica,sans-Serif" font-size="10.00">+ get()</text>
</a>
</g>
</g>
<!-- Node0&#45;&gt;Node4 -->
<g id="edge3" class="edge"><title>Node0&#45;&gt;Node4</title>
<path fill="none" stroke="midnightblue" d="M741.649,-220.095C670.045,-211.334 558.29,-191.179 472,-146 458.26,-138.806 445.02,-128.709 433.401,-118.347"/>
<polygon fill="none" stroke="midnightblue" points="741.573,-223.61 751.914,-221.306 742.393,-216.658 741.573,-223.61"/>
</g>
<!-- Node6 -->
<g id="node5" class="node"><title>Node6</title>
<g id="a_node5"><a xlink:href="$classDataFlow_1_1iBuffer.html" xlink:title="{DataFlow::iBuffer\&lt; T \&gt;\n||+ put()\l+ size()\l+ ~iBuffer()\l}">
<polygon fill="none" stroke="red" points="481.5,-33.5 481.5,-112.5 598.5,-112.5 598.5,-33.5 481.5,-33.5"/>
<text text-anchor="middle" x="540" y="-100.5" font-family="Helvetica,sans-Serif" font-size="10.00">DataFlow::iBuffer&lt; T &gt;</text>
<polyline fill="none" stroke="red" points="481.5,-93.5 598.5,-93.5 "/>
<text text-anchor="middle" x="540" y="-81.5" font-family="Helvetica,sans-Serif" font-size="10.00"> </text>
<polyline fill="none" stroke="red" points="481.5,-74.5 598.5,-74.5 "/>
<text text-anchor="start" x="489.5" y="-62.5" font-family="Helvetica,sans-Serif" font-size="10.00">+ put()</text>
<text text-anchor="start" x="489.5" y="-51.5" font-family="Helvetica,sans-Serif" font-size="10.00">+ size()</text>
<text text-anchor="start" x="489.5" y="-40.5" font-family="Helvetica,sans-Serif" font-size="10.00">+ ~iBuffer()</text>
</a>
</g>
</g>
<!-- Node0&#45;&gt;Node6 -->
<g id="edge4" class="edge"><title>Node0&#45;&gt;Node6</title>
<path fill="none" stroke="midnightblue" d="M742.041,-207.466C700.446,-194.257 648.16,-173.975 607,-146 593.584,-136.882 580.899,-124.616 570.249,-112.794"/>
<polygon fill="none" stroke="midnightblue" points="741.24,-210.882 751.828,-210.507 743.317,-204.197 741.24,-210.882"/>
</g>
<!-- Node9 -->
<g id="node6" class="node"><title>Node9</title>
<g id="a_node6"><a xlink:href="$classMixer_1_1ComplexWaveformGenerator.html" xlink:title="{Mixer::ComplexWaveformGenerator\&lt; T \&gt;\n||+ get()\l+ getComponent()\l+ setComponent()\l+ setComponent()\l+ ComplexWaveformGenerator()\l}">
<polygon fill="none" stroke="black" points="616.5,-22.5 616.5,-123.5 813.5,-123.5 813.5,-22.5 616.5,-22.5"/>
<text text-anchor="middle" x="715" y="-111.5" font-family="Helvetica,sans-Serif" font-size="10.00">Mixer::ComplexWaveformGenerator&lt; T &gt;</text>
<polyline fill="none" stroke="black" points="616.5,-104.5 813.5,-104.5 "/>
<text text-anchor="middle" x="715" y="-92.5" font-family="Helvetica,sans-Serif" font-size="10.00"> </text>
<polyline fill="none" stroke="black" points="616.5,-85.5 813.5,-85.5 "/>
<text text-anchor="start" x="624.5" y="-73.5" font-family="Helvetica,sans-Serif" font-size="10.00">+ get()</text>
<text text-anchor="start" x="624.5" y="-62.5" font-family="Helvetica,sans-Serif" font-size="10.00">+ getComponent()</text>
<text text-anchor="start" x="624.5" y="-51.5" font-family="Helvetica,sans-Serif" font-size="10.00">+ setComponent()</text>
<text text-anchor="start" x="624.5" y="-40.5" font-family="Helvetica,sans-Serif" font-size="10.00">+ setComponent()</text>
<text text-anchor="start" x="624.5" y="-29.5" font-family="Helvetica,sans-Serif" font-size="10.00">+ ComplexWaveformGenerator()</text>
</a>
</g>
</g>
<!-- Node0&#45;&gt;Node9 -->
<g id="edge5" class="edge"><title>Node0&#45;&gt;Node9</title>
<path fill="none" stroke="midnightblue" d="M786.315,-184.975C774.126,-166.008 759.595,-143.396 746.84,-123.547"/>
<polygon fill="none" stroke="midnightblue" points="783.385,-186.889 791.735,-193.41 789.274,-183.105 783.385,-186.889"/>
</g>
<!-- Node10 -->
<g id="node7" class="node"><title>Node10</title>
<g id="a_node7"><a xlink:href="$classMixer_1_1iWaveformGenerator.html" xlink:title="{Mixer::iWaveformGenerator\&lt; T \&gt;\n||+ getFrequency()\l+ setFrequency()\l+ setFrequency()\l+ ~iWaveformGenerator()\l}">
<polygon fill="none" stroke="red" points="831.5,-28 831.5,-118 992.5,-118 992.5,-28 831.5,-28"/>
<text text-anchor="middle" x="912" y="-106" font-family="Helvetica,sans-Serif" font-size="10.00">Mixer::iWaveformGenerator&lt; T &gt;</text>
<polyline fill="none" stroke="red" points="831.5,-99 992.5,-99 "/>
<text text-anchor="middle" x="912" y="-87" font-family="Helvetica,sans-Serif" font-size="10.00"> </text>
<polyline fill="none" stroke="red" points="831.5,-80 992.5,-80 "/>
<text text-anchor="start" x="839.5" y="-68" font-family="Helvetica,sans-Serif" font-size="10.00">+ getFrequency()</text>
<text text-anchor="start" x="839.5" y="-57" font-family="Helvetica,sans-Serif" font-size="10.00">+ setFrequency()</text>
<text text-anchor="start" x="839.5" y="-46" font-family="Helvetica,sans-Serif" font-size="10.00">+ setFrequency()</text>
<text text-anchor="start" x="839.5" y="-35" font-family="Helvetica,sans-Serif" font-size="10.00">+ ~iWaveformGenerator()</text>
</a>
</g>
</g>
<!-- Node0&#45;&gt;Node10 -->
<g id="edge6" class="edge"><title>Node0&#45;&gt;Node10</title>
<path fill="none" stroke="midnightblue" d="M840.059,-184.818C853.51,-164.098 869.766,-139.058 883.419,-118.026"/>
<polygon fill="none" stroke="midnightblue" points="836.991,-183.116 834.482,-193.41 842.862,-186.928 836.991,-183.116"/>
</g>
<!-- Node17 -->
<g id="node8" class="node"><title>Node17</title>
<g id="a_node8"><a xlink:href="$classMixer_1_1SimpleNote.html" xlink:title="{Mixer::SimpleNote\&lt; T \&gt;\n||+ attach()\l+ setAttack()\l+ setDecay()\l+ size()\l+ bakeNote()\l+ clear()\l+ get()\l+ SimpleNote()\l}">
<polygon fill="none" stroke="black" points="1011,-6 1011,-140 1133,-140 1133,-6 1011,-6"/>
<text text-anchor="middle" x="1072" y="-128" font-family="Helvetica,sans-Serif" font-size="10.00">Mixer::SimpleNote&lt; T &gt;</text>
<polyline fill="none" stroke="black" points="1011,-121 1133,-121 "/>
<text text-anchor="middle" x="1072" y="-109" font-family="Helvetica,sans-Serif" font-size="10.00"> </text>
<polyline fill="none" stroke="black" points="1011,-102 1133,-102 "/>
<text text-anchor="start" x="1019" y="-90" font-family="Helvetica,sans-Serif" font-size="10.00">+ attach()</text>
<text text-anchor="start" x="1019" y="-79" font-family="Helvetica,sans-Serif" font-size="10.00">+ setAttack()</text>
<text text-anchor="start" x="1019" y="-68" font-family="Helvetica,sans-Serif" font-size="10.00">+ setDecay()</text>
<text text-anchor="start" x="1019" y="-57" font-family="Helvetica,sans-Serif" font-size="10.00">+ size()</text>
<text text-anchor="start" x="1019" y="-46" font-family="Helvetica,sans-Serif" font-size="10.00">+ bakeNote()</text>
<text text-anchor="start" x="1019" y="-35" font-family="Helvetica,sans-Serif" font-size="10.00">+ clear()</text>
<text text-anchor="start" x="1019" y="-24" font-family="Helvetica,sans-Serif" font-size="10.00">+ get()</text>
<text text-anchor="start" x="1019" y="-13" font-family="Helvetica,sans-Serif" font-size="10.00">+ SimpleNote()</text>
</a>
</g>
</g>
<!-- Node0&#45;&gt;Node17 -->
<g id="edge7" class="edge"><title>Node0&#45;&gt;Node17</title>
<path fill="none" stroke="midnightblue" d="M883.694,-203.665C920.438,-190.005 965.051,-170.514 1001,-146 1004.34,-143.725 1007.65,-141.278 1010.91,-138.708"/>
<polygon fill="none" stroke="midnightblue" points="882.238,-200.47 874.044,-207.187 884.638,-207.046 882.238,-200.47"/>
</g>
<!-- Node18 -->
<g id="node9" class="node"><title>Node18</title>
<g id="a_node9"><a xlink:href="$classMixer_1_1SimplePlayer.html" xlink:title="{Mixer::SimplePlayer\&lt; T \&gt;\n||+ get()\l+ pause()\l+ stop()\l+ play()\l+ attach()\l+ SimplePlayer()\l}">
<polygon fill="none" stroke="black" points="1151,-17 1151,-129 1279,-129 1279,-17 1151,-17"/>
<text text-anchor="middle" x="1215" y="-117" font-family="Helvetica,sans-Serif" font-size="10.00">Mixer::SimplePlayer&lt; T &gt;</text>
<polyline fill="none" stroke="black" points="1151,-110 1279,-110 "/>
<text text-anchor="middle" x="1215" y="-98" font-family="Helvetica,sans-Serif" font-size="10.00"> </text>
<polyline fill="none" stroke="black" points="1151,-91 1279,-91 "/>
<text text-anchor="start" x="1159" y="-79" font-family="Helvetica,sans-Serif" font-size="10.00">+ get()</text>
<text text-anchor="start" x="1159" y="-68" font-family="Helvetica,sans-Serif" font-size="10.00">+ pause()</text>
<text text-anchor="start" x="1159" y="-57" font-family="Helvetica,sans-Serif" font-size="10.00">+ stop()</text>
<text text-anchor="start" x="1159" y="-46" font-family="Helvetica,sans-Serif" font-size="10.00">+ play()</text>
<text text-anchor="start" x="1159" y="-35" font-family="Helvetica,sans-Serif" font-size="10.00">+ attach()</text>
<text text-anchor="start" x="1159" y="-24" font-family="Helvetica,sans-Serif" font-size="10.00">+ SimplePlayer()</text>
</a>
</g>
</g>
<!-- Node0&#45;&gt;Node18 -->
<g id="edge8" class="edge"><title>Node0&#45;&gt;Node18</title>
<path fill="none" stroke="midnightblue" d="M884.148,-220.168C953.633,-211.518 1060.52,-191.493 1142,-146 1150.24,-141.401 1158.19,-135.62 1165.63,-129.343"/>
<polygon fill="none" stroke="midnightblue" points="883.687,-216.699 874.175,-221.364 884.52,-223.649 883.687,-216.699"/>
</g>
<!-- Node19 -->
<g id="node10" class="node"><title>Node19</title>
<g id="a_node10"><a xlink:href="$classOggFileLoader.html" xlink:title="{OggFileLoader\&lt; T \&gt;\n||+ open()\l+ init()\l+ close()\l+ clear()\l+ get()\l+ getDecoder()\l+ OggFileLoader()\l+ ~OggFileLoader()\l+ init()\l}">
<polygon fill="none" stroke="black" points="1297,-0.5 1297,-145.5 1401,-145.5 1401,-0.5 1297,-0.5"/>
<text text-anchor="middle" x="1349" y="-133.5" font-family="Helvetica,sans-Serif" font-size="10.00">OggFileLoader&lt; T &gt;</text>
<polyline fill="none" stroke="black" points="1297,-126.5 1401,-126.5 "/>
<text text-anchor="middle" x="1349" y="-114.5" font-family="Helvetica,sans-Serif" font-size="10.00"> </text>
<polyline fill="none" stroke="black" points="1297,-107.5 1401,-107.5 "/>
<text text-anchor="start" x="1305" y="-95.5" font-family="Helvetica,sans-Serif" font-size="10.00">+ open()</text>
<text text-anchor="start" x="1305" y="-84.5" font-family="Helvetica,sans-Serif" font-size="10.00">+ init()</text>
<text text-anchor="start" x="1305" y="-73.5" font-family="Helvetica,sans-Serif" font-size="10.00">+ close()</text>
<text text-anchor="start" x="1305" y="-62.5" font-family="Helvetica,sans-Serif" font-size="10.00">+ clear()</text>
<text text-anchor="start" x="1305" y="-51.5" font-family="Helvetica,sans-Serif" font-size="10.00">+ get()</text>
<text text-anchor="start" x="1305" y="-40.5" font-family="Helvetica,sans-Serif" font-size="10.00">+ getDecoder()</text>
<text text-anchor="start" x="1305" y="-29.5" font-family="Helvetica,sans-Serif" font-size="10.00">+ OggFileLoader()</text>
<text text-anchor="start" x="1305" y="-18.5" font-family="Helvetica,sans-Serif" font-size="10.00">+ ~OggFileLoader()</text>
<text text-anchor="start" x="1305" y="-7.5" font-family="Helvetica,sans-Serif" font-size="10.00">+ init()</text>
</a>
</g>
</g>
<!-- Node0&#45;&gt;Node19 -->
<g id="edge9" class="edge"><title>Node0&#45;&gt;Node19</title>
<path fill="none" stroke="midnightblue" d="M884.266,-220.438C999.402,-209.656 1220.28,-184.586 1288,-146 1290.99,-144.297 1293.9,-142.389 1296.72,-140.32"/>
<polygon fill="none" stroke="midnightblue" points="883.773,-216.969 874.138,-221.375 884.418,-223.939 883.773,-216.969"/>
</g>
<!-- Node20 -->
<g id="node11" class="node"><title>Node20</title>
<g id="a_node11"><a xlink:href="$classDataFlow_1_1iSource.html" xlink:title="{DataFlow::iSource\&lt;\l float \&gt;\n||+ get()\l+ ~iSource()\l}">
<polygon fill="none" stroke="red" points="1419,-33.5 1419,-112.5 1523,-112.5 1523,-33.5 1419,-33.5"/>
<text text-anchor="start" x="1427" y="-100.5" font-family="Helvetica,sans-Serif" font-size="10.00">DataFlow::iSource&lt;</text>
<text text-anchor="middle" x="1471" y="-89.5" font-family="Helvetica,sans-Serif" font-size="10.00"> float &gt;</text>
<polyline fill="none" stroke="red" points="1419,-82.5 1523,-82.5 "/>
<text text-anchor="middle" x="1471" y="-70.5" font-family="Helvetica,sans-Serif" font-size="10.00"> </text>
<polyline fill="none" stroke="red" points="1419,-63.5 1523,-63.5 "/>
<text text-anchor="start" x="1427" y="-51.5" font-family="Helvetica,sans-Serif" font-size="10.00">+ get()</text>
<text text-anchor="start" x="1427" y="-40.5" font-family="Helvetica,sans-Serif" font-size="10.00">+ ~iSource()</text>
</a>
</g>
</g>
<!-- Node0&#45;&gt;Node20 -->
<g id="edge10" class="edge"><title>Node0&#45;&gt;Node20</title>
<path fill="none" stroke="orange" d="M884.209,-223.484C1022.46,-216.571 1321.43,-196.142 1410,-146 1424.26,-137.929 1436.68,-125.177 1446.53,-112.632"/>
<polygon fill="orange" stroke="orange" points="883.954,-219.992 874.137,-223.978 884.297,-226.984 883.954,-219.992"/>
<text text-anchor="middle" x="1385" y="-167" font-family="Helvetica,sans-Serif" font-size="10.00"> &lt; float &gt;</text>
</g>
</g>
</svg>
