<?xml version="1.0" encoding="UTF-8" standalone="no"?>
<!DOCTYPE svg PUBLIC "-//W3C//DTD SVG 1.1//EN"
 "http://www.w3.org/Graphics/SVG/1.1/DTD/svg11.dtd">
<!-- Generated by graphviz version 2.38.0 (20140413.2041)
 -->
<!-- Title: Transition::EaseIn::Quintic&lt; T &gt; Pages: 1 -->
<svg width="129pt" height="259pt"
 viewBox="0.00 0.00 129.00 259.00" xmlns="http://www.w3.org/2000/svg" xmlns:xlink="http://www.w3.org/1999/xlink">
<g id="graph0" class="graph" transform="scale(1 1) rotate(0) translate(4 255)">
<title>Transition::EaseIn::Quintic&lt; T &gt;</title>
<!-- Node0 -->
<g id="node1" class="node"><title>Node0</title>
<polygon fill="#bfbfbf" stroke="black" points="12.5,-0.5 12.5,-79.5 108.5,-79.5 108.5,-0.5 12.5,-0.5"/>
<text text-anchor="start" x="20.5" y="-67.5" font-family="Helvetica,sans-Serif" font-size="10.00">Transition::EaseIn</text>
<text text-anchor="middle" x="60.5" y="-56.5" font-family="Helvetica,sans-Serif" font-size="10.00">::Quintic&lt; T &gt;</text>
<polyline fill="none" stroke="black" points="12.5,-49.5 108.5,-49.5 "/>
<text text-anchor="middle" x="60.5" y="-37.5" font-family="Helvetica,sans-Serif" font-size="10.00"> </text>
<polyline fill="none" stroke="black" points="12.5,-30.5 108.5,-30.5 "/>
<text text-anchor="start" x="20.5" y="-18.5" font-family="Helvetica,sans-Serif" font-size="10.00">+ init()</text>
<text text-anchor="start" x="20.5" y="-7.5" font-family="Helvetica,sans-Serif" font-size="10.00">+ operator()()</text>
</g>
<!-- Node1 -->
<g id="node2" class="node"><title>Node1</title>
<g id="a_node2"><a xlink:href="$classTransitionFunction.html" xlink:title="{TransitionFunction\&lt; T \&gt;\n|# m\l# x1\l# x2\l# y1\l# y2\l|+ init()\l+ operator()()\l+ ~TransitionFunction()\l# TransitionFunction()\l}">
<polygon fill="none" stroke="black" points="-7.10543e-15,-116.5 -7.10543e-15,-250.5 121,-250.5 121,-116.5 -7.10543e-15,-116.5"/>
<text text-anchor="middle" x="60.5" y="-238.5" font-family="Helvetica,sans-Serif" font-size="10.00">TransitionFunction&lt; T &gt;</text>
<polyline fill="none" stroke="black" points="-7.10543e-15,-231.5 121,-231.5 "/>
<text text-anchor="start" x="8" y="-219.5" font-family="Helvetica,sans-Serif" font-size="10.00"># m</text>
<text text-anchor="start" x="8" y="-208.5" font-family="Helvetica,sans-Serif" font-size="10.00"># x1</text>
<text text-anchor="start" x="8" y="-197.5" font-family="Helvetica,sans-Serif" font-size="10.00"># x2</text>
<text text-anchor="start" x="8" y="-186.5" font-family="Helvetica,sans-Serif" font-size="10.00"># y1</text>
<text text-anchor="start" x="8" y="-175.5" font-family="Helvetica,sans-Serif" font-size="10.00"># y2</text>
<polyline fill="none" stroke="black" points="-7.10543e-15,-168.5 121,-168.5 "/>
<text text-anchor="start" x="8" y="-156.5" font-family="Helvetica,sans-Serif" font-size="10.00">+ init()</text>
<text text-anchor="start" x="8" y="-145.5" font-family="Helvetica,sans-Serif" font-size="10.00">+ operator()()</text>
<text text-anchor="start" x="8" y="-134.5" font-family="Helvetica,sans-Serif" font-size="10.00">+ ~TransitionFunction()</text>
<text text-anchor="start" x="8" y="-123.5" font-family="Helvetica,sans-Serif" font-size="10.00"># TransitionFunction()</text>
</a>
</g>
</g>
<!-- Node1&#45;&gt;Node0 -->
<g id="edge1" class="edge"><title>Node1&#45;&gt;Node0</title>
<path fill="none" stroke="midnightblue" d="M60.5,-106.03C60.5,-96.9466 60.5,-87.9896 60.5,-79.7634"/>
<polygon fill="none" stroke="midnightblue" points="57.0001,-106.307 60.5,-116.307 64.0001,-106.307 57.0001,-106.307"/>
</g>
</g>
</svg>
