<?xml version="1.0" encoding="UTF-8" standalone="no"?>
<!DOCTYPE svg PUBLIC "-//W3C//DTD SVG 1.1//EN"
 "http://www.w3.org/Graphics/SVG/1.1/DTD/svg11.dtd">
<!-- Generated by graphviz version 2.38.0 (20140413.2041)
 -->
<!-- Title: Mixer::iWaveformGenerator&lt; T &gt; Pages: 1 -->
<svg width="643pt" height="397pt"
 viewBox="0.00 0.00 642.50 397.00" xmlns="http://www.w3.org/2000/svg" xmlns:xlink="http://www.w3.org/1999/xlink">
<g id="graph0" class="graph" transform="scale(1 1) rotate(0) translate(4 393)">
<title>Mixer::iWaveformGenerator&lt; T &gt;</title>
<!-- Node0 -->
<g id="node1" class="node"><title>Node0</title>
<polygon fill="#bfbfbf" stroke="black" points="237,-193.5 237,-283.5 398,-283.5 398,-193.5 237,-193.5"/>
<text text-anchor="middle" x="317.5" y="-271.5" font-family="Helvetica,sans-Serif" font-size="10.00">Mixer::iWaveformGenerator&lt; T &gt;</text>
<polyline fill="none" stroke="black" points="237,-264.5 398,-264.5 "/>
<text text-anchor="middle" x="317.5" y="-252.5" font-family="Helvetica,sans-Serif" font-size="10.00"> </text>
<polyline fill="none" stroke="black" points="237,-245.5 398,-245.5 "/>
<text text-anchor="start" x="245" y="-233.5" font-family="Helvetica,sans-Serif" font-size="10.00">+ getFrequency()</text>
<text text-anchor="start" x="245" y="-222.5" font-family="Helvetica,sans-Serif" font-size="10.00">+ setFrequency()</text>
<text text-anchor="start" x="245" y="-211.5" font-family="Helvetica,sans-Serif" font-size="10.00">+ setFrequency()</text>
<text text-anchor="start" x="245" y="-200.5" font-family="Helvetica,sans-Serif" font-size="10.00">+ ~iWaveformGenerator()</text>
</g>
<!-- Node2 -->
<g id="node3" class="node"><title>Node2</title>
<g id="a_node3"><a xlink:href="$classMixer_1_1SawtoothGenerator.html" xlink:title="{Mixer::SawtoothGenerator\&lt; T \&gt;\n|&#45; frequency\l&#45; harmonics\l&#45; complexSource\l&#45; generators\l&#45; volumeControllers\l|+ get()\l+ getFrequency()\l+ setFrequency()\l+ setFrequency()\l+ SawtoothGenerator()\l}">
<polygon fill="none" stroke="black" points="0,-6 0,-151 155,-151 155,-6 0,-6"/>
<text text-anchor="middle" x="77.5" y="-139" font-family="Helvetica,sans-Serif" font-size="10.00">Mixer::SawtoothGenerator&lt; T &gt;</text>
<polyline fill="none" stroke="black" points="0,-132 155,-132 "/>
<text text-anchor="start" x="8" y="-120" font-family="Helvetica,sans-Serif" font-size="10.00">&#45; frequency</text>
<text text-anchor="start" x="8" y="-109" font-family="Helvetica,sans-Serif" font-size="10.00">&#45; harmonics</text>
<text text-anchor="start" x="8" y="-98" font-family="Helvetica,sans-Serif" font-size="10.00">&#45; complexSource</text>
<text text-anchor="start" x="8" y="-87" font-family="Helvetica,sans-Serif" font-size="10.00">&#45; generators</text>
<text text-anchor="start" x="8" y="-76" font-family="Helvetica,sans-Serif" font-size="10.00">&#45; volumeControllers</text>
<polyline fill="none" stroke="black" points="0,-69 155,-69 "/>
<text text-anchor="start" x="8" y="-57" font-family="Helvetica,sans-Serif" font-size="10.00">+ get()</text>
<text text-anchor="start" x="8" y="-46" font-family="Helvetica,sans-Serif" font-size="10.00">+ getFrequency()</text>
<text text-anchor="start" x="8" y="-35" font-family="Helvetica,sans-Serif" font-size="10.00">+ setFrequency()</text>
<text text-anchor="start" x="8" y="-24" font-family="Helvetica,sans-Serif" font-size="10.00">+ setFrequency()</text>
<text text-anchor="start" x="8" y="-13" font-family="Helvetica,sans-Serif" font-size="10.00">+ SawtoothGenerator()</text>
</a>
</g>
</g>
<!-- Node0&#45;&gt;Node2 -->
<g id="edge2" class="edge"><title>Node0&#45;&gt;Node2</title>
<path fill="none" stroke="midnightblue" d="M228.009,-195.574C206.269,-184.086 183.529,-170.926 163.5,-157 160.695,-155.049 157.883,-153.016 155.077,-150.92"/>
<polygon fill="none" stroke="midnightblue" points="226.444,-198.705 236.929,-200.225 229.68,-192.498 226.444,-198.705"/>
</g>
<!-- Node3 -->
<g id="node4" class="node"><title>Node3</title>
<g id="a_node4"><a xlink:href="$classMixer_1_1SineGenerator.html" xlink:title="{Mixer::SineGenerator\&lt; T \&gt;\n|&#45; step\l&#45; position\l&#45; transitioner\l&#45; sinetableUninitialized\l&#45; sinetable\l|+ get()\l+ getFrequency()\l+ setFrequency()\l+ setFrequency()\l+ SineGenerator()\l&#45; filler()\l}">
<polygon fill="none" stroke="black" points="173,-0.5 173,-156.5 306,-156.5 306,-0.5 173,-0.5"/>
<text text-anchor="middle" x="239.5" y="-144.5" font-family="Helvetica,sans-Serif" font-size="10.00">Mixer::SineGenerator&lt; T &gt;</text>
<polyline fill="none" stroke="black" points="173,-137.5 306,-137.5 "/>
<text text-anchor="start" x="181" y="-125.5" font-family="Helvetica,sans-Serif" font-size="10.00">&#45; step</text>
<text text-anchor="start" x="181" y="-114.5" font-family="Helvetica,sans-Serif" font-size="10.00">&#45; position</text>
<text text-anchor="start" x="181" y="-103.5" font-family="Helvetica,sans-Serif" font-size="10.00">&#45; transitioner</text>
<text text-anchor="start" x="181" y="-92.5" font-family="Helvetica,sans-Serif" font-size="10.00">&#45; sinetableUninitialized</text>
<text text-anchor="start" x="181" y="-81.5" font-family="Helvetica,sans-Serif" font-size="10.00">&#45; sinetable</text>
<polyline fill="none" stroke="black" points="173,-74.5 306,-74.5 "/>
<text text-anchor="start" x="181" y="-62.5" font-family="Helvetica,sans-Serif" font-size="10.00">+ get()</text>
<text text-anchor="start" x="181" y="-51.5" font-family="Helvetica,sans-Serif" font-size="10.00">+ getFrequency()</text>
<text text-anchor="start" x="181" y="-40.5" font-family="Helvetica,sans-Serif" font-size="10.00">+ setFrequency()</text>
<text text-anchor="start" x="181" y="-29.5" font-family="Helvetica,sans-Serif" font-size="10.00">+ setFrequency()</text>
<text text-anchor="start" x="181" y="-18.5" font-family="Helvetica,sans-Serif" font-size="10.00">+ SineGenerator()</text>
<text text-anchor="start" x="181" y="-7.5" font-family="Helvetica,sans-Serif" font-size="10.00">&#45; filler()</text>
</a>
</g>
</g>
<!-- Node0&#45;&gt;Node3 -->
<g id="edge3" class="edge"><title>Node0&#45;&gt;Node3</title>
<path fill="none" stroke="midnightblue" d="M291.269,-184.365C286.851,-175.415 282.187,-165.968 277.541,-156.558"/>
<polygon fill="none" stroke="midnightblue" points="288.208,-186.071 295.773,-193.488 294.484,-182.972 288.208,-186.071"/>
</g>
<!-- Node4 -->
<g id="node5" class="node"><title>Node4</title>
<g id="a_node5"><a xlink:href="$classMixer_1_1SquareGenerator.html" xlink:title="{Mixer::SquareGenerator\&lt; T \&gt;\n|&#45; frequency\l&#45; harmonics\l&#45; complexSource\l&#45; generators\l&#45; volumeControllers\l|+ get()\l+ getFrequency()\l+ setFrequency()\l+ setFrequency()\l+ SquareGenerator()\l}">
<polygon fill="none" stroke="black" points="324.5,-6 324.5,-151 468.5,-151 468.5,-6 324.5,-6"/>
<text text-anchor="middle" x="396.5" y="-139" font-family="Helvetica,sans-Serif" font-size="10.00">Mixer::SquareGenerator&lt; T &gt;</text>
<polyline fill="none" stroke="black" points="324.5,-132 468.5,-132 "/>
<text text-anchor="start" x="332.5" y="-120" font-family="Helvetica,sans-Serif" font-size="10.00">&#45; frequency</text>
<text text-anchor="start" x="332.5" y="-109" font-family="Helvetica,sans-Serif" font-size="10.00">&#45; harmonics</text>
<text text-anchor="start" x="332.5" y="-98" font-family="Helvetica,sans-Serif" font-size="10.00">&#45; complexSource</text>
<text text-anchor="start" x="332.5" y="-87" font-family="Helvetica,sans-Serif" font-size="10.00">&#45; generators</text>
<text text-anchor="start" x="332.5" y="-76" font-family="Helvetica,sans-Serif" font-size="10.00">&#45; volumeControllers</text>
<polyline fill="none" stroke="black" points="324.5,-69 468.5,-69 "/>
<text text-anchor="start" x="332.5" y="-57" font-family="Helvetica,sans-Serif" font-size="10.00">+ get()</text>
<text text-anchor="start" x="332.5" y="-46" font-family="Helvetica,sans-Serif" font-size="10.00">+ getFrequency()</text>
<text text-anchor="start" x="332.5" y="-35" font-family="Helvetica,sans-Serif" font-size="10.00">+ setFrequency()</text>
<text text-anchor="start" x="332.5" y="-24" font-family="Helvetica,sans-Serif" font-size="10.00">+ setFrequency()</text>
<text text-anchor="start" x="332.5" y="-13" font-family="Helvetica,sans-Serif" font-size="10.00">+ SquareGenerator()</text>
</a>
</g>
</g>
<!-- Node0&#45;&gt;Node4 -->
<g id="edge4" class="edge"><title>Node0&#45;&gt;Node4</title>
<path fill="none" stroke="midnightblue" d="M344.088,-184.324C349.418,-173.664 355.1,-162.299 360.684,-151.132"/>
<polygon fill="none" stroke="midnightblue" points="340.848,-182.979 339.506,-193.488 347.109,-186.109 340.848,-182.979"/>
</g>
<!-- Node5 -->
<g id="node6" class="node"><title>Node5</title>
<g id="a_node6"><a xlink:href="$classMixer_1_1TriangleGenerator.html" xlink:title="{Mixer::TriangleGenerator\&lt; T \&gt;\n|&#45; frequency\l&#45; harmonics\l&#45; complexSource\l&#45; generators\l&#45; volumeControllers\l|+ get()\l+ getFrequency()\l+ setFrequency()\l+ setFrequency()\l+ TriangleGenerator()\l}">
<polygon fill="none" stroke="black" points="486.5,-6 486.5,-151 634.5,-151 634.5,-6 486.5,-6"/>
<text text-anchor="middle" x="560.5" y="-139" font-family="Helvetica,sans-Serif" font-size="10.00">Mixer::TriangleGenerator&lt; T &gt;</text>
<polyline fill="none" stroke="black" points="486.5,-132 634.5,-132 "/>
<text text-anchor="start" x="494.5" y="-120" font-family="Helvetica,sans-Serif" font-size="10.00">&#45; frequency</text>
<text text-anchor="start" x="494.5" y="-109" font-family="Helvetica,sans-Serif" font-size="10.00">&#45; harmonics</text>
<text text-anchor="start" x="494.5" y="-98" font-family="Helvetica,sans-Serif" font-size="10.00">&#45; complexSource</text>
<text text-anchor="start" x="494.5" y="-87" font-family="Helvetica,sans-Serif" font-size="10.00">&#45; generators</text>
<text text-anchor="start" x="494.5" y="-76" font-family="Helvetica,sans-Serif" font-size="10.00">&#45; volumeControllers</text>
<polyline fill="none" stroke="black" points="486.5,-69 634.5,-69 "/>
<text text-anchor="start" x="494.5" y="-57" font-family="Helvetica,sans-Serif" font-size="10.00">+ get()</text>
<text text-anchor="start" x="494.5" y="-46" font-family="Helvetica,sans-Serif" font-size="10.00">+ getFrequency()</text>
<text text-anchor="start" x="494.5" y="-35" font-family="Helvetica,sans-Serif" font-size="10.00">+ setFrequency()</text>
<text text-anchor="start" x="494.5" y="-24" font-family="Helvetica,sans-Serif" font-size="10.00">+ setFrequency()</text>
<text text-anchor="start" x="494.5" y="-13" font-family="Helvetica,sans-Serif" font-size="10.00">+ TriangleGenerator()</text>
</a>
</g>
</g>
<!-- Node0&#45;&gt;Node5 -->
<g id="edge5" class="edge"><title>Node0&#45;&gt;Node5</title>
<path fill="none" stroke="midnightblue" d="M407.166,-198.012C430.818,-186.105 455.783,-172.134 477.5,-157 480.411,-154.971 483.324,-152.844 486.222,-150.643"/>
<polygon fill="none" stroke="midnightblue" points="405.577,-194.892 398.175,-202.472 408.688,-201.163 405.577,-194.892"/>
</g>
<!-- Node1 -->
<g id="node2" class="node"><title>Node1</title>
<g id="a_node2"><a xlink:href="$classDataFlow_1_1iSource.html" xlink:title="{DataFlow::iSource\&lt; T \&gt;\n||+ get()\l+ ~iSource()\l}">
<polygon fill="none" stroke="black" points="256.5,-320.5 256.5,-388.5 378.5,-388.5 378.5,-320.5 256.5,-320.5"/>
<text text-anchor="middle" x="317.5" y="-376.5" font-family="Helvetica,sans-Serif" font-size="10.00">DataFlow::iSource&lt; T &gt;</text>
<polyline fill="none" stroke="black" points="256.5,-369.5 378.5,-369.5 "/>
<text text-anchor="middle" x="317.5" y="-357.5" font-family="Helvetica,sans-Serif" font-size="10.00"> </text>
<polyline fill="none" stroke="black" points="256.5,-350.5 378.5,-350.5 "/>
<text text-anchor="start" x="264.5" y="-338.5" font-family="Helvetica,sans-Serif" font-size="10.00">+ get()</text>
<text text-anchor="start" x="264.5" y="-327.5" font-family="Helvetica,sans-Serif" font-size="10.00">+ ~iSource()</text>
</a>
</g>
</g>
<!-- Node1&#45;&gt;Node0 -->
<g id="edge1" class="edge"><title>Node1&#45;&gt;Node0</title>
<path fill="none" stroke="midnightblue" d="M317.5,-309.972C317.5,-301.346 317.5,-292.284 317.5,-283.638"/>
<polygon fill="none" stroke="midnightblue" points="314,-310.22 317.5,-320.22 321,-310.22 314,-310.22"/>
</g>
</g>
</svg>
