<?xml version="1.0" encoding="UTF-8" standalone="no"?>
<!DOCTYPE svg PUBLIC "-//W3C//DTD SVG 1.1//EN"
 "http://www.w3.org/Graphics/SVG/1.1/DTD/svg11.dtd">
<!-- Generated by graphviz version 2.38.0 (20140413.2041)
 -->
<!-- Title: Mixer::ComplexWaveformGenerator&lt; T &gt; Pages: 1 -->
<svg width="250pt" height="226pt"
 viewBox="0.00 0.00 250.00 226.00" xmlns="http://www.w3.org/2000/svg" xmlns:xlink="http://www.w3.org/1999/xlink">
<g id="graph0" class="graph" transform="scale(1 1) rotate(0) translate(4 222)">
<title>Mixer::ComplexWaveformGenerator&lt; T &gt;</title>
<!-- Node0 -->
<g id="node1" class="node"><title>Node0</title>
<polygon fill="#bfbfbf" stroke="black" points="27.5,-0.5 27.5,-101.5 224.5,-101.5 224.5,-0.5 27.5,-0.5"/>
<text text-anchor="middle" x="126" y="-89.5" font-family="Helvetica,sans-Serif" font-size="10.00">Mixer::ComplexWaveformGenerator&lt; T &gt;</text>
<polyline fill="none" stroke="black" points="27.5,-82.5 224.5,-82.5 "/>
<text text-anchor="middle" x="126" y="-70.5" font-family="Helvetica,sans-Serif" font-size="10.00"> </text>
<polyline fill="none" stroke="black" points="27.5,-63.5 224.5,-63.5 "/>
<text text-anchor="start" x="35.5" y="-51.5" font-family="Helvetica,sans-Serif" font-size="10.00">+ get()</text>
<text text-anchor="start" x="35.5" y="-40.5" font-family="Helvetica,sans-Serif" font-size="10.00">+ getComponent()</text>
<text text-anchor="start" x="35.5" y="-29.5" font-family="Helvetica,sans-Serif" font-size="10.00">+ setComponent()</text>
<text text-anchor="start" x="35.5" y="-18.5" font-family="Helvetica,sans-Serif" font-size="10.00">+ setComponent()</text>
<text text-anchor="start" x="35.5" y="-7.5" font-family="Helvetica,sans-Serif" font-size="10.00">+ ComplexWaveformGenerator()</text>
</g>
<!-- Node1 -->
<g id="node2" class="node"><title>Node1</title>
<g id="a_node2"><a xlink:href="$classDataFlow_1_1iSource.html" xlink:title="{DataFlow::iSource\&lt; T \&gt;\n||+ get()\l+ ~iSource()\l}">
<polygon fill="none" stroke="black" points="0,-144 0,-212 122,-212 122,-144 0,-144"/>
<text text-anchor="middle" x="61" y="-200" font-family="Helvetica,sans-Serif" font-size="10.00">DataFlow::iSource&lt; T &gt;</text>
<polyline fill="none" stroke="black" points="0,-193 122,-193 "/>
<text text-anchor="middle" x="61" y="-181" font-family="Helvetica,sans-Serif" font-size="10.00"> </text>
<polyline fill="none" stroke="black" points="0,-174 122,-174 "/>
<text text-anchor="start" x="8" y="-162" font-family="Helvetica,sans-Serif" font-size="10.00">+ get()</text>
<text text-anchor="start" x="8" y="-151" font-family="Helvetica,sans-Serif" font-size="10.00">+ ~iSource()</text>
</a>
</g>
</g>
<!-- Node1&#45;&gt;Node0 -->
<g id="edge1" class="edge"><title>Node1&#45;&gt;Node0</title>
<path fill="none" stroke="midnightblue" d="M82.9519,-134.785C88.4582,-124.196 94.4176,-112.735 100.097,-101.814"/>
<polygon fill="none" stroke="midnightblue" points="79.7565,-133.344 78.2482,-143.83 85.967,-136.573 79.7565,-133.344"/>
</g>
<!-- Node2 -->
<g id="node3" class="node"><title>Node2</title>
<g id="a_node3"><a xlink:href="$classMixer_1_1AudioSource.html" xlink:title="{Mixer::AudioSource\n||+ getChannels()\l+ getSampleRate()\l# AudioSource()\l}">
<polygon fill="none" stroke="black" points="140,-138.5 140,-217.5 242,-217.5 242,-138.5 140,-138.5"/>
<text text-anchor="middle" x="191" y="-205.5" font-family="Helvetica,sans-Serif" font-size="10.00">Mixer::AudioSource</text>
<polyline fill="none" stroke="black" points="140,-198.5 242,-198.5 "/>
<text text-anchor="middle" x="191" y="-186.5" font-family="Helvetica,sans-Serif" font-size="10.00"> </text>
<polyline fill="none" stroke="black" points="140,-179.5 242,-179.5 "/>
<text text-anchor="start" x="148" y="-167.5" font-family="Helvetica,sans-Serif" font-size="10.00">+ getChannels()</text>
<text text-anchor="start" x="148" y="-156.5" font-family="Helvetica,sans-Serif" font-size="10.00">+ getSampleRate()</text>
<text text-anchor="start" x="148" y="-145.5" font-family="Helvetica,sans-Serif" font-size="10.00"># AudioSource()</text>
</a>
</g>
</g>
<!-- Node2&#45;&gt;Node0 -->
<g id="edge2" class="edge"><title>Node2&#45;&gt;Node0</title>
<path fill="none" stroke="midnightblue" d="M166.324,-129.547C161.586,-120.436 156.613,-110.871 151.839,-101.691"/>
<polygon fill="none" stroke="midnightblue" points="163.249,-131.218 170.967,-138.476 169.459,-127.989 163.249,-131.218"/>
</g>
</g>
</svg>
