<?xml version="1.0" encoding="UTF-8" standalone="no"?>
<!DOCTYPE svg PUBLIC "-//W3C//DTD SVG 1.1//EN"
 "http://www.w3.org/Graphics/SVG/1.1/DTD/svg11.dtd">
<!-- Generated by graphviz version 2.38.0 (20140413.2041)
 -->
<!-- Title: Mixer::AudioSource Pages: 1 -->
<svg width="1158pt" height="303pt"
 viewBox="0.00 0.00 1157.50 303.00" xmlns="http://www.w3.org/2000/svg" xmlns:xlink="http://www.w3.org/1999/xlink">
<g id="graph0" class="graph" transform="scale(1 1) rotate(0) translate(4 299)">
<title>Mixer::AudioSource</title>
<!-- Node0 -->
<g id="node1" class="node"><title>Node0</title>
<polygon fill="#bfbfbf" stroke="black" points="566.5,-204.5 566.5,-294.5 668.5,-294.5 668.5,-204.5 566.5,-204.5"/>
<text text-anchor="middle" x="617.5" y="-282.5" font-family="Helvetica,sans-Serif" font-size="10.00">Mixer::AudioSource</text>
<polyline fill="none" stroke="black" points="566.5,-275.5 668.5,-275.5 "/>
<text text-anchor="start" x="574.5" y="-263.5" font-family="Helvetica,sans-Serif" font-size="10.00">&#45; channels</text>
<text text-anchor="start" x="574.5" y="-252.5" font-family="Helvetica,sans-Serif" font-size="10.00">&#45; sampleRate</text>
<polyline fill="none" stroke="black" points="566.5,-245.5 668.5,-245.5 "/>
<text text-anchor="start" x="574.5" y="-233.5" font-family="Helvetica,sans-Serif" font-size="10.00">+ getChannels()</text>
<text text-anchor="start" x="574.5" y="-222.5" font-family="Helvetica,sans-Serif" font-size="10.00">+ getSampleRate()</text>
<text text-anchor="start" x="574.5" y="-211.5" font-family="Helvetica,sans-Serif" font-size="10.00"># AudioSource()</text>
</g>
<!-- Node1 -->
<g id="node2" class="node"><title>Node1</title>
<g id="a_node2"><a xlink:href="$classMixer_1_1CheapSawtoothGenerator.html" xlink:title="{Mixer::CheapSawtoothGenerator\&lt; T \&gt;\n|&#45; frequency\l&#45; period\l&#45; m\l&#45; position\l&#45; putOnes\l&#45; transitioner\l&#45; transitioner2\l|+ get()\l+ getFrequency()\l+ setFrequency()\l+ setFrequency()\l+ CheapSawtoothGenerator()\l}">
<polygon fill="none" stroke="black" points="0,-0.5 0,-167.5 183,-167.5 183,-0.5 0,-0.5"/>
<text text-anchor="middle" x="91.5" y="-155.5" font-family="Helvetica,sans-Serif" font-size="10.00">Mixer::CheapSawtoothGenerator&lt; T &gt;</text>
<polyline fill="none" stroke="black" points="0,-148.5 183,-148.5 "/>
<text text-anchor="start" x="8" y="-136.5" font-family="Helvetica,sans-Serif" font-size="10.00">&#45; frequency</text>
<text text-anchor="start" x="8" y="-125.5" font-family="Helvetica,sans-Serif" font-size="10.00">&#45; period</text>
<text text-anchor="start" x="8" y="-114.5" font-family="Helvetica,sans-Serif" font-size="10.00">&#45; m</text>
<text text-anchor="start" x="8" y="-103.5" font-family="Helvetica,sans-Serif" font-size="10.00">&#45; position</text>
<text text-anchor="start" x="8" y="-92.5" font-family="Helvetica,sans-Serif" font-size="10.00">&#45; putOnes</text>
<text text-anchor="start" x="8" y="-81.5" font-family="Helvetica,sans-Serif" font-size="10.00">&#45; transitioner</text>
<text text-anchor="start" x="8" y="-70.5" font-family="Helvetica,sans-Serif" font-size="10.00">&#45; transitioner2</text>
<polyline fill="none" stroke="black" points="0,-63.5 183,-63.5 "/>
<text text-anchor="start" x="8" y="-51.5" font-family="Helvetica,sans-Serif" font-size="10.00">+ get()</text>
<text text-anchor="start" x="8" y="-40.5" font-family="Helvetica,sans-Serif" font-size="10.00">+ getFrequency()</text>
<text text-anchor="start" x="8" y="-29.5" font-family="Helvetica,sans-Serif" font-size="10.00">+ setFrequency()</text>
<text text-anchor="start" x="8" y="-18.5" font-family="Helvetica,sans-Serif" font-size="10.00">+ setFrequency()</text>
<text text-anchor="start" x="8" y="-7.5" font-family="Helvetica,sans-Serif" font-size="10.00">+ CheapSawtoothGenerator()</text>
</a>
</g>
</g>
<!-- Node0&#45;&gt;Node1 -->
<g id="edge1" class="edge"><title>Node0&#45;&gt;Node1</title>
<path fill="none" stroke="midnightblue" d="M556.393,-246.501C470.923,-241.633 312.574,-224.965 191.5,-168 188.744,-166.703 186,-165.313 183.276,-163.841"/>
<polygon fill="none" stroke="midnightblue" points="556.275,-250 566.447,-247.038 556.648,-243.009 556.275,-250"/>
</g>
<!-- Node2 -->
<g id="node3" class="node"><title>Node2</title>
<g id="a_node3"><a xlink:href="$classMixer_1_1CheapSquareGenerator.html" xlink:title="{Mixer::CheapSquareGenerator\&lt; T \&gt;\n|&#45; frequency\l&#45; halfPeriod\l&#45; counter\l&#45; putOnes\l&#45; transitioner\l|+ get()\l+ getFrequency()\l+ setFrequency()\l+ setFrequency()\l+ CheapSquareGenerator()\l}">
<polygon fill="none" stroke="black" points="201,-11.5 201,-156.5 374,-156.5 374,-11.5 201,-11.5"/>
<text text-anchor="middle" x="287.5" y="-144.5" font-family="Helvetica,sans-Serif" font-size="10.00">Mixer::CheapSquareGenerator&lt; T &gt;</text>
<polyline fill="none" stroke="black" points="201,-137.5 374,-137.5 "/>
<text text-anchor="start" x="209" y="-125.5" font-family="Helvetica,sans-Serif" font-size="10.00">&#45; frequency</text>
<text text-anchor="start" x="209" y="-114.5" font-family="Helvetica,sans-Serif" font-size="10.00">&#45; halfPeriod</text>
<text text-anchor="start" x="209" y="-103.5" font-family="Helvetica,sans-Serif" font-size="10.00">&#45; counter</text>
<text text-anchor="start" x="209" y="-92.5" font-family="Helvetica,sans-Serif" font-size="10.00">&#45; putOnes</text>
<text text-anchor="start" x="209" y="-81.5" font-family="Helvetica,sans-Serif" font-size="10.00">&#45; transitioner</text>
<polyline fill="none" stroke="black" points="201,-74.5 374,-74.5 "/>
<text text-anchor="start" x="209" y="-62.5" font-family="Helvetica,sans-Serif" font-size="10.00">+ get()</text>
<text text-anchor="start" x="209" y="-51.5" font-family="Helvetica,sans-Serif" font-size="10.00">+ getFrequency()</text>
<text text-anchor="start" x="209" y="-40.5" font-family="Helvetica,sans-Serif" font-size="10.00">+ setFrequency()</text>
<text text-anchor="start" x="209" y="-29.5" font-family="Helvetica,sans-Serif" font-size="10.00">+ setFrequency()</text>
<text text-anchor="start" x="209" y="-18.5" font-family="Helvetica,sans-Serif" font-size="10.00">+ CheapSquareGenerator()</text>
</a>
</g>
</g>
<!-- Node0&#45;&gt;Node2 -->
<g id="edge2" class="edge"><title>Node0&#45;&gt;Node2</title>
<path fill="none" stroke="midnightblue" d="M556.638,-234.612C507.497,-221.799 437.692,-199.899 382.5,-168 376.527,-164.548 370.586,-160.689 364.758,-156.575"/>
<polygon fill="none" stroke="midnightblue" points="555.933,-238.045 566.488,-237.131 557.667,-231.263 555.933,-238.045"/>
</g>
<!-- Node3 -->
<g id="node4" class="node"><title>Node3</title>
<g id="a_node4"><a xlink:href="$classMixer_1_1SawtoothGenerator.html" xlink:title="{Mixer::SawtoothGenerator\&lt; T \&gt;\n|&#45; frequency\l&#45; harmonics\l&#45; complexSource\l&#45; generators\l&#45; volumeControllers\l|+ get()\l+ getFrequency()\l+ setFrequency()\l+ setFrequency()\l+ SawtoothGenerator()\l}">
<polygon fill="none" stroke="black" points="392,-11.5 392,-156.5 547,-156.5 547,-11.5 392,-11.5"/>
<text text-anchor="middle" x="469.5" y="-144.5" font-family="Helvetica,sans-Serif" font-size="10.00">Mixer::SawtoothGenerator&lt; T &gt;</text>
<polyline fill="none" stroke="black" points="392,-137.5 547,-137.5 "/>
<text text-anchor="start" x="400" y="-125.5" font-family="Helvetica,sans-Serif" font-size="10.00">&#45; frequency</text>
<text text-anchor="start" x="400" y="-114.5" font-family="Helvetica,sans-Serif" font-size="10.00">&#45; harmonics</text>
<text text-anchor="start" x="400" y="-103.5" font-family="Helvetica,sans-Serif" font-size="10.00">&#45; complexSource</text>
<text text-anchor="start" x="400" y="-92.5" font-family="Helvetica,sans-Serif" font-size="10.00">&#45; generators</text>
<text text-anchor="start" x="400" y="-81.5" font-family="Helvetica,sans-Serif" font-size="10.00">&#45; volumeControllers</text>
<polyline fill="none" stroke="black" points="392,-74.5 547,-74.5 "/>
<text text-anchor="start" x="400" y="-62.5" font-family="Helvetica,sans-Serif" font-size="10.00">+ get()</text>
<text text-anchor="start" x="400" y="-51.5" font-family="Helvetica,sans-Serif" font-size="10.00">+ getFrequency()</text>
<text text-anchor="start" x="400" y="-40.5" font-family="Helvetica,sans-Serif" font-size="10.00">+ setFrequency()</text>
<text text-anchor="start" x="400" y="-29.5" font-family="Helvetica,sans-Serif" font-size="10.00">+ setFrequency()</text>
<text text-anchor="start" x="400" y="-18.5" font-family="Helvetica,sans-Serif" font-size="10.00">+ SawtoothGenerator()</text>
</a>
</g>
</g>
<!-- Node0&#45;&gt;Node3 -->
<g id="edge3" class="edge"><title>Node0&#45;&gt;Node3</title>
<path fill="none" stroke="midnightblue" d="M570.454,-196.527C558.994,-183.867 546.534,-170.102 534.406,-156.703"/>
<polygon fill="none" stroke="midnightblue" points="568.143,-199.19 577.449,-204.255 573.333,-194.492 568.143,-199.19"/>
</g>
<!-- Node4 -->
<g id="node5" class="node"><title>Node4</title>
<g id="a_node5"><a xlink:href="$classMixer_1_1SimplePlayer.html" xlink:title="{Mixer::SimplePlayer\l\&lt; T, K \&gt;\n|&#45; backend\l&#45; source\l&#45; paused\l|+ get()\l+ pause()\l+ stop()\l+ play()\l+ attach()\l+ SimplePlayer()\l}">
<polygon fill="none" stroke="black" points="565.5,-11.5 565.5,-156.5 669.5,-156.5 669.5,-11.5 565.5,-11.5"/>
<text text-anchor="start" x="573.5" y="-144.5" font-family="Helvetica,sans-Serif" font-size="10.00">Mixer::SimplePlayer</text>
<text text-anchor="middle" x="617.5" y="-133.5" font-family="Helvetica,sans-Serif" font-size="10.00">&lt; T, K &gt;</text>
<polyline fill="none" stroke="black" points="565.5,-126.5 669.5,-126.5 "/>
<text text-anchor="start" x="573.5" y="-114.5" font-family="Helvetica,sans-Serif" font-size="10.00">&#45; backend</text>
<text text-anchor="start" x="573.5" y="-103.5" font-family="Helvetica,sans-Serif" font-size="10.00">&#45; source</text>
<text text-anchor="start" x="573.5" y="-92.5" font-family="Helvetica,sans-Serif" font-size="10.00">&#45; paused</text>
<polyline fill="none" stroke="black" points="565.5,-85.5 669.5,-85.5 "/>
<text text-anchor="start" x="573.5" y="-73.5" font-family="Helvetica,sans-Serif" font-size="10.00">+ get()</text>
<text text-anchor="start" x="573.5" y="-62.5" font-family="Helvetica,sans-Serif" font-size="10.00">+ pause()</text>
<text text-anchor="start" x="573.5" y="-51.5" font-family="Helvetica,sans-Serif" font-size="10.00">+ stop()</text>
<text text-anchor="start" x="573.5" y="-40.5" font-family="Helvetica,sans-Serif" font-size="10.00">+ play()</text>
<text text-anchor="start" x="573.5" y="-29.5" font-family="Helvetica,sans-Serif" font-size="10.00">+ attach()</text>
<text text-anchor="start" x="573.5" y="-18.5" font-family="Helvetica,sans-Serif" font-size="10.00">+ SimplePlayer()</text>
</a>
</g>
</g>
<!-- Node0&#45;&gt;Node4 -->
<g id="edge4" class="edge"><title>Node0&#45;&gt;Node4</title>
<path fill="none" stroke="midnightblue" d="M617.5,-194.005C617.5,-182.05 617.5,-169.217 617.5,-156.703"/>
<polygon fill="none" stroke="midnightblue" points="614,-194.255 617.5,-204.255 621,-194.255 614,-194.255"/>
</g>
<!-- Node5 -->
<g id="node6" class="node"><title>Node5</title>
<g id="a_node6"><a xlink:href="$classMixer_1_1SineGenerator.html" xlink:title="{Mixer::SineGenerator\&lt; T \&gt;\n|&#45; step\l&#45; position\l&#45; transitioner\l&#45; sinetableUninitialized\l&#45; sinetable\l|+ get()\l+ getFrequency()\l+ setFrequency()\l+ setFrequency()\l+ SineGenerator()\l&#45; filler()\l}">
<polygon fill="none" stroke="black" points="688,-6 688,-162 821,-162 821,-6 688,-6"/>
<text text-anchor="middle" x="754.5" y="-150" font-family="Helvetica,sans-Serif" font-size="10.00">Mixer::SineGenerator&lt; T &gt;</text>
<polyline fill="none" stroke="black" points="688,-143 821,-143 "/>
<text text-anchor="start" x="696" y="-131" font-family="Helvetica,sans-Serif" font-size="10.00">&#45; step</text>
<text text-anchor="start" x="696" y="-120" font-family="Helvetica,sans-Serif" font-size="10.00">&#45; position</text>
<text text-anchor="start" x="696" y="-109" font-family="Helvetica,sans-Serif" font-size="10.00">&#45; transitioner</text>
<text text-anchor="start" x="696" y="-98" font-family="Helvetica,sans-Serif" font-size="10.00">&#45; sinetableUninitialized</text>
<text text-anchor="start" x="696" y="-87" font-family="Helvetica,sans-Serif" font-size="10.00">&#45; sinetable</text>
<polyline fill="none" stroke="black" points="688,-80 821,-80 "/>
<text text-anchor="start" x="696" y="-68" font-family="Helvetica,sans-Serif" font-size="10.00">+ get()</text>
<text text-anchor="start" x="696" y="-57" font-family="Helvetica,sans-Serif" font-size="10.00">+ getFrequency()</text>
<text text-anchor="start" x="696" y="-46" font-family="Helvetica,sans-Serif" font-size="10.00">+ setFrequency()</text>
<text text-anchor="start" x="696" y="-35" font-family="Helvetica,sans-Serif" font-size="10.00">+ setFrequency()</text>
<text text-anchor="start" x="696" y="-24" font-family="Helvetica,sans-Serif" font-size="10.00">+ SineGenerator()</text>
<text text-anchor="start" x="696" y="-13" font-family="Helvetica,sans-Serif" font-size="10.00">&#45; filler()</text>
</a>
</g>
</g>
<!-- Node0&#45;&gt;Node5 -->
<g id="edge5" class="edge"><title>Node0&#45;&gt;Node5</title>
<path fill="none" stroke="midnightblue" d="M661.127,-196.435C670.308,-185.477 680.18,-173.696 689.944,-162.043"/>
<polygon fill="none" stroke="midnightblue" points="658.314,-194.342 654.574,-204.255 663.679,-198.838 658.314,-194.342"/>
</g>
<!-- Node6 -->
<g id="node7" class="node"><title>Node6</title>
<g id="a_node7"><a xlink:href="$classMixer_1_1SquareGenerator.html" xlink:title="{Mixer::SquareGenerator\&lt; T \&gt;\n|&#45; frequency\l&#45; harmonics\l&#45; complexSource\l&#45; generators\l&#45; volumeControllers\l|+ get()\l+ getFrequency()\l+ setFrequency()\l+ setFrequency()\l+ SquareGenerator()\l}">
<polygon fill="none" stroke="black" points="839.5,-11.5 839.5,-156.5 983.5,-156.5 983.5,-11.5 839.5,-11.5"/>
<text text-anchor="middle" x="911.5" y="-144.5" font-family="Helvetica,sans-Serif" font-size="10.00">Mixer::SquareGenerator&lt; T &gt;</text>
<polyline fill="none" stroke="black" points="839.5,-137.5 983.5,-137.5 "/>
<text text-anchor="start" x="847.5" y="-125.5" font-family="Helvetica,sans-Serif" font-size="10.00">&#45; frequency</text>
<text text-anchor="start" x="847.5" y="-114.5" font-family="Helvetica,sans-Serif" font-size="10.00">&#45; harmonics</text>
<text text-anchor="start" x="847.5" y="-103.5" font-family="Helvetica,sans-Serif" font-size="10.00">&#45; complexSource</text>
<text text-anchor="start" x="847.5" y="-92.5" font-family="Helvetica,sans-Serif" font-size="10.00">&#45; generators</text>
<text text-anchor="start" x="847.5" y="-81.5" font-family="Helvetica,sans-Serif" font-size="10.00">&#45; volumeControllers</text>
<polyline fill="none" stroke="black" points="839.5,-74.5 983.5,-74.5 "/>
<text text-anchor="start" x="847.5" y="-62.5" font-family="Helvetica,sans-Serif" font-size="10.00">+ get()</text>
<text text-anchor="start" x="847.5" y="-51.5" font-family="Helvetica,sans-Serif" font-size="10.00">+ getFrequency()</text>
<text text-anchor="start" x="847.5" y="-40.5" font-family="Helvetica,sans-Serif" font-size="10.00">+ setFrequency()</text>
<text text-anchor="start" x="847.5" y="-29.5" font-family="Helvetica,sans-Serif" font-size="10.00">+ setFrequency()</text>
<text text-anchor="start" x="847.5" y="-18.5" font-family="Helvetica,sans-Serif" font-size="10.00">+ SquareGenerator()</text>
</a>
</g>
</g>
<!-- Node0&#45;&gt;Node6 -->
<g id="edge6" class="edge"><title>Node0&#45;&gt;Node6</title>
<path fill="none" stroke="midnightblue" d="M678.426,-233.18C722.924,-220.218 783.448,-198.791 830.5,-168 835.723,-164.582 840.868,-160.775 845.879,-156.723"/>
<polygon fill="none" stroke="midnightblue" points="677.274,-229.869 668.617,-235.976 679.194,-236.601 677.274,-229.869"/>
</g>
<!-- Node7 -->
<g id="node8" class="node"><title>Node7</title>
<g id="a_node8"><a xlink:href="$classMixer_1_1TriangleGenerator.html" xlink:title="{Mixer::TriangleGenerator\&lt; T \&gt;\n|&#45; frequency\l&#45; harmonics\l&#45; complexSource\l&#45; generators\l&#45; volumeControllers\l|+ get()\l+ getFrequency()\l+ setFrequency()\l+ setFrequency()\l+ TriangleGenerator()\l}">
<polygon fill="none" stroke="black" points="1001.5,-11.5 1001.5,-156.5 1149.5,-156.5 1149.5,-11.5 1001.5,-11.5"/>
<text text-anchor="middle" x="1075.5" y="-144.5" font-family="Helvetica,sans-Serif" font-size="10.00">Mixer::TriangleGenerator&lt; T &gt;</text>
<polyline fill="none" stroke="black" points="1001.5,-137.5 1149.5,-137.5 "/>
<text text-anchor="start" x="1009.5" y="-125.5" font-family="Helvetica,sans-Serif" font-size="10.00">&#45; frequency</text>
<text text-anchor="start" x="1009.5" y="-114.5" font-family="Helvetica,sans-Serif" font-size="10.00">&#45; harmonics</text>
<text text-anchor="start" x="1009.5" y="-103.5" font-family="Helvetica,sans-Serif" font-size="10.00">&#45; complexSource</text>
<text text-anchor="start" x="1009.5" y="-92.5" font-family="Helvetica,sans-Serif" font-size="10.00">&#45; generators</text>
<text text-anchor="start" x="1009.5" y="-81.5" font-family="Helvetica,sans-Serif" font-size="10.00">&#45; volumeControllers</text>
<polyline fill="none" stroke="black" points="1001.5,-74.5 1149.5,-74.5 "/>
<text text-anchor="start" x="1009.5" y="-62.5" font-family="Helvetica,sans-Serif" font-size="10.00">+ get()</text>
<text text-anchor="start" x="1009.5" y="-51.5" font-family="Helvetica,sans-Serif" font-size="10.00">+ getFrequency()</text>
<text text-anchor="start" x="1009.5" y="-40.5" font-family="Helvetica,sans-Serif" font-size="10.00">+ setFrequency()</text>
<text text-anchor="start" x="1009.5" y="-29.5" font-family="Helvetica,sans-Serif" font-size="10.00">+ setFrequency()</text>
<text text-anchor="start" x="1009.5" y="-18.5" font-family="Helvetica,sans-Serif" font-size="10.00">+ TriangleGenerator()</text>
</a>
</g>
</g>
<!-- Node0&#45;&gt;Node7 -->
<g id="edge7" class="edge"><title>Node0&#45;&gt;Node7</title>
<path fill="none" stroke="midnightblue" d="M678.633,-245.943C756.037,-240.42 891.469,-222.987 992.5,-168 998.586,-164.688 1004.52,-160.791 1010.23,-156.524"/>
<polygon fill="none" stroke="midnightblue" points="678.31,-242.457 668.566,-246.617 678.777,-249.441 678.31,-242.457"/>
</g>
</g>
</svg>
