<?xml version="1.0" encoding="UTF-8" standalone="no"?>
<!DOCTYPE svg PUBLIC "-//W3C//DTD SVG 1.1//EN"
 "http://www.w3.org/Graphics/SVG/1.1/DTD/svg11.dtd">
<!-- Generated by graphviz version 2.38.0 (20140413.2041)
 -->
<!-- Title: Mixer::AudioSource Pages: 1 -->
<svg width="766pt" height="292pt"
 viewBox="0.00 0.00 765.50 292.00" xmlns="http://www.w3.org/2000/svg" xmlns:xlink="http://www.w3.org/1999/xlink">
<g id="graph0" class="graph" transform="scale(1 1) rotate(0) translate(4 288)">
<title>Mixer::AudioSource</title>
<!-- Node0 -->
<g id="node1" class="node"><title>Node0</title>
<polygon fill="#bfbfbf" stroke="black" points="311.5,-193.5 311.5,-283.5 413.5,-283.5 413.5,-193.5 311.5,-193.5"/>
<text text-anchor="middle" x="362.5" y="-271.5" font-family="Helvetica,sans-Serif" font-size="10.00">Mixer::AudioSource</text>
<polyline fill="none" stroke="black" points="311.5,-264.5 413.5,-264.5 "/>
<text text-anchor="start" x="319.5" y="-252.5" font-family="Helvetica,sans-Serif" font-size="10.00">&#45; channels</text>
<text text-anchor="start" x="319.5" y="-241.5" font-family="Helvetica,sans-Serif" font-size="10.00">&#45; sampleRate</text>
<polyline fill="none" stroke="black" points="311.5,-234.5 413.5,-234.5 "/>
<text text-anchor="start" x="319.5" y="-222.5" font-family="Helvetica,sans-Serif" font-size="10.00">+ getChannels()</text>
<text text-anchor="start" x="319.5" y="-211.5" font-family="Helvetica,sans-Serif" font-size="10.00">+ getSampleRate()</text>
<text text-anchor="start" x="319.5" y="-200.5" font-family="Helvetica,sans-Serif" font-size="10.00"># AudioSource()</text>
</g>
<!-- Node1 -->
<g id="node2" class="node"><title>Node1</title>
<g id="a_node2"><a xlink:href="$classMixer_1_1SawtoothGenerator.html" xlink:title="{Mixer::SawtoothGenerator\&lt; T \&gt;\n|&#45; frequency\l&#45; harmonics\l&#45; complexSource\l&#45; generators\l&#45; volumeControllers\l|+ get()\l+ getFrequency()\l+ setFrequency()\l+ setFrequency()\l+ SawtoothGenerator()\l}">
<polygon fill="none" stroke="black" points="0,-6 0,-151 155,-151 155,-6 0,-6"/>
<text text-anchor="middle" x="77.5" y="-139" font-family="Helvetica,sans-Serif" font-size="10.00">Mixer::SawtoothGenerator&lt; T &gt;</text>
<polyline fill="none" stroke="black" points="0,-132 155,-132 "/>
<text text-anchor="start" x="8" y="-120" font-family="Helvetica,sans-Serif" font-size="10.00">&#45; frequency</text>
<text text-anchor="start" x="8" y="-109" font-family="Helvetica,sans-Serif" font-size="10.00">&#45; harmonics</text>
<text text-anchor="start" x="8" y="-98" font-family="Helvetica,sans-Serif" font-size="10.00">&#45; complexSource</text>
<text text-anchor="start" x="8" y="-87" font-family="Helvetica,sans-Serif" font-size="10.00">&#45; generators</text>
<text text-anchor="start" x="8" y="-76" font-family="Helvetica,sans-Serif" font-size="10.00">&#45; volumeControllers</text>
<polyline fill="none" stroke="black" points="0,-69 155,-69 "/>
<text text-anchor="start" x="8" y="-57" font-family="Helvetica,sans-Serif" font-size="10.00">+ get()</text>
<text text-anchor="start" x="8" y="-46" font-family="Helvetica,sans-Serif" font-size="10.00">+ getFrequency()</text>
<text text-anchor="start" x="8" y="-35" font-family="Helvetica,sans-Serif" font-size="10.00">+ setFrequency()</text>
<text text-anchor="start" x="8" y="-24" font-family="Helvetica,sans-Serif" font-size="10.00">+ setFrequency()</text>
<text text-anchor="start" x="8" y="-13" font-family="Helvetica,sans-Serif" font-size="10.00">+ SawtoothGenerator()</text>
</a>
</g>
</g>
<!-- Node0&#45;&gt;Node1 -->
<g id="edge1" class="edge"><title>Node0&#45;&gt;Node1</title>
<path fill="none" stroke="midnightblue" d="M301.913,-218.912C261.338,-205.042 207.66,-183.875 164.5,-157 161.323,-155.022 158.151,-152.925 155,-150.737"/>
<polygon fill="none" stroke="midnightblue" points="300.812,-222.235 311.406,-222.107 303.045,-215.6 300.812,-222.235"/>
</g>
<!-- Node2 -->
<g id="node3" class="node"><title>Node2</title>
<g id="a_node3"><a xlink:href="$classMixer_1_1SimplePlayer.html" xlink:title="{Mixer::SimplePlayer\l\&lt; T, K \&gt;\n|&#45; backend\l&#45; source\l&#45; paused\l|+ get()\l+ pause()\l+ stop()\l+ play()\l+ attach()\l+ SimplePlayer()\l}">
<polygon fill="none" stroke="black" points="173.5,-6 173.5,-151 277.5,-151 277.5,-6 173.5,-6"/>
<text text-anchor="start" x="181.5" y="-139" font-family="Helvetica,sans-Serif" font-size="10.00">Mixer::SimplePlayer</text>
<text text-anchor="middle" x="225.5" y="-128" font-family="Helvetica,sans-Serif" font-size="10.00">&lt; T, K &gt;</text>
<polyline fill="none" stroke="black" points="173.5,-121 277.5,-121 "/>
<text text-anchor="start" x="181.5" y="-109" font-family="Helvetica,sans-Serif" font-size="10.00">&#45; backend</text>
<text text-anchor="start" x="181.5" y="-98" font-family="Helvetica,sans-Serif" font-size="10.00">&#45; source</text>
<text text-anchor="start" x="181.5" y="-87" font-family="Helvetica,sans-Serif" font-size="10.00">&#45; paused</text>
<polyline fill="none" stroke="black" points="173.5,-80 277.5,-80 "/>
<text text-anchor="start" x="181.5" y="-68" font-family="Helvetica,sans-Serif" font-size="10.00">+ get()</text>
<text text-anchor="start" x="181.5" y="-57" font-family="Helvetica,sans-Serif" font-size="10.00">+ pause()</text>
<text text-anchor="start" x="181.5" y="-46" font-family="Helvetica,sans-Serif" font-size="10.00">+ stop()</text>
<text text-anchor="start" x="181.5" y="-35" font-family="Helvetica,sans-Serif" font-size="10.00">+ play()</text>
<text text-anchor="start" x="181.5" y="-24" font-family="Helvetica,sans-Serif" font-size="10.00">+ attach()</text>
<text text-anchor="start" x="181.5" y="-13" font-family="Helvetica,sans-Serif" font-size="10.00">+ SimplePlayer()</text>
</a>
</g>
</g>
<!-- Node0&#45;&gt;Node2 -->
<g id="edge2" class="edge"><title>Node0&#45;&gt;Node2</title>
<path fill="none" stroke="midnightblue" d="M312.536,-185.946C303.711,-176.455 294.722,-166.532 286.5,-157 283.592,-153.629 280.646,-150.143 277.699,-146.601"/>
<polygon fill="none" stroke="midnightblue" points="310.172,-188.541 319.562,-193.449 315.282,-183.757 310.172,-188.541"/>
</g>
<!-- Node3 -->
<g id="node4" class="node"><title>Node3</title>
<g id="a_node4"><a xlink:href="$classMixer_1_1SineGenerator.html" xlink:title="{Mixer::SineGenerator\&lt; T \&gt;\n|&#45; step\l&#45; position\l&#45; transitioner\l&#45; sinetableUninitialized\l&#45; sinetable\l|+ get()\l+ getFrequency()\l+ setFrequency()\l+ setFrequency()\l+ SineGenerator()\l&#45; filler()\l}">
<polygon fill="none" stroke="black" points="296,-0.5 296,-156.5 429,-156.5 429,-0.5 296,-0.5"/>
<text text-anchor="middle" x="362.5" y="-144.5" font-family="Helvetica,sans-Serif" font-size="10.00">Mixer::SineGenerator&lt; T &gt;</text>
<polyline fill="none" stroke="black" points="296,-137.5 429,-137.5 "/>
<text text-anchor="start" x="304" y="-125.5" font-family="Helvetica,sans-Serif" font-size="10.00">&#45; step</text>
<text text-anchor="start" x="304" y="-114.5" font-family="Helvetica,sans-Serif" font-size="10.00">&#45; position</text>
<text text-anchor="start" x="304" y="-103.5" font-family="Helvetica,sans-Serif" font-size="10.00">&#45; transitioner</text>
<text text-anchor="start" x="304" y="-92.5" font-family="Helvetica,sans-Serif" font-size="10.00">&#45; sinetableUninitialized</text>
<text text-anchor="start" x="304" y="-81.5" font-family="Helvetica,sans-Serif" font-size="10.00">&#45; sinetable</text>
<polyline fill="none" stroke="black" points="296,-74.5 429,-74.5 "/>
<text text-anchor="start" x="304" y="-62.5" font-family="Helvetica,sans-Serif" font-size="10.00">+ get()</text>
<text text-anchor="start" x="304" y="-51.5" font-family="Helvetica,sans-Serif" font-size="10.00">+ getFrequency()</text>
<text text-anchor="start" x="304" y="-40.5" font-family="Helvetica,sans-Serif" font-size="10.00">+ setFrequency()</text>
<text text-anchor="start" x="304" y="-29.5" font-family="Helvetica,sans-Serif" font-size="10.00">+ setFrequency()</text>
<text text-anchor="start" x="304" y="-18.5" font-family="Helvetica,sans-Serif" font-size="10.00">+ SineGenerator()</text>
<text text-anchor="start" x="304" y="-7.5" font-family="Helvetica,sans-Serif" font-size="10.00">&#45; filler()</text>
</a>
</g>
</g>
<!-- Node0&#45;&gt;Node3 -->
<g id="edge3" class="edge"><title>Node0&#45;&gt;Node3</title>
<path fill="none" stroke="midnightblue" d="M362.5,-183.232C362.5,-174.62 362.5,-165.572 362.5,-156.558"/>
<polygon fill="none" stroke="midnightblue" points="359,-183.488 362.5,-193.488 366,-183.488 359,-183.488"/>
</g>
<!-- Node4 -->
<g id="node5" class="node"><title>Node4</title>
<g id="a_node5"><a xlink:href="$classMixer_1_1SquareGenerator.html" xlink:title="{Mixer::SquareGenerator\&lt; T \&gt;\n|&#45; frequency\l&#45; harmonics\l&#45; complexSource\l&#45; generators\l&#45; volumeControllers\l|+ get()\l+ getFrequency()\l+ setFrequency()\l+ setFrequency()\l+ SquareGenerator()\l}">
<polygon fill="none" stroke="black" points="447.5,-6 447.5,-151 591.5,-151 591.5,-6 447.5,-6"/>
<text text-anchor="middle" x="519.5" y="-139" font-family="Helvetica,sans-Serif" font-size="10.00">Mixer::SquareGenerator&lt; T &gt;</text>
<polyline fill="none" stroke="black" points="447.5,-132 591.5,-132 "/>
<text text-anchor="start" x="455.5" y="-120" font-family="Helvetica,sans-Serif" font-size="10.00">&#45; frequency</text>
<text text-anchor="start" x="455.5" y="-109" font-family="Helvetica,sans-Serif" font-size="10.00">&#45; harmonics</text>
<text text-anchor="start" x="455.5" y="-98" font-family="Helvetica,sans-Serif" font-size="10.00">&#45; complexSource</text>
<text text-anchor="start" x="455.5" y="-87" font-family="Helvetica,sans-Serif" font-size="10.00">&#45; generators</text>
<text text-anchor="start" x="455.5" y="-76" font-family="Helvetica,sans-Serif" font-size="10.00">&#45; volumeControllers</text>
<polyline fill="none" stroke="black" points="447.5,-69 591.5,-69 "/>
<text text-anchor="start" x="455.5" y="-57" font-family="Helvetica,sans-Serif" font-size="10.00">+ get()</text>
<text text-anchor="start" x="455.5" y="-46" font-family="Helvetica,sans-Serif" font-size="10.00">+ getFrequency()</text>
<text text-anchor="start" x="455.5" y="-35" font-family="Helvetica,sans-Serif" font-size="10.00">+ setFrequency()</text>
<text text-anchor="start" x="455.5" y="-24" font-family="Helvetica,sans-Serif" font-size="10.00">+ setFrequency()</text>
<text text-anchor="start" x="455.5" y="-13" font-family="Helvetica,sans-Serif" font-size="10.00">+ SquareGenerator()</text>
</a>
</g>
</g>
<!-- Node0&#45;&gt;Node4 -->
<g id="edge4" class="edge"><title>Node0&#45;&gt;Node4</title>
<path fill="none" stroke="midnightblue" d="M413.421,-186.255C424.562,-175.043 436.552,-162.976 448.321,-151.132"/>
<polygon fill="none" stroke="midnightblue" points="410.799,-183.928 406.233,-193.488 415.765,-188.862 410.799,-183.928"/>
</g>
<!-- Node5 -->
<g id="node6" class="node"><title>Node5</title>
<g id="a_node6"><a xlink:href="$classMixer_1_1TriangleGenerator.html" xlink:title="{Mixer::TriangleGenerator\&lt; T \&gt;\n|&#45; frequency\l&#45; harmonics\l&#45; complexSource\l&#45; generators\l&#45; volumeControllers\l|+ get()\l+ getFrequency()\l+ setFrequency()\l+ setFrequency()\l+ TriangleGenerator()\l}">
<polygon fill="none" stroke="black" points="609.5,-6 609.5,-151 757.5,-151 757.5,-6 609.5,-6"/>
<text text-anchor="middle" x="683.5" y="-139" font-family="Helvetica,sans-Serif" font-size="10.00">Mixer::TriangleGenerator&lt; T &gt;</text>
<polyline fill="none" stroke="black" points="609.5,-132 757.5,-132 "/>
<text text-anchor="start" x="617.5" y="-120" font-family="Helvetica,sans-Serif" font-size="10.00">&#45; frequency</text>
<text text-anchor="start" x="617.5" y="-109" font-family="Helvetica,sans-Serif" font-size="10.00">&#45; harmonics</text>
<text text-anchor="start" x="617.5" y="-98" font-family="Helvetica,sans-Serif" font-size="10.00">&#45; complexSource</text>
<text text-anchor="start" x="617.5" y="-87" font-family="Helvetica,sans-Serif" font-size="10.00">&#45; generators</text>
<text text-anchor="start" x="617.5" y="-76" font-family="Helvetica,sans-Serif" font-size="10.00">&#45; volumeControllers</text>
<polyline fill="none" stroke="black" points="609.5,-69 757.5,-69 "/>
<text text-anchor="start" x="617.5" y="-57" font-family="Helvetica,sans-Serif" font-size="10.00">+ get()</text>
<text text-anchor="start" x="617.5" y="-46" font-family="Helvetica,sans-Serif" font-size="10.00">+ getFrequency()</text>
<text text-anchor="start" x="617.5" y="-35" font-family="Helvetica,sans-Serif" font-size="10.00">+ setFrequency()</text>
<text text-anchor="start" x="617.5" y="-24" font-family="Helvetica,sans-Serif" font-size="10.00">+ setFrequency()</text>
<text text-anchor="start" x="617.5" y="-13" font-family="Helvetica,sans-Serif" font-size="10.00">+ TriangleGenerator()</text>
</a>
</g>
</g>
<!-- Node0&#45;&gt;Node5 -->
<g id="edge5" class="edge"><title>Node0&#45;&gt;Node5</title>
<path fill="none" stroke="midnightblue" d="M423.961,-224.36C473.925,-211.93 544.978,-190.179 600.5,-157 603.546,-155.18 606.574,-153.232 609.572,-151.184"/>
<polygon fill="none" stroke="midnightblue" points="422.835,-221.032 413.946,-226.797 424.49,-227.833 422.835,-221.032"/>
</g>
</g>
</svg>
