<?xml version="1.0" encoding="UTF-8" standalone="no"?>
<!DOCTYPE svg PUBLIC "-//W3C//DTD SVG 1.1//EN"
 "http://www.w3.org/Graphics/SVG/1.1/DTD/svg11.dtd">
<!-- Generated by graphviz version 2.38.0 (20140413.2041)
 -->
<!-- Title: Mixer::SimplePlayer&lt; T, K &gt; Pages: 1 -->
<svg width="346pt" height="259pt"
 viewBox="0.00 0.00 345.50 259.00" xmlns="http://www.w3.org/2000/svg" xmlns:xlink="http://www.w3.org/1999/xlink">
<g id="graph0" class="graph" transform="scale(1 1) rotate(0) translate(4 255)">
<title>Mixer::SimplePlayer&lt; T, K &gt;</title>
<!-- Node0 -->
<g id="node1" class="node"><title>Node0</title>
<polygon fill="#bfbfbf" stroke="black" points="129,-0.5 129,-123.5 233,-123.5 233,-0.5 129,-0.5"/>
<text text-anchor="start" x="137" y="-111.5" font-family="Helvetica,sans-Serif" font-size="10.00">Mixer::SimplePlayer</text>
<text text-anchor="middle" x="181" y="-100.5" font-family="Helvetica,sans-Serif" font-size="10.00">&lt; T, K &gt;</text>
<polyline fill="none" stroke="black" points="129,-93.5 233,-93.5 "/>
<text text-anchor="middle" x="181" y="-81.5" font-family="Helvetica,sans-Serif" font-size="10.00"> </text>
<polyline fill="none" stroke="black" points="129,-74.5 233,-74.5 "/>
<text text-anchor="start" x="137" y="-62.5" font-family="Helvetica,sans-Serif" font-size="10.00">+ get()</text>
<text text-anchor="start" x="137" y="-51.5" font-family="Helvetica,sans-Serif" font-size="10.00">+ pause()</text>
<text text-anchor="start" x="137" y="-40.5" font-family="Helvetica,sans-Serif" font-size="10.00">+ stop()</text>
<text text-anchor="start" x="137" y="-29.5" font-family="Helvetica,sans-Serif" font-size="10.00">+ play()</text>
<text text-anchor="start" x="137" y="-18.5" font-family="Helvetica,sans-Serif" font-size="10.00">+ attach()</text>
<text text-anchor="start" x="137" y="-7.5" font-family="Helvetica,sans-Serif" font-size="10.00">+ SimplePlayer()</text>
</g>
<!-- Node1 -->
<g id="node2" class="node"><title>Node1</title>
<g id="a_node2"><a xlink:href="$classMixer_1_1AudioSource.html" xlink:title="{Mixer::AudioSource\n||+ getChannels()\l+ getSampleRate()\l# AudioSource()\l}">
<polygon fill="none" stroke="black" points="0,-166 0,-245 102,-245 102,-166 0,-166"/>
<text text-anchor="middle" x="51" y="-233" font-family="Helvetica,sans-Serif" font-size="10.00">Mixer::AudioSource</text>
<polyline fill="none" stroke="black" points="0,-226 102,-226 "/>
<text text-anchor="middle" x="51" y="-214" font-family="Helvetica,sans-Serif" font-size="10.00"> </text>
<polyline fill="none" stroke="black" points="0,-207 102,-207 "/>
<text text-anchor="start" x="8" y="-195" font-family="Helvetica,sans-Serif" font-size="10.00">+ getChannels()</text>
<text text-anchor="start" x="8" y="-184" font-family="Helvetica,sans-Serif" font-size="10.00">+ getSampleRate()</text>
<text text-anchor="start" x="8" y="-173" font-family="Helvetica,sans-Serif" font-size="10.00"># AudioSource()</text>
</a>
</g>
</g>
<!-- Node1&#45;&gt;Node0 -->
<g id="edge1" class="edge"><title>Node1&#45;&gt;Node0</title>
<path fill="none" stroke="midnightblue" d="M93.4323,-158.314C104.769,-145.974 117.152,-132.496 128.943,-119.662"/>
<polygon fill="none" stroke="midnightblue" points="90.7112,-156.103 86.5231,-165.835 95.866,-160.838 90.7112,-156.103"/>
</g>
<!-- Node2 -->
<g id="node3" class="node"><title>Node2</title>
<g id="a_node3"><a xlink:href="$classDataFlow_1_1iSource.html" xlink:title="{DataFlow::iSource\&lt; T \&gt;\n||+ get()\l+ ~iSource()\l}">
<polygon fill="none" stroke="black" points="120,-171.5 120,-239.5 242,-239.5 242,-171.5 120,-171.5"/>
<text text-anchor="middle" x="181" y="-227.5" font-family="Helvetica,sans-Serif" font-size="10.00">DataFlow::iSource&lt; T &gt;</text>
<polyline fill="none" stroke="black" points="120,-220.5 242,-220.5 "/>
<text text-anchor="middle" x="181" y="-208.5" font-family="Helvetica,sans-Serif" font-size="10.00"> </text>
<polyline fill="none" stroke="black" points="120,-201.5 242,-201.5 "/>
<text text-anchor="start" x="128" y="-189.5" font-family="Helvetica,sans-Serif" font-size="10.00">+ get()</text>
<text text-anchor="start" x="128" y="-178.5" font-family="Helvetica,sans-Serif" font-size="10.00">+ ~iSource()</text>
</a>
</g>
</g>
<!-- Node2&#45;&gt;Node0 -->
<g id="edge2" class="edge"><title>Node2&#45;&gt;Node0</title>
<path fill="none" stroke="midnightblue" d="M181,-161.267C181,-149.417 181,-136.347 181,-123.713"/>
<polygon fill="none" stroke="midnightblue" points="177.5,-161.325 181,-171.325 184.5,-161.325 177.5,-161.325"/>
</g>
<!-- Node3 -->
<g id="node4" class="node"><title>Node3</title>
<g id="a_node4"><a xlink:href="$classMixer_1_1iPlayer.html" xlink:title="{Mixer::iPlayer\n||+ pause()\l+ stop()\l+ play()\l+ ~iPlayer()\l}">
<polygon fill="none" stroke="black" points="260.5,-160.5 260.5,-250.5 337.5,-250.5 337.5,-160.5 260.5,-160.5"/>
<text text-anchor="middle" x="299" y="-238.5" font-family="Helvetica,sans-Serif" font-size="10.00">Mixer::iPlayer</text>
<polyline fill="none" stroke="black" points="260.5,-231.5 337.5,-231.5 "/>
<text text-anchor="middle" x="299" y="-219.5" font-family="Helvetica,sans-Serif" font-size="10.00"> </text>
<polyline fill="none" stroke="black" points="260.5,-212.5 337.5,-212.5 "/>
<text text-anchor="start" x="268.5" y="-200.5" font-family="Helvetica,sans-Serif" font-size="10.00">+ pause()</text>
<text text-anchor="start" x="268.5" y="-189.5" font-family="Helvetica,sans-Serif" font-size="10.00">+ stop()</text>
<text text-anchor="start" x="268.5" y="-178.5" font-family="Helvetica,sans-Serif" font-size="10.00">+ play()</text>
<text text-anchor="start" x="268.5" y="-167.5" font-family="Helvetica,sans-Serif" font-size="10.00">+ ~iPlayer()</text>
</a>
</g>
</g>
<!-- Node3&#45;&gt;Node0 -->
<g id="edge3" class="edge"><title>Node3&#45;&gt;Node0</title>
<path fill="none" stroke="midnightblue" d="M255.526,-152.369C247.709,-142.994 239.5,-133.15 231.503,-123.561"/>
<polygon fill="none" stroke="midnightblue" points="252.895,-154.678 261.988,-160.117 258.271,-150.195 252.895,-154.678"/>
</g>
</g>
</svg>
