<?xml version="1.0" encoding="UTF-8" standalone="no"?>
<!DOCTYPE svg PUBLIC "-//W3C//DTD SVG 1.1//EN"
 "http://www.w3.org/Graphics/SVG/1.1/DTD/svg11.dtd">
<!-- Generated by graphviz version 2.38.0 (20140413.2041)
 -->
<!-- Title: Mixer::AudioSource Pages: 1 -->
<svg width="1624pt" height="270pt"
 viewBox="0.00 0.00 1623.50 270.00" xmlns="http://www.w3.org/2000/svg" xmlns:xlink="http://www.w3.org/1999/xlink">
<g id="graph0" class="graph" transform="scale(1 1) rotate(0) translate(4 266)">
<title>Mixer::AudioSource</title>
<!-- Node0 -->
<g id="node1" class="node"><title>Node0</title>
<polygon fill="#bfbfbf" stroke="black" points="836.5,-182.5 836.5,-261.5 938.5,-261.5 938.5,-182.5 836.5,-182.5"/>
<text text-anchor="middle" x="887.5" y="-249.5" font-family="Helvetica,sans-Serif" font-size="10.00">Mixer::AudioSource</text>
<polyline fill="none" stroke="black" points="836.5,-242.5 938.5,-242.5 "/>
<text text-anchor="middle" x="887.5" y="-230.5" font-family="Helvetica,sans-Serif" font-size="10.00"> </text>
<polyline fill="none" stroke="black" points="836.5,-223.5 938.5,-223.5 "/>
<text text-anchor="start" x="844.5" y="-211.5" font-family="Helvetica,sans-Serif" font-size="10.00">+ getChannels()</text>
<text text-anchor="start" x="844.5" y="-200.5" font-family="Helvetica,sans-Serif" font-size="10.00">+ getSampleRate()</text>
<text text-anchor="start" x="844.5" y="-189.5" font-family="Helvetica,sans-Serif" font-size="10.00"># AudioSource()</text>
</g>
<!-- Node1 -->
<g id="node2" class="node"><title>Node1</title>
<g id="a_node2"><a xlink:href="$classMixer_1_1CheapSawtoothGenerator.html" xlink:title="{Mixer::CheapSawtoothGenerator\&lt; T \&gt;\n||+ get()\l+ getFrequency()\l+ setFrequency()\l+ setFrequency()\l+ CheapSawtoothGenerator()\l}">
<polygon fill="none" stroke="black" points="0,-22.5 0,-123.5 183,-123.5 183,-22.5 0,-22.5"/>
<text text-anchor="middle" x="91.5" y="-111.5" font-family="Helvetica,sans-Serif" font-size="10.00">Mixer::CheapSawtoothGenerator&lt; T &gt;</text>
<polyline fill="none" stroke="black" points="0,-104.5 183,-104.5 "/>
<text text-anchor="middle" x="91.5" y="-92.5" font-family="Helvetica,sans-Serif" font-size="10.00"> </text>
<polyline fill="none" stroke="black" points="0,-85.5 183,-85.5 "/>
<text text-anchor="start" x="8" y="-73.5" font-family="Helvetica,sans-Serif" font-size="10.00">+ get()</text>
<text text-anchor="start" x="8" y="-62.5" font-family="Helvetica,sans-Serif" font-size="10.00">+ getFrequency()</text>
<text text-anchor="start" x="8" y="-51.5" font-family="Helvetica,sans-Serif" font-size="10.00">+ setFrequency()</text>
<text text-anchor="start" x="8" y="-40.5" font-family="Helvetica,sans-Serif" font-size="10.00">+ setFrequency()</text>
<text text-anchor="start" x="8" y="-29.5" font-family="Helvetica,sans-Serif" font-size="10.00">+ CheapSawtoothGenerator()</text>
</a>
</g>
</g>
<!-- Node0&#45;&gt;Node1 -->
<g id="edge1" class="edge"><title>Node0&#45;&gt;Node1</title>
<path fill="none" stroke="midnightblue" d="M826.242,-218.409C678.637,-211.528 306.978,-190.217 191.5,-146 177.116,-140.492 162.912,-132.387 149.926,-123.582"/>
<polygon fill="none" stroke="midnightblue" points="826.326,-221.917 836.476,-218.88 826.648,-214.924 826.326,-221.917"/>
</g>
<!-- Node2 -->
<g id="node3" class="node"><title>Node2</title>
<g id="a_node3"><a xlink:href="$classMixer_1_1CheapSquareGenerator.html" xlink:title="{Mixer::CheapSquareGenerator\&lt; T \&gt;\n||+ get()\l+ getFrequency()\l+ setFrequency()\l+ setFrequency()\l+ CheapSquareGenerator()\l}">
<polygon fill="none" stroke="black" points="201,-22.5 201,-123.5 374,-123.5 374,-22.5 201,-22.5"/>
<text text-anchor="middle" x="287.5" y="-111.5" font-family="Helvetica,sans-Serif" font-size="10.00">Mixer::CheapSquareGenerator&lt; T &gt;</text>
<polyline fill="none" stroke="black" points="201,-104.5 374,-104.5 "/>
<text text-anchor="middle" x="287.5" y="-92.5" font-family="Helvetica,sans-Serif" font-size="10.00"> </text>
<polyline fill="none" stroke="black" points="201,-85.5 374,-85.5 "/>
<text text-anchor="start" x="209" y="-73.5" font-family="Helvetica,sans-Serif" font-size="10.00">+ get()</text>
<text text-anchor="start" x="209" y="-62.5" font-family="Helvetica,sans-Serif" font-size="10.00">+ getFrequency()</text>
<text text-anchor="start" x="209" y="-51.5" font-family="Helvetica,sans-Serif" font-size="10.00">+ setFrequency()</text>
<text text-anchor="start" x="209" y="-40.5" font-family="Helvetica,sans-Serif" font-size="10.00">+ setFrequency()</text>
<text text-anchor="start" x="209" y="-29.5" font-family="Helvetica,sans-Serif" font-size="10.00">+ CheapSquareGenerator()</text>
</a>
</g>
</g>
<!-- Node0&#45;&gt;Node2 -->
<g id="edge2" class="edge"><title>Node0&#45;&gt;Node2</title>
<path fill="none" stroke="midnightblue" d="M826.175,-221.543C728.44,-220.327 533.03,-209.286 382.5,-146 368.955,-140.305 355.616,-132.231 343.411,-123.536"/>
<polygon fill="none" stroke="midnightblue" points="826.145,-225.043 836.178,-221.637 826.211,-218.043 826.145,-225.043"/>
</g>
<!-- Node3 -->
<g id="node4" class="node"><title>Node3</title>
<g id="a_node4"><a xlink:href="$classMixer_1_1ComplexWaveformGenerator.html" xlink:title="{Mixer::ComplexWaveformGenerator\&lt; T \&gt;\n||+ get()\l+ getComponent()\l+ setComponent()\l+ setComponent()\l+ ComplexWaveformGenerator()\l}">
<polygon fill="none" stroke="black" points="392,-22.5 392,-123.5 589,-123.5 589,-22.5 392,-22.5"/>
<text text-anchor="middle" x="490.5" y="-111.5" font-family="Helvetica,sans-Serif" font-size="10.00">Mixer::ComplexWaveformGenerator&lt; T &gt;</text>
<polyline fill="none" stroke="black" points="392,-104.5 589,-104.5 "/>
<text text-anchor="middle" x="490.5" y="-92.5" font-family="Helvetica,sans-Serif" font-size="10.00"> </text>
<polyline fill="none" stroke="black" points="392,-85.5 589,-85.5 "/>
<text text-anchor="start" x="400" y="-73.5" font-family="Helvetica,sans-Serif" font-size="10.00">+ get()</text>
<text text-anchor="start" x="400" y="-62.5" font-family="Helvetica,sans-Serif" font-size="10.00">+ getComponent()</text>
<text text-anchor="start" x="400" y="-51.5" font-family="Helvetica,sans-Serif" font-size="10.00">+ setComponent()</text>
<text text-anchor="start" x="400" y="-40.5" font-family="Helvetica,sans-Serif" font-size="10.00">+ setComponent()</text>
<text text-anchor="start" x="400" y="-29.5" font-family="Helvetica,sans-Serif" font-size="10.00">+ ComplexWaveformGenerator()</text>
</a>
</g>
</g>
<!-- Node0&#45;&gt;Node3 -->
<g id="edge3" class="edge"><title>Node0&#45;&gt;Node3</title>
<path fill="none" stroke="midnightblue" d="M826.388,-211.275C766.492,-200.343 673.523,-179.589 598.5,-146 584.617,-139.784 570.547,-131.841 557.353,-123.513"/>
<polygon fill="none" stroke="midnightblue" points="825.981,-214.758 836.441,-213.074 827.214,-207.867 825.981,-214.758"/>
</g>
<!-- Node4 -->
<g id="node5" class="node"><title>Node4</title>
<g id="a_node5"><a xlink:href="$classMixer_1_1Recorder.html" xlink:title="{Mixer::Recorder\&lt; T \&gt;\n||+ record()\l+ attach()\l+ Recorder()\l+ record()\l}">
<polygon fill="none" stroke="black" points="607.5,-28 607.5,-118 717.5,-118 717.5,-28 607.5,-28"/>
<text text-anchor="middle" x="662.5" y="-106" font-family="Helvetica,sans-Serif" font-size="10.00">Mixer::Recorder&lt; T &gt;</text>
<polyline fill="none" stroke="black" points="607.5,-99 717.5,-99 "/>
<text text-anchor="middle" x="662.5" y="-87" font-family="Helvetica,sans-Serif" font-size="10.00"> </text>
<polyline fill="none" stroke="black" points="607.5,-80 717.5,-80 "/>
<text text-anchor="start" x="615.5" y="-68" font-family="Helvetica,sans-Serif" font-size="10.00">+ record()</text>
<text text-anchor="start" x="615.5" y="-57" font-family="Helvetica,sans-Serif" font-size="10.00">+ attach()</text>
<text text-anchor="start" x="615.5" y="-46" font-family="Helvetica,sans-Serif" font-size="10.00">+ Recorder()</text>
<text text-anchor="start" x="615.5" y="-35" font-family="Helvetica,sans-Serif" font-size="10.00">+ record()</text>
</a>
</g>
</g>
<!-- Node0&#45;&gt;Node4 -->
<g id="edge4" class="edge"><title>Node0&#45;&gt;Node4</title>
<path fill="none" stroke="midnightblue" d="M826.761,-199.582C795.149,-186.79 756.87,-168.614 726.5,-146 715.903,-138.109 705.751,-128.232 696.78,-118.346"/>
<polygon fill="none" stroke="midnightblue" points="825.756,-202.949 836.342,-203.378 828.334,-196.441 825.756,-202.949"/>
</g>
<!-- Node5 -->
<g id="node6" class="node"><title>Node5</title>
<g id="a_node6"><a xlink:href="$classMixer_1_1SawtoothGenerator.html" xlink:title="{Mixer::SawtoothGenerator\&lt; T \&gt;\n||+ get()\l+ getFrequency()\l+ setFrequency()\l+ setFrequency()\l+ SawtoothGenerator()\l}">
<polygon fill="none" stroke="black" points="736,-22.5 736,-123.5 891,-123.5 891,-22.5 736,-22.5"/>
<text text-anchor="middle" x="813.5" y="-111.5" font-family="Helvetica,sans-Serif" font-size="10.00">Mixer::SawtoothGenerator&lt; T &gt;</text>
<polyline fill="none" stroke="black" points="736,-104.5 891,-104.5 "/>
<text text-anchor="middle" x="813.5" y="-92.5" font-family="Helvetica,sans-Serif" font-size="10.00"> </text>
<polyline fill="none" stroke="black" points="736,-85.5 891,-85.5 "/>
<text text-anchor="start" x="744" y="-73.5" font-family="Helvetica,sans-Serif" font-size="10.00">+ get()</text>
<text text-anchor="start" x="744" y="-62.5" font-family="Helvetica,sans-Serif" font-size="10.00">+ getFrequency()</text>
<text text-anchor="start" x="744" y="-51.5" font-family="Helvetica,sans-Serif" font-size="10.00">+ setFrequency()</text>
<text text-anchor="start" x="744" y="-40.5" font-family="Helvetica,sans-Serif" font-size="10.00">+ setFrequency()</text>
<text text-anchor="start" x="744" y="-29.5" font-family="Helvetica,sans-Serif" font-size="10.00">+ SawtoothGenerator()</text>
</a>
</g>
</g>
<!-- Node0&#45;&gt;Node5 -->
<g id="edge5" class="edge"><title>Node0&#45;&gt;Node5</title>
<path fill="none" stroke="midnightblue" d="M863.477,-173.278C855.493,-157.419 846.587,-139.726 838.529,-123.719"/>
<polygon fill="none" stroke="midnightblue" points="860.435,-175.019 868.057,-182.377 866.687,-171.872 860.435,-175.019"/>
</g>
<!-- Node6 -->
<g id="node7" class="node"><title>Node6</title>
<g id="a_node7"><a xlink:href="$classMixer_1_1SimpleNote.html" xlink:title="{Mixer::SimpleNote\&lt;\l T, A, D \&gt;\n||+ attach()\l+ setAttack()\l+ setDecay()\l+ size()\l+ bakeNote()\l+ clear()\l+ get()\l+ SimpleNote()\l}">
<polygon fill="none" stroke="black" points="909.5,-0.5 909.5,-145.5 1013.5,-145.5 1013.5,-0.5 909.5,-0.5"/>
<text text-anchor="start" x="917.5" y="-133.5" font-family="Helvetica,sans-Serif" font-size="10.00">Mixer::SimpleNote&lt;</text>
<text text-anchor="middle" x="961.5" y="-122.5" font-family="Helvetica,sans-Serif" font-size="10.00"> T, A, D &gt;</text>
<polyline fill="none" stroke="black" points="909.5,-115.5 1013.5,-115.5 "/>
<text text-anchor="middle" x="961.5" y="-103.5" font-family="Helvetica,sans-Serif" font-size="10.00"> </text>
<polyline fill="none" stroke="black" points="909.5,-96.5 1013.5,-96.5 "/>
<text text-anchor="start" x="917.5" y="-84.5" font-family="Helvetica,sans-Serif" font-size="10.00">+ attach()</text>
<text text-anchor="start" x="917.5" y="-73.5" font-family="Helvetica,sans-Serif" font-size="10.00">+ setAttack()</text>
<text text-anchor="start" x="917.5" y="-62.5" font-family="Helvetica,sans-Serif" font-size="10.00">+ setDecay()</text>
<text text-anchor="start" x="917.5" y="-51.5" font-family="Helvetica,sans-Serif" font-size="10.00">+ size()</text>
<text text-anchor="start" x="917.5" y="-40.5" font-family="Helvetica,sans-Serif" font-size="10.00">+ bakeNote()</text>
<text text-anchor="start" x="917.5" y="-29.5" font-family="Helvetica,sans-Serif" font-size="10.00">+ clear()</text>
<text text-anchor="start" x="917.5" y="-18.5" font-family="Helvetica,sans-Serif" font-size="10.00">+ get()</text>
<text text-anchor="start" x="917.5" y="-7.5" font-family="Helvetica,sans-Serif" font-size="10.00">+ SimpleNote()</text>
</a>
</g>
</g>
<!-- Node0&#45;&gt;Node6 -->
<g id="edge6" class="edge"><title>Node0&#45;&gt;Node6</title>
<path fill="none" stroke="midnightblue" d="M911.479,-173.367C915.945,-164.495 920.701,-155.047 925.437,-145.64"/>
<polygon fill="none" stroke="midnightblue" points="908.313,-171.872 906.943,-182.377 914.565,-175.019 908.313,-171.872"/>
</g>
<!-- Node7 -->
<g id="node8" class="node"><title>Node7</title>
<g id="a_node8"><a xlink:href="$classMixer_1_1SimplePlayer.html" xlink:title="{Mixer::SimplePlayer\l\&lt; T, K \&gt;\n||+ get()\l+ pause()\l+ stop()\l+ play()\l+ attach()\l+ SimplePlayer()\l}">
<polygon fill="none" stroke="black" points="1031.5,-11.5 1031.5,-134.5 1135.5,-134.5 1135.5,-11.5 1031.5,-11.5"/>
<text text-anchor="start" x="1039.5" y="-122.5" font-family="Helvetica,sans-Serif" font-size="10.00">Mixer::SimplePlayer</text>
<text text-anchor="middle" x="1083.5" y="-111.5" font-family="Helvetica,sans-Serif" font-size="10.00">&lt; T, K &gt;</text>
<polyline fill="none" stroke="black" points="1031.5,-104.5 1135.5,-104.5 "/>
<text text-anchor="middle" x="1083.5" y="-92.5" font-family="Helvetica,sans-Serif" font-size="10.00"> </text>
<polyline fill="none" stroke="black" points="1031.5,-85.5 1135.5,-85.5 "/>
<text text-anchor="start" x="1039.5" y="-73.5" font-family="Helvetica,sans-Serif" font-size="10.00">+ get()</text>
<text text-anchor="start" x="1039.5" y="-62.5" font-family="Helvetica,sans-Serif" font-size="10.00">+ pause()</text>
<text text-anchor="start" x="1039.5" y="-51.5" font-family="Helvetica,sans-Serif" font-size="10.00">+ stop()</text>
<text text-anchor="start" x="1039.5" y="-40.5" font-family="Helvetica,sans-Serif" font-size="10.00">+ play()</text>
<text text-anchor="start" x="1039.5" y="-29.5" font-family="Helvetica,sans-Serif" font-size="10.00">+ attach()</text>
<text text-anchor="start" x="1039.5" y="-18.5" font-family="Helvetica,sans-Serif" font-size="10.00">+ SimplePlayer()</text>
</a>
</g>
</g>
<!-- Node0&#45;&gt;Node7 -->
<g id="edge7" class="edge"><title>Node0&#45;&gt;Node7</title>
<path fill="none" stroke="midnightblue" d="M947.832,-193.426C972.28,-180.783 999.992,-164.482 1022.5,-146 1026.8,-142.465 1031.04,-138.599 1035.15,-134.552"/>
<polygon fill="none" stroke="midnightblue" points="945.974,-190.444 938.64,-198.089 949.141,-196.686 945.974,-190.444"/>
</g>
<!-- Node8 -->
<g id="node9" class="node"><title>Node8</title>
<g id="a_node9"><a xlink:href="$classMixer_1_1SineGenerator.html" xlink:title="{Mixer::SineGenerator\&lt; T \&gt;\n||+ get()\l+ getFrequency()\l+ setFrequency()\l+ setFrequency()\l+ SineGenerator()\l}">
<polygon fill="none" stroke="black" points="1154,-22.5 1154,-123.5 1287,-123.5 1287,-22.5 1154,-22.5"/>
<text text-anchor="middle" x="1220.5" y="-111.5" font-family="Helvetica,sans-Serif" font-size="10.00">Mixer::SineGenerator&lt; T &gt;</text>
<polyline fill="none" stroke="black" points="1154,-104.5 1287,-104.5 "/>
<text text-anchor="middle" x="1220.5" y="-92.5" font-family="Helvetica,sans-Serif" font-size="10.00"> </text>
<polyline fill="none" stroke="black" points="1154,-85.5 1287,-85.5 "/>
<text text-anchor="start" x="1162" y="-73.5" font-family="Helvetica,sans-Serif" font-size="10.00">+ get()</text>
<text text-anchor="start" x="1162" y="-62.5" font-family="Helvetica,sans-Serif" font-size="10.00">+ getFrequency()</text>
<text text-anchor="start" x="1162" y="-51.5" font-family="Helvetica,sans-Serif" font-size="10.00">+ setFrequency()</text>
<text text-anchor="start" x="1162" y="-40.5" font-family="Helvetica,sans-Serif" font-size="10.00">+ setFrequency()</text>
<text text-anchor="start" x="1162" y="-29.5" font-family="Helvetica,sans-Serif" font-size="10.00">+ SineGenerator()</text>
</a>
</g>
</g>
<!-- Node0&#45;&gt;Node8 -->
<g id="edge8" class="edge"><title>Node0&#45;&gt;Node8</title>
<path fill="none" stroke="midnightblue" d="M948.743,-211.568C1002.94,-201.314 1082.77,-181.437 1144.5,-146 1155.22,-139.846 1165.61,-131.882 1175.08,-123.503"/>
<polygon fill="none" stroke="midnightblue" points="947.798,-208.183 938.595,-213.432 949.063,-215.067 947.798,-208.183"/>
</g>
<!-- Node9 -->
<g id="node10" class="node"><title>Node9</title>
<g id="a_node10"><a xlink:href="$classMixer_1_1SquareGenerator.html" xlink:title="{Mixer::SquareGenerator\&lt; T \&gt;\n||+ get()\l+ getFrequency()\l+ setFrequency()\l+ setFrequency()\l+ SquareGenerator()\l}">
<polygon fill="none" stroke="black" points="1305.5,-22.5 1305.5,-123.5 1449.5,-123.5 1449.5,-22.5 1305.5,-22.5"/>
<text text-anchor="middle" x="1377.5" y="-111.5" font-family="Helvetica,sans-Serif" font-size="10.00">Mixer::SquareGenerator&lt; T &gt;</text>
<polyline fill="none" stroke="black" points="1305.5,-104.5 1449.5,-104.5 "/>
<text text-anchor="middle" x="1377.5" y="-92.5" font-family="Helvetica,sans-Serif" font-size="10.00"> </text>
<polyline fill="none" stroke="black" points="1305.5,-85.5 1449.5,-85.5 "/>
<text text-anchor="start" x="1313.5" y="-73.5" font-family="Helvetica,sans-Serif" font-size="10.00">+ get()</text>
<text text-anchor="start" x="1313.5" y="-62.5" font-family="Helvetica,sans-Serif" font-size="10.00">+ getFrequency()</text>
<text text-anchor="start" x="1313.5" y="-51.5" font-family="Helvetica,sans-Serif" font-size="10.00">+ setFrequency()</text>
<text text-anchor="start" x="1313.5" y="-40.5" font-family="Helvetica,sans-Serif" font-size="10.00">+ setFrequency()</text>
<text text-anchor="start" x="1313.5" y="-29.5" font-family="Helvetica,sans-Serif" font-size="10.00">+ SquareGenerator()</text>
</a>
</g>
</g>
<!-- Node0&#45;&gt;Node9 -->
<g id="edge9" class="edge"><title>Node0&#45;&gt;Node9</title>
<path fill="none" stroke="midnightblue" d="M948.692,-219.939C1031.56,-216.301 1182.22,-201.771 1296.5,-146 1308.34,-140.224 1319.76,-132.223 1330.1,-123.647"/>
<polygon fill="none" stroke="midnightblue" points="948.537,-216.443 938.685,-220.34 948.817,-223.437 948.537,-216.443"/>
</g>
<!-- Node10 -->
<g id="node11" class="node"><title>Node10</title>
<g id="a_node11"><a xlink:href="$classMixer_1_1TriangleGenerator.html" xlink:title="{Mixer::TriangleGenerator\&lt; T \&gt;\n||+ get()\l+ getFrequency()\l+ setFrequency()\l+ setFrequency()\l+ TriangleGenerator()\l+ TriangleGenerator()\l}">
<polygon fill="none" stroke="black" points="1467.5,-17 1467.5,-129 1615.5,-129 1615.5,-17 1467.5,-17"/>
<text text-anchor="middle" x="1541.5" y="-117" font-family="Helvetica,sans-Serif" font-size="10.00">Mixer::TriangleGenerator&lt; T &gt;</text>
<polyline fill="none" stroke="black" points="1467.5,-110 1615.5,-110 "/>
<text text-anchor="middle" x="1541.5" y="-98" font-family="Helvetica,sans-Serif" font-size="10.00"> </text>
<polyline fill="none" stroke="black" points="1467.5,-91 1615.5,-91 "/>
<text text-anchor="start" x="1475.5" y="-79" font-family="Helvetica,sans-Serif" font-size="10.00">+ get()</text>
<text text-anchor="start" x="1475.5" y="-68" font-family="Helvetica,sans-Serif" font-size="10.00">+ getFrequency()</text>
<text text-anchor="start" x="1475.5" y="-57" font-family="Helvetica,sans-Serif" font-size="10.00">+ setFrequency()</text>
<text text-anchor="start" x="1475.5" y="-46" font-family="Helvetica,sans-Serif" font-size="10.00">+ setFrequency()</text>
<text text-anchor="start" x="1475.5" y="-35" font-family="Helvetica,sans-Serif" font-size="10.00">+ TriangleGenerator()</text>
<text text-anchor="start" x="1475.5" y="-24" font-family="Helvetica,sans-Serif" font-size="10.00">+ TriangleGenerator()</text>
</a>
</g>
</g>
<!-- Node0&#45;&gt;Node10 -->
<g id="edge10" class="edge"><title>Node0&#45;&gt;Node10</title>
<path fill="none" stroke="midnightblue" d="M948.93,-217.402C1077.06,-209.179 1368.38,-186.522 1458.5,-146 1468.24,-141.619 1477.69,-135.709 1486.52,-129.15"/>
<polygon fill="none" stroke="midnightblue" points="948.646,-213.913 938.887,-218.039 949.089,-220.899 948.646,-213.913"/>
</g>
</g>
</svg>
