<?xml version="1.0" encoding="UTF-8" standalone="no"?>
<!DOCTYPE svg PUBLIC "-//W3C//DTD SVG 1.1//EN"
 "http://www.w3.org/Graphics/SVG/1.1/DTD/svg11.dtd">
<!-- Generated by graphviz version 2.38.0 (20140413.2041)
 -->
<!-- Title: DataFlow::iBuffer&lt; T &gt; Pages: 1 -->
<svg width="130pt" height="452pt"
 viewBox="0.00 0.00 130.00 452.00" xmlns="http://www.w3.org/2000/svg" xmlns:xlink="http://www.w3.org/1999/xlink">
<g id="graph0" class="graph" transform="scale(1 1) rotate(0) translate(4 448)">
<title>DataFlow::iBuffer&lt; T &gt;</title>
<!-- Node0 -->
<g id="node1" class="node"><title>Node0</title>
<polygon fill="#bfbfbf" stroke="black" points="2.5,-204.5 2.5,-338.5 119.5,-338.5 119.5,-204.5 2.5,-204.5"/>
<text text-anchor="middle" x="61" y="-326.5" font-family="Helvetica,sans-Serif" font-size="10.00">DataFlow::iBuffer&lt; T &gt;</text>
<polyline fill="none" stroke="black" points="2.5,-319.5 119.5,-319.5 "/>
<text text-anchor="middle" x="61" y="-307.5" font-family="Helvetica,sans-Serif" font-size="10.00"> </text>
<polyline fill="none" stroke="black" points="2.5,-300.5 119.5,-300.5 "/>
<text text-anchor="start" x="10.5" y="-288.5" font-family="Helvetica,sans-Serif" font-size="10.00">+ add()</text>
<text text-anchor="start" x="10.5" y="-277.5" font-family="Helvetica,sans-Serif" font-size="10.00">+ add()</text>
<text text-anchor="start" x="10.5" y="-266.5" font-family="Helvetica,sans-Serif" font-size="10.00">+ isEmpty()</text>
<text text-anchor="start" x="10.5" y="-255.5" font-family="Helvetica,sans-Serif" font-size="10.00">+ isFull()</text>
<text text-anchor="start" x="10.5" y="-244.5" font-family="Helvetica,sans-Serif" font-size="10.00">+ clear()</text>
<text text-anchor="start" x="10.5" y="-233.5" font-family="Helvetica,sans-Serif" font-size="10.00">+ capacity()</text>
<text text-anchor="start" x="10.5" y="-222.5" font-family="Helvetica,sans-Serif" font-size="10.00">+ size()</text>
<text text-anchor="start" x="10.5" y="-211.5" font-family="Helvetica,sans-Serif" font-size="10.00">+ ~iBuffer()</text>
</g>
<!-- Node2 -->
<g id="node3" class="node"><title>Node2</title>
<g id="a_node3"><a xlink:href="classQueueBuffer.html" target="_top" xlink:title="{QueueBuffer\&lt; T \&gt;\n||+ QueueBuffer()\l+ ~QueueBuffer()\l+ add()\l+ add()\l+ get()\l+ isEmpty()\l+ isFull()\l+ clear()\l+ capacity()\l+ exposeBuffer()\l+ size()\l}">
<polygon fill="none" stroke="black" points="13.5,-0.5 13.5,-167.5 108.5,-167.5 108.5,-0.5 13.5,-0.5"/>
<text text-anchor="middle" x="61" y="-155.5" font-family="Helvetica,sans-Serif" font-size="10.00">QueueBuffer&lt; T &gt;</text>
<polyline fill="none" stroke="black" points="13.5,-148.5 108.5,-148.5 "/>
<text text-anchor="middle" x="61" y="-136.5" font-family="Helvetica,sans-Serif" font-size="10.00"> </text>
<polyline fill="none" stroke="black" points="13.5,-129.5 108.5,-129.5 "/>
<text text-anchor="start" x="21.5" y="-117.5" font-family="Helvetica,sans-Serif" font-size="10.00">+ QueueBuffer()</text>
<text text-anchor="start" x="21.5" y="-106.5" font-family="Helvetica,sans-Serif" font-size="10.00">+ ~QueueBuffer()</text>
<text text-anchor="start" x="21.5" y="-95.5" font-family="Helvetica,sans-Serif" font-size="10.00">+ add()</text>
<text text-anchor="start" x="21.5" y="-84.5" font-family="Helvetica,sans-Serif" font-size="10.00">+ add()</text>
<text text-anchor="start" x="21.5" y="-73.5" font-family="Helvetica,sans-Serif" font-size="10.00">+ get()</text>
<text text-anchor="start" x="21.5" y="-62.5" font-family="Helvetica,sans-Serif" font-size="10.00">+ isEmpty()</text>
<text text-anchor="start" x="21.5" y="-51.5" font-family="Helvetica,sans-Serif" font-size="10.00">+ isFull()</text>
<text text-anchor="start" x="21.5" y="-40.5" font-family="Helvetica,sans-Serif" font-size="10.00">+ clear()</text>
<text text-anchor="start" x="21.5" y="-29.5" font-family="Helvetica,sans-Serif" font-size="10.00">+ capacity()</text>
<text text-anchor="start" x="21.5" y="-18.5" font-family="Helvetica,sans-Serif" font-size="10.00">+ exposeBuffer()</text>
<text text-anchor="start" x="21.5" y="-7.5" font-family="Helvetica,sans-Serif" font-size="10.00">+ size()</text>
</a>
</g>
</g>
<!-- Node0&#45;&gt;Node2 -->
<g id="edge2" class="edge"><title>Node0&#45;&gt;Node2</title>
<path fill="none" stroke="midnightblue" d="M61,-194.177C61,-185.445 61,-176.512 61,-167.702"/>
<polygon fill="none" stroke="midnightblue" points="57.5001,-194.316 61,-204.316 64.5001,-194.316 57.5001,-194.316"/>
</g>
<!-- Node1 -->
<g id="node2" class="node"><title>Node1</title>
<g id="a_node2"><a xlink:href="classDataFlow_1_1iSource.html" target="_top" xlink:title="{DataFlow::iSource\&lt; T \&gt;\n||+ get()\l+ ~iSource()\l}">
<polygon fill="none" stroke="black" points="0,-375.5 0,-443.5 122,-443.5 122,-375.5 0,-375.5"/>
<text text-anchor="middle" x="61" y="-431.5" font-family="Helvetica,sans-Serif" font-size="10.00">DataFlow::iSource&lt; T &gt;</text>
<polyline fill="none" stroke="black" points="0,-424.5 122,-424.5 "/>
<text text-anchor="middle" x="61" y="-412.5" font-family="Helvetica,sans-Serif" font-size="10.00"> </text>
<polyline fill="none" stroke="black" points="0,-405.5 122,-405.5 "/>
<text text-anchor="start" x="8" y="-393.5" font-family="Helvetica,sans-Serif" font-size="10.00">+ get()</text>
<text text-anchor="start" x="8" y="-382.5" font-family="Helvetica,sans-Serif" font-size="10.00">+ ~iSource()</text>
</a>
</g>
</g>
<!-- Node1&#45;&gt;Node0 -->
<g id="edge1" class="edge"><title>Node1&#45;&gt;Node0</title>
<path fill="none" stroke="midnightblue" d="M61,-364.956C61,-356.567 61,-347.604 61,-338.683"/>
<polygon fill="none" stroke="midnightblue" points="57.5001,-365.231 61,-375.231 64.5001,-365.231 57.5001,-365.231"/>
</g>
</g>
</svg>
