<?xml version="1.0" encoding="UTF-8" standalone="no"?>
<!DOCTYPE svg PUBLIC "-//W3C//DTD SVG 1.1//EN"
 "http://www.w3.org/Graphics/SVG/1.1/DTD/svg11.dtd">
<!-- Generated by graphviz version 2.38.0 (20140413.2041)
 -->
<!-- Title: DataFlow::iSource&lt; T &gt; Pages: 1 -->
<svg width="1667pt" height="270pt"
 viewBox="0.00 0.00 1667.00 270.00" xmlns="http://www.w3.org/2000/svg" xmlns:xlink="http://www.w3.org/1999/xlink">
<g id="graph0" class="graph" transform="scale(1 1) rotate(0) translate(4 266)">
<title>DataFlow::iSource&lt; T &gt;</title>
<!-- Node0 -->
<g id="node1" class="node"><title>Node0</title>
<polygon fill="#bfbfbf" stroke="black" points="851,-193.5 851,-261.5 973,-261.5 973,-193.5 851,-193.5"/>
<text text-anchor="middle" x="912" y="-249.5" font-family="Helvetica,sans-Serif" font-size="10.00">DataFlow::iSource&lt; T &gt;</text>
<polyline fill="none" stroke="black" points="851,-242.5 973,-242.5 "/>
<text text-anchor="middle" x="912" y="-230.5" font-family="Helvetica,sans-Serif" font-size="10.00"> </text>
<polyline fill="none" stroke="black" points="851,-223.5 973,-223.5 "/>
<text text-anchor="start" x="859" y="-211.5" font-family="Helvetica,sans-Serif" font-size="10.00">+ get()</text>
<text text-anchor="start" x="859" y="-200.5" font-family="Helvetica,sans-Serif" font-size="10.00">+ ~iSource()</text>
</g>
<!-- Node1 -->
<g id="node2" class="node"><title>Node1</title>
<g id="a_node2"><a xlink:href="classDataFlow_1_1Consolidator.html" target="_top" xlink:title="{Consolidator\&lt; T, Consolidation\l::Accumulation \&gt;\n||+ attach()\l+ detach()\l+ getMethod()\l+ get()\l}">
<polygon fill="none" stroke="black" points="0,-22.5 0,-123.5 152,-123.5 152,-22.5 0,-22.5"/>
<text text-anchor="start" x="8" y="-111.5" font-family="Helvetica,sans-Serif" font-size="10.00">Consolidator&lt; T, Consolidation</text>
<text text-anchor="middle" x="76" y="-100.5" font-family="Helvetica,sans-Serif" font-size="10.00">::Accumulation &gt;</text>
<polyline fill="none" stroke="black" points="0,-93.5 152,-93.5 "/>
<text text-anchor="middle" x="76" y="-81.5" font-family="Helvetica,sans-Serif" font-size="10.00"> </text>
<polyline fill="none" stroke="black" points="0,-74.5 152,-74.5 "/>
<text text-anchor="start" x="8" y="-62.5" font-family="Helvetica,sans-Serif" font-size="10.00">+ attach()</text>
<text text-anchor="start" x="8" y="-51.5" font-family="Helvetica,sans-Serif" font-size="10.00">+ detach()</text>
<text text-anchor="start" x="8" y="-40.5" font-family="Helvetica,sans-Serif" font-size="10.00">+ getMethod()</text>
<text text-anchor="start" x="8" y="-29.5" font-family="Helvetica,sans-Serif" font-size="10.00">+ get()</text>
</a>
</g>
</g>
<!-- Node0&#45;&gt;Node1 -->
<g id="edge1" class="edge"><title>Node0&#45;&gt;Node1</title>
<path fill="none" stroke="midnightblue" d="M840.354,-224.451C676.922,-218.881 281.421,-200.065 161,-146 148.474,-140.376 136.357,-132.333 125.387,-123.646"/>
<polygon fill="none" stroke="midnightblue" points="840.666,-227.964 850.778,-224.799 840.9,-220.967 840.666,-227.964"/>
</g>
<!-- Node2 -->
<g id="node3" class="node"><title>Node2</title>
<g id="a_node3"><a xlink:href="classDataFlow_1_1Applicator.html" target="_top" xlink:title="{DataFlow::Applicator\&lt; T \&gt;\n||+ get()\l+ getMethod()\l+ attach()\l}">
<polygon fill="none" stroke="red" points="170,-33.5 170,-112.5 302,-112.5 302,-33.5 170,-33.5"/>
<text text-anchor="middle" x="236" y="-100.5" font-family="Helvetica,sans-Serif" font-size="10.00">DataFlow::Applicator&lt; T &gt;</text>
<polyline fill="none" stroke="red" points="170,-93.5 302,-93.5 "/>
<text text-anchor="middle" x="236" y="-81.5" font-family="Helvetica,sans-Serif" font-size="10.00"> </text>
<polyline fill="none" stroke="red" points="170,-74.5 302,-74.5 "/>
<text text-anchor="start" x="178" y="-62.5" font-family="Helvetica,sans-Serif" font-size="10.00">+ get()</text>
<text text-anchor="start" x="178" y="-51.5" font-family="Helvetica,sans-Serif" font-size="10.00">+ getMethod()</text>
<text text-anchor="start" x="178" y="-40.5" font-family="Helvetica,sans-Serif" font-size="10.00">+ attach()</text>
</a>
</g>
</g>
<!-- Node0&#45;&gt;Node2 -->
<g id="edge2" class="edge"><title>Node0&#45;&gt;Node2</title>
<path fill="none" stroke="midnightblue" d="M840.817,-222.582C702.532,-214.062 403.077,-190.91 311,-146 294.777,-138.087 279.784,-125.37 267.536,-112.809"/>
<polygon fill="none" stroke="midnightblue" points="840.696,-226.081 850.89,-223.194 841.121,-219.094 840.696,-226.081"/>
</g>
<!-- Node4 -->
<g id="node4" class="node"><title>Node4</title>
<g id="a_node4"><a xlink:href="classDataFlow_1_1Consolidator.html" target="_top" xlink:title="{DataFlow::Consolidator\&lt; T \&gt;\n||+ attach()\l+ detach()\l+ getMethod()\l+ get()\l}">
<polygon fill="none" stroke="red" points="320.5,-28 320.5,-118 463.5,-118 463.5,-28 320.5,-28"/>
<text text-anchor="middle" x="392" y="-106" font-family="Helvetica,sans-Serif" font-size="10.00">DataFlow::Consolidator&lt; T &gt;</text>
<polyline fill="none" stroke="red" points="320.5,-99 463.5,-99 "/>
<text text-anchor="middle" x="392" y="-87" font-family="Helvetica,sans-Serif" font-size="10.00"> </text>
<polyline fill="none" stroke="red" points="320.5,-80 463.5,-80 "/>
<text text-anchor="start" x="328.5" y="-68" font-family="Helvetica,sans-Serif" font-size="10.00">+ attach()</text>
<text text-anchor="start" x="328.5" y="-57" font-family="Helvetica,sans-Serif" font-size="10.00">+ detach()</text>
<text text-anchor="start" x="328.5" y="-46" font-family="Helvetica,sans-Serif" font-size="10.00">+ getMethod()</text>
<text text-anchor="start" x="328.5" y="-35" font-family="Helvetica,sans-Serif" font-size="10.00">+ get()</text>
</a>
</g>
</g>
<!-- Node0&#45;&gt;Node4 -->
<g id="edge3" class="edge"><title>Node0&#45;&gt;Node4</title>
<path fill="none" stroke="midnightblue" d="M840.628,-225.263C750.383,-221.12 592.287,-205.13 472,-146 457.746,-138.993 444.138,-128.702 432.319,-118.079"/>
<polygon fill="none" stroke="midnightblue" points="840.614,-228.765 850.753,-225.691 840.91,-221.771 840.614,-228.765"/>
</g>
<!-- Node6 -->
<g id="node5" class="node"><title>Node6</title>
<g id="a_node5"><a xlink:href="classDataFlow_1_1iBuffer.html" target="_top" xlink:title="{DataFlow::iBuffer\&lt; T \&gt;\n||+ put()\l+ size()\l+ ~iBuffer()\l}">
<polygon fill="none" stroke="red" points="481.5,-33.5 481.5,-112.5 598.5,-112.5 598.5,-33.5 481.5,-33.5"/>
<text text-anchor="middle" x="540" y="-100.5" font-family="Helvetica,sans-Serif" font-size="10.00">DataFlow::iBuffer&lt; T &gt;</text>
<polyline fill="none" stroke="red" points="481.5,-93.5 598.5,-93.5 "/>
<text text-anchor="middle" x="540" y="-81.5" font-family="Helvetica,sans-Serif" font-size="10.00"> </text>
<polyline fill="none" stroke="red" points="481.5,-74.5 598.5,-74.5 "/>
<text text-anchor="start" x="489.5" y="-62.5" font-family="Helvetica,sans-Serif" font-size="10.00">+ put()</text>
<text text-anchor="start" x="489.5" y="-51.5" font-family="Helvetica,sans-Serif" font-size="10.00">+ size()</text>
<text text-anchor="start" x="489.5" y="-40.5" font-family="Helvetica,sans-Serif" font-size="10.00">+ ~iBuffer()</text>
</a>
</g>
</g>
<!-- Node0&#45;&gt;Node6 -->
<g id="edge4" class="edge"><title>Node0&#45;&gt;Node6</title>
<path fill="none" stroke="midnightblue" d="M840.693,-219.116C775.925,-209.858 679.69,-189.543 607,-146 592.645,-137.401 579.462,-124.834 568.657,-112.598"/>
<polygon fill="none" stroke="midnightblue" points="840.425,-222.612 850.809,-220.509 841.38,-215.678 840.425,-222.612"/>
</g>
<!-- Node9 -->
<g id="node6" class="node"><title>Node9</title>
<g id="a_node6"><a xlink:href="classMixer_1_1ComplexWaveformGenerator.html" target="_top" xlink:title="{Mixer::ComplexWaveformGenerator\&lt; T \&gt;\n||+ get()\l+ getComponent()\l+ setComponent()\l+ setComponent()\l+ ComplexWaveformGenerator()\l}">
<polygon fill="none" stroke="black" points="616.5,-22.5 616.5,-123.5 813.5,-123.5 813.5,-22.5 616.5,-22.5"/>
<text text-anchor="middle" x="715" y="-111.5" font-family="Helvetica,sans-Serif" font-size="10.00">Mixer::ComplexWaveformGenerator&lt; T &gt;</text>
<polyline fill="none" stroke="black" points="616.5,-104.5 813.5,-104.5 "/>
<text text-anchor="middle" x="715" y="-92.5" font-family="Helvetica,sans-Serif" font-size="10.00"> </text>
<polyline fill="none" stroke="black" points="616.5,-85.5 813.5,-85.5 "/>
<text text-anchor="start" x="624.5" y="-73.5" font-family="Helvetica,sans-Serif" font-size="10.00">+ get()</text>
<text text-anchor="start" x="624.5" y="-62.5" font-family="Helvetica,sans-Serif" font-size="10.00">+ getComponent()</text>
<text text-anchor="start" x="624.5" y="-51.5" font-family="Helvetica,sans-Serif" font-size="10.00">+ setComponent()</text>
<text text-anchor="start" x="624.5" y="-40.5" font-family="Helvetica,sans-Serif" font-size="10.00">+ setComponent()</text>
<text text-anchor="start" x="624.5" y="-29.5" font-family="Helvetica,sans-Serif" font-size="10.00">+ ComplexWaveformGenerator()</text>
</a>
</g>
</g>
<!-- Node0&#45;&gt;Node9 -->
<g id="edge5" class="edge"><title>Node0&#45;&gt;Node9</title>
<path fill="none" stroke="midnightblue" d="M861.314,-187.263C836.23,-167.846 805.685,-144.201 779.005,-123.547"/>
<polygon fill="none" stroke="midnightblue" points="859.204,-190.056 869.254,-193.41 863.489,-184.521 859.204,-190.056"/>
</g>
<!-- Node10 -->
<g id="node7" class="node"><title>Node10</title>
<g id="a_node7"><a xlink:href="classMixer_1_1iWaveformGenerator.html" target="_top" xlink:title="{Mixer::iWaveformGenerator\&lt; T \&gt;\n||+ getFrequency()\l+ setFrequency()\l+ setFrequency()\l+ ~iWaveformGenerator()\l}">
<polygon fill="none" stroke="red" points="831.5,-28 831.5,-118 992.5,-118 992.5,-28 831.5,-28"/>
<text text-anchor="middle" x="912" y="-106" font-family="Helvetica,sans-Serif" font-size="10.00">Mixer::iWaveformGenerator&lt; T &gt;</text>
<polyline fill="none" stroke="red" points="831.5,-99 992.5,-99 "/>
<text text-anchor="middle" x="912" y="-87" font-family="Helvetica,sans-Serif" font-size="10.00"> </text>
<polyline fill="none" stroke="red" points="831.5,-80 992.5,-80 "/>
<text text-anchor="start" x="839.5" y="-68" font-family="Helvetica,sans-Serif" font-size="10.00">+ getFrequency()</text>
<text text-anchor="start" x="839.5" y="-57" font-family="Helvetica,sans-Serif" font-size="10.00">+ setFrequency()</text>
<text text-anchor="start" x="839.5" y="-46" font-family="Helvetica,sans-Serif" font-size="10.00">+ setFrequency()</text>
<text text-anchor="start" x="839.5" y="-35" font-family="Helvetica,sans-Serif" font-size="10.00">+ ~iWaveformGenerator()</text>
</a>
</g>
</g>
<!-- Node0&#45;&gt;Node10 -->
<g id="edge6" class="edge"><title>Node0&#45;&gt;Node10</title>
<path fill="none" stroke="midnightblue" d="M912,-183.144C912,-162.76 912,-138.495 912,-118.026"/>
<polygon fill="none" stroke="midnightblue" points="908.5,-183.41 912,-193.41 915.5,-183.41 908.5,-183.41"/>
</g>
<!-- Node17 -->
<g id="node8" class="node"><title>Node17</title>
<g id="a_node8"><a xlink:href="classMixer_1_1Multiplexer.html" target="_top" xlink:title="{Mixer::Multiplexer\&lt; T \&gt;\n||+ get()\l+ setChannel()\l+ clearChannel()\l+ setChannelCount()\l+ getChannelCount()\l+ clear()\l+ Multiplexer()\l+ Multiplexer()\l}">
<polygon fill="none" stroke="black" points="1011,-6 1011,-140 1129,-140 1129,-6 1011,-6"/>
<text text-anchor="middle" x="1070" y="-128" font-family="Helvetica,sans-Serif" font-size="10.00">Mixer::Multiplexer&lt; T &gt;</text>
<polyline fill="none" stroke="black" points="1011,-121 1129,-121 "/>
<text text-anchor="middle" x="1070" y="-109" font-family="Helvetica,sans-Serif" font-size="10.00"> </text>
<polyline fill="none" stroke="black" points="1011,-102 1129,-102 "/>
<text text-anchor="start" x="1019" y="-90" font-family="Helvetica,sans-Serif" font-size="10.00">+ get()</text>
<text text-anchor="start" x="1019" y="-79" font-family="Helvetica,sans-Serif" font-size="10.00">+ setChannel()</text>
<text text-anchor="start" x="1019" y="-68" font-family="Helvetica,sans-Serif" font-size="10.00">+ clearChannel()</text>
<text text-anchor="start" x="1019" y="-57" font-family="Helvetica,sans-Serif" font-size="10.00">+ setChannelCount()</text>
<text text-anchor="start" x="1019" y="-46" font-family="Helvetica,sans-Serif" font-size="10.00">+ getChannelCount()</text>
<text text-anchor="start" x="1019" y="-35" font-family="Helvetica,sans-Serif" font-size="10.00">+ clear()</text>
<text text-anchor="start" x="1019" y="-24" font-family="Helvetica,sans-Serif" font-size="10.00">+ Multiplexer()</text>
<text text-anchor="start" x="1019" y="-13" font-family="Helvetica,sans-Serif" font-size="10.00">+ Multiplexer()</text>
</a>
</g>
</g>
<!-- Node0&#45;&gt;Node17 -->
<g id="edge7" class="edge"><title>Node0&#45;&gt;Node17</title>
<path fill="none" stroke="midnightblue" d="M957.481,-186.497C971.62,-173.76 987.131,-159.475 1001,-146 1004.23,-142.863 1007.51,-139.621 1010.81,-136.327"/>
<polygon fill="none" stroke="midnightblue" points="954.893,-184.116 949.786,-193.399 959.567,-189.327 954.893,-184.116"/>
</g>
<!-- Node18 -->
<g id="node9" class="node"><title>Node18</title>
<g id="a_node9"><a xlink:href="classMixer_1_1SimpleNote.html" target="_top" xlink:title="{Mixer::SimpleNote\&lt; T \&gt;\n||+ attach()\l+ setAttack()\l+ setDecay()\l+ size()\l+ bakeNote()\l+ clear()\l+ get()\l+ SimpleNote()\l}">
<polygon fill="none" stroke="black" points="1147,-6 1147,-140 1269,-140 1269,-6 1147,-6"/>
<text text-anchor="middle" x="1208" y="-128" font-family="Helvetica,sans-Serif" font-size="10.00">Mixer::SimpleNote&lt; T &gt;</text>
<polyline fill="none" stroke="black" points="1147,-121 1269,-121 "/>
<text text-anchor="middle" x="1208" y="-109" font-family="Helvetica,sans-Serif" font-size="10.00"> </text>
<polyline fill="none" stroke="black" points="1147,-102 1269,-102 "/>
<text text-anchor="start" x="1155" y="-90" font-family="Helvetica,sans-Serif" font-size="10.00">+ attach()</text>
<text text-anchor="start" x="1155" y="-79" font-family="Helvetica,sans-Serif" font-size="10.00">+ setAttack()</text>
<text text-anchor="start" x="1155" y="-68" font-family="Helvetica,sans-Serif" font-size="10.00">+ setDecay()</text>
<text text-anchor="start" x="1155" y="-57" font-family="Helvetica,sans-Serif" font-size="10.00">+ size()</text>
<text text-anchor="start" x="1155" y="-46" font-family="Helvetica,sans-Serif" font-size="10.00">+ bakeNote()</text>
<text text-anchor="start" x="1155" y="-35" font-family="Helvetica,sans-Serif" font-size="10.00">+ clear()</text>
<text text-anchor="start" x="1155" y="-24" font-family="Helvetica,sans-Serif" font-size="10.00">+ get()</text>
<text text-anchor="start" x="1155" y="-13" font-family="Helvetica,sans-Serif" font-size="10.00">+ SimpleNote()</text>
</a>
</g>
</g>
<!-- Node0&#45;&gt;Node18 -->
<g id="edge8" class="edge"><title>Node0&#45;&gt;Node18</title>
<path fill="none" stroke="midnightblue" d="M983.167,-210.148C1029.68,-197.364 1090.39,-176.571 1138,-146 1140.93,-144.116 1143.84,-142.087 1146.7,-139.947"/>
<polygon fill="none" stroke="midnightblue" points="982.217,-206.78 973.468,-212.756 984.034,-213.54 982.217,-206.78"/>
</g>
<!-- Node19 -->
<g id="node10" class="node"><title>Node19</title>
<g id="a_node10"><a xlink:href="classMixer_1_1SimplePlayer.html" target="_top" xlink:title="{Mixer::SimplePlayer\&lt; T \&gt;\n||+ get()\l+ pause()\l+ stop()\l+ play()\l+ attach()\l+ SimplePlayer()\l}">
<polygon fill="none" stroke="black" points="1287,-17 1287,-129 1415,-129 1415,-17 1287,-17"/>
<text text-anchor="middle" x="1351" y="-117" font-family="Helvetica,sans-Serif" font-size="10.00">Mixer::SimplePlayer&lt; T &gt;</text>
<polyline fill="none" stroke="black" points="1287,-110 1415,-110 "/>
<text text-anchor="middle" x="1351" y="-98" font-family="Helvetica,sans-Serif" font-size="10.00"> </text>
<polyline fill="none" stroke="black" points="1287,-91 1415,-91 "/>
<text text-anchor="start" x="1295" y="-79" font-family="Helvetica,sans-Serif" font-size="10.00">+ get()</text>
<text text-anchor="start" x="1295" y="-68" font-family="Helvetica,sans-Serif" font-size="10.00">+ pause()</text>
<text text-anchor="start" x="1295" y="-57" font-family="Helvetica,sans-Serif" font-size="10.00">+ stop()</text>
<text text-anchor="start" x="1295" y="-46" font-family="Helvetica,sans-Serif" font-size="10.00">+ play()</text>
<text text-anchor="start" x="1295" y="-35" font-family="Helvetica,sans-Serif" font-size="10.00">+ attach()</text>
<text text-anchor="start" x="1295" y="-24" font-family="Helvetica,sans-Serif" font-size="10.00">+ SimplePlayer()</text>
</a>
</g>
</g>
<!-- Node0&#45;&gt;Node19 -->
<g id="edge9" class="edge"><title>Node0&#45;&gt;Node19</title>
<path fill="none" stroke="midnightblue" d="M983.319,-222.528C1060.2,-215.666 1184.16,-196.961 1278,-146 1286.45,-141.413 1294.58,-135.557 1302.15,-129.172"/>
<polygon fill="none" stroke="midnightblue" points="982.923,-219.049 973.255,-223.383 983.515,-226.024 982.923,-219.049"/>
</g>
<!-- Node20 -->
<g id="node11" class="node"><title>Node20</title>
<g id="a_node11"><a xlink:href="classOggFileLoader.html" target="_top" xlink:title="{OggFileLoader\&lt; T \&gt;\n||+ open()\l+ init()\l+ close()\l+ clear()\l+ get()\l+ getDecoder()\l+ OggFileLoader()\l+ ~OggFileLoader()\l+ init()\l}">
<polygon fill="none" stroke="black" points="1433,-0.5 1433,-145.5 1537,-145.5 1537,-0.5 1433,-0.5"/>
<text text-anchor="middle" x="1485" y="-133.5" font-family="Helvetica,sans-Serif" font-size="10.00">OggFileLoader&lt; T &gt;</text>
<polyline fill="none" stroke="black" points="1433,-126.5 1537,-126.5 "/>
<text text-anchor="middle" x="1485" y="-114.5" font-family="Helvetica,sans-Serif" font-size="10.00"> </text>
<polyline fill="none" stroke="black" points="1433,-107.5 1537,-107.5 "/>
<text text-anchor="start" x="1441" y="-95.5" font-family="Helvetica,sans-Serif" font-size="10.00">+ open()</text>
<text text-anchor="start" x="1441" y="-84.5" font-family="Helvetica,sans-Serif" font-size="10.00">+ init()</text>
<text text-anchor="start" x="1441" y="-73.5" font-family="Helvetica,sans-Serif" font-size="10.00">+ close()</text>
<text text-anchor="start" x="1441" y="-62.5" font-family="Helvetica,sans-Serif" font-size="10.00">+ clear()</text>
<text text-anchor="start" x="1441" y="-51.5" font-family="Helvetica,sans-Serif" font-size="10.00">+ get()</text>
<text text-anchor="start" x="1441" y="-40.5" font-family="Helvetica,sans-Serif" font-size="10.00">+ getDecoder()</text>
<text text-anchor="start" x="1441" y="-29.5" font-family="Helvetica,sans-Serif" font-size="10.00">+ OggFileLoader()</text>
<text text-anchor="start" x="1441" y="-18.5" font-family="Helvetica,sans-Serif" font-size="10.00">+ ~OggFileLoader()</text>
<text text-anchor="start" x="1441" y="-7.5" font-family="Helvetica,sans-Serif" font-size="10.00">+ init()</text>
</a>
</g>
</g>
<!-- Node0&#45;&gt;Node20 -->
<g id="edge10" class="edge"><title>Node0&#45;&gt;Node20</title>
<path fill="none" stroke="midnightblue" d="M983.268,-221.432C1105.66,-211.727 1349.8,-187.694 1424,-146 1427,-144.315 1429.92,-142.421 1432.75,-140.365"/>
<polygon fill="none" stroke="midnightblue" points="982.937,-217.947 973.241,-222.216 983.483,-224.925 982.937,-217.947"/>
</g>
<!-- Node21 -->
<g id="node12" class="node"><title>Node21</title>
<g id="a_node12"><a xlink:href="classDataFlow_1_1iSource.html" target="_top" xlink:title="{DataFlow::iSource\&lt;\l float \&gt;\n||+ get()\l+ ~iSource()\l}">
<polygon fill="none" stroke="red" points="1555,-33.5 1555,-112.5 1659,-112.5 1659,-33.5 1555,-33.5"/>
<text text-anchor="start" x="1563" y="-100.5" font-family="Helvetica,sans-Serif" font-size="10.00">DataFlow::iSource&lt;</text>
<text text-anchor="middle" x="1607" y="-89.5" font-family="Helvetica,sans-Serif" font-size="10.00"> float &gt;</text>
<polyline fill="none" stroke="red" points="1555,-82.5 1659,-82.5 "/>
<text text-anchor="middle" x="1607" y="-70.5" font-family="Helvetica,sans-Serif" font-size="10.00"> </text>
<polyline fill="none" stroke="red" points="1555,-63.5 1659,-63.5 "/>
<text text-anchor="start" x="1563" y="-51.5" font-family="Helvetica,sans-Serif" font-size="10.00">+ get()</text>
<text text-anchor="start" x="1563" y="-40.5" font-family="Helvetica,sans-Serif" font-size="10.00">+ ~iSource()</text>
</a>
</g>
</g>
<!-- Node0&#45;&gt;Node21 -->
<g id="edge11" class="edge"><title>Node0&#45;&gt;Node21</title>
<path fill="none" stroke="orange" d="M983.129,-224.228C1127.91,-218.525 1451.19,-199.969 1546,-146 1560.24,-137.896 1572.66,-125.136 1582.51,-112.596"/>
<polygon fill="orange" stroke="orange" points="982.877,-220.735 973.019,-224.617 983.146,-227.73 982.877,-220.735"/>
<text text-anchor="middle" x="1519" y="-167" font-family="Helvetica,sans-Serif" font-size="10.00"> &lt; float &gt;</text>
</g>
</g>
</svg>
