<?xml version="1.0" encoding="UTF-8" standalone="no"?>
<!DOCTYPE svg PUBLIC "-//W3C//DTD SVG 1.1//EN"
 "http://www.w3.org/Graphics/SVG/1.1/DTD/svg11.dtd">
<!-- Generated by graphviz version 2.38.0 (20140413.2041)
 -->
<!-- Title: DataFlow::iSource&lt; T &gt; Pages: 1 -->
<svg width="1316pt" height="270pt"
 viewBox="0.00 0.00 1316.00 270.00" xmlns="http://www.w3.org/2000/svg" xmlns:xlink="http://www.w3.org/1999/xlink">
<g id="graph0" class="graph" transform="scale(1 1) rotate(0) translate(4 266)">
<title>DataFlow::iSource&lt; T &gt;</title>
<!-- Node0 -->
<g id="node1" class="node"><title>Node0</title>
<polygon fill="#bfbfbf" stroke="black" points="636,-193.5 636,-261.5 758,-261.5 758,-193.5 636,-193.5"/>
<text text-anchor="middle" x="697" y="-249.5" font-family="Helvetica,sans-Serif" font-size="10.00">DataFlow::iSource&lt; T &gt;</text>
<polyline fill="none" stroke="black" points="636,-242.5 758,-242.5 "/>
<text text-anchor="middle" x="697" y="-230.5" font-family="Helvetica,sans-Serif" font-size="10.00"> </text>
<polyline fill="none" stroke="black" points="636,-223.5 758,-223.5 "/>
<text text-anchor="start" x="644" y="-211.5" font-family="Helvetica,sans-Serif" font-size="10.00">+ get()</text>
<text text-anchor="start" x="644" y="-200.5" font-family="Helvetica,sans-Serif" font-size="10.00">+ ~iSource()</text>
</g>
<!-- Node1 -->
<g id="node2" class="node"><title>Node1</title>
<g id="a_node2"><a xlink:href="classDataFlow_1_1Consolidator.html" target="_top" xlink:title="{Consolidator\&lt; T, Consolidation\l::Accumulation \&gt;\n||+ attach()\l+ detach()\l+ getMethod()\l+ get()\l}">
<polygon fill="none" stroke="black" points="0,-22.5 0,-123.5 152,-123.5 152,-22.5 0,-22.5"/>
<text text-anchor="start" x="8" y="-111.5" font-family="Helvetica,sans-Serif" font-size="10.00">Consolidator&lt; T, Consolidation</text>
<text text-anchor="middle" x="76" y="-100.5" font-family="Helvetica,sans-Serif" font-size="10.00">::Accumulation &gt;</text>
<polyline fill="none" stroke="black" points="0,-93.5 152,-93.5 "/>
<text text-anchor="middle" x="76" y="-81.5" font-family="Helvetica,sans-Serif" font-size="10.00"> </text>
<polyline fill="none" stroke="black" points="0,-74.5 152,-74.5 "/>
<text text-anchor="start" x="8" y="-62.5" font-family="Helvetica,sans-Serif" font-size="10.00">+ attach()</text>
<text text-anchor="start" x="8" y="-51.5" font-family="Helvetica,sans-Serif" font-size="10.00">+ detach()</text>
<text text-anchor="start" x="8" y="-40.5" font-family="Helvetica,sans-Serif" font-size="10.00">+ getMethod()</text>
<text text-anchor="start" x="8" y="-29.5" font-family="Helvetica,sans-Serif" font-size="10.00">+ get()</text>
</a>
</g>
</g>
<!-- Node0&#45;&gt;Node1 -->
<g id="edge1" class="edge"><title>Node0&#45;&gt;Node1</title>
<path fill="none" stroke="midnightblue" d="M625.492,-220.693C499.237,-209.632 242.458,-183.274 161,-146 148.514,-140.287 136.416,-132.204 125.45,-123.506"/>
<polygon fill="none" stroke="midnightblue" points="625.559,-224.212 635.824,-221.59 626.164,-217.238 625.559,-224.212"/>
</g>
<!-- Node2 -->
<g id="node3" class="node"><title>Node2</title>
<g id="a_node3"><a xlink:href="classDataFlow_1_1Applicator.html" target="_top" xlink:title="{DataFlow::Applicator\&lt; T \&gt;\n||+ get()\l+ getMethod()\l+ attach()\l}">
<polygon fill="none" stroke="red" points="170,-33.5 170,-112.5 302,-112.5 302,-33.5 170,-33.5"/>
<text text-anchor="middle" x="236" y="-100.5" font-family="Helvetica,sans-Serif" font-size="10.00">DataFlow::Applicator&lt; T &gt;</text>
<polyline fill="none" stroke="red" points="170,-93.5 302,-93.5 "/>
<text text-anchor="middle" x="236" y="-81.5" font-family="Helvetica,sans-Serif" font-size="10.00"> </text>
<polyline fill="none" stroke="red" points="170,-74.5 302,-74.5 "/>
<text text-anchor="start" x="178" y="-62.5" font-family="Helvetica,sans-Serif" font-size="10.00">+ get()</text>
<text text-anchor="start" x="178" y="-51.5" font-family="Helvetica,sans-Serif" font-size="10.00">+ getMethod()</text>
<text text-anchor="start" x="178" y="-40.5" font-family="Helvetica,sans-Serif" font-size="10.00">+ attach()</text>
</a>
</g>
</g>
<!-- Node0&#45;&gt;Node2 -->
<g id="edge2" class="edge"><title>Node0&#45;&gt;Node2</title>
<path fill="none" stroke="midnightblue" d="M625.945,-223.398C545.355,-217.307 412.038,-199.284 311,-146 295.194,-137.665 280.397,-125.008 268.192,-112.62"/>
<polygon fill="none" stroke="midnightblue" points="625.766,-226.894 635.99,-224.115 626.265,-219.911 625.766,-226.894"/>
</g>
<!-- Node4 -->
<g id="node4" class="node"><title>Node4</title>
<g id="a_node4"><a xlink:href="classDataFlow_1_1Consolidator.html" target="_top" xlink:title="{DataFlow::Consolidator\&lt; T \&gt;\n||+ attach()\l+ detach()\l+ getMethod()\l+ get()\l}">
<polygon fill="none" stroke="red" points="320.5,-28 320.5,-118 463.5,-118 463.5,-28 320.5,-28"/>
<text text-anchor="middle" x="392" y="-106" font-family="Helvetica,sans-Serif" font-size="10.00">DataFlow::Consolidator&lt; T &gt;</text>
<polyline fill="none" stroke="red" points="320.5,-99 463.5,-99 "/>
<text text-anchor="middle" x="392" y="-87" font-family="Helvetica,sans-Serif" font-size="10.00"> </text>
<polyline fill="none" stroke="red" points="320.5,-80 463.5,-80 "/>
<text text-anchor="start" x="328.5" y="-68" font-family="Helvetica,sans-Serif" font-size="10.00">+ attach()</text>
<text text-anchor="start" x="328.5" y="-57" font-family="Helvetica,sans-Serif" font-size="10.00">+ detach()</text>
<text text-anchor="start" x="328.5" y="-46" font-family="Helvetica,sans-Serif" font-size="10.00">+ getMethod()</text>
<text text-anchor="start" x="328.5" y="-35" font-family="Helvetica,sans-Serif" font-size="10.00">+ get()</text>
</a>
</g>
</g>
<!-- Node0&#45;&gt;Node4 -->
<g id="edge3" class="edge"><title>Node0&#45;&gt;Node4</title>
<path fill="none" stroke="midnightblue" d="M626.04,-208.816C580.109,-195.553 520.121,-174.728 472,-146 459.004,-138.242 446.223,-128.185 434.822,-118.061"/>
<polygon fill="none" stroke="midnightblue" points="625.337,-212.254 635.913,-211.613 627.246,-205.52 625.337,-212.254"/>
</g>
<!-- Node6 -->
<g id="node5" class="node"><title>Node6</title>
<g id="a_node5"><a xlink:href="classDataFlow_1_1iBuffer.html" target="_top" xlink:title="{DataFlow::iBuffer\&lt; T \&gt;\n||+ add()\l+ add()\l+ isEmpty()\l+ isFull()\l+ clear()\l+ capacity()\l+ size()\l+ ~iBuffer()\l}">
<polygon fill="none" stroke="red" points="481.5,-6 481.5,-140 598.5,-140 598.5,-6 481.5,-6"/>
<text text-anchor="middle" x="540" y="-128" font-family="Helvetica,sans-Serif" font-size="10.00">DataFlow::iBuffer&lt; T &gt;</text>
<polyline fill="none" stroke="red" points="481.5,-121 598.5,-121 "/>
<text text-anchor="middle" x="540" y="-109" font-family="Helvetica,sans-Serif" font-size="10.00"> </text>
<polyline fill="none" stroke="red" points="481.5,-102 598.5,-102 "/>
<text text-anchor="start" x="489.5" y="-90" font-family="Helvetica,sans-Serif" font-size="10.00">+ add()</text>
<text text-anchor="start" x="489.5" y="-79" font-family="Helvetica,sans-Serif" font-size="10.00">+ add()</text>
<text text-anchor="start" x="489.5" y="-68" font-family="Helvetica,sans-Serif" font-size="10.00">+ isEmpty()</text>
<text text-anchor="start" x="489.5" y="-57" font-family="Helvetica,sans-Serif" font-size="10.00">+ isFull()</text>
<text text-anchor="start" x="489.5" y="-46" font-family="Helvetica,sans-Serif" font-size="10.00">+ clear()</text>
<text text-anchor="start" x="489.5" y="-35" font-family="Helvetica,sans-Serif" font-size="10.00">+ capacity()</text>
<text text-anchor="start" x="489.5" y="-24" font-family="Helvetica,sans-Serif" font-size="10.00">+ size()</text>
<text text-anchor="start" x="489.5" y="-13" font-family="Helvetica,sans-Serif" font-size="10.00">+ ~iBuffer()</text>
</a>
</g>
</g>
<!-- Node0&#45;&gt;Node6 -->
<g id="edge4" class="edge"><title>Node0&#45;&gt;Node6</title>
<path fill="none" stroke="midnightblue" d="M650.457,-186.329C636.257,-173.687 620.766,-159.498 607,-146 604.196,-143.251 601.355,-140.414 598.506,-137.528"/>
<polygon fill="none" stroke="midnightblue" points="648.386,-189.17 658.193,-193.178 653.026,-183.929 648.386,-189.17"/>
</g>
<!-- Node8 -->
<g id="node6" class="node"><title>Node8</title>
<g id="a_node6"><a xlink:href="classMixer_1_1iWaveformGenerator.html" target="_top" xlink:title="{Mixer::iWaveformGenerator\&lt; T \&gt;\n||+ getFrequency()\l+ setFrequency()\l+ setFrequency()\l+ ~iWaveformGenerator()\l}">
<polygon fill="none" stroke="red" points="616.5,-28 616.5,-118 777.5,-118 777.5,-28 616.5,-28"/>
<text text-anchor="middle" x="697" y="-106" font-family="Helvetica,sans-Serif" font-size="10.00">Mixer::iWaveformGenerator&lt; T &gt;</text>
<polyline fill="none" stroke="red" points="616.5,-99 777.5,-99 "/>
<text text-anchor="middle" x="697" y="-87" font-family="Helvetica,sans-Serif" font-size="10.00"> </text>
<polyline fill="none" stroke="red" points="616.5,-80 777.5,-80 "/>
<text text-anchor="start" x="624.5" y="-68" font-family="Helvetica,sans-Serif" font-size="10.00">+ getFrequency()</text>
<text text-anchor="start" x="624.5" y="-57" font-family="Helvetica,sans-Serif" font-size="10.00">+ setFrequency()</text>
<text text-anchor="start" x="624.5" y="-46" font-family="Helvetica,sans-Serif" font-size="10.00">+ setFrequency()</text>
<text text-anchor="start" x="624.5" y="-35" font-family="Helvetica,sans-Serif" font-size="10.00">+ ~iWaveformGenerator()</text>
</a>
</g>
</g>
<!-- Node0&#45;&gt;Node8 -->
<g id="edge5" class="edge"><title>Node0&#45;&gt;Node8</title>
<path fill="none" stroke="midnightblue" d="M697,-183.144C697,-162.76 697,-138.495 697,-118.026"/>
<polygon fill="none" stroke="midnightblue" points="693.5,-183.41 697,-193.41 700.5,-183.41 693.5,-183.41"/>
</g>
<!-- Node15 -->
<g id="node7" class="node"><title>Node15</title>
<g id="a_node7"><a xlink:href="classMixer_1_1SimpleNote.html" target="_top" xlink:title="{Mixer::SimpleNote\&lt; T \&gt;\n||+ attach()\l+ setAttack()\l+ setDecay()\l+ getLength()\l+ bakeNote()\l+ clear()\l+ get()\l+ SimpleNote()\l}">
<polygon fill="none" stroke="black" points="796,-6 796,-140 918,-140 918,-6 796,-6"/>
<text text-anchor="middle" x="857" y="-128" font-family="Helvetica,sans-Serif" font-size="10.00">Mixer::SimpleNote&lt; T &gt;</text>
<polyline fill="none" stroke="black" points="796,-121 918,-121 "/>
<text text-anchor="middle" x="857" y="-109" font-family="Helvetica,sans-Serif" font-size="10.00"> </text>
<polyline fill="none" stroke="black" points="796,-102 918,-102 "/>
<text text-anchor="start" x="804" y="-90" font-family="Helvetica,sans-Serif" font-size="10.00">+ attach()</text>
<text text-anchor="start" x="804" y="-79" font-family="Helvetica,sans-Serif" font-size="10.00">+ setAttack()</text>
<text text-anchor="start" x="804" y="-68" font-family="Helvetica,sans-Serif" font-size="10.00">+ setDecay()</text>
<text text-anchor="start" x="804" y="-57" font-family="Helvetica,sans-Serif" font-size="10.00">+ getLength()</text>
<text text-anchor="start" x="804" y="-46" font-family="Helvetica,sans-Serif" font-size="10.00">+ bakeNote()</text>
<text text-anchor="start" x="804" y="-35" font-family="Helvetica,sans-Serif" font-size="10.00">+ clear()</text>
<text text-anchor="start" x="804" y="-24" font-family="Helvetica,sans-Serif" font-size="10.00">+ get()</text>
<text text-anchor="start" x="804" y="-13" font-family="Helvetica,sans-Serif" font-size="10.00">+ SimpleNote()</text>
</a>
</g>
</g>
<!-- Node0&#45;&gt;Node15 -->
<g id="edge6" class="edge"><title>Node0&#45;&gt;Node15</title>
<path fill="none" stroke="midnightblue" d="M742.364,-186.376C756.498,-173.633 772.035,-159.375 786,-146 789.17,-142.964 792.397,-139.835 795.641,-136.659"/>
<polygon fill="none" stroke="midnightblue" points="739.775,-183.997 734.675,-193.284 744.453,-189.204 739.775,-183.997"/>
</g>
<!-- Node16 -->
<g id="node8" class="node"><title>Node16</title>
<g id="a_node8"><a xlink:href="classMixer_1_1SimplePlayer.html" target="_top" xlink:title="{Mixer::SimplePlayer\&lt; T \&gt;\n||+ get()\l+ pause()\l+ stop()\l+ play()\l+ attach()\l+ SimplePlayer()\l}">
<polygon fill="none" stroke="black" points="936,-17 936,-129 1064,-129 1064,-17 936,-17"/>
<text text-anchor="middle" x="1000" y="-117" font-family="Helvetica,sans-Serif" font-size="10.00">Mixer::SimplePlayer&lt; T &gt;</text>
<polyline fill="none" stroke="black" points="936,-110 1064,-110 "/>
<text text-anchor="middle" x="1000" y="-98" font-family="Helvetica,sans-Serif" font-size="10.00"> </text>
<polyline fill="none" stroke="black" points="936,-91 1064,-91 "/>
<text text-anchor="start" x="944" y="-79" font-family="Helvetica,sans-Serif" font-size="10.00">+ get()</text>
<text text-anchor="start" x="944" y="-68" font-family="Helvetica,sans-Serif" font-size="10.00">+ pause()</text>
<text text-anchor="start" x="944" y="-57" font-family="Helvetica,sans-Serif" font-size="10.00">+ stop()</text>
<text text-anchor="start" x="944" y="-46" font-family="Helvetica,sans-Serif" font-size="10.00">+ play()</text>
<text text-anchor="start" x="944" y="-35" font-family="Helvetica,sans-Serif" font-size="10.00">+ attach()</text>
<text text-anchor="start" x="944" y="-24" font-family="Helvetica,sans-Serif" font-size="10.00">+ SimplePlayer()</text>
</a>
</g>
</g>
<!-- Node0&#45;&gt;Node16 -->
<g id="edge7" class="edge"><title>Node0&#45;&gt;Node16</title>
<path fill="none" stroke="midnightblue" d="M768.248,-210.304C815.616,-197.497 877.902,-176.617 927,-146 934.703,-141.196 942.235,-135.449 949.357,-129.325"/>
<polygon fill="none" stroke="midnightblue" points="767.149,-206.975 758.377,-212.916 768.939,-213.742 767.149,-206.975"/>
</g>
<!-- Node17 -->
<g id="node9" class="node"><title>Node17</title>
<g id="a_node9"><a xlink:href="classOggFileLoader.html" target="_top" xlink:title="{OggFileLoader\&lt; T \&gt;\n||+ open()\l+ init()\l+ close()\l+ clear()\l+ get()\l+ getDecoder()\l+ OggFileLoader()\l+ ~OggFileLoader()\l+ init()\l}">
<polygon fill="none" stroke="black" points="1082,-0.5 1082,-145.5 1186,-145.5 1186,-0.5 1082,-0.5"/>
<text text-anchor="middle" x="1134" y="-133.5" font-family="Helvetica,sans-Serif" font-size="10.00">OggFileLoader&lt; T &gt;</text>
<polyline fill="none" stroke="black" points="1082,-126.5 1186,-126.5 "/>
<text text-anchor="middle" x="1134" y="-114.5" font-family="Helvetica,sans-Serif" font-size="10.00"> </text>
<polyline fill="none" stroke="black" points="1082,-107.5 1186,-107.5 "/>
<text text-anchor="start" x="1090" y="-95.5" font-family="Helvetica,sans-Serif" font-size="10.00">+ open()</text>
<text text-anchor="start" x="1090" y="-84.5" font-family="Helvetica,sans-Serif" font-size="10.00">+ init()</text>
<text text-anchor="start" x="1090" y="-73.5" font-family="Helvetica,sans-Serif" font-size="10.00">+ close()</text>
<text text-anchor="start" x="1090" y="-62.5" font-family="Helvetica,sans-Serif" font-size="10.00">+ clear()</text>
<text text-anchor="start" x="1090" y="-51.5" font-family="Helvetica,sans-Serif" font-size="10.00">+ get()</text>
<text text-anchor="start" x="1090" y="-40.5" font-family="Helvetica,sans-Serif" font-size="10.00">+ getDecoder()</text>
<text text-anchor="start" x="1090" y="-29.5" font-family="Helvetica,sans-Serif" font-size="10.00">+ OggFileLoader()</text>
<text text-anchor="start" x="1090" y="-18.5" font-family="Helvetica,sans-Serif" font-size="10.00">+ ~OggFileLoader()</text>
<text text-anchor="start" x="1090" y="-7.5" font-family="Helvetica,sans-Serif" font-size="10.00">+ init()</text>
</a>
</g>
</g>
<!-- Node0&#45;&gt;Node17 -->
<g id="edge8" class="edge"><title>Node0&#45;&gt;Node17</title>
<path fill="none" stroke="midnightblue" d="M768.421,-224.756C847.978,-219.878 977.892,-202.935 1073,-146 1075.95,-144.233 1078.83,-142.271 1081.63,-140.159"/>
<polygon fill="none" stroke="midnightblue" points="767.804,-221.285 758.017,-225.343 768.198,-228.274 767.804,-221.285"/>
</g>
<!-- Node18 -->
<g id="node10" class="node"><title>Node18</title>
<g id="a_node10"><a xlink:href="classDataFlow_1_1iSource.html" target="_top" xlink:title="{DataFlow::iSource\&lt;\l float \&gt;\n||+ get()\l+ ~iSource()\l}">
<polygon fill="none" stroke="red" points="1204,-33.5 1204,-112.5 1308,-112.5 1308,-33.5 1204,-33.5"/>
<text text-anchor="start" x="1212" y="-100.5" font-family="Helvetica,sans-Serif" font-size="10.00">DataFlow::iSource&lt;</text>
<text text-anchor="middle" x="1256" y="-89.5" font-family="Helvetica,sans-Serif" font-size="10.00"> float &gt;</text>
<polyline fill="none" stroke="red" points="1204,-82.5 1308,-82.5 "/>
<text text-anchor="middle" x="1256" y="-70.5" font-family="Helvetica,sans-Serif" font-size="10.00"> </text>
<polyline fill="none" stroke="red" points="1204,-63.5 1308,-63.5 "/>
<text text-anchor="start" x="1212" y="-51.5" font-family="Helvetica,sans-Serif" font-size="10.00">+ get()</text>
<text text-anchor="start" x="1212" y="-40.5" font-family="Helvetica,sans-Serif" font-size="10.00">+ ~iSource()</text>
</a>
</g>
</g>
<!-- Node0&#45;&gt;Node18 -->
<g id="edge9" class="edge"><title>Node0&#45;&gt;Node18</title>
<path fill="none" stroke="orange" d="M768.181,-221.284C887.966,-211.479 1123.75,-187.465 1195,-146 1209.02,-137.842 1221.32,-125.226 1231.13,-112.82"/>
<polygon fill="orange" stroke="orange" points="767.696,-217.811 758.01,-222.105 768.259,-224.789 767.696,-217.811"/>
<text text-anchor="middle" x="1169" y="-167" font-family="Helvetica,sans-Serif" font-size="10.00"> &lt; float &gt;</text>
</g>
</g>
</svg>
