<?xml version="1.0" encoding="UTF-8" standalone="no"?>
<!DOCTYPE svg PUBLIC "-//W3C//DTD SVG 1.1//EN"
 "http://www.w3.org/Graphics/SVG/1.1/DTD/svg11.dtd">
<!-- Generated by graphviz version 2.38.0 (20140413.2041)
 -->
<!-- Title: DataFlow::iConsolidationMethod&lt; T &gt; Pages: 1 -->
<svg width="354pt" height="226pt"
 viewBox="0.00 0.00 354.00 226.00" xmlns="http://www.w3.org/2000/svg" xmlns:xlink="http://www.w3.org/1999/xlink">
<g id="graph0" class="graph" transform="scale(1 1) rotate(0) translate(4 222)">
<title>DataFlow::iConsolidationMethod&lt; T &gt;</title>
<!-- Node0 -->
<g id="node1" class="node"><title>Node0</title>
<polygon fill="#bfbfbf" stroke="black" points="108,-116.5 108,-217.5 239,-217.5 239,-116.5 108,-116.5"/>
<text text-anchor="start" x="116" y="-205.5" font-family="Helvetica,sans-Serif" font-size="10.00">DataFlow::iConsolidation</text>
<text text-anchor="middle" x="173.5" y="-194.5" font-family="Helvetica,sans-Serif" font-size="10.00">Method&lt; T &gt;</text>
<polyline fill="none" stroke="black" points="108,-187.5 239,-187.5 "/>
<text text-anchor="middle" x="173.5" y="-175.5" font-family="Helvetica,sans-Serif" font-size="10.00"> </text>
<polyline fill="none" stroke="black" points="108,-168.5 239,-168.5 "/>
<text text-anchor="start" x="116" y="-156.5" font-family="Helvetica,sans-Serif" font-size="10.00">+ init()</text>
<text text-anchor="start" x="116" y="-145.5" font-family="Helvetica,sans-Serif" font-size="10.00">+ add()</text>
<text text-anchor="start" x="116" y="-134.5" font-family="Helvetica,sans-Serif" font-size="10.00">+ get()</text>
<text text-anchor="start" x="116" y="-123.5" font-family="Helvetica,sans-Serif" font-size="10.00">+ ~iConsolidationMethod()</text>
</g>
<!-- Node1 -->
<g id="node2" class="node"><title>Node1</title>
<g id="a_node2"><a xlink:href="classConsolidation_1_1Accumulation.html" target="_top" xlink:title="{Consolidation::Accumulation\&lt; T \&gt;\n||+ init()\l+ add()\l+ get()\l}">
<polygon fill="none" stroke="black" points="0,-0.5 0,-79.5 165,-79.5 165,-0.5 0,-0.5"/>
<text text-anchor="middle" x="82.5" y="-67.5" font-family="Helvetica,sans-Serif" font-size="10.00">Consolidation::Accumulation&lt; T &gt;</text>
<polyline fill="none" stroke="black" points="0,-60.5 165,-60.5 "/>
<text text-anchor="middle" x="82.5" y="-48.5" font-family="Helvetica,sans-Serif" font-size="10.00"> </text>
<polyline fill="none" stroke="black" points="0,-41.5 165,-41.5 "/>
<text text-anchor="start" x="8" y="-29.5" font-family="Helvetica,sans-Serif" font-size="10.00">+ init()</text>
<text text-anchor="start" x="8" y="-18.5" font-family="Helvetica,sans-Serif" font-size="10.00">+ add()</text>
<text text-anchor="start" x="8" y="-7.5" font-family="Helvetica,sans-Serif" font-size="10.00">+ get()</text>
</a>
</g>
</g>
<!-- Node0&#45;&gt;Node1 -->
<g id="edge1" class="edge"><title>Node0&#45;&gt;Node1</title>
<path fill="none" stroke="midnightblue" d="M131.218,-107.92C124.28,-98.3898 117.241,-88.7217 110.752,-79.8082"/>
<polygon fill="none" stroke="midnightblue" points="128.558,-110.213 137.273,-116.238 134.217,-106.093 128.558,-110.213"/>
</g>
<!-- Node2 -->
<g id="node3" class="node"><title>Node2</title>
<g id="a_node3"><a xlink:href="classConsolidation_1_1Multiplication.html" target="_top" xlink:title="{Consolidation::Multiplication\&lt; T \&gt;\n||+ init()\l+ add()\l+ get()\l}">
<polygon fill="none" stroke="black" points="183,-0.5 183,-79.5 346,-79.5 346,-0.5 183,-0.5"/>
<text text-anchor="middle" x="264.5" y="-67.5" font-family="Helvetica,sans-Serif" font-size="10.00">Consolidation::Multiplication&lt; T &gt;</text>
<polyline fill="none" stroke="black" points="183,-60.5 346,-60.5 "/>
<text text-anchor="middle" x="264.5" y="-48.5" font-family="Helvetica,sans-Serif" font-size="10.00"> </text>
<polyline fill="none" stroke="black" points="183,-41.5 346,-41.5 "/>
<text text-anchor="start" x="191" y="-29.5" font-family="Helvetica,sans-Serif" font-size="10.00">+ init()</text>
<text text-anchor="start" x="191" y="-18.5" font-family="Helvetica,sans-Serif" font-size="10.00">+ add()</text>
<text text-anchor="start" x="191" y="-7.5" font-family="Helvetica,sans-Serif" font-size="10.00">+ get()</text>
</a>
</g>
</g>
<!-- Node0&#45;&gt;Node2 -->
<g id="edge2" class="edge"><title>Node0&#45;&gt;Node2</title>
<path fill="none" stroke="midnightblue" d="M215.782,-107.92C222.72,-98.3898 229.759,-88.7217 236.248,-79.8082"/>
<polygon fill="none" stroke="midnightblue" points="212.783,-106.093 209.727,-116.238 218.442,-110.213 212.783,-106.093"/>
</g>
</g>
</svg>
