<?xml version="1.0" encoding="UTF-8" standalone="no"?>
<!DOCTYPE svg PUBLIC "-//W3C//DTD SVG 1.1//EN"
 "http://www.w3.org/Graphics/SVG/1.1/DTD/svg11.dtd">
<!-- Generated by graphviz version 2.38.0 (20140413.2041)
 -->
<!-- Title: iTransitioner&lt; T &gt; Pages: 1 -->
<svg width="102pt" height="259pt"
 viewBox="0.00 0.00 102.00 259.00" xmlns="http://www.w3.org/2000/svg" xmlns:xlink="http://www.w3.org/1999/xlink">
<g id="graph0" class="graph" transform="scale(1 1) rotate(0) translate(4 255)">
<title>iTransitioner&lt; T &gt;</title>
<!-- Node0 -->
<g id="node1" class="node"><title>Node0</title>
<polygon fill="#bfbfbf" stroke="black" points="0,-171.5 0,-250.5 94,-250.5 94,-171.5 0,-171.5"/>
<text text-anchor="middle" x="47" y="-238.5" font-family="Helvetica,sans-Serif" font-size="10.00">iTransitioner&lt; T &gt;</text>
<polyline fill="none" stroke="black" points="0,-231.5 94,-231.5 "/>
<text text-anchor="middle" x="47" y="-219.5" font-family="Helvetica,sans-Serif" font-size="10.00"> </text>
<polyline fill="none" stroke="black" points="0,-212.5 94,-212.5 "/>
<text text-anchor="start" x="8" y="-200.5" font-family="Helvetica,sans-Serif" font-size="10.00">+ step()</text>
<text text-anchor="start" x="8" y="-189.5" font-family="Helvetica,sans-Serif" font-size="10.00">+ init()</text>
<text text-anchor="start" x="8" y="-178.5" font-family="Helvetica,sans-Serif" font-size="10.00">+ ~iTransitioner()</text>
</g>
<!-- Node1 -->
<g id="node2" class="node"><title>Node1</title>
<g id="a_node2"><a xlink:href="classTransitioner.html" target="_top" xlink:title="{Transitioner\&lt; T \&gt;\n|&#45; variable\l&#45; functor\l&#45; startValue\l&#45; endValue\l&#45; endTime\l&#45; position\l|+ init()\l+ step()\l+ Transitioner()\l}">
<polygon fill="none" stroke="black" points="1,-0.5 1,-134.5 93,-134.5 93,-0.5 1,-0.5"/>
<text text-anchor="middle" x="47" y="-122.5" font-family="Helvetica,sans-Serif" font-size="10.00">Transitioner&lt; T &gt;</text>
<polyline fill="none" stroke="black" points="1,-115.5 93,-115.5 "/>
<text text-anchor="start" x="9" y="-103.5" font-family="Helvetica,sans-Serif" font-size="10.00">&#45; variable</text>
<text text-anchor="start" x="9" y="-92.5" font-family="Helvetica,sans-Serif" font-size="10.00">&#45; functor</text>
<text text-anchor="start" x="9" y="-81.5" font-family="Helvetica,sans-Serif" font-size="10.00">&#45; startValue</text>
<text text-anchor="start" x="9" y="-70.5" font-family="Helvetica,sans-Serif" font-size="10.00">&#45; endValue</text>
<text text-anchor="start" x="9" y="-59.5" font-family="Helvetica,sans-Serif" font-size="10.00">&#45; endTime</text>
<text text-anchor="start" x="9" y="-48.5" font-family="Helvetica,sans-Serif" font-size="10.00">&#45; position</text>
<polyline fill="none" stroke="black" points="1,-41.5 93,-41.5 "/>
<text text-anchor="start" x="9" y="-29.5" font-family="Helvetica,sans-Serif" font-size="10.00">+ init()</text>
<text text-anchor="start" x="9" y="-18.5" font-family="Helvetica,sans-Serif" font-size="10.00">+ step()</text>
<text text-anchor="start" x="9" y="-7.5" font-family="Helvetica,sans-Serif" font-size="10.00">+ Transitioner()</text>
</a>
</g>
</g>
<!-- Node0&#45;&gt;Node1 -->
<g id="edge1" class="edge"><title>Node0&#45;&gt;Node1</title>
<path fill="none" stroke="midnightblue" d="M47,-161.158C47,-152.59 47,-143.546 47,-134.602"/>
<polygon fill="none" stroke="midnightblue" points="43.5001,-161.334 47,-171.335 50.5001,-161.335 43.5001,-161.334"/>
</g>
</g>
</svg>
