<?xml version="1.0" encoding="UTF-8" standalone="no"?>
<!DOCTYPE svg PUBLIC "-//W3C//DTD SVG 1.1//EN"
 "http://www.w3.org/Graphics/SVG/1.1/DTD/svg11.dtd">
<!-- Generated by graphviz version 2.38.0 (20140413.2041)
 -->
<!-- Title: Mixer::SimplePlayer&lt; T, K &gt; Pages: 1 -->
<svg width="346pt" height="281pt"
 viewBox="0.00 0.00 345.50 281.00" xmlns="http://www.w3.org/2000/svg" xmlns:xlink="http://www.w3.org/1999/xlink">
<g id="graph0" class="graph" transform="scale(1 1) rotate(0) translate(4 277)">
<title>Mixer::SimplePlayer&lt; T, K &gt;</title>
<!-- Node0 -->
<g id="node1" class="node"><title>Node0</title>
<polygon fill="#bfbfbf" stroke="black" points="129,-0.5 129,-145.5 233,-145.5 233,-0.5 129,-0.5"/>
<text text-anchor="start" x="137" y="-133.5" font-family="Helvetica,sans-Serif" font-size="10.00">Mixer::SimplePlayer</text>
<text text-anchor="middle" x="181" y="-122.5" font-family="Helvetica,sans-Serif" font-size="10.00">&lt; T, K &gt;</text>
<polyline fill="none" stroke="black" points="129,-115.5 233,-115.5 "/>
<text text-anchor="start" x="137" y="-103.5" font-family="Helvetica,sans-Serif" font-size="10.00">&#45; backend</text>
<text text-anchor="start" x="137" y="-92.5" font-family="Helvetica,sans-Serif" font-size="10.00">&#45; source</text>
<text text-anchor="start" x="137" y="-81.5" font-family="Helvetica,sans-Serif" font-size="10.00">&#45; paused</text>
<polyline fill="none" stroke="black" points="129,-74.5 233,-74.5 "/>
<text text-anchor="start" x="137" y="-62.5" font-family="Helvetica,sans-Serif" font-size="10.00">+ get()</text>
<text text-anchor="start" x="137" y="-51.5" font-family="Helvetica,sans-Serif" font-size="10.00">+ pause()</text>
<text text-anchor="start" x="137" y="-40.5" font-family="Helvetica,sans-Serif" font-size="10.00">+ stop()</text>
<text text-anchor="start" x="137" y="-29.5" font-family="Helvetica,sans-Serif" font-size="10.00">+ play()</text>
<text text-anchor="start" x="137" y="-18.5" font-family="Helvetica,sans-Serif" font-size="10.00">+ attach()</text>
<text text-anchor="start" x="137" y="-7.5" font-family="Helvetica,sans-Serif" font-size="10.00">+ SimplePlayer()</text>
</g>
<!-- Node1 -->
<g id="node2" class="node"><title>Node1</title>
<g id="a_node2"><a xlink:href="classMixer_1_1AudioSource.html" target="_top" xlink:title="{Mixer::AudioSource\n|&#45; channels\l&#45; sampleRate\l|+ getChannels()\l+ getSampleRate()\l# AudioSource()\l}">
<polygon fill="none" stroke="black" points="0,-182.5 0,-272.5 102,-272.5 102,-182.5 0,-182.5"/>
<text text-anchor="middle" x="51" y="-260.5" font-family="Helvetica,sans-Serif" font-size="10.00">Mixer::AudioSource</text>
<polyline fill="none" stroke="black" points="0,-253.5 102,-253.5 "/>
<text text-anchor="start" x="8" y="-241.5" font-family="Helvetica,sans-Serif" font-size="10.00">&#45; channels</text>
<text text-anchor="start" x="8" y="-230.5" font-family="Helvetica,sans-Serif" font-size="10.00">&#45; sampleRate</text>
<polyline fill="none" stroke="black" points="0,-223.5 102,-223.5 "/>
<text text-anchor="start" x="8" y="-211.5" font-family="Helvetica,sans-Serif" font-size="10.00">+ getChannels()</text>
<text text-anchor="start" x="8" y="-200.5" font-family="Helvetica,sans-Serif" font-size="10.00">+ getSampleRate()</text>
<text text-anchor="start" x="8" y="-189.5" font-family="Helvetica,sans-Serif" font-size="10.00"># AudioSource()</text>
</a>
</g>
</g>
<!-- Node1&#45;&gt;Node0 -->
<g id="edge1" class="edge"><title>Node1&#45;&gt;Node0</title>
<path fill="none" stroke="midnightblue" d="M95.2337,-174.61C106.085,-161.881 117.798,-148.14 128.978,-135.025"/>
<polygon fill="none" stroke="midnightblue" points="92.4252,-172.51 88.6014,-182.391 97.7523,-177.051 92.4252,-172.51"/>
</g>
<!-- Node2 -->
<g id="node3" class="node"><title>Node2</title>
<g id="a_node3"><a xlink:href="classDataFlow_1_1iSource.html" target="_top" xlink:title="{DataFlow::iSource\&lt; T \&gt;\n||+ get()\l+ ~iSource()\l}">
<polygon fill="none" stroke="black" points="120,-193.5 120,-261.5 242,-261.5 242,-193.5 120,-193.5"/>
<text text-anchor="middle" x="181" y="-249.5" font-family="Helvetica,sans-Serif" font-size="10.00">DataFlow::iSource&lt; T &gt;</text>
<polyline fill="none" stroke="black" points="120,-242.5 242,-242.5 "/>
<text text-anchor="middle" x="181" y="-230.5" font-family="Helvetica,sans-Serif" font-size="10.00"> </text>
<polyline fill="none" stroke="black" points="120,-223.5 242,-223.5 "/>
<text text-anchor="start" x="128" y="-211.5" font-family="Helvetica,sans-Serif" font-size="10.00">+ get()</text>
<text text-anchor="start" x="128" y="-200.5" font-family="Helvetica,sans-Serif" font-size="10.00">+ ~iSource()</text>
</a>
</g>
</g>
<!-- Node2&#45;&gt;Node0 -->
<g id="edge2" class="edge"><title>Node2&#45;&gt;Node0</title>
<path fill="none" stroke="midnightblue" d="M181,-183.409C181,-171.6 181,-158.473 181,-145.528"/>
<polygon fill="none" stroke="midnightblue" points="177.5,-183.41 181,-193.41 184.5,-183.41 177.5,-183.41"/>
</g>
<!-- Node3 -->
<g id="node4" class="node"><title>Node3</title>
<g id="a_node4"><a xlink:href="classMixer_1_1iPlayer.html" target="_top" xlink:title="{Mixer::iPlayer\n||+ pause()\l+ stop()\l+ play()\l+ ~iPlayer()\l}">
<polygon fill="none" stroke="black" points="260.5,-182.5 260.5,-272.5 337.5,-272.5 337.5,-182.5 260.5,-182.5"/>
<text text-anchor="middle" x="299" y="-260.5" font-family="Helvetica,sans-Serif" font-size="10.00">Mixer::iPlayer</text>
<polyline fill="none" stroke="black" points="260.5,-253.5 337.5,-253.5 "/>
<text text-anchor="middle" x="299" y="-241.5" font-family="Helvetica,sans-Serif" font-size="10.00"> </text>
<polyline fill="none" stroke="black" points="260.5,-234.5 337.5,-234.5 "/>
<text text-anchor="start" x="268.5" y="-222.5" font-family="Helvetica,sans-Serif" font-size="10.00">+ pause()</text>
<text text-anchor="start" x="268.5" y="-211.5" font-family="Helvetica,sans-Serif" font-size="10.00">+ stop()</text>
<text text-anchor="start" x="268.5" y="-200.5" font-family="Helvetica,sans-Serif" font-size="10.00">+ play()</text>
<text text-anchor="start" x="268.5" y="-189.5" font-family="Helvetica,sans-Serif" font-size="10.00">+ ~iPlayer()</text>
</a>
</g>
</g>
<!-- Node3&#45;&gt;Node0 -->
<g id="edge3" class="edge"><title>Node3&#45;&gt;Node0</title>
<path fill="none" stroke="midnightblue" d="M258.683,-174.396C250.44,-163.742 241.653,-152.386 233.065,-141.288"/>
<polygon fill="none" stroke="midnightblue" points="255.982,-176.624 264.87,-182.391 261.518,-172.34 255.982,-176.624"/>
</g>
</g>
</svg>
