<?xml version="1.0" encoding="UTF-8" standalone="no"?>
<!DOCTYPE svg PUBLIC "-//W3C//DTD SVG 1.1//EN"
 "http://www.w3.org/Graphics/SVG/1.1/DTD/svg11.dtd">
<!-- Generated by graphviz version 2.38.0 (20140413.2041)
 -->
<!-- Title: DataFlow::Applicator&lt; T, K &gt; Pages: 1 -->
<svg width="171pt" height="387pt"
 viewBox="0.00 0.00 171.00 387.00" xmlns="http://www.w3.org/2000/svg" xmlns:xlink="http://www.w3.org/1999/xlink">
<g id="graph0" class="graph" transform="scale(1 1) rotate(0) translate(4 383)">
<title>DataFlow::Applicator&lt; T, K &gt;</title>
<!-- Node0 -->
<g id="node1" class="node"><title>Node0</title>
<polygon fill="#bfbfbf" stroke="black" points="7,-171.5 7,-272.5 115,-272.5 115,-171.5 7,-171.5"/>
<text text-anchor="start" x="15" y="-260.5" font-family="Helvetica,sans-Serif" font-size="10.00">DataFlow::Applicator</text>
<text text-anchor="middle" x="61" y="-249.5" font-family="Helvetica,sans-Serif" font-size="10.00">&lt; T, K &gt;</text>
<polyline fill="none" stroke="black" points="7,-242.5 115,-242.5 "/>
<text text-anchor="start" x="15" y="-230.5" font-family="Helvetica,sans-Serif" font-size="10.00">&#45; method</text>
<text text-anchor="start" x="15" y="-219.5" font-family="Helvetica,sans-Serif" font-size="10.00">&#45; source</text>
<polyline fill="none" stroke="black" points="7,-212.5 115,-212.5 "/>
<text text-anchor="start" x="15" y="-200.5" font-family="Helvetica,sans-Serif" font-size="10.00">+ get()</text>
<text text-anchor="start" x="15" y="-189.5" font-family="Helvetica,sans-Serif" font-size="10.00">+ getMethod()</text>
<text text-anchor="start" x="15" y="-178.5" font-family="Helvetica,sans-Serif" font-size="10.00">+ attach()</text>
</g>
<!-- Node2 -->
<g id="node3" class="node"><title>Node2</title>
<g id="a_node3"><a xlink:href="classDataFlow_1_1Applicator.html" target="_top" xlink:title="{DataFlow::Applicator\l\&lt; float, VolumeControl\l\&lt; T \&gt; \&gt;\n|&#45; method\l&#45; source\l|+ get()\l+ getMethod()\l+ attach()\l}">
<polygon fill="none" stroke="black" points="3.5,-0.5 3.5,-112.5 118.5,-112.5 118.5,-0.5 3.5,-0.5"/>
<text text-anchor="start" x="11.5" y="-100.5" font-family="Helvetica,sans-Serif" font-size="10.00">DataFlow::Applicator</text>
<text text-anchor="start" x="11.5" y="-89.5" font-family="Helvetica,sans-Serif" font-size="10.00">&lt; float, VolumeControl</text>
<text text-anchor="middle" x="61" y="-78.5" font-family="Helvetica,sans-Serif" font-size="10.00">&lt; T &gt; &gt;</text>
<polyline fill="none" stroke="black" points="3.5,-71.5 118.5,-71.5 "/>
<text text-anchor="start" x="11.5" y="-59.5" font-family="Helvetica,sans-Serif" font-size="10.00">&#45; method</text>
<text text-anchor="start" x="11.5" y="-48.5" font-family="Helvetica,sans-Serif" font-size="10.00">&#45; source</text>
<polyline fill="none" stroke="black" points="3.5,-41.5 118.5,-41.5 "/>
<text text-anchor="start" x="11.5" y="-29.5" font-family="Helvetica,sans-Serif" font-size="10.00">+ get()</text>
<text text-anchor="start" x="11.5" y="-18.5" font-family="Helvetica,sans-Serif" font-size="10.00">+ getMethod()</text>
<text text-anchor="start" x="11.5" y="-7.5" font-family="Helvetica,sans-Serif" font-size="10.00">+ attach()</text>
</a>
</g>
</g>
<!-- Node0&#45;&gt;Node2 -->
<g id="edge2" class="edge"><title>Node0&#45;&gt;Node2</title>
<path fill="none" stroke="orange" d="M61,-160.861C61,-145.051 61,-128.079 61,-112.551"/>
<polygon fill="orange" stroke="orange" points="57.5001,-161.056 61,-171.056 64.5001,-161.056 57.5001,-161.056"/>
<text text-anchor="start" x="61" y="-145" font-family="Helvetica,sans-Serif" font-size="10.00"> &lt; float, VolumeControl</text>
<text text-anchor="middle" x="112" y="-134" font-family="Helvetica,sans-Serif" font-size="10.00">&lt; T &gt; &gt;</text>
</g>
<!-- Node1 -->
<g id="node2" class="node"><title>Node1</title>
<g id="a_node2"><a xlink:href="classDataFlow_1_1iSource.html" target="_top" xlink:title="{DataFlow::iSource\&lt; T \&gt;\n||+ get()\l+ ~iSource()\l}">
<polygon fill="none" stroke="black" points="0,-310.5 0,-378.5 122,-378.5 122,-310.5 0,-310.5"/>
<text text-anchor="middle" x="61" y="-366.5" font-family="Helvetica,sans-Serif" font-size="10.00">DataFlow::iSource&lt; T &gt;</text>
<polyline fill="none" stroke="black" points="0,-359.5 122,-359.5 "/>
<text text-anchor="middle" x="61" y="-347.5" font-family="Helvetica,sans-Serif" font-size="10.00"> </text>
<polyline fill="none" stroke="black" points="0,-340.5 122,-340.5 "/>
<text text-anchor="start" x="8" y="-328.5" font-family="Helvetica,sans-Serif" font-size="10.00">+ get()</text>
<text text-anchor="start" x="8" y="-317.5" font-family="Helvetica,sans-Serif" font-size="10.00">+ ~iSource()</text>
</a>
</g>
</g>
<!-- Node1&#45;&gt;Node0 -->
<g id="edge1" class="edge"><title>Node1&#45;&gt;Node0</title>
<path fill="none" stroke="midnightblue" d="M61,-300.151C61,-291.293 61,-281.906 61,-272.842"/>
<polygon fill="none" stroke="midnightblue" points="57.5001,-300.254 61,-310.254 64.5001,-300.254 57.5001,-300.254"/>
</g>
</g>
</svg>
