<?xml version="1.0" encoding="UTF-8" standalone="no"?>
<!DOCTYPE svg PUBLIC "-//W3C//DTD SVG 1.1//EN"
 "http://www.w3.org/Graphics/SVG/1.1/DTD/svg11.dtd">
<!-- Generated by graphviz version 2.38.0 (20140413.2041)
 -->
<!-- Title: Mixer::CheapSquareGenerator&lt; T &gt; Pages: 1 -->
<svg width="290pt" height="237pt"
 viewBox="0.00 0.00 289.50 237.00" xmlns="http://www.w3.org/2000/svg" xmlns:xlink="http://www.w3.org/1999/xlink">
<g id="graph0" class="graph" transform="scale(1 1) rotate(0) translate(4 233)">
<title>Mixer::CheapSquareGenerator&lt; T &gt;</title>
<!-- Node0 -->
<g id="node1" class="node"><title>Node0</title>
<polygon fill="#bfbfbf" stroke="black" points="69,-0.5 69,-101.5 242,-101.5 242,-0.5 69,-0.5"/>
<text text-anchor="middle" x="155.5" y="-89.5" font-family="Helvetica,sans-Serif" font-size="10.00">Mixer::CheapSquareGenerator&lt; T &gt;</text>
<polyline fill="none" stroke="black" points="69,-82.5 242,-82.5 "/>
<text text-anchor="middle" x="155.5" y="-70.5" font-family="Helvetica,sans-Serif" font-size="10.00"> </text>
<polyline fill="none" stroke="black" points="69,-63.5 242,-63.5 "/>
<text text-anchor="start" x="77" y="-51.5" font-family="Helvetica,sans-Serif" font-size="10.00">+ get()</text>
<text text-anchor="start" x="77" y="-40.5" font-family="Helvetica,sans-Serif" font-size="10.00">+ getFrequency()</text>
<text text-anchor="start" x="77" y="-29.5" font-family="Helvetica,sans-Serif" font-size="10.00">+ setFrequency()</text>
<text text-anchor="start" x="77" y="-18.5" font-family="Helvetica,sans-Serif" font-size="10.00">+ setFrequency()</text>
<text text-anchor="start" x="77" y="-7.5" font-family="Helvetica,sans-Serif" font-size="10.00">+ CheapSquareGenerator()</text>
</g>
<!-- Node1 -->
<g id="node2" class="node"><title>Node1</title>
<g id="a_node2"><a xlink:href="classMixer_1_1iWaveformGenerator.html" target="_top" xlink:title="{Mixer::iWaveformGenerator\&lt; T \&gt;\n||+ getFrequency()\l+ setFrequency()\l+ setFrequency()\l+ ~iWaveformGenerator()\l}">
<polygon fill="none" stroke="red" points="0,-138.5 0,-228.5 161,-228.5 161,-138.5 0,-138.5"/>
<text text-anchor="middle" x="80.5" y="-216.5" font-family="Helvetica,sans-Serif" font-size="10.00">Mixer::iWaveformGenerator&lt; T &gt;</text>
<polyline fill="none" stroke="red" points="0,-209.5 161,-209.5 "/>
<text text-anchor="middle" x="80.5" y="-197.5" font-family="Helvetica,sans-Serif" font-size="10.00"> </text>
<polyline fill="none" stroke="red" points="0,-190.5 161,-190.5 "/>
<text text-anchor="start" x="8" y="-178.5" font-family="Helvetica,sans-Serif" font-size="10.00">+ getFrequency()</text>
<text text-anchor="start" x="8" y="-167.5" font-family="Helvetica,sans-Serif" font-size="10.00">+ setFrequency()</text>
<text text-anchor="start" x="8" y="-156.5" font-family="Helvetica,sans-Serif" font-size="10.00">+ setFrequency()</text>
<text text-anchor="start" x="8" y="-145.5" font-family="Helvetica,sans-Serif" font-size="10.00">+ ~iWaveformGenerator()</text>
</a>
</g>
</g>
<!-- Node1&#45;&gt;Node0 -->
<g id="edge1" class="edge"><title>Node1&#45;&gt;Node0</title>
<path fill="none" stroke="midnightblue" d="M110.922,-129.566C116.247,-120.301 121.769,-110.691 127.039,-101.523"/>
<polygon fill="none" stroke="midnightblue" points="107.84,-127.904 105.892,-138.319 113.909,-131.393 107.84,-127.904"/>
</g>
<!-- Node3 -->
<g id="node3" class="node"><title>Node3</title>
<g id="a_node3"><a xlink:href="classMixer_1_1AudioSource.html" target="_top" xlink:title="{Mixer::AudioSource\n||+ getChannels()\l+ getSampleRate()\l# AudioSource()\l}">
<polygon fill="none" stroke="black" points="179.5,-144 179.5,-223 281.5,-223 281.5,-144 179.5,-144"/>
<text text-anchor="middle" x="230.5" y="-211" font-family="Helvetica,sans-Serif" font-size="10.00">Mixer::AudioSource</text>
<polyline fill="none" stroke="black" points="179.5,-204 281.5,-204 "/>
<text text-anchor="middle" x="230.5" y="-192" font-family="Helvetica,sans-Serif" font-size="10.00"> </text>
<polyline fill="none" stroke="black" points="179.5,-185 281.5,-185 "/>
<text text-anchor="start" x="187.5" y="-173" font-family="Helvetica,sans-Serif" font-size="10.00">+ getChannels()</text>
<text text-anchor="start" x="187.5" y="-162" font-family="Helvetica,sans-Serif" font-size="10.00">+ getSampleRate()</text>
<text text-anchor="start" x="187.5" y="-151" font-family="Helvetica,sans-Serif" font-size="10.00"># AudioSource()</text>
</a>
</g>
</g>
<!-- Node3&#45;&gt;Node0 -->
<g id="edge2" class="edge"><title>Node3&#45;&gt;Node0</title>
<path fill="none" stroke="midnightblue" d="M203.086,-134.8C196.865,-123.976 190.245,-112.456 183.981,-101.557"/>
<polygon fill="none" stroke="midnightblue" points="200.183,-136.773 208.201,-143.699 206.252,-133.285 200.183,-136.773"/>
</g>
</g>
</svg>
