<?xml version="1.0" encoding="UTF-8" standalone="no"?>
<!DOCTYPE svg PUBLIC "-//W3C//DTD SVG 1.1//EN"
 "http://www.w3.org/Graphics/SVG/1.1/DTD/svg11.dtd">
<!-- Generated by graphviz version 2.38.0 (20140413.2041)
 -->
<!-- Title: Mixer::AudioSource Pages: 1 -->
<svg width="1495pt" height="270pt"
 viewBox="0.00 0.00 1494.50 270.00" xmlns="http://www.w3.org/2000/svg" xmlns:xlink="http://www.w3.org/1999/xlink">
<g id="graph0" class="graph" transform="scale(1 1) rotate(0) translate(4 266)">
<title>Mixer::AudioSource</title>
<!-- Node0 -->
<g id="node1" class="node"><title>Node0</title>
<polygon fill="#bfbfbf" stroke="black" points="781.5,-182.5 781.5,-261.5 883.5,-261.5 883.5,-182.5 781.5,-182.5"/>
<text text-anchor="middle" x="832.5" y="-249.5" font-family="Helvetica,sans-Serif" font-size="10.00">Mixer::AudioSource</text>
<polyline fill="none" stroke="black" points="781.5,-242.5 883.5,-242.5 "/>
<text text-anchor="middle" x="832.5" y="-230.5" font-family="Helvetica,sans-Serif" font-size="10.00"> </text>
<polyline fill="none" stroke="black" points="781.5,-223.5 883.5,-223.5 "/>
<text text-anchor="start" x="789.5" y="-211.5" font-family="Helvetica,sans-Serif" font-size="10.00">+ getChannels()</text>
<text text-anchor="start" x="789.5" y="-200.5" font-family="Helvetica,sans-Serif" font-size="10.00">+ getSampleRate()</text>
<text text-anchor="start" x="789.5" y="-189.5" font-family="Helvetica,sans-Serif" font-size="10.00"># AudioSource()</text>
</g>
<!-- Node1 -->
<g id="node2" class="node"><title>Node1</title>
<g id="a_node2"><a xlink:href="classMixer_1_1CheapSawtoothGenerator.html" target="_top" xlink:title="{Mixer::CheapSawtoothGenerator\&lt; T \&gt;\n||+ get()\l+ getFrequency()\l+ setFrequency()\l+ setFrequency()\l+ CheapSawtoothGenerator()\l}">
<polygon fill="none" stroke="black" points="0,-22.5 0,-123.5 183,-123.5 183,-22.5 0,-22.5"/>
<text text-anchor="middle" x="91.5" y="-111.5" font-family="Helvetica,sans-Serif" font-size="10.00">Mixer::CheapSawtoothGenerator&lt; T &gt;</text>
<polyline fill="none" stroke="black" points="0,-104.5 183,-104.5 "/>
<text text-anchor="middle" x="91.5" y="-92.5" font-family="Helvetica,sans-Serif" font-size="10.00"> </text>
<polyline fill="none" stroke="black" points="0,-85.5 183,-85.5 "/>
<text text-anchor="start" x="8" y="-73.5" font-family="Helvetica,sans-Serif" font-size="10.00">+ get()</text>
<text text-anchor="start" x="8" y="-62.5" font-family="Helvetica,sans-Serif" font-size="10.00">+ getFrequency()</text>
<text text-anchor="start" x="8" y="-51.5" font-family="Helvetica,sans-Serif" font-size="10.00">+ setFrequency()</text>
<text text-anchor="start" x="8" y="-40.5" font-family="Helvetica,sans-Serif" font-size="10.00">+ setFrequency()</text>
<text text-anchor="start" x="8" y="-29.5" font-family="Helvetica,sans-Serif" font-size="10.00">+ CheapSawtoothGenerator()</text>
</a>
</g>
</g>
<!-- Node0&#45;&gt;Node1 -->
<g id="edge1" class="edge"><title>Node0&#45;&gt;Node1</title>
<path fill="none" stroke="midnightblue" d="M771.433,-217.77C632.48,-209.792 296.586,-186.789 191.5,-146 177.241,-140.465 163.146,-132.406 150.236,-123.663"/>
<polygon fill="none" stroke="midnightblue" points="771.306,-221.268 781.488,-218.34 771.703,-214.279 771.306,-221.268"/>
</g>
<!-- Node2 -->
<g id="node3" class="node"><title>Node2</title>
<g id="a_node3"><a xlink:href="classMixer_1_1CheapSquareGenerator.html" target="_top" xlink:title="{Mixer::CheapSquareGenerator\&lt; T \&gt;\n||+ get()\l+ getFrequency()\l+ setFrequency()\l+ setFrequency()\l+ CheapSquareGenerator()\l}">
<polygon fill="none" stroke="black" points="201,-22.5 201,-123.5 374,-123.5 374,-22.5 201,-22.5"/>
<text text-anchor="middle" x="287.5" y="-111.5" font-family="Helvetica,sans-Serif" font-size="10.00">Mixer::CheapSquareGenerator&lt; T &gt;</text>
<polyline fill="none" stroke="black" points="201,-104.5 374,-104.5 "/>
<text text-anchor="middle" x="287.5" y="-92.5" font-family="Helvetica,sans-Serif" font-size="10.00"> </text>
<polyline fill="none" stroke="black" points="201,-85.5 374,-85.5 "/>
<text text-anchor="start" x="209" y="-73.5" font-family="Helvetica,sans-Serif" font-size="10.00">+ get()</text>
<text text-anchor="start" x="209" y="-62.5" font-family="Helvetica,sans-Serif" font-size="10.00">+ getFrequency()</text>
<text text-anchor="start" x="209" y="-51.5" font-family="Helvetica,sans-Serif" font-size="10.00">+ setFrequency()</text>
<text text-anchor="start" x="209" y="-40.5" font-family="Helvetica,sans-Serif" font-size="10.00">+ setFrequency()</text>
<text text-anchor="start" x="209" y="-29.5" font-family="Helvetica,sans-Serif" font-size="10.00">+ CheapSquareGenerator()</text>
</a>
</g>
</g>
<!-- Node0&#45;&gt;Node2 -->
<g id="edge2" class="edge"><title>Node0&#45;&gt;Node2</title>
<path fill="none" stroke="midnightblue" d="M771.146,-219.99C682.03,-216.518 513.164,-202.301 382.5,-146 369.101,-140.227 355.877,-132.173 343.748,-123.532"/>
<polygon fill="none" stroke="midnightblue" points="771.23,-223.495 781.349,-220.354 771.48,-216.499 771.23,-223.495"/>
</g>
<!-- Node3 -->
<g id="node4" class="node"><title>Node3</title>
<g id="a_node4"><a xlink:href="classMixer_1_1ComplexWaveformGenerator.html" target="_top" xlink:title="{Mixer::ComplexWaveformGenerator\&lt; T \&gt;\n||+ get()\l+ getComponent()\l+ setComponent()\l+ setComponent()\l+ ComplexWaveformGenerator()\l}">
<polygon fill="none" stroke="black" points="392,-22.5 392,-123.5 589,-123.5 589,-22.5 392,-22.5"/>
<text text-anchor="middle" x="490.5" y="-111.5" font-family="Helvetica,sans-Serif" font-size="10.00">Mixer::ComplexWaveformGenerator&lt; T &gt;</text>
<polyline fill="none" stroke="black" points="392,-104.5 589,-104.5 "/>
<text text-anchor="middle" x="490.5" y="-92.5" font-family="Helvetica,sans-Serif" font-size="10.00"> </text>
<polyline fill="none" stroke="black" points="392,-85.5 589,-85.5 "/>
<text text-anchor="start" x="400" y="-73.5" font-family="Helvetica,sans-Serif" font-size="10.00">+ get()</text>
<text text-anchor="start" x="400" y="-62.5" font-family="Helvetica,sans-Serif" font-size="10.00">+ getComponent()</text>
<text text-anchor="start" x="400" y="-51.5" font-family="Helvetica,sans-Serif" font-size="10.00">+ setComponent()</text>
<text text-anchor="start" x="400" y="-40.5" font-family="Helvetica,sans-Serif" font-size="10.00">+ setComponent()</text>
<text text-anchor="start" x="400" y="-29.5" font-family="Helvetica,sans-Serif" font-size="10.00">+ ComplexWaveformGenerator()</text>
</a>
</g>
</g>
<!-- Node0&#45;&gt;Node3 -->
<g id="edge3" class="edge"><title>Node0&#45;&gt;Node3</title>
<path fill="none" stroke="midnightblue" d="M771.673,-206.669C723.132,-194.044 654.124,-173.396 597.5,-146 584.298,-139.613 570.847,-131.781 558.139,-123.661"/>
<polygon fill="none" stroke="midnightblue" points="770.847,-210.071 781.403,-209.164 772.586,-203.29 770.847,-210.071"/>
</g>
<!-- Node4 -->
<g id="node5" class="node"><title>Node4</title>
<g id="a_node5"><a xlink:href="classMixer_1_1SawtoothGenerator.html" target="_top" xlink:title="{Mixer::SawtoothGenerator\&lt; T \&gt;\n||+ get()\l+ getFrequency()\l+ setFrequency()\l+ setFrequency()\l+ SawtoothGenerator()\l}">
<polygon fill="none" stroke="black" points="607,-22.5 607,-123.5 762,-123.5 762,-22.5 607,-22.5"/>
<text text-anchor="middle" x="684.5" y="-111.5" font-family="Helvetica,sans-Serif" font-size="10.00">Mixer::SawtoothGenerator&lt; T &gt;</text>
<polyline fill="none" stroke="black" points="607,-104.5 762,-104.5 "/>
<text text-anchor="middle" x="684.5" y="-92.5" font-family="Helvetica,sans-Serif" font-size="10.00"> </text>
<polyline fill="none" stroke="black" points="607,-85.5 762,-85.5 "/>
<text text-anchor="start" x="615" y="-73.5" font-family="Helvetica,sans-Serif" font-size="10.00">+ get()</text>
<text text-anchor="start" x="615" y="-62.5" font-family="Helvetica,sans-Serif" font-size="10.00">+ getFrequency()</text>
<text text-anchor="start" x="615" y="-51.5" font-family="Helvetica,sans-Serif" font-size="10.00">+ setFrequency()</text>
<text text-anchor="start" x="615" y="-40.5" font-family="Helvetica,sans-Serif" font-size="10.00">+ setFrequency()</text>
<text text-anchor="start" x="615" y="-29.5" font-family="Helvetica,sans-Serif" font-size="10.00">+ SawtoothGenerator()</text>
</a>
</g>
</g>
<!-- Node0&#45;&gt;Node4 -->
<g id="edge4" class="edge"><title>Node0&#45;&gt;Node4</title>
<path fill="none" stroke="midnightblue" d="M786.236,-175.049C769.82,-158.744 751.275,-140.324 734.558,-123.719"/>
<polygon fill="none" stroke="midnightblue" points="784.053,-177.814 793.615,-182.377 788.986,-172.847 784.053,-177.814"/>
</g>
<!-- Node5 -->
<g id="node6" class="node"><title>Node5</title>
<g id="a_node6"><a xlink:href="classMixer_1_1SimpleNote.html" target="_top" xlink:title="{Mixer::SimpleNote\&lt;\l T, A, D \&gt;\n||+ attach()\l+ setAttack()\l+ setDecay()\l+ getLength()\l+ bakeNote()\l+ clear()\l+ get()\l+ SimpleNote()\l}">
<polygon fill="none" stroke="black" points="780.5,-0.5 780.5,-145.5 884.5,-145.5 884.5,-0.5 780.5,-0.5"/>
<text text-anchor="start" x="788.5" y="-133.5" font-family="Helvetica,sans-Serif" font-size="10.00">Mixer::SimpleNote&lt;</text>
<text text-anchor="middle" x="832.5" y="-122.5" font-family="Helvetica,sans-Serif" font-size="10.00"> T, A, D &gt;</text>
<polyline fill="none" stroke="black" points="780.5,-115.5 884.5,-115.5 "/>
<text text-anchor="middle" x="832.5" y="-103.5" font-family="Helvetica,sans-Serif" font-size="10.00"> </text>
<polyline fill="none" stroke="black" points="780.5,-96.5 884.5,-96.5 "/>
<text text-anchor="start" x="788.5" y="-84.5" font-family="Helvetica,sans-Serif" font-size="10.00">+ attach()</text>
<text text-anchor="start" x="788.5" y="-73.5" font-family="Helvetica,sans-Serif" font-size="10.00">+ setAttack()</text>
<text text-anchor="start" x="788.5" y="-62.5" font-family="Helvetica,sans-Serif" font-size="10.00">+ setDecay()</text>
<text text-anchor="start" x="788.5" y="-51.5" font-family="Helvetica,sans-Serif" font-size="10.00">+ getLength()</text>
<text text-anchor="start" x="788.5" y="-40.5" font-family="Helvetica,sans-Serif" font-size="10.00">+ bakeNote()</text>
<text text-anchor="start" x="788.5" y="-29.5" font-family="Helvetica,sans-Serif" font-size="10.00">+ clear()</text>
<text text-anchor="start" x="788.5" y="-18.5" font-family="Helvetica,sans-Serif" font-size="10.00">+ get()</text>
<text text-anchor="start" x="788.5" y="-7.5" font-family="Helvetica,sans-Serif" font-size="10.00">+ SimpleNote()</text>
</a>
</g>
</g>
<!-- Node0&#45;&gt;Node5 -->
<g id="edge5" class="edge"><title>Node0&#45;&gt;Node5</title>
<path fill="none" stroke="midnightblue" d="M832.5,-172.243C832.5,-163.699 832.5,-154.651 832.5,-145.64"/>
<polygon fill="none" stroke="midnightblue" points="829,-172.377 832.5,-182.377 836,-172.378 829,-172.377"/>
</g>
<!-- Node6 -->
<g id="node7" class="node"><title>Node6</title>
<g id="a_node7"><a xlink:href="classMixer_1_1SimplePlayer.html" target="_top" xlink:title="{Mixer::SimplePlayer\l\&lt; T, K \&gt;\n||+ get()\l+ pause()\l+ stop()\l+ play()\l+ attach()\l+ SimplePlayer()\l}">
<polygon fill="none" stroke="black" points="902.5,-11.5 902.5,-134.5 1006.5,-134.5 1006.5,-11.5 902.5,-11.5"/>
<text text-anchor="start" x="910.5" y="-122.5" font-family="Helvetica,sans-Serif" font-size="10.00">Mixer::SimplePlayer</text>
<text text-anchor="middle" x="954.5" y="-111.5" font-family="Helvetica,sans-Serif" font-size="10.00">&lt; T, K &gt;</text>
<polyline fill="none" stroke="black" points="902.5,-104.5 1006.5,-104.5 "/>
<text text-anchor="middle" x="954.5" y="-92.5" font-family="Helvetica,sans-Serif" font-size="10.00"> </text>
<polyline fill="none" stroke="black" points="902.5,-85.5 1006.5,-85.5 "/>
<text text-anchor="start" x="910.5" y="-73.5" font-family="Helvetica,sans-Serif" font-size="10.00">+ get()</text>
<text text-anchor="start" x="910.5" y="-62.5" font-family="Helvetica,sans-Serif" font-size="10.00">+ pause()</text>
<text text-anchor="start" x="910.5" y="-51.5" font-family="Helvetica,sans-Serif" font-size="10.00">+ stop()</text>
<text text-anchor="start" x="910.5" y="-40.5" font-family="Helvetica,sans-Serif" font-size="10.00">+ play()</text>
<text text-anchor="start" x="910.5" y="-29.5" font-family="Helvetica,sans-Serif" font-size="10.00">+ attach()</text>
<text text-anchor="start" x="910.5" y="-18.5" font-family="Helvetica,sans-Serif" font-size="10.00">+ SimplePlayer()</text>
</a>
</g>
</g>
<!-- Node0&#45;&gt;Node6 -->
<g id="edge6" class="edge"><title>Node0&#45;&gt;Node6</title>
<path fill="none" stroke="midnightblue" d="M870.978,-174.637C881.535,-161.917 893.138,-147.936 904.251,-134.546"/>
<polygon fill="none" stroke="midnightblue" points="868.247,-172.447 864.554,-182.377 873.634,-176.918 868.247,-172.447"/>
</g>
<!-- Node7 -->
<g id="node8" class="node"><title>Node7</title>
<g id="a_node8"><a xlink:href="classMixer_1_1SineGenerator.html" target="_top" xlink:title="{Mixer::SineGenerator\&lt; T \&gt;\n||+ get()\l+ getFrequency()\l+ setFrequency()\l+ setFrequency()\l+ SineGenerator()\l}">
<polygon fill="none" stroke="black" points="1025,-22.5 1025,-123.5 1158,-123.5 1158,-22.5 1025,-22.5"/>
<text text-anchor="middle" x="1091.5" y="-111.5" font-family="Helvetica,sans-Serif" font-size="10.00">Mixer::SineGenerator&lt; T &gt;</text>
<polyline fill="none" stroke="black" points="1025,-104.5 1158,-104.5 "/>
<text text-anchor="middle" x="1091.5" y="-92.5" font-family="Helvetica,sans-Serif" font-size="10.00"> </text>
<polyline fill="none" stroke="black" points="1025,-85.5 1158,-85.5 "/>
<text text-anchor="start" x="1033" y="-73.5" font-family="Helvetica,sans-Serif" font-size="10.00">+ get()</text>
<text text-anchor="start" x="1033" y="-62.5" font-family="Helvetica,sans-Serif" font-size="10.00">+ getFrequency()</text>
<text text-anchor="start" x="1033" y="-51.5" font-family="Helvetica,sans-Serif" font-size="10.00">+ setFrequency()</text>
<text text-anchor="start" x="1033" y="-40.5" font-family="Helvetica,sans-Serif" font-size="10.00">+ setFrequency()</text>
<text text-anchor="start" x="1033" y="-29.5" font-family="Helvetica,sans-Serif" font-size="10.00">+ SineGenerator()</text>
</a>
</g>
</g>
<!-- Node0&#45;&gt;Node7 -->
<g id="edge7" class="edge"><title>Node0&#45;&gt;Node7</title>
<path fill="none" stroke="midnightblue" d="M893.534,-202.357C930.493,-189.557 977.643,-170.461 1015.5,-146 1025.42,-139.588 1035.21,-131.791 1044.28,-123.725"/>
<polygon fill="none" stroke="midnightblue" points="892.226,-199.105 883.884,-205.637 894.479,-205.733 892.226,-199.105"/>
</g>
<!-- Node8 -->
<g id="node9" class="node"><title>Node8</title>
<g id="a_node9"><a xlink:href="classMixer_1_1SquareGenerator.html" target="_top" xlink:title="{Mixer::SquareGenerator\&lt; T \&gt;\n||+ get()\l+ getFrequency()\l+ setFrequency()\l+ setFrequency()\l+ SquareGenerator()\l}">
<polygon fill="none" stroke="black" points="1176.5,-22.5 1176.5,-123.5 1320.5,-123.5 1320.5,-22.5 1176.5,-22.5"/>
<text text-anchor="middle" x="1248.5" y="-111.5" font-family="Helvetica,sans-Serif" font-size="10.00">Mixer::SquareGenerator&lt; T &gt;</text>
<polyline fill="none" stroke="black" points="1176.5,-104.5 1320.5,-104.5 "/>
<text text-anchor="middle" x="1248.5" y="-92.5" font-family="Helvetica,sans-Serif" font-size="10.00"> </text>
<polyline fill="none" stroke="black" points="1176.5,-85.5 1320.5,-85.5 "/>
<text text-anchor="start" x="1184.5" y="-73.5" font-family="Helvetica,sans-Serif" font-size="10.00">+ get()</text>
<text text-anchor="start" x="1184.5" y="-62.5" font-family="Helvetica,sans-Serif" font-size="10.00">+ getFrequency()</text>
<text text-anchor="start" x="1184.5" y="-51.5" font-family="Helvetica,sans-Serif" font-size="10.00">+ setFrequency()</text>
<text text-anchor="start" x="1184.5" y="-40.5" font-family="Helvetica,sans-Serif" font-size="10.00">+ setFrequency()</text>
<text text-anchor="start" x="1184.5" y="-29.5" font-family="Helvetica,sans-Serif" font-size="10.00">+ SquareGenerator()</text>
</a>
</g>
</g>
<!-- Node0&#45;&gt;Node8 -->
<g id="edge8" class="edge"><title>Node0&#45;&gt;Node8</title>
<path fill="none" stroke="midnightblue" d="M894.081,-216.524C963.772,-209.404 1079.08,-191.298 1167.5,-146 1179.05,-140.081 1190.26,-132.122 1200.48,-123.652"/>
<polygon fill="none" stroke="midnightblue" points="893.331,-213.081 883.719,-217.536 894.012,-220.048 893.331,-213.081"/>
</g>
<!-- Node9 -->
<g id="node10" class="node"><title>Node9</title>
<g id="a_node10"><a xlink:href="classMixer_1_1TriangleGenerator.html" target="_top" xlink:title="{Mixer::TriangleGenerator\&lt; T \&gt;\n||+ get()\l+ getFrequency()\l+ setFrequency()\l+ setFrequency()\l+ TriangleGenerator()\l}">
<polygon fill="none" stroke="black" points="1338.5,-22.5 1338.5,-123.5 1486.5,-123.5 1486.5,-22.5 1338.5,-22.5"/>
<text text-anchor="middle" x="1412.5" y="-111.5" font-family="Helvetica,sans-Serif" font-size="10.00">Mixer::TriangleGenerator&lt; T &gt;</text>
<polyline fill="none" stroke="black" points="1338.5,-104.5 1486.5,-104.5 "/>
<text text-anchor="middle" x="1412.5" y="-92.5" font-family="Helvetica,sans-Serif" font-size="10.00"> </text>
<polyline fill="none" stroke="black" points="1338.5,-85.5 1486.5,-85.5 "/>
<text text-anchor="start" x="1346.5" y="-73.5" font-family="Helvetica,sans-Serif" font-size="10.00">+ get()</text>
<text text-anchor="start" x="1346.5" y="-62.5" font-family="Helvetica,sans-Serif" font-size="10.00">+ getFrequency()</text>
<text text-anchor="start" x="1346.5" y="-51.5" font-family="Helvetica,sans-Serif" font-size="10.00">+ setFrequency()</text>
<text text-anchor="start" x="1346.5" y="-40.5" font-family="Helvetica,sans-Serif" font-size="10.00">+ setFrequency()</text>
<text text-anchor="start" x="1346.5" y="-29.5" font-family="Helvetica,sans-Serif" font-size="10.00">+ TriangleGenerator()</text>
</a>
</g>
</g>
<!-- Node0&#45;&gt;Node9 -->
<g id="edge9" class="edge"><title>Node0&#45;&gt;Node9</title>
<path fill="none" stroke="midnightblue" d="M893.787,-216.043C1008.95,-206.031 1252.97,-181.3 1329.5,-146 1341.8,-140.327 1353.66,-132.263 1364.38,-123.57"/>
<polygon fill="none" stroke="midnightblue" points="893.382,-212.565 883.719,-216.91 893.983,-219.539 893.382,-212.565"/>
</g>
</g>
</svg>
