<?xml version="1.0" encoding="UTF-8" standalone="no"?>
<!DOCTYPE svg PUBLIC "-//W3C//DTD SVG 1.1//EN"
 "http://www.w3.org/Graphics/SVG/1.1/DTD/svg11.dtd">
<!-- Generated by graphviz version 2.38.0 (20140413.2041)
 -->
<!-- Title: Mixer::iWaveformGenerator&lt; T &gt; Pages: 1 -->
<svg width="1035pt" height="353pt"
 viewBox="0.00 0.00 1034.50 353.00" xmlns="http://www.w3.org/2000/svg" xmlns:xlink="http://www.w3.org/1999/xlink">
<g id="graph0" class="graph" transform="scale(1 1) rotate(0) translate(4 349)">
<title>Mixer::iWaveformGenerator&lt; T &gt;</title>
<!-- Node0 -->
<g id="node1" class="node"><title>Node0</title>
<polygon fill="#bfbfbf" stroke="black" points="470,-149.5 470,-239.5 631,-239.5 631,-149.5 470,-149.5"/>
<text text-anchor="middle" x="550.5" y="-227.5" font-family="Helvetica,sans-Serif" font-size="10.00">Mixer::iWaveformGenerator&lt; T &gt;</text>
<polyline fill="none" stroke="black" points="470,-220.5 631,-220.5 "/>
<text text-anchor="middle" x="550.5" y="-208.5" font-family="Helvetica,sans-Serif" font-size="10.00"> </text>
<polyline fill="none" stroke="black" points="470,-201.5 631,-201.5 "/>
<text text-anchor="start" x="478" y="-189.5" font-family="Helvetica,sans-Serif" font-size="10.00">+ getFrequency()</text>
<text text-anchor="start" x="478" y="-178.5" font-family="Helvetica,sans-Serif" font-size="10.00">+ setFrequency()</text>
<text text-anchor="start" x="478" y="-167.5" font-family="Helvetica,sans-Serif" font-size="10.00">+ setFrequency()</text>
<text text-anchor="start" x="478" y="-156.5" font-family="Helvetica,sans-Serif" font-size="10.00">+ ~iWaveformGenerator()</text>
</g>
<!-- Node2 -->
<g id="node3" class="node"><title>Node2</title>
<g id="a_node3"><a xlink:href="classMixer_1_1CheapSawtoothGenerator.html" target="_top" xlink:title="{Mixer::CheapSawtoothGenerator\&lt; T \&gt;\n||+ get()\l+ getFrequency()\l+ setFrequency()\l+ setFrequency()\l+ CheapSawtoothGenerator()\l}">
<polygon fill="none" stroke="black" points="0,-6 0,-107 183,-107 183,-6 0,-6"/>
<text text-anchor="middle" x="91.5" y="-95" font-family="Helvetica,sans-Serif" font-size="10.00">Mixer::CheapSawtoothGenerator&lt; T &gt;</text>
<polyline fill="none" stroke="black" points="0,-88 183,-88 "/>
<text text-anchor="middle" x="91.5" y="-76" font-family="Helvetica,sans-Serif" font-size="10.00"> </text>
<polyline fill="none" stroke="black" points="0,-69 183,-69 "/>
<text text-anchor="start" x="8" y="-57" font-family="Helvetica,sans-Serif" font-size="10.00">+ get()</text>
<text text-anchor="start" x="8" y="-46" font-family="Helvetica,sans-Serif" font-size="10.00">+ getFrequency()</text>
<text text-anchor="start" x="8" y="-35" font-family="Helvetica,sans-Serif" font-size="10.00">+ setFrequency()</text>
<text text-anchor="start" x="8" y="-24" font-family="Helvetica,sans-Serif" font-size="10.00">+ setFrequency()</text>
<text text-anchor="start" x="8" y="-13" font-family="Helvetica,sans-Serif" font-size="10.00">+ CheapSawtoothGenerator()</text>
</a>
</g>
</g>
<!-- Node0&#45;&gt;Node2 -->
<g id="edge2" class="edge"><title>Node0&#45;&gt;Node2</title>
<path fill="none" stroke="midnightblue" d="M459.6,-180.509C385.746,-168.215 279.732,-146.577 191.5,-113 186.768,-111.199 181.986,-109.206 177.212,-107.078"/>
<polygon fill="none" stroke="midnightblue" points="459.368,-184.018 469.803,-182.182 460.501,-177.11 459.368,-184.018"/>
</g>
<!-- Node3 -->
<g id="node4" class="node"><title>Node3</title>
<g id="a_node4"><a xlink:href="classMixer_1_1CheapSquareGenerator.html" target="_top" xlink:title="{Mixer::CheapSquareGenerator\&lt; T \&gt;\n||+ get()\l+ getFrequency()\l+ setFrequency()\l+ setFrequency()\l+ CheapSquareGenerator()\l}">
<polygon fill="none" stroke="black" points="201,-6 201,-107 374,-107 374,-6 201,-6"/>
<text text-anchor="middle" x="287.5" y="-95" font-family="Helvetica,sans-Serif" font-size="10.00">Mixer::CheapSquareGenerator&lt; T &gt;</text>
<polyline fill="none" stroke="black" points="201,-88 374,-88 "/>
<text text-anchor="middle" x="287.5" y="-76" font-family="Helvetica,sans-Serif" font-size="10.00"> </text>
<polyline fill="none" stroke="black" points="201,-69 374,-69 "/>
<text text-anchor="start" x="209" y="-57" font-family="Helvetica,sans-Serif" font-size="10.00">+ get()</text>
<text text-anchor="start" x="209" y="-46" font-family="Helvetica,sans-Serif" font-size="10.00">+ getFrequency()</text>
<text text-anchor="start" x="209" y="-35" font-family="Helvetica,sans-Serif" font-size="10.00">+ setFrequency()</text>
<text text-anchor="start" x="209" y="-24" font-family="Helvetica,sans-Serif" font-size="10.00">+ setFrequency()</text>
<text text-anchor="start" x="209" y="-13" font-family="Helvetica,sans-Serif" font-size="10.00">+ CheapSquareGenerator()</text>
</a>
</g>
</g>
<!-- Node0&#45;&gt;Node3 -->
<g id="edge3" class="edge"><title>Node0&#45;&gt;Node3</title>
<path fill="none" stroke="midnightblue" d="M460.652,-152.117C435.178,-139.934 407.564,-126.297 382.5,-113 378.872,-111.075 375.184,-109.082 371.47,-107.046"/>
<polygon fill="none" stroke="midnightblue" points="459.398,-155.396 469.931,-156.536 462.407,-149.076 459.398,-155.396"/>
</g>
<!-- Node4 -->
<g id="node5" class="node"><title>Node4</title>
<g id="a_node5"><a xlink:href="classMixer_1_1SawtoothGenerator.html" target="_top" xlink:title="{Mixer::SawtoothGenerator\&lt; T \&gt;\n||+ get()\l+ getFrequency()\l+ setFrequency()\l+ setFrequency()\l+ SawtoothGenerator()\l}">
<polygon fill="none" stroke="black" points="392,-6 392,-107 547,-107 547,-6 392,-6"/>
<text text-anchor="middle" x="469.5" y="-95" font-family="Helvetica,sans-Serif" font-size="10.00">Mixer::SawtoothGenerator&lt; T &gt;</text>
<polyline fill="none" stroke="black" points="392,-88 547,-88 "/>
<text text-anchor="middle" x="469.5" y="-76" font-family="Helvetica,sans-Serif" font-size="10.00"> </text>
<polyline fill="none" stroke="black" points="392,-69 547,-69 "/>
<text text-anchor="start" x="400" y="-57" font-family="Helvetica,sans-Serif" font-size="10.00">+ get()</text>
<text text-anchor="start" x="400" y="-46" font-family="Helvetica,sans-Serif" font-size="10.00">+ getFrequency()</text>
<text text-anchor="start" x="400" y="-35" font-family="Helvetica,sans-Serif" font-size="10.00">+ setFrequency()</text>
<text text-anchor="start" x="400" y="-24" font-family="Helvetica,sans-Serif" font-size="10.00">+ setFrequency()</text>
<text text-anchor="start" x="400" y="-13" font-family="Helvetica,sans-Serif" font-size="10.00">+ SawtoothGenerator()</text>
</a>
</g>
</g>
<!-- Node0&#45;&gt;Node4 -->
<g id="edge4" class="edge"><title>Node0&#45;&gt;Node4</title>
<path fill="none" stroke="midnightblue" d="M519.015,-140.637C512.441,-129.599 505.534,-118.001 499.034,-107.088"/>
<polygon fill="none" stroke="midnightblue" points="516.077,-142.544 524.202,-149.345 522.092,-138.962 516.077,-142.544"/>
</g>
<!-- Node5 -->
<g id="node6" class="node"><title>Node5</title>
<g id="a_node6"><a xlink:href="classMixer_1_1SineGenerator.html" target="_top" xlink:title="{Mixer::SineGenerator\&lt; T \&gt;\n||+ get()\l+ getFrequency()\l+ setFrequency()\l+ setFrequency()\l+ SineGenerator()\l}">
<polygon fill="none" stroke="black" points="565,-6 565,-107 698,-107 698,-6 565,-6"/>
<text text-anchor="middle" x="631.5" y="-95" font-family="Helvetica,sans-Serif" font-size="10.00">Mixer::SineGenerator&lt; T &gt;</text>
<polyline fill="none" stroke="black" points="565,-88 698,-88 "/>
<text text-anchor="middle" x="631.5" y="-76" font-family="Helvetica,sans-Serif" font-size="10.00"> </text>
<polyline fill="none" stroke="black" points="565,-69 698,-69 "/>
<text text-anchor="start" x="573" y="-57" font-family="Helvetica,sans-Serif" font-size="10.00">+ get()</text>
<text text-anchor="start" x="573" y="-46" font-family="Helvetica,sans-Serif" font-size="10.00">+ getFrequency()</text>
<text text-anchor="start" x="573" y="-35" font-family="Helvetica,sans-Serif" font-size="10.00">+ setFrequency()</text>
<text text-anchor="start" x="573" y="-24" font-family="Helvetica,sans-Serif" font-size="10.00">+ setFrequency()</text>
<text text-anchor="start" x="573" y="-13" font-family="Helvetica,sans-Serif" font-size="10.00">+ SineGenerator()</text>
</a>
</g>
</g>
<!-- Node0&#45;&gt;Node5 -->
<g id="edge5" class="edge"><title>Node0&#45;&gt;Node5</title>
<path fill="none" stroke="midnightblue" d="M581.985,-140.637C588.559,-129.599 595.466,-118.001 601.966,-107.088"/>
<polygon fill="none" stroke="midnightblue" points="578.908,-138.962 576.798,-149.345 584.923,-142.544 578.908,-138.962"/>
</g>
<!-- Node6 -->
<g id="node7" class="node"><title>Node6</title>
<g id="a_node7"><a xlink:href="classMixer_1_1SquareGenerator.html" target="_top" xlink:title="{Mixer::SquareGenerator\&lt; T \&gt;\n||+ get()\l+ getFrequency()\l+ setFrequency()\l+ setFrequency()\l+ SquareGenerator()\l}">
<polygon fill="none" stroke="black" points="716.5,-6 716.5,-107 860.5,-107 860.5,-6 716.5,-6"/>
<text text-anchor="middle" x="788.5" y="-95" font-family="Helvetica,sans-Serif" font-size="10.00">Mixer::SquareGenerator&lt; T &gt;</text>
<polyline fill="none" stroke="black" points="716.5,-88 860.5,-88 "/>
<text text-anchor="middle" x="788.5" y="-76" font-family="Helvetica,sans-Serif" font-size="10.00"> </text>
<polyline fill="none" stroke="black" points="716.5,-69 860.5,-69 "/>
<text text-anchor="start" x="724.5" y="-57" font-family="Helvetica,sans-Serif" font-size="10.00">+ get()</text>
<text text-anchor="start" x="724.5" y="-46" font-family="Helvetica,sans-Serif" font-size="10.00">+ getFrequency()</text>
<text text-anchor="start" x="724.5" y="-35" font-family="Helvetica,sans-Serif" font-size="10.00">+ setFrequency()</text>
<text text-anchor="start" x="724.5" y="-24" font-family="Helvetica,sans-Serif" font-size="10.00">+ setFrequency()</text>
<text text-anchor="start" x="724.5" y="-13" font-family="Helvetica,sans-Serif" font-size="10.00">+ SquareGenerator()</text>
</a>
</g>
</g>
<!-- Node0&#45;&gt;Node6 -->
<g id="edge6" class="edge"><title>Node0&#45;&gt;Node6</title>
<path fill="none" stroke="midnightblue" d="M640.165,-150.005C662.466,-138.513 686.106,-125.745 707.5,-113 710.722,-111.081 713.988,-109.081 717.268,-107.03"/>
<polygon fill="none" stroke="midnightblue" points="638.34,-147.007 631.032,-154.679 641.529,-153.239 638.34,-147.007"/>
</g>
<!-- Node7 -->
<g id="node8" class="node"><title>Node7</title>
<g id="a_node8"><a xlink:href="classMixer_1_1TriangleGenerator.html" target="_top" xlink:title="{Mixer::TriangleGenerator\&lt; T \&gt;\n||+ get()\l+ getFrequency()\l+ setFrequency()\l+ setFrequency()\l+ TriangleGenerator()\l+ TriangleGenerator()\l}">
<polygon fill="none" stroke="black" points="878.5,-0.5 878.5,-112.5 1026.5,-112.5 1026.5,-0.5 878.5,-0.5"/>
<text text-anchor="middle" x="952.5" y="-100.5" font-family="Helvetica,sans-Serif" font-size="10.00">Mixer::TriangleGenerator&lt; T &gt;</text>
<polyline fill="none" stroke="black" points="878.5,-93.5 1026.5,-93.5 "/>
<text text-anchor="middle" x="952.5" y="-81.5" font-family="Helvetica,sans-Serif" font-size="10.00"> </text>
<polyline fill="none" stroke="black" points="878.5,-74.5 1026.5,-74.5 "/>
<text text-anchor="start" x="886.5" y="-62.5" font-family="Helvetica,sans-Serif" font-size="10.00">+ get()</text>
<text text-anchor="start" x="886.5" y="-51.5" font-family="Helvetica,sans-Serif" font-size="10.00">+ getFrequency()</text>
<text text-anchor="start" x="886.5" y="-40.5" font-family="Helvetica,sans-Serif" font-size="10.00">+ setFrequency()</text>
<text text-anchor="start" x="886.5" y="-29.5" font-family="Helvetica,sans-Serif" font-size="10.00">+ setFrequency()</text>
<text text-anchor="start" x="886.5" y="-18.5" font-family="Helvetica,sans-Serif" font-size="10.00">+ TriangleGenerator()</text>
<text text-anchor="start" x="886.5" y="-7.5" font-family="Helvetica,sans-Serif" font-size="10.00">+ TriangleGenerator()</text>
</a>
</g>
</g>
<!-- Node0&#45;&gt;Node7 -->
<g id="edge7" class="edge"><title>Node0&#45;&gt;Node7</title>
<path fill="none" stroke="midnightblue" d="M640.886,-179.231C706.294,-166.886 795.777,-145.772 869.5,-113 872.351,-111.733 875.212,-110.369 878.066,-108.929"/>
<polygon fill="none" stroke="midnightblue" points="640.202,-175.798 631.008,-181.063 641.479,-182.68 640.202,-175.798"/>
</g>
<!-- Node1 -->
<g id="node2" class="node"><title>Node1</title>
<g id="a_node2"><a xlink:href="classDataFlow_1_1iSource.html" target="_top" xlink:title="{DataFlow::iSource\&lt; T \&gt;\n||+ get()\l+ ~iSource()\l}">
<polygon fill="none" stroke="black" points="489.5,-276.5 489.5,-344.5 611.5,-344.5 611.5,-276.5 489.5,-276.5"/>
<text text-anchor="middle" x="550.5" y="-332.5" font-family="Helvetica,sans-Serif" font-size="10.00">DataFlow::iSource&lt; T &gt;</text>
<polyline fill="none" stroke="black" points="489.5,-325.5 611.5,-325.5 "/>
<text text-anchor="middle" x="550.5" y="-313.5" font-family="Helvetica,sans-Serif" font-size="10.00"> </text>
<polyline fill="none" stroke="black" points="489.5,-306.5 611.5,-306.5 "/>
<text text-anchor="start" x="497.5" y="-294.5" font-family="Helvetica,sans-Serif" font-size="10.00">+ get()</text>
<text text-anchor="start" x="497.5" y="-283.5" font-family="Helvetica,sans-Serif" font-size="10.00">+ ~iSource()</text>
</a>
</g>
</g>
<!-- Node1&#45;&gt;Node0 -->
<g id="edge1" class="edge"><title>Node1&#45;&gt;Node0</title>
<path fill="none" stroke="midnightblue" d="M550.5,-265.972C550.5,-257.346 550.5,-248.284 550.5,-239.638"/>
<polygon fill="none" stroke="midnightblue" points="547,-266.22 550.5,-276.22 554,-266.22 547,-266.22"/>
</g>
</g>
</svg>
