<?xml version="1.0" encoding="UTF-8" standalone="no"?>
<!DOCTYPE svg PUBLIC "-//W3C//DTD SVG 1.1//EN"
 "http://www.w3.org/Graphics/SVG/1.1/DTD/svg11.dtd">
<!-- Generated by graphviz version 2.38.0 (20140413.2041)
 -->
<!-- Title: DataFlow::iSource&lt; T &gt; Pages: 1 -->
<!--zoomable 413 -->
<svg id="main" version="1.1" xmlns="http://www.w3.org/2000/svg" xmlns:xlink="http://www.w3.org/1999/xlink" xml:space="preserve" onload="init(evt)">
<style type="text/css"><![CDATA[
.edge:hover path { stroke: red; }
.edge:hover polygon { stroke: red; fill: red; }
]]></style>
<script type="text/javascript"><![CDATA[
var edges = document.getElementsByTagName('g');
if (edges && edges.length) {
  for (var i=0;i<edges.length;i++) {
    if (edges[i].id.substr(0,4)=='edge') {
      edges[i].setAttribute('class','edge');
    }
  }
}
]]></script>
        <defs>
                <circle id="rim" cx="0" cy="0" r="7"/>
                <circle id="rim2" cx="0" cy="0" r="3.5"/>
                <g id="zoomPlus">
                        <use xlink:href="#rim" fill="#404040">
                                <set attributeName="fill" to="#808080" begin="zoomplus.mouseover" end="zoomplus.mouseout"/>
                        </use>
                        <path d="M-4,0h8M0,-4v8" fill="none" stroke="white" stroke-width="1.5" pointer-events="none"/>
                </g>
                <g id="zoomMin">
                        <use xlink:href="#rim" fill="#404040">
                                <set attributeName="fill" to="#808080" begin="zoomminus.mouseover" end="zoomminus.mouseout"/>
                        </use>
                        <path d="M-4,0h8" fill="none" stroke="white" stroke-width="1.5" pointer-events="none"/>
                </g>
                <g id="dirArrow">
                        <path fill="none" stroke="white" stroke-width="1.5" d="M0,-3.0v7 M-2.5,-0.5L0,-3.0L2.5,-0.5"/>
                </g>
               <g id="resetDef">
                       <use xlink:href="#rim2" fill="#404040">
                               <set attributeName="fill" to="#808080" begin="reset.mouseover" end="reset.mouseout"/>
                       </use>
               </g>
        </defs>

<script type="text/javascript">
var viewWidth = 857;
var viewHeight = 413;
var sectionId = 'dynsection-0';
</script>
<script xlink:href="svgpan.js"/>
<svg id="graph" class="graph">
<g id="viewport">
<title>DataFlow::iSource&lt; T &gt;</title>
<!-- Node0 -->
<g id="node1" class="node"><title>Node0</title>
<polygon fill="#bfbfbf" stroke="black" points="379,-336.5 379,-404.5 501,-404.5 501,-336.5 379,-336.5"/>
<text text-anchor="middle" x="440" y="-392.5" font-family="Helvetica,sans-Serif" font-size="10.00">DataFlow::iSource&lt; T &gt;</text>
<polyline fill="none" stroke="black" points="379,-385.5 501,-385.5 "/>
<text text-anchor="middle" x="440" y="-373.5" font-family="Helvetica,sans-Serif" font-size="10.00"> </text>
<polyline fill="none" stroke="black" points="379,-366.5 501,-366.5 "/>
<text text-anchor="start" x="387" y="-354.5" font-family="Helvetica,sans-Serif" font-size="10.00">+ get()</text>
<text text-anchor="start" x="387" y="-343.5" font-family="Helvetica,sans-Serif" font-size="10.00">+ ~iSource()</text>
</g>
<!-- Node1 -->
<g id="node2" class="node"><title>Node1</title>
<g id="a_node2"><a xlink:href="classDataFlow_1_1Applicator.html" target="_top" xlink:title="{DataFlow::Applicator\&lt; T \&gt;\n|&#45; method\l&#45; source\l|+ get()\l+ getMethod()\l+ attach()\l}">
<polygon fill="none" stroke="black" points="0,-105 0,-195 132,-195 132,-105 0,-105"/>
<text text-anchor="middle" x="66" y="-183" font-family="Helvetica,sans-Serif" font-size="10.00">DataFlow::Applicator&lt; T &gt;</text>
<polyline fill="none" stroke="black" points="0,-176 132,-176 "/>
<text text-anchor="start" x="8" y="-164" font-family="Helvetica,sans-Serif" font-size="10.00">&#45; method</text>
<text text-anchor="start" x="8" y="-153" font-family="Helvetica,sans-Serif" font-size="10.00">&#45; source</text>
<polyline fill="none" stroke="black" points="0,-146 132,-146 "/>
<text text-anchor="start" x="8" y="-134" font-family="Helvetica,sans-Serif" font-size="10.00">+ get()</text>
<text text-anchor="start" x="8" y="-123" font-family="Helvetica,sans-Serif" font-size="10.00">+ getMethod()</text>
<text text-anchor="start" x="8" y="-112" font-family="Helvetica,sans-Serif" font-size="10.00">+ attach()</text>
</a>
</g>
</g>
<!-- Node0&#45;&gt;Node1 -->
<g id="edge1" class="edge"><title>Node0&#45;&gt;Node1</title>
<path fill="none" stroke="midnightblue" d="M368.736,-360.017C291.897,-348.582 175.879,-327.431 141,-300 107.651,-273.773 87.9094,-228.768 77.1225,-195.066"/>
<polygon fill="none" stroke="midnightblue" points="368.436,-363.51 378.838,-361.498 369.452,-356.585 368.436,-363.51"/>
</g>
<!-- Node2 -->
<g id="node3" class="node"><title>Node2</title>
<g id="a_node3"><a xlink:href="classDataFlow_1_1Consolidator.html" target="_top" xlink:title="{DataFlow::Consolidator\&lt; T \&gt;\n|&#45; consolidationMethod\l&#45; sources\l|+ attach()\l+ detach()\l+ getMethod()\l+ get()\l}">
<polygon fill="none" stroke="black" points="150.5,-99.5 150.5,-200.5 293.5,-200.5 293.5,-99.5 150.5,-99.5"/>
<text text-anchor="middle" x="222" y="-188.5" font-family="Helvetica,sans-Serif" font-size="10.00">DataFlow::Consolidator&lt; T &gt;</text>
<polyline fill="none" stroke="black" points="150.5,-181.5 293.5,-181.5 "/>
<text text-anchor="start" x="158.5" y="-169.5" font-family="Helvetica,sans-Serif" font-size="10.00">&#45; consolidationMethod</text>
<text text-anchor="start" x="158.5" y="-158.5" font-family="Helvetica,sans-Serif" font-size="10.00">&#45; sources</text>
<polyline fill="none" stroke="black" points="150.5,-151.5 293.5,-151.5 "/>
<text text-anchor="start" x="158.5" y="-139.5" font-family="Helvetica,sans-Serif" font-size="10.00">+ attach()</text>
<text text-anchor="start" x="158.5" y="-128.5" font-family="Helvetica,sans-Serif" font-size="10.00">+ detach()</text>
<text text-anchor="start" x="158.5" y="-117.5" font-family="Helvetica,sans-Serif" font-size="10.00">+ getMethod()</text>
<text text-anchor="start" x="158.5" y="-106.5" font-family="Helvetica,sans-Serif" font-size="10.00">+ get()</text>
</a>
</g>
</g>
<!-- Node0&#45;&gt;Node2 -->
<g id="edge2" class="edge"><title>Node0&#45;&gt;Node2</title>
<path fill="none" stroke="midnightblue" d="M369.641,-344.156C346.13,-333.216 321.084,-318.59 302,-300 273.502,-272.239 252.76,-232.123 239.547,-200.508"/>
<polygon fill="none" stroke="midnightblue" points="368.349,-347.413 378.905,-348.319 371.218,-341.028 368.349,-347.413"/>
</g>
<!-- Node3 -->
<g id="node4" class="node"><title>Node3</title>
<g id="a_node4"><a xlink:href="classDataFlow_1_1iBuffer.html" target="_top" xlink:title="{DataFlow::iBuffer\&lt; T \&gt;\n||+ add()\l+ add()\l+ isEmpty()\l+ isFull()\l+ clear()\l+ capacity()\l+ size()\l+ ~iBuffer()\l}">
<polygon fill="none" stroke="red" points="311.5,-83 311.5,-217 428.5,-217 428.5,-83 311.5,-83"/>
<text text-anchor="middle" x="370" y="-205" font-family="Helvetica,sans-Serif" font-size="10.00">DataFlow::iBuffer&lt; T &gt;</text>
<polyline fill="none" stroke="red" points="311.5,-198 428.5,-198 "/>
<text text-anchor="middle" x="370" y="-186" font-family="Helvetica,sans-Serif" font-size="10.00"> </text>
<polyline fill="none" stroke="red" points="311.5,-179 428.5,-179 "/>
<text text-anchor="start" x="319.5" y="-167" font-family="Helvetica,sans-Serif" font-size="10.00">+ add()</text>
<text text-anchor="start" x="319.5" y="-156" font-family="Helvetica,sans-Serif" font-size="10.00">+ add()</text>
<text text-anchor="start" x="319.5" y="-145" font-family="Helvetica,sans-Serif" font-size="10.00">+ isEmpty()</text>
<text text-anchor="start" x="319.5" y="-134" font-family="Helvetica,sans-Serif" font-size="10.00">+ isFull()</text>
<text text-anchor="start" x="319.5" y="-123" font-family="Helvetica,sans-Serif" font-size="10.00">+ clear()</text>
<text text-anchor="start" x="319.5" y="-112" font-family="Helvetica,sans-Serif" font-size="10.00">+ capacity()</text>
<text text-anchor="start" x="319.5" y="-101" font-family="Helvetica,sans-Serif" font-size="10.00">+ size()</text>
<text text-anchor="start" x="319.5" y="-90" font-family="Helvetica,sans-Serif" font-size="10.00">+ ~iBuffer()</text>
</a>
</g>
</g>
<!-- Node0&#45;&gt;Node3 -->
<g id="edge3" class="edge"><title>Node0&#45;&gt;Node3</title>
<path fill="none" stroke="midnightblue" d="M426.264,-326.625C416.277,-295.451 402.571,-252.667 391.186,-217.132"/>
<polygon fill="none" stroke="midnightblue" points="422.984,-327.859 429.369,-336.315 429.651,-325.723 422.984,-327.859"/>
</g>
<!-- Node5 -->
<g id="node5" class="node"><title>Node5</title>
<g id="a_node5"><a xlink:href="classMixer_1_1SimplePlayer.html" target="_top" xlink:title="{Mixer::SimplePlayer\&lt; T \&gt;\n|&#45; backend\l&#45; source\l&#45; paused\l|+ get()\l+ pause()\l+ stop()\l+ play()\l+ attach()\l+ SimplePlayer()\l}">
<polygon fill="none" stroke="black" points="447,-83 447,-217 575,-217 575,-83 447,-83"/>
<text text-anchor="middle" x="511" y="-205" font-family="Helvetica,sans-Serif" font-size="10.00">Mixer::SimplePlayer&lt; T &gt;</text>
<polyline fill="none" stroke="black" points="447,-198 575,-198 "/>
<text text-anchor="start" x="455" y="-186" font-family="Helvetica,sans-Serif" font-size="10.00">&#45; backend</text>
<text text-anchor="start" x="455" y="-175" font-family="Helvetica,sans-Serif" font-size="10.00">&#45; source</text>
<text text-anchor="start" x="455" y="-164" font-family="Helvetica,sans-Serif" font-size="10.00">&#45; paused</text>
<polyline fill="none" stroke="black" points="447,-157 575,-157 "/>
<text text-anchor="start" x="455" y="-145" font-family="Helvetica,sans-Serif" font-size="10.00">+ get()</text>
<text text-anchor="start" x="455" y="-134" font-family="Helvetica,sans-Serif" font-size="10.00">+ pause()</text>
<text text-anchor="start" x="455" y="-123" font-family="Helvetica,sans-Serif" font-size="10.00">+ stop()</text>
<text text-anchor="start" x="455" y="-112" font-family="Helvetica,sans-Serif" font-size="10.00">+ play()</text>
<text text-anchor="start" x="455" y="-101" font-family="Helvetica,sans-Serif" font-size="10.00">+ attach()</text>
<text text-anchor="start" x="455" y="-90" font-family="Helvetica,sans-Serif" font-size="10.00">+ SimplePlayer()</text>
</a>
</g>
</g>
<!-- Node0&#45;&gt;Node5 -->
<g id="edge4" class="edge"><title>Node0&#45;&gt;Node5</title>
<path fill="none" stroke="midnightblue" d="M453.932,-326.625C464.062,-295.451 477.964,-252.667 489.511,-217.132"/>
<polygon fill="none" stroke="midnightblue" points="450.545,-325.722 450.783,-336.315 457.202,-327.886 450.545,-325.722"/>
</g>
<!-- Node6 -->
<g id="node6" class="node"><title>Node6</title>
<g id="a_node6"><a xlink:href="classMixer_1_1SineGenerator.html" target="_top" xlink:title="{Mixer::SineGenerator\&lt; T \&gt;\n|&#45; step\l&#45; position\l&#45; sinetableUninitialized\l&#45; sinetable\l|+ get()\l+ SineGenerator()\l&#45; filler()\l}">
<polygon fill="none" stroke="black" points="593.5,-94 593.5,-206 726.5,-206 726.5,-94 593.5,-94"/>
<text text-anchor="middle" x="660" y="-194" font-family="Helvetica,sans-Serif" font-size="10.00">Mixer::SineGenerator&lt; T &gt;</text>
<polyline fill="none" stroke="black" points="593.5,-187 726.5,-187 "/>
<text text-anchor="start" x="601.5" y="-175" font-family="Helvetica,sans-Serif" font-size="10.00">&#45; step</text>
<text text-anchor="start" x="601.5" y="-164" font-family="Helvetica,sans-Serif" font-size="10.00">&#45; position</text>
<text text-anchor="start" x="601.5" y="-153" font-family="Helvetica,sans-Serif" font-size="10.00">&#45; sinetableUninitialized</text>
<text text-anchor="start" x="601.5" y="-142" font-family="Helvetica,sans-Serif" font-size="10.00">&#45; sinetable</text>
<polyline fill="none" stroke="black" points="593.5,-135 726.5,-135 "/>
<text text-anchor="start" x="601.5" y="-123" font-family="Helvetica,sans-Serif" font-size="10.00">+ get()</text>
<text text-anchor="start" x="601.5" y="-112" font-family="Helvetica,sans-Serif" font-size="10.00">+ SineGenerator()</text>
<text text-anchor="start" x="601.5" y="-101" font-family="Helvetica,sans-Serif" font-size="10.00">&#45; filler()</text>
</a>
</g>
</g>
<!-- Node0&#45;&gt;Node6 -->
<g id="edge5" class="edge"><title>Node0&#45;&gt;Node6</title>
<path fill="none" stroke="midnightblue" d="M510.365,-346.366C535.856,-335.373 563.411,-320.141 584,-300 610.57,-274.008 629.57,-236.758 641.928,-206.006"/>
<polygon fill="none" stroke="midnightblue" points="508.973,-343.154 501.083,-350.225 511.661,-349.617 508.973,-343.154"/>
</g>
<!-- Node7 -->
<g id="node7" class="node"><title>Node7</title>
<g id="a_node7"><a xlink:href="classOggFileLoader.html" target="_top" xlink:title="{OggFileLoader\&lt; T \&gt;\n|&#45; infile\l&#45; eos\l&#45; buffer\l&#45; oy\l&#45; os\l&#45; currentPage\l&#45; currentPacket\l&#45; decoder\l&#45; overflow\l&#45; streamInitialized\l|+ open()\l+ init()\l+ close()\l+ clear()\l+ get()\l+ getDecoder()\l+ OggFileLoader()\l+ ~OggFileLoader()\l+ init()\l&#45; initStream()\l&#45; read()\l&#45; readNextPage()\l&#45; nextPage()\l&#45; nextPacket()\l}">
<polygon fill="none" stroke="black" points="745,-0.5 745,-299.5 849,-299.5 849,-0.5 745,-0.5"/>
<text text-anchor="middle" x="797" y="-287.5" font-family="Helvetica,sans-Serif" font-size="10.00">OggFileLoader&lt; T &gt;</text>
<polyline fill="none" stroke="black" points="745,-280.5 849,-280.5 "/>
<text text-anchor="start" x="753" y="-268.5" font-family="Helvetica,sans-Serif" font-size="10.00">&#45; infile</text>
<text text-anchor="start" x="753" y="-257.5" font-family="Helvetica,sans-Serif" font-size="10.00">&#45; eos</text>
<text text-anchor="start" x="753" y="-246.5" font-family="Helvetica,sans-Serif" font-size="10.00">&#45; buffer</text>
<text text-anchor="start" x="753" y="-235.5" font-family="Helvetica,sans-Serif" font-size="10.00">&#45; oy</text>
<text text-anchor="start" x="753" y="-224.5" font-family="Helvetica,sans-Serif" font-size="10.00">&#45; os</text>
<text text-anchor="start" x="753" y="-213.5" font-family="Helvetica,sans-Serif" font-size="10.00">&#45; currentPage</text>
<text text-anchor="start" x="753" y="-202.5" font-family="Helvetica,sans-Serif" font-size="10.00">&#45; currentPacket</text>
<text text-anchor="start" x="753" y="-191.5" font-family="Helvetica,sans-Serif" font-size="10.00">&#45; decoder</text>
<text text-anchor="start" x="753" y="-180.5" font-family="Helvetica,sans-Serif" font-size="10.00">&#45; overflow</text>
<text text-anchor="start" x="753" y="-169.5" font-family="Helvetica,sans-Serif" font-size="10.00">&#45; streamInitialized</text>
<polyline fill="none" stroke="black" points="745,-162.5 849,-162.5 "/>
<text text-anchor="start" x="753" y="-150.5" font-family="Helvetica,sans-Serif" font-size="10.00">+ open()</text>
<text text-anchor="start" x="753" y="-139.5" font-family="Helvetica,sans-Serif" font-size="10.00">+ init()</text>
<text text-anchor="start" x="753" y="-128.5" font-family="Helvetica,sans-Serif" font-size="10.00">+ close()</text>
<text text-anchor="start" x="753" y="-117.5" font-family="Helvetica,sans-Serif" font-size="10.00">+ clear()</text>
<text text-anchor="start" x="753" y="-106.5" font-family="Helvetica,sans-Serif" font-size="10.00">+ get()</text>
<text text-anchor="start" x="753" y="-95.5" font-family="Helvetica,sans-Serif" font-size="10.00">+ getDecoder()</text>
<text text-anchor="start" x="753" y="-84.5" font-family="Helvetica,sans-Serif" font-size="10.00">+ OggFileLoader()</text>
<text text-anchor="start" x="753" y="-73.5" font-family="Helvetica,sans-Serif" font-size="10.00">+ ~OggFileLoader()</text>
<text text-anchor="start" x="753" y="-62.5" font-family="Helvetica,sans-Serif" font-size="10.00">+ init()</text>
<text text-anchor="start" x="753" y="-51.5" font-family="Helvetica,sans-Serif" font-size="10.00">&#45; initStream()</text>
<text text-anchor="start" x="753" y="-40.5" font-family="Helvetica,sans-Serif" font-size="10.00">&#45; read()</text>
<text text-anchor="start" x="753" y="-29.5" font-family="Helvetica,sans-Serif" font-size="10.00">&#45; readNextPage()</text>
<text text-anchor="start" x="753" y="-18.5" font-family="Helvetica,sans-Serif" font-size="10.00">&#45; nextPage()</text>
<text text-anchor="start" x="753" y="-7.5" font-family="Helvetica,sans-Serif" font-size="10.00">&#45; nextPacket()</text>
</a>
</g>
</g>
<!-- Node0&#45;&gt;Node7 -->
<g id="edge6" class="edge"><title>Node0&#45;&gt;Node7</title>
<path fill="none" stroke="midnightblue" d="M511.28,-360.372C587.714,-349.29 702.615,-328.488 736,-300 739.083,-297.369 742.013,-294.558 744.796,-291.596"/>
<polygon fill="none" stroke="midnightblue" points="510.634,-356.929 501.228,-361.806 511.622,-363.858 510.634,-356.929"/>
</g>
</g>
</svg>
        <g id="navigator" transform="translate(0 0)" fill="#404254">
                <rect fill="#f2f5e9" fill-opacity="0.5" stroke="#606060" stroke-width=".5" x="0" y="0" width="60" height="60"/>
                <use id="zoomplus" xlink:href="#zoomPlus" x="17" y="9" onmousedown="handleZoom(evt,'in')"/>
                <use id="zoomminus" xlink:href="#zoomMin" x="42" y="9" onmousedown="handleZoom(evt,'out')"/>
                <use id="reset" xlink:href="#resetDef" x="30" y="36" onmousedown="handleReset()"/>
                <g id="arrowUp" xlink:href="#dirArrow" transform="translate(30 24)" onmousedown="handlePan(0,-1)">
                  <use xlink:href="#rim" fill="#404040">
                        <set attributeName="fill" to="#808080" begin="arrowUp.mouseover" end="arrowUp.mouseout"/>
                  </use>
                  <path fill="none" stroke="white" stroke-width="1.5" d="M0,-3.0v7 M-2.5,-0.5L0,-3.0L2.5,-0.5"/>
                </g>
                <g id="arrowRight" xlink:href="#dirArrow" transform="rotate(90) translate(36 -43)" onmousedown="handlePan(1,0)">
                  <use xlink:href="#rim" fill="#404040">
                        <set attributeName="fill" to="#808080" begin="arrowRight.mouseover" end="arrowRight.mouseout"/>
                  </use>
                  <path fill="none" stroke="white" stroke-width="1.5" d="M0,-3.0v7 M-2.5,-0.5L0,-3.0L2.5,-0.5"/>
                </g>
                <g id="arrowDown" xlink:href="#dirArrow" transform="rotate(180) translate(-30 -48)" onmousedown="handlePan(0,1)">
                  <use xlink:href="#rim" fill="#404040">
                        <set attributeName="fill" to="#808080" begin="arrowDown.mouseover" end="arrowDown.mouseout"/>
                  </use>
                  <path fill="none" stroke="white" stroke-width="1.5" d="M0,-3.0v7 M-2.5,-0.5L0,-3.0L2.5,-0.5"/>
                </g>
                <g id="arrowLeft" xlink:href="#dirArrow" transform="rotate(270) translate(-36 17)" onmousedown="handlePan(-1,0)">
                  <use xlink:href="#rim" fill="#404040">
                        <set attributeName="fill" to="#808080" begin="arrowLeft.mouseover" end="arrowLeft.mouseout"/>
                  </use>
                  <path fill="none" stroke="white" stroke-width="1.5" d="M0,-3.0v7 M-2.5,-0.5L0,-3.0L2.5,-0.5"/>
                </g>
        </g>
        <svg viewBox="0 0 15 15" width="100%" height="30px" preserveAspectRatio="xMaxYMin meet">
         <g id="arrow_out" transform="scale(0.3 0.3)">
          <a xlink:href="classDataFlow_1_1iSource__inherit__graph_org.svg" target="_base">
           <rect id="button" ry="5" rx="5" y="6" x="6" height="38" width="38"
                fill="#f2f5e9" fill-opacity="0.5" stroke="#606060" stroke-width="1.0"/>
           <path id="arrow"
             d="M 11.500037,31.436501 C 11.940474,20.09759 22.043105,11.32322 32.158766,21.979434 L 37.068811,17.246167 C 37.068811,17.246167 37.088388,32 37.088388,32 L 22.160133,31.978069 C 22.160133,31.978069 26.997745,27.140456 26.997745,27.140456 C 18.528582,18.264221 13.291696,25.230495 11.500037,31.436501 z"
             style="fill:#404040;"/>
          </a>
         </g>
        </svg>
</svg>
