<?xml version="1.0" encoding="UTF-8" standalone="no"?>
<!DOCTYPE svg PUBLIC "-//W3C//DTD SVG 1.1//EN"
 "http://www.w3.org/Graphics/SVG/1.1/DTD/svg11.dtd">
<!-- Generated by graphviz version 2.38.0 (20140413.2041)
 -->
<!-- Title: Graphical Class Hierarchy Pages: 1 -->
<svg width="556pt" height="370pt"
 viewBox="0.00 0.00 556.00 370.00" xmlns="http://www.w3.org/2000/svg" xmlns:xlink="http://www.w3.org/1999/xlink">
<g id="graph0" class="graph" transform="scale(1 1) rotate(0) translate(4 366)">
<title>Graphical Class Hierarchy</title>
<!-- Node46 -->
<g id="node1" class="node"><title>Node46</title>
<g id="a_node1"><a xlink:href="classMixer_1_1AudioSource.html" target="_top" xlink:title="Mixer::AudioSource">
<polygon fill="none" stroke="black" points="192.5,-152.5 192.5,-171.5 294.5,-171.5 294.5,-152.5 192.5,-152.5"/>
<text text-anchor="middle" x="243.5" y="-159.5" font-family="Helvetica,sans-Serif" font-size="10.00">Mixer::AudioSource</text>
</a>
</g>
</g>
<!-- Node7 -->
<g id="node2" class="node"><title>Node7</title>
<g id="a_node2"><a xlink:href="classMixer_1_1CheapSawtoothGenerator.html" target="_top" xlink:title="Mixer::CheapSawtoothGenerator\&lt; T \&gt;">
<polygon fill="none" stroke="black" points="365,-190.5 365,-209.5 548,-209.5 548,-190.5 365,-190.5"/>
<text text-anchor="middle" x="456.5" y="-197.5" font-family="Helvetica,sans-Serif" font-size="10.00">Mixer::CheapSawtoothGenerator&lt; T &gt;</text>
</a>
</g>
</g>
<!-- Node46&#45;&gt;Node7 -->
<g id="edge1" class="edge"><title>Node46&#45;&gt;Node7</title>
<path fill="none" stroke="midnightblue" d="M304.703,-172.842C335.556,-178.399 372.789,-185.104 402.539,-190.462"/>
<polygon fill="midnightblue" stroke="midnightblue" points="304.966,-169.333 294.504,-171.005 303.725,-176.223 304.966,-169.333"/>
</g>
<!-- Node8 -->
<g id="node3" class="node"><title>Node8</title>
<g id="a_node3"><a xlink:href="classMixer_1_1CheapSquareGenerator.html" target="_top" xlink:title="Mixer::CheapSquareGenerator\&lt; T \&gt;">
<polygon fill="none" stroke="black" points="370,-152.5 370,-171.5 543,-171.5 543,-152.5 370,-152.5"/>
<text text-anchor="middle" x="456.5" y="-159.5" font-family="Helvetica,sans-Serif" font-size="10.00">Mixer::CheapSquareGenerator&lt; T &gt;</text>
</a>
</g>
</g>
<!-- Node46&#45;&gt;Node8 -->
<g id="edge2" class="edge"><title>Node46&#45;&gt;Node8</title>
<path fill="none" stroke="midnightblue" d="M304.557,-162C324.899,-162 348.027,-162 369.961,-162"/>
<polygon fill="midnightblue" stroke="midnightblue" points="304.504,-158.5 294.504,-162 304.504,-165.5 304.504,-158.5"/>
</g>
<!-- Node9 -->
<g id="node4" class="node"><title>Node9</title>
<g id="a_node4"><a xlink:href="classMixer_1_1SawtoothGenerator.html" target="_top" xlink:title="Mixer::SawtoothGenerator\&lt; T \&gt;">
<polygon fill="none" stroke="black" points="379,-342.5 379,-361.5 534,-361.5 534,-342.5 379,-342.5"/>
<text text-anchor="middle" x="456.5" y="-349.5" font-family="Helvetica,sans-Serif" font-size="10.00">Mixer::SawtoothGenerator&lt; T &gt;</text>
</a>
</g>
</g>
<!-- Node46&#45;&gt;Node9 -->
<g id="edge3" class="edge"><title>Node46&#45;&gt;Node9</title>
<path fill="none" stroke="midnightblue" d="M304.323,-166.638C313.5,-169.688 322.175,-174.252 329,-181 378.369,-229.81 315.285,-284.542 365,-333 369.024,-336.922 373.639,-340.127 378.609,-342.737"/>
<polygon fill="midnightblue" stroke="midnightblue" points="305.203,-163.251 294.633,-163.98 303.351,-170.001 305.203,-163.251"/>
</g>
<!-- Node13 -->
<g id="node5" class="node"><title>Node13</title>
<g id="a_node5"><a xlink:href="classMixer_1_1SimplePlayer.html" target="_top" xlink:title="Mixer::SimplePlayer\l\&lt; T, K \&gt;">
<polygon fill="none" stroke="black" points="404.5,-103 404.5,-133 508.5,-133 508.5,-103 404.5,-103"/>
<text text-anchor="start" x="412.5" y="-121" font-family="Helvetica,sans-Serif" font-size="10.00">Mixer::SimplePlayer</text>
<text text-anchor="middle" x="456.5" y="-110" font-family="Helvetica,sans-Serif" font-size="10.00">&lt; T, K &gt;</text>
</a>
</g>
</g>
<!-- Node46&#45;&gt;Node13 -->
<g id="edge4" class="edge"><title>Node46&#45;&gt;Node13</title>
<path fill="none" stroke="midnightblue" d="M300.443,-150.334C332.662,-143.616 372.859,-135.233 404.252,-128.687"/>
<polygon fill="midnightblue" stroke="midnightblue" points="299.359,-146.985 290.284,-152.453 300.788,-153.837 299.359,-146.985"/>
</g>
<!-- Node10 -->
<g id="node6" class="node"><title>Node10</title>
<g id="a_node6"><a xlink:href="classMixer_1_1SineGenerator.html" target="_top" xlink:title="Mixer::SineGenerator\&lt; T \&gt;">
<polygon fill="none" stroke="black" points="390,-304.5 390,-323.5 523,-323.5 523,-304.5 390,-304.5"/>
<text text-anchor="middle" x="456.5" y="-311.5" font-family="Helvetica,sans-Serif" font-size="10.00">Mixer::SineGenerator&lt; T &gt;</text>
</a>
</g>
</g>
<!-- Node46&#45;&gt;Node10 -->
<g id="edge5" class="edge"><title>Node46&#45;&gt;Node10</title>
<path fill="none" stroke="midnightblue" d="M304.522,-167.27C313.523,-170.267 322.088,-174.65 329,-181 368.128,-216.946 325.617,-259.333 365,-295 372.021,-301.358 380.612,-305.795 389.678,-308.858"/>
<polygon fill="midnightblue" stroke="midnightblue" points="305.212,-163.829 294.641,-164.533 303.344,-170.575 305.212,-163.829"/>
</g>
<!-- Node11 -->
<g id="node7" class="node"><title>Node11</title>
<g id="a_node7"><a xlink:href="classMixer_1_1SquareGenerator.html" target="_top" xlink:title="Mixer::SquareGenerator\&lt; T \&gt;">
<polygon fill="none" stroke="black" points="384.5,-266.5 384.5,-285.5 528.5,-285.5 528.5,-266.5 384.5,-266.5"/>
<text text-anchor="middle" x="456.5" y="-273.5" font-family="Helvetica,sans-Serif" font-size="10.00">Mixer::SquareGenerator&lt; T &gt;</text>
</a>
</g>
</g>
<!-- Node46&#45;&gt;Node11 -->
<g id="edge6" class="edge"><title>Node46&#45;&gt;Node11</title>
<path fill="none" stroke="midnightblue" d="M304.447,-168.31C313.305,-171.198 321.844,-175.274 329,-181 358.184,-204.35 335.65,-233.858 365,-257 370.799,-261.573 377.436,-265.115 384.423,-267.851"/>
<polygon fill="midnightblue" stroke="midnightblue" points="305.333,-164.924 294.761,-165.621 303.461,-171.669 305.333,-164.924"/>
</g>
<!-- Node12 -->
<g id="node8" class="node"><title>Node12</title>
<g id="a_node8"><a xlink:href="classMixer_1_1TriangleGenerator.html" target="_top" xlink:title="Mixer::TriangleGenerator\&lt; T \&gt;">
<polygon fill="none" stroke="black" points="382.5,-228.5 382.5,-247.5 530.5,-247.5 530.5,-228.5 382.5,-228.5"/>
<text text-anchor="middle" x="456.5" y="-235.5" font-family="Helvetica,sans-Serif" font-size="10.00">Mixer::TriangleGenerator&lt; T &gt;</text>
</a>
</g>
</g>
<!-- Node46&#45;&gt;Node12 -->
<g id="edge7" class="edge"><title>Node46&#45;&gt;Node12</title>
<path fill="none" stroke="midnightblue" d="M304.29,-170.766C312.897,-173.345 321.401,-176.682 329,-181 349.226,-192.495 344.692,-207.649 365,-219 372.007,-222.916 379.729,-226.028 387.62,-228.499"/>
<polygon fill="midnightblue" stroke="midnightblue" points="305.137,-167.37 294.572,-168.165 303.327,-174.132 305.137,-167.37"/>
</g>
<!-- Node37 -->
<g id="node9" class="node"><title>Node37</title>
<g id="a_node9"><a xlink:href="classMixer_1_1iPlayer.html" target="_top" xlink:title="Mixer::iPlayer">
<polygon fill="none" stroke="black" points="205,-76.5 205,-95.5 282,-95.5 282,-76.5 205,-76.5"/>
<text text-anchor="middle" x="243.5" y="-83.5" font-family="Helvetica,sans-Serif" font-size="10.00">Mixer::iPlayer</text>
</a>
</g>
</g>
<!-- Node37&#45;&gt;Node13 -->
<g id="edge8" class="edge"><title>Node37&#45;&gt;Node13</title>
<path fill="none" stroke="midnightblue" d="M292.197,-93.2336C325.568,-98.2946 370.1,-105.048 404.231,-110.225"/>
<polygon fill="midnightblue" stroke="midnightblue" points="292.634,-89.7601 282.223,-91.721 291.585,-96.6809 292.634,-89.7601"/>
</g>
<!-- Node0 -->
<g id="node10" class="node"><title>Node0</title>
<g id="a_node10"><a xlink:href="classDataFlow_1_1iSource.html" target="_top" xlink:title="DataFlow::iSource\&lt; T \&gt;">
<polygon fill="none" stroke="black" points="0,-196.5 0,-215.5 122,-215.5 122,-196.5 0,-196.5"/>
<text text-anchor="middle" x="61" y="-203.5" font-family="Helvetica,sans-Serif" font-size="10.00">DataFlow::iSource&lt; T &gt;</text>
</a>
</g>
</g>
<!-- Node0&#45;&gt;Node13 -->
<g id="edge21" class="edge"><title>Node0&#45;&gt;Node13</title>
<path fill="none" stroke="midnightblue" d="M80.5999,-189.679C98.9107,-174.664 128.364,-153.227 158,-143 240.803,-114.425 343.933,-112.683 404.465,-114.799"/>
<polygon fill="midnightblue" stroke="midnightblue" points="77.9473,-187.337 72.554,-196.456 82.4571,-192.691 77.9473,-187.337"/>
</g>
<!-- Node1 -->
<g id="node11" class="node"><title>Node1</title>
<g id="a_node11"><a xlink:href="classDataFlow_1_1Consolidator.html" target="_top" xlink:title="DataFlow::Consolidator\l\&lt; T, Consolidation::Accumulation \&gt;">
<polygon fill="none" stroke="black" points="158,-289 158,-319 329,-319 329,-289 158,-289"/>
<text text-anchor="start" x="166" y="-307" font-family="Helvetica,sans-Serif" font-size="10.00">DataFlow::Consolidator</text>
<text text-anchor="middle" x="243.5" y="-296" font-family="Helvetica,sans-Serif" font-size="10.00">&lt; T, Consolidation::Accumulation &gt;</text>
</a>
</g>
</g>
<!-- Node0&#45;&gt;Node1 -->
<g id="edge9" class="edge"><title>Node0&#45;&gt;Node1</title>
<path fill="none" stroke="midnightblue" d="M79.6199,-222.579C97.925,-238.997 128.035,-263.82 158,-279 165.506,-282.802 173.687,-286.125 181.907,-288.998"/>
<polygon fill="midnightblue" stroke="midnightblue" points="81.8262,-219.854 72.0831,-215.691 77.1041,-225.021 81.8262,-219.854"/>
</g>
<!-- Node2 -->
<g id="node12" class="node"><title>Node2</title>
<g id="a_node12"><a xlink:href="classDataFlow_1_1Applicator.html" target="_top" xlink:title="DataFlow::Applicator\l\&lt; T, K \&gt;">
<polygon fill="none" stroke="black" points="189.5,-240 189.5,-270 297.5,-270 297.5,-240 189.5,-240"/>
<text text-anchor="start" x="197.5" y="-258" font-family="Helvetica,sans-Serif" font-size="10.00">DataFlow::Applicator</text>
<text text-anchor="middle" x="243.5" y="-247" font-family="Helvetica,sans-Serif" font-size="10.00">&lt; T, K &gt;</text>
</a>
</g>
</g>
<!-- Node0&#45;&gt;Node2 -->
<g id="edge10" class="edge"><title>Node0&#45;&gt;Node2</title>
<path fill="none" stroke="midnightblue" d="M107.144,-218.255C132.05,-225.016 163.124,-233.452 189.215,-240.535"/>
<polygon fill="midnightblue" stroke="midnightblue" points="107.798,-214.806 97.2307,-215.564 105.964,-221.562 107.798,-214.806"/>
</g>
<!-- Node3 -->
<g id="node13" class="node"><title>Node3</title>
<g id="a_node13"><a xlink:href="classDataFlow_1_1Consolidator.html" target="_top" xlink:title="DataFlow::Consolidator\l\&lt; T, K \&gt;">
<polygon fill="none" stroke="black" points="184,-191 184,-221 303,-221 303,-191 184,-191"/>
<text text-anchor="start" x="192" y="-209" font-family="Helvetica,sans-Serif" font-size="10.00">DataFlow::Consolidator</text>
<text text-anchor="middle" x="243.5" y="-198" font-family="Helvetica,sans-Serif" font-size="10.00">&lt; T, K &gt;</text>
</a>
</g>
</g>
<!-- Node0&#45;&gt;Node3 -->
<g id="edge11" class="edge"><title>Node0&#45;&gt;Node3</title>
<path fill="none" stroke="midnightblue" d="M132.535,-206C149.529,-206 167.503,-206 183.885,-206"/>
<polygon fill="midnightblue" stroke="midnightblue" points="132.104,-202.5 122.104,-206 132.104,-209.5 132.104,-202.5"/>
</g>
<!-- Node4 -->
<g id="node14" class="node"><title>Node4</title>
<g id="a_node14"><a xlink:href="classDataFlow_1_1iBuffer.html" target="_top" xlink:title="DataFlow::iBuffer\&lt; T \&gt;">
<polygon fill="none" stroke="black" points="185,-38.5 185,-57.5 302,-57.5 302,-38.5 185,-38.5"/>
<text text-anchor="middle" x="243.5" y="-45.5" font-family="Helvetica,sans-Serif" font-size="10.00">DataFlow::iBuffer&lt; T &gt;</text>
</a>
</g>
</g>
<!-- Node0&#45;&gt;Node4 -->
<g id="edge12" class="edge"><title>Node0&#45;&gt;Node4</title>
<path fill="none" stroke="midnightblue" d="M69.6437,-186.943C82.8668,-156.536 112.989,-97.3838 158,-67 165.976,-61.6158 175.245,-57.7362 184.663,-54.9455"/>
<polygon fill="midnightblue" stroke="midnightblue" points="66.3152,-185.83 65.6745,-196.405 72.7703,-188.538 66.3152,-185.83"/>
</g>
<!-- Node6 -->
<g id="node16" class="node"><title>Node6</title>
<g id="a_node16"><a xlink:href="classMixer_1_1iWaveformGenerator.html" target="_top" xlink:title="Mixer::iWaveformGenerator\&lt; T \&gt;">
<polygon fill="none" stroke="black" points="163,-338.5 163,-357.5 324,-357.5 324,-338.5 163,-338.5"/>
<text text-anchor="middle" x="243.5" y="-345.5" font-family="Helvetica,sans-Serif" font-size="10.00">Mixer::iWaveformGenerator&lt; T &gt;</text>
</a>
</g>
</g>
<!-- Node0&#45;&gt;Node6 -->
<g id="edge14" class="edge"><title>Node0&#45;&gt;Node6</title>
<path fill="none" stroke="midnightblue" d="M71.3535,-224.61C85.9884,-251.743 116.93,-301.776 158,-328 164.861,-332.381 172.588,-335.804 180.509,-338.477"/>
<polygon fill="midnightblue" stroke="midnightblue" points="74.4479,-222.974 66.7109,-215.736 68.2455,-226.219 74.4479,-222.974"/>
</g>
<!-- Node14 -->
<g id="node17" class="node"><title>Node14</title>
<g id="a_node17"><a xlink:href="classOggFileLoader.html" target="_top" xlink:title="OggFileLoader\&lt; T, K \&gt;">
<polygon fill="none" stroke="black" points="185.5,-0.5 185.5,-19.5 301.5,-19.5 301.5,-0.5 185.5,-0.5"/>
<text text-anchor="middle" x="243.5" y="-7.5" font-family="Helvetica,sans-Serif" font-size="10.00">OggFileLoader&lt; T, K &gt;</text>
</a>
</g>
</g>
<!-- Node0&#45;&gt;Node14 -->
<g id="edge22" class="edge"><title>Node0&#45;&gt;Node14</title>
<path fill="none" stroke="midnightblue" d="M66.7984,-186.529C76.9412,-149.659 104.179,-69.7035 158,-29 166.035,-22.9232 175.653,-18.7258 185.473,-15.8402"/>
<polygon fill="midnightblue" stroke="midnightblue" points="63.3355,-185.937 64.1889,-196.498 70.1073,-187.71 63.3355,-185.937"/>
</g>
<!-- Node5 -->
<g id="node15" class="node"><title>Node5</title>
<g id="a_node15"><a xlink:href="classQueueBuffer.html" target="_top" xlink:title="QueueBuffer\&lt; T \&gt;">
<polygon fill="none" stroke="black" points="409,-38.5 409,-57.5 504,-57.5 504,-38.5 409,-38.5"/>
<text text-anchor="middle" x="456.5" y="-45.5" font-family="Helvetica,sans-Serif" font-size="10.00">QueueBuffer&lt; T &gt;</text>
</a>
</g>
</g>
<!-- Node4&#45;&gt;Node5 -->
<g id="edge13" class="edge"><title>Node4&#45;&gt;Node5</title>
<path fill="none" stroke="midnightblue" d="M312.204,-48C343.767,-48 380.531,-48 408.918,-48"/>
<polygon fill="midnightblue" stroke="midnightblue" points="312.157,-44.5001 302.157,-48 312.157,-51.5001 312.157,-44.5001"/>
</g>
<!-- Node6&#45;&gt;Node7 -->
<g id="edge15" class="edge"><title>Node6&#45;&gt;Node7</title>
<path fill="none" stroke="midnightblue" d="M321.986,-333.464C324.462,-331.822 326.812,-330.006 329,-328 366.603,-293.52 326.961,-252.999 365,-219 369.19,-215.255 373.925,-212.18 378.979,-209.66"/>
<polygon fill="midnightblue" stroke="midnightblue" points="320.161,-330.475 313.14,-338.409 323.576,-336.585 320.161,-330.475"/>
</g>
<!-- Node6&#45;&gt;Node8 -->
<g id="edge16" class="edge"><title>Node6&#45;&gt;Node8</title>
<path fill="none" stroke="midnightblue" d="M322.993,-333.106C325.116,-331.556 327.127,-329.858 329,-328 376.747,-280.622 316.653,-227.766 365,-181 368.923,-177.205 373.401,-174.083 378.216,-171.522"/>
<polygon fill="midnightblue" stroke="midnightblue" points="321.04,-330.198 314.314,-338.384 324.677,-336.179 321.04,-330.198"/>
</g>
<!-- Node6&#45;&gt;Node9 -->
<g id="edge17" class="edge"><title>Node6&#45;&gt;Node9</title>
<path fill="none" stroke="midnightblue" d="M334.41,-349.704C349.173,-349.984 364.352,-350.272 378.758,-350.545"/>
<polygon fill="midnightblue" stroke="midnightblue" points="334.335,-346.202 324.27,-349.512 334.202,-353.201 334.335,-346.202"/>
</g>
<!-- Node6&#45;&gt;Node10 -->
<g id="edge18" class="edge"><title>Node6&#45;&gt;Node10</title>
<path fill="none" stroke="midnightblue" d="M313.625,-336.861C340.398,-332.547 370.731,-327.659 396.458,-323.514"/>
<polygon fill="midnightblue" stroke="midnightblue" points="312.872,-333.438 303.556,-338.484 313.985,-340.348 312.872,-333.438"/>
</g>
<!-- Node6&#45;&gt;Node11 -->
<g id="edge19" class="edge"><title>Node6&#45;&gt;Node11</title>
<path fill="none" stroke="midnightblue" d="M312.199,-335.297C318.025,-333.218 323.709,-330.803 329,-328 348.18,-317.839 345.692,-304.916 365,-295 372.569,-291.113 380.883,-288.021 389.309,-285.561"/>
<polygon fill="midnightblue" stroke="midnightblue" points="310.745,-332.089 302.302,-338.489 312.894,-338.751 310.745,-332.089"/>
</g>
<!-- Node6&#45;&gt;Node12 -->
<g id="edge20" class="edge"><title>Node6&#45;&gt;Node12</title>
<path fill="none" stroke="midnightblue" d="M320.019,-333.946C323.176,-332.186 326.191,-330.212 329,-328 356.798,-306.114 336.925,-278.531 365,-257 370.223,-252.994 376.095,-249.784 382.273,-247.218"/>
<polygon fill="midnightblue" stroke="midnightblue" points="318.302,-330.888 310.796,-338.365 321.327,-337.201 318.302,-330.888"/>
</g>
</g>
</svg>
