<?xml version="1.0" encoding="UTF-8" standalone="no"?>
<!DOCTYPE svg PUBLIC "-//W3C//DTD SVG 1.1//EN"
 "http://www.w3.org/Graphics/SVG/1.1/DTD/svg11.dtd">
<!-- Generated by graphviz version 2.38.0 (20140413.2041)
 -->
<!-- Title: Graphical Class Hierarchy Pages: 1 -->
<svg width="556pt" height="492pt"
 viewBox="0.00 0.00 556.00 491.50" xmlns="http://www.w3.org/2000/svg" xmlns:xlink="http://www.w3.org/1999/xlink">
<g id="graph0" class="graph" transform="scale(1 1) rotate(0) translate(4 487.5)">
<title>Graphical Class Hierarchy</title>
<!-- Node47 -->
<g id="node1" class="node"><title>Node47</title>
<g id="a_node1"><a xlink:href="classMixer_1_1AudioSource.html" target="_top" xlink:title="Mixer::AudioSource">
<polygon fill="none" stroke="black" points="192.5,-266 192.5,-285 294.5,-285 294.5,-266 192.5,-266"/>
<text text-anchor="middle" x="243.5" y="-273" font-family="Helvetica,sans-Serif" font-size="10.00">Mixer::AudioSource</text>
</a>
</g>
</g>
<!-- Node7 -->
<g id="node2" class="node"><title>Node7</title>
<g id="a_node2"><a xlink:href="classMixer_1_1CheapSawtoothGenerator.html" target="_top" xlink:title="Mixer::CheapSawtoothGenerator\&lt; T \&gt;">
<polygon fill="none" stroke="black" points="365,-274 365,-293 548,-293 548,-274 365,-274"/>
<text text-anchor="middle" x="456.5" y="-281" font-family="Helvetica,sans-Serif" font-size="10.00">Mixer::CheapSawtoothGenerator&lt; T &gt;</text>
</a>
</g>
</g>
<!-- Node47&#45;&gt;Node7 -->
<g id="edge1" class="edge"><title>Node47&#45;&gt;Node7</title>
<path fill="none" stroke="midnightblue" d="M304.67,-277.781C323.441,-278.493 344.577,-279.294 364.953,-280.067"/>
<polygon fill="midnightblue" stroke="midnightblue" points="304.63,-274.277 294.504,-277.396 304.364,-281.272 304.63,-274.277"/>
</g>
<!-- Node8 -->
<g id="node3" class="node"><title>Node8</title>
<g id="a_node3"><a xlink:href="classMixer_1_1CheapSquareGenerator.html" target="_top" xlink:title="Mixer::CheapSquareGenerator\&lt; T \&gt;">
<polygon fill="none" stroke="black" points="370,-236 370,-255 543,-255 543,-236 370,-236"/>
<text text-anchor="middle" x="456.5" y="-243" font-family="Helvetica,sans-Serif" font-size="10.00">Mixer::CheapSquareGenerator&lt; T &gt;</text>
</a>
</g>
</g>
<!-- Node47&#45;&gt;Node8 -->
<g id="edge2" class="edge"><title>Node47&#45;&gt;Node8</title>
<path fill="none" stroke="midnightblue" d="M304.639,-266.949C330.748,-263.237 361.434,-258.874 388.29,-255.056"/>
<polygon fill="midnightblue" stroke="midnightblue" points="303.912,-263.518 294.504,-268.39 304.897,-270.448 303.912,-263.518"/>
</g>
<!-- Node9 -->
<g id="node4" class="node"><title>Node9</title>
<g id="a_node4"><a xlink:href="classMixer_1_1SawtoothGenerator.html" target="_top" xlink:title="Mixer::SawtoothGenerator\&lt; T \&gt;">
<polygon fill="none" stroke="black" points="379,-426 379,-445 534,-445 534,-426 379,-426"/>
<text text-anchor="middle" x="456.5" y="-433" font-family="Helvetica,sans-Serif" font-size="10.00">Mixer::SawtoothGenerator&lt; T &gt;</text>
</a>
</g>
</g>
<!-- Node47&#45;&gt;Node9 -->
<g id="edge3" class="edge"><title>Node47&#45;&gt;Node9</title>
<path fill="none" stroke="midnightblue" d="M304.625,-280.658C313.614,-283.669 322.148,-288.085 329,-294.5 370.268,-333.139 323.458,-378.155 365,-416.5 369.129,-420.311 373.821,-423.435 378.844,-425.989"/>
<polygon fill="midnightblue" stroke="midnightblue" points="305.323,-277.219 294.751,-277.914 303.449,-283.964 305.323,-277.219"/>
</g>
<!-- Node13 -->
<g id="node5" class="node"><title>Node13</title>
<g id="a_node5"><a xlink:href="classMixer_1_1SimpleNote.html" target="_top" xlink:title="Mixer::SimpleNote\&lt;\l T, A, D \&gt;">
<polygon fill="none" stroke="black" points="404.5,-186.5 404.5,-216.5 508.5,-216.5 508.5,-186.5 404.5,-186.5"/>
<text text-anchor="start" x="412.5" y="-204.5" font-family="Helvetica,sans-Serif" font-size="10.00">Mixer::SimpleNote&lt;</text>
<text text-anchor="middle" x="456.5" y="-193.5" font-family="Helvetica,sans-Serif" font-size="10.00"> T, A, D &gt;</text>
</a>
</g>
</g>
<!-- Node47&#45;&gt;Node13 -->
<g id="edge4" class="edge"><title>Node47&#45;&gt;Node13</title>
<path fill="none" stroke="midnightblue" d="M288.652,-262.788C301.849,-258.479 316.204,-253.276 329,-247.5 345.883,-239.879 347.93,-233.693 365,-226.5 377.468,-221.246 391.364,-216.772 404.452,-213.123"/>
<polygon fill="midnightblue" stroke="midnightblue" points="287.305,-259.543 278.832,-265.903 289.422,-266.215 287.305,-259.543"/>
</g>
<!-- Node14 -->
<g id="node6" class="node"><title>Node14</title>
<g id="a_node6"><a xlink:href="classMixer_1_1SimplePlayer.html" target="_top" xlink:title="Mixer::SimplePlayer\l\&lt; T, K \&gt;">
<polygon fill="none" stroke="black" points="404.5,-137.5 404.5,-167.5 508.5,-167.5 508.5,-137.5 404.5,-137.5"/>
<text text-anchor="start" x="412.5" y="-155.5" font-family="Helvetica,sans-Serif" font-size="10.00">Mixer::SimplePlayer</text>
<text text-anchor="middle" x="456.5" y="-144.5" font-family="Helvetica,sans-Serif" font-size="10.00">&lt; T, K &gt;</text>
</a>
</g>
</g>
<!-- Node47&#45;&gt;Node14 -->
<g id="edge5" class="edge"><title>Node47&#45;&gt;Node14</title>
<path fill="none" stroke="midnightblue" d="M267.887,-260.235C285.323,-248.475 309.407,-231.415 329,-214.5 346.367,-199.506 345.254,-189.184 365,-177.5 376.924,-170.444 390.907,-165.318 404.267,-161.617"/>
<polygon fill="midnightblue" stroke="midnightblue" points="265.811,-257.413 259.434,-265.873 269.695,-263.236 265.811,-257.413"/>
</g>
<!-- Node10 -->
<g id="node7" class="node"><title>Node10</title>
<g id="a_node7"><a xlink:href="classMixer_1_1SineGenerator.html" target="_top" xlink:title="Mixer::SineGenerator\&lt; T \&gt;">
<polygon fill="none" stroke="black" points="390,-388 390,-407 523,-407 523,-388 390,-388"/>
<text text-anchor="middle" x="456.5" y="-395" font-family="Helvetica,sans-Serif" font-size="10.00">Mixer::SineGenerator&lt; T &gt;</text>
</a>
</g>
</g>
<!-- Node47&#45;&gt;Node10 -->
<g id="edge6" class="edge"><title>Node47&#45;&gt;Node10</title>
<path fill="none" stroke="midnightblue" d="M304.317,-281.473C313.265,-284.395 321.867,-288.57 329,-294.5 360.234,-320.465 333.582,-352.758 365,-378.5 372.203,-384.401 380.787,-388.604 389.757,-391.575"/>
<polygon fill="midnightblue" stroke="midnightblue" points="305.094,-278.057 294.524,-278.771 303.232,-284.805 305.094,-278.057"/>
</g>
<!-- Node11 -->
<g id="node8" class="node"><title>Node11</title>
<g id="a_node8"><a xlink:href="classMixer_1_1SquareGenerator.html" target="_top" xlink:title="Mixer::SquareGenerator\&lt; T \&gt;">
<polygon fill="none" stroke="black" points="384.5,-350 384.5,-369 528.5,-369 528.5,-350 384.5,-350"/>
<text text-anchor="middle" x="456.5" y="-357" font-family="Helvetica,sans-Serif" font-size="10.00">Mixer::SquareGenerator&lt; T &gt;</text>
</a>
</g>
</g>
<!-- Node47&#45;&gt;Node11 -->
<g id="edge7" class="edge"><title>Node47&#45;&gt;Node11</title>
<path fill="none" stroke="midnightblue" d="M304.35,-283.533C313.015,-286.21 321.521,-289.77 329,-294.5 350.941,-308.377 342.961,-326.779 365,-340.5 371.269,-344.403 378.208,-347.517 385.372,-349.999"/>
<polygon fill="midnightblue" stroke="midnightblue" points="305.112,-280.114 294.544,-280.87 303.277,-286.869 305.112,-280.114"/>
</g>
<!-- Node12 -->
<g id="node9" class="node"><title>Node12</title>
<g id="a_node9"><a xlink:href="classMixer_1_1TriangleGenerator.html" target="_top" xlink:title="Mixer::TriangleGenerator\&lt; T \&gt;">
<polygon fill="none" stroke="black" points="382.5,-312 382.5,-331 530.5,-331 530.5,-312 382.5,-312"/>
<text text-anchor="middle" x="456.5" y="-319" font-family="Helvetica,sans-Serif" font-size="10.00">Mixer::TriangleGenerator&lt; T &gt;</text>
</a>
</g>
</g>
<!-- Node47&#45;&gt;Node12 -->
<g id="edge8" class="edge"><title>Node47&#45;&gt;Node12</title>
<path fill="none" stroke="midnightblue" d="M296.716,-287.234C326.014,-293.812 358.059,-300.994 365,-302.5 379.434,-305.632 395.182,-308.967 409.435,-311.954"/>
<polygon fill="midnightblue" stroke="midnightblue" points="297.449,-283.812 286.925,-285.035 295.915,-290.642 297.449,-283.812"/>
</g>
<!-- Node38 -->
<g id="node10" class="node"><title>Node38</title>
<g id="a_node10"><a xlink:href="classMixer_1_1iPlayer.html" target="_top" xlink:title="Mixer::iPlayer">
<polygon fill="none" stroke="black" points="205,-186 205,-205 282,-205 282,-186 205,-186"/>
<text text-anchor="middle" x="243.5" y="-193" font-family="Helvetica,sans-Serif" font-size="10.00">Mixer::iPlayer</text>
</a>
</g>
</g>
<!-- Node38&#45;&gt;Node14 -->
<g id="edge9" class="edge"><title>Node38&#45;&gt;Node14</title>
<path fill="none" stroke="midnightblue" d="M292.197,-185.78C325.568,-178.979 370.1,-169.904 404.231,-162.948"/>
<polygon fill="midnightblue" stroke="midnightblue" points="291.322,-182.386 282.223,-187.812 292.72,-189.245 291.322,-182.386"/>
</g>
<!-- Node0 -->
<g id="node11" class="node"><title>Node0</title>
<g id="a_node11"><a xlink:href="classDataFlow_1_1iSource.html" target="_top" xlink:title="DataFlow::iSource\&lt; T \&gt;">
<polygon fill="none" stroke="black" points="0,-186 0,-205 122,-205 122,-186 0,-186"/>
<text text-anchor="middle" x="61" y="-193" font-family="Helvetica,sans-Serif" font-size="10.00">DataFlow::iSource&lt; T &gt;</text>
</a>
</g>
</g>
<!-- Node0&#45;&gt;Node13 -->
<g id="edge22" class="edge"><title>Node0&#45;&gt;Node13</title>
<path fill="none" stroke="midnightblue" d="M111.056,-207.125C126.035,-210.155 142.613,-212.992 158,-214.5 244.182,-222.947 344.948,-214.775 404.318,-208.115"/>
<polygon fill="midnightblue" stroke="midnightblue" points="111.482,-203.638 100.977,-205.01 110.045,-210.489 111.482,-203.638"/>
</g>
<!-- Node0&#45;&gt;Node14 -->
<g id="edge23" class="edge"><title>Node0&#45;&gt;Node14</title>
<path fill="none" stroke="midnightblue" d="M114.788,-183.921C128.782,-181.162 143.917,-178.455 158,-176.5 243.969,-164.565 344.801,-157.974 404.242,-154.843"/>
<polygon fill="midnightblue" stroke="midnightblue" points="113.942,-180.521 104.832,-185.929 115.326,-187.383 113.942,-180.521"/>
</g>
<!-- Node1 -->
<g id="node12" class="node"><title>Node1</title>
<g id="a_node12"><a xlink:href="classDataFlow_1_1Consolidator.html" target="_top" xlink:title="DataFlow::Consolidator\l\&lt; T, Consolidation::Accumulation \&gt;">
<polygon fill="none" stroke="black" points="158,-98.5 158,-128.5 329,-128.5 329,-98.5 158,-98.5"/>
<text text-anchor="start" x="166" y="-116.5" font-family="Helvetica,sans-Serif" font-size="10.00">DataFlow::Consolidator</text>
<text text-anchor="middle" x="243.5" y="-105.5" font-family="Helvetica,sans-Serif" font-size="10.00">&lt; T, Consolidation::Accumulation &gt;</text>
</a>
</g>
</g>
<!-- Node0&#45;&gt;Node1 -->
<g id="edge10" class="edge"><title>Node0&#45;&gt;Node1</title>
<path fill="none" stroke="midnightblue" d="M86.5793,-180.809C105.664,-169.744 132.999,-154.628 158,-143.5 170.089,-138.119 183.465,-133.004 195.942,-128.572"/>
<polygon fill="midnightblue" stroke="midnightblue" points="84.7797,-177.807 77.9195,-185.881 88.3174,-183.848 84.7797,-177.807"/>
</g>
<!-- Node2 -->
<g id="node13" class="node"><title>Node2</title>
<g id="a_node13"><a xlink:href="classDataFlow_1_1Applicator.html" target="_top" xlink:title="DataFlow::Applicator\l\&lt; T, K \&gt;">
<polygon fill="none" stroke="black" points="189.5,-49.5 189.5,-79.5 297.5,-79.5 297.5,-49.5 189.5,-49.5"/>
<text text-anchor="start" x="197.5" y="-67.5" font-family="Helvetica,sans-Serif" font-size="10.00">DataFlow::Applicator</text>
<text text-anchor="middle" x="243.5" y="-56.5" font-family="Helvetica,sans-Serif" font-size="10.00">&lt; T, K &gt;</text>
</a>
</g>
</g>
<!-- Node0&#45;&gt;Node2 -->
<g id="edge11" class="edge"><title>Node0&#45;&gt;Node2</title>
<path fill="none" stroke="midnightblue" d="M73.4374,-177.368C89.4526,-153.461 120.809,-111.72 158,-88.5 167.443,-82.604 178.372,-78.1191 189.171,-74.7198"/>
<polygon fill="midnightblue" stroke="midnightblue" points="70.429,-175.573 67.8929,-185.86 76.2904,-179.4 70.429,-175.573"/>
</g>
<!-- Node3 -->
<g id="node14" class="node"><title>Node3</title>
<g id="a_node14"><a xlink:href="classDataFlow_1_1Consolidator.html" target="_top" xlink:title="DataFlow::Consolidator\l\&lt; T, K \&gt;">
<polygon fill="none" stroke="black" points="184,-0.5 184,-30.5 303,-30.5 303,-0.5 184,-0.5"/>
<text text-anchor="start" x="192" y="-18.5" font-family="Helvetica,sans-Serif" font-size="10.00">DataFlow::Consolidator</text>
<text text-anchor="middle" x="243.5" y="-7.5" font-family="Helvetica,sans-Serif" font-size="10.00">&lt; T, K &gt;</text>
</a>
</g>
</g>
<!-- Node0&#45;&gt;Node3 -->
<g id="edge12" class="edge"><title>Node0&#45;&gt;Node3</title>
<path fill="none" stroke="midnightblue" d="M68.5169,-176.276C80.7181,-143.223 110.182,-75.6963 158,-39.5 165.661,-33.7013 174.668,-29.3032 183.896,-25.9674"/>
<polygon fill="midnightblue" stroke="midnightblue" points="65.2141,-175.118 65.1607,-185.712 71.8094,-177.463 65.2141,-175.118"/>
</g>
<!-- Node4 -->
<g id="node15" class="node"><title>Node4</title>
<g id="a_node15"><a xlink:href="classDataFlow_1_1iBuffer.html" target="_top" xlink:title="DataFlow::iBuffer\&lt; T \&gt;">
<polygon fill="none" stroke="black" points="185,-422 185,-441 302,-441 302,-422 185,-422"/>
<text text-anchor="middle" x="243.5" y="-429" font-family="Helvetica,sans-Serif" font-size="10.00">DataFlow::iBuffer&lt; T &gt;</text>
</a>
</g>
</g>
<!-- Node0&#45;&gt;Node4 -->
<g id="edge13" class="edge"><title>Node0&#45;&gt;Node4</title>
<path fill="none" stroke="midnightblue" d="M69.2682,-214.833C82.8107,-249.048 114.522,-321.29 158,-370.5 177.527,-392.601 206.445,-411.288 224.878,-421.948"/>
<polygon fill="midnightblue" stroke="midnightblue" points="72.3899,-213.202 65.5178,-205.138 65.8613,-215.727 72.3899,-213.202"/>
</g>
<!-- Node6 -->
<g id="node17" class="node"><title>Node6</title>
<g id="a_node17"><a xlink:href="classMixer_1_1iWaveformGenerator.html" target="_top" xlink:title="Mixer::iWaveformGenerator\&lt; T \&gt;">
<polygon fill="none" stroke="black" points="163,-342 163,-361 324,-361 324,-342 163,-342"/>
<text text-anchor="middle" x="243.5" y="-349" font-family="Helvetica,sans-Serif" font-size="10.00">Mixer::iWaveformGenerator&lt; T &gt;</text>
</a>
</g>
</g>
<!-- Node0&#45;&gt;Node6 -->
<g id="edge15" class="edge"><title>Node0&#45;&gt;Node6</title>
<path fill="none" stroke="midnightblue" d="M69.9151,-214.721C83.3453,-244.821 113.541,-302.708 158,-332.5 163.746,-336.35 170.155,-339.43 176.804,-341.893"/>
<polygon fill="midnightblue" stroke="midnightblue" points="73.0385,-213.125 65.868,-205.325 66.6095,-215.894 73.0385,-213.125"/>
</g>
<!-- Node15 -->
<g id="node18" class="node"><title>Node15</title>
<g id="a_node18"><a xlink:href="classOggFileLoader.html" target="_top" xlink:title="OggFileLoader\&lt; T, K \&gt;">
<polygon fill="none" stroke="black" points="185.5,-304 185.5,-323 301.5,-323 301.5,-304 185.5,-304"/>
<text text-anchor="middle" x="243.5" y="-311" font-family="Helvetica,sans-Serif" font-size="10.00">OggFileLoader&lt; T, K &gt;</text>
</a>
</g>
</g>
<!-- Node0&#45;&gt;Node15 -->
<g id="edge24" class="edge"><title>Node0&#45;&gt;Node15</title>
<path fill="none" stroke="midnightblue" d="M74.2962,-213.528C90.6799,-236.091 121.842,-274.228 158,-294.5 166.394,-299.206 175.872,-302.747 185.368,-305.41"/>
<polygon fill="midnightblue" stroke="midnightblue" points="77.0223,-211.321 68.3914,-205.176 71.3066,-215.362 77.0223,-211.321"/>
</g>
<!-- Node5 -->
<g id="node16" class="node"><title>Node5</title>
<g id="a_node16"><a xlink:href="classQueueBuffer.html" target="_top" xlink:title="QueueBuffer\&lt; T \&gt;">
<polygon fill="none" stroke="black" points="409,-464 409,-483 504,-483 504,-464 409,-464"/>
<text text-anchor="middle" x="456.5" y="-471" font-family="Helvetica,sans-Serif" font-size="10.00">QueueBuffer&lt; T &gt;</text>
</a>
</g>
</g>
<!-- Node4&#45;&gt;Node5 -->
<g id="edge14" class="edge"><title>Node4&#45;&gt;Node5</title>
<path fill="none" stroke="midnightblue" d="M302.493,-443.044C335.984,-449.71 377.548,-457.983 408.899,-464.224"/>
<polygon fill="midnightblue" stroke="midnightblue" points="302.87,-439.55 292.379,-441.03 301.503,-446.415 302.87,-439.55"/>
</g>
<!-- Node6&#45;&gt;Node7 -->
<g id="edge16" class="edge"><title>Node6&#45;&gt;Node7</title>
<path fill="none" stroke="midnightblue" d="M313.589,-338.862C318.912,-337.018 324.111,-334.91 329,-332.5 347.681,-323.292 346.254,-311.575 365,-302.5 372.948,-298.653 381.658,-295.581 390.435,-293.13"/>
<polygon fill="midnightblue" stroke="midnightblue" points="312.405,-335.566 303.915,-341.904 314.504,-342.243 312.405,-335.566"/>
</g>
<!-- Node6&#45;&gt;Node8 -->
<g id="edge17" class="edge"><title>Node6&#45;&gt;Node8</title>
<path fill="none" stroke="midnightblue" d="M321.565,-337.415C324.158,-335.931 326.648,-334.297 329,-332.5 356.171,-311.736 337.682,-285.07 365,-264.5 370.13,-260.637 375.866,-257.518 381.894,-255.003"/>
<polygon fill="midnightblue" stroke="midnightblue" points="319.843,-334.361 312.404,-341.905 322.924,-340.647 319.843,-334.361"/>
</g>
<!-- Node6&#45;&gt;Node9 -->
<g id="edge18" class="edge"><title>Node6&#45;&gt;Node9</title>
<path fill="none" stroke="midnightblue" d="M267.653,-366.611C291.244,-381.365 329.332,-403.447 365,-416.5 375.403,-420.307 386.772,-423.442 397.832,-425.991"/>
<polygon fill="midnightblue" stroke="midnightblue" points="269.383,-363.564 259.064,-361.161 265.633,-369.474 269.383,-363.564"/>
</g>
<!-- Node6&#45;&gt;Node10 -->
<g id="edge19" class="edge"><title>Node6&#45;&gt;Node10</title>
<path fill="none" stroke="midnightblue" d="M296.121,-363.227C317.432,-368.027 342.391,-373.594 365,-378.5 379.434,-381.632 395.182,-384.967 409.435,-387.954"/>
<polygon fill="midnightblue" stroke="midnightblue" points="296.82,-359.797 286.294,-361.01 295.279,-366.625 296.82,-359.797"/>
</g>
<!-- Node6&#45;&gt;Node11 -->
<g id="edge20" class="edge"><title>Node6&#45;&gt;Node11</title>
<path fill="none" stroke="midnightblue" d="M334.538,-354.914C351.161,-355.544 368.308,-356.194 384.279,-356.8"/>
<polygon fill="midnightblue" stroke="midnightblue" points="334.396,-351.406 324.27,-354.524 334.13,-358.401 334.396,-351.406"/>
</g>
<!-- Node6&#45;&gt;Node12 -->
<g id="edge21" class="edge"><title>Node6&#45;&gt;Node12</title>
<path fill="none" stroke="midnightblue" d="M321.516,-340.55C343.51,-337.423 367.289,-334.042 388.623,-331.009"/>
<polygon fill="midnightblue" stroke="midnightblue" points="320.959,-337.094 311.552,-341.967 321.945,-344.024 320.959,-337.094"/>
</g>
</g>
</svg>
