<?xml version="1.0" encoding="UTF-8" standalone="no"?>
<!DOCTYPE svg PUBLIC "-//W3C//DTD SVG 1.1//EN"
 "http://www.w3.org/Graphics/SVG/1.1/DTD/svg11.dtd">
<!-- Generated by graphviz version 2.38.0 (20140413.2041)
 -->
<!-- Title: Graphical Class Hierarchy Pages: 1 -->
<svg width="281pt" height="617pt"
 viewBox="0.00 0.00 281.00 616.50" xmlns="http://www.w3.org/2000/svg" xmlns:xlink="http://www.w3.org/1999/xlink">
<g id="graph0" class="graph" transform="scale(1 1) rotate(0) translate(4 612.5)">
<title>Graphical Class Hierarchy</title>
<!-- Node0 -->
<g id="node1" class="node"><title>Node0</title>
<g id="a_node1"><a xlink:href="classTransitionFunction.html" target="_top" xlink:title="TransitionFunction\&lt; T \&gt;">
<polygon fill="none" stroke="black" points="0,-289.5 0,-308.5 121,-308.5 121,-289.5 0,-289.5"/>
<text text-anchor="middle" x="60.5" y="-296.5" font-family="Helvetica,sans-Serif" font-size="10.00">TransitionFunction&lt; T &gt;</text>
</a>
</g>
</g>
<!-- Node1 -->
<g id="node2" class="node"><title>Node1</title>
<g id="a_node2"><a xlink:href="classTransition_1_1EaseIn_1_1Cubic.html" target="_top" xlink:title="Transition::EaseIn\l::Cubic\&lt; T \&gt;">
<polygon fill="none" stroke="black" points="167,-578 167,-608 263,-608 263,-578 167,-578"/>
<text text-anchor="start" x="175" y="-596" font-family="Helvetica,sans-Serif" font-size="10.00">Transition::EaseIn</text>
<text text-anchor="middle" x="215" y="-585" font-family="Helvetica,sans-Serif" font-size="10.00">::Cubic&lt; T &gt;</text>
</a>
</g>
</g>
<!-- Node0&#45;&gt;Node1 -->
<g id="edge1" class="edge"><title>Node0&#45;&gt;Node1</title>
<path fill="none" stroke="midnightblue" d="M63.0963,-318.664C68.0593,-367.401 87.3621,-495.16 157,-569 160.241,-572.437 164.052,-575.402 168.142,-577.954"/>
<polygon fill="midnightblue" stroke="midnightblue" points="66.5657,-318.171 62.1606,-308.535 59.5953,-318.815 66.5657,-318.171"/>
</g>
<!-- Node2 -->
<g id="node3" class="node"><title>Node2</title>
<g id="a_node3"><a xlink:href="classTransition_1_1EaseIn_1_1Quadratic.html" target="_top" xlink:title="Transition::EaseIn\l::Quadratic\&lt; T \&gt;">
<polygon fill="none" stroke="black" points="167,-529 167,-559 263,-559 263,-529 167,-529"/>
<text text-anchor="start" x="175" y="-547" font-family="Helvetica,sans-Serif" font-size="10.00">Transition::EaseIn</text>
<text text-anchor="middle" x="215" y="-536" font-family="Helvetica,sans-Serif" font-size="10.00">::Quadratic&lt; T &gt;</text>
</a>
</g>
</g>
<!-- Node0&#45;&gt;Node2 -->
<g id="edge2" class="edge"><title>Node0&#45;&gt;Node2</title>
<path fill="none" stroke="midnightblue" d="M64.8961,-318.742C73.1602,-361.12 98.124,-461.673 157,-520 160.433,-523.401 164.42,-526.347 168.66,-528.894"/>
<polygon fill="midnightblue" stroke="midnightblue" points="68.3266,-318.045 63.0685,-308.847 61.443,-319.316 68.3266,-318.045"/>
</g>
<!-- Node3 -->
<g id="node4" class="node"><title>Node3</title>
<g id="a_node4"><a xlink:href="classTransition_1_1EaseIn_1_1Quartic.html" target="_top" xlink:title="Transition::EaseIn\l::Quartic\&lt; T \&gt;">
<polygon fill="none" stroke="black" points="167,-480 167,-510 263,-510 263,-480 167,-480"/>
<text text-anchor="start" x="175" y="-498" font-family="Helvetica,sans-Serif" font-size="10.00">Transition::EaseIn</text>
<text text-anchor="middle" x="215" y="-487" font-family="Helvetica,sans-Serif" font-size="10.00">::Quartic&lt; T &gt;</text>
</a>
</g>
</g>
<!-- Node0&#45;&gt;Node3 -->
<g id="edge3" class="edge"><title>Node0&#45;&gt;Node3</title>
<path fill="none" stroke="midnightblue" d="M67.5643,-318.543C79.3663,-353.604 108.595,-427.574 157,-471 160.756,-474.37 165.055,-477.312 169.569,-479.868"/>
<polygon fill="midnightblue" stroke="midnightblue" points="70.7583,-317.046 64.3426,-308.614 64.1001,-319.206 70.7583,-317.046"/>
</g>
<!-- Node4 -->
<g id="node5" class="node"><title>Node4</title>
<g id="a_node5"><a xlink:href="classTransition_1_1EaseIn_1_1Quintic.html" target="_top" xlink:title="Transition::EaseIn\l::Quintic\&lt; T \&gt;">
<polygon fill="none" stroke="black" points="167,-431 167,-461 263,-461 263,-431 167,-431"/>
<text text-anchor="start" x="175" y="-449" font-family="Helvetica,sans-Serif" font-size="10.00">Transition::EaseIn</text>
<text text-anchor="middle" x="215" y="-438" font-family="Helvetica,sans-Serif" font-size="10.00">::Quintic&lt; T &gt;</text>
</a>
</g>
</g>
<!-- Node0&#45;&gt;Node4 -->
<g id="edge4" class="edge"><title>Node0&#45;&gt;Node4</title>
<path fill="none" stroke="midnightblue" d="M71.7723,-317.641C87.1739,-344.078 118.584,-392.519 157,-422 161.344,-425.334 166.22,-428.292 171.242,-430.892"/>
<polygon fill="midnightblue" stroke="midnightblue" points="74.6576,-315.634 66.6721,-308.672 68.5726,-319.095 74.6576,-315.634"/>
</g>
<!-- Node5 -->
<g id="node6" class="node"><title>Node5</title>
<g id="a_node6"><a xlink:href="classTransition_1_1EaseInOut_1_1Cubic.html" target="_top" xlink:title="Transition::EaseInOut\l::Cubic\&lt; T \&gt;">
<polygon fill="none" stroke="black" points="159,-382 159,-412 271,-412 271,-382 159,-382"/>
<text text-anchor="start" x="167" y="-400" font-family="Helvetica,sans-Serif" font-size="10.00">Transition::EaseInOut</text>
<text text-anchor="middle" x="215" y="-389" font-family="Helvetica,sans-Serif" font-size="10.00">::Cubic&lt; T &gt;</text>
</a>
</g>
</g>
<!-- Node0&#45;&gt;Node5 -->
<g id="edge5" class="edge"><title>Node0&#45;&gt;Node5</title>
<path fill="none" stroke="midnightblue" d="M79.6449,-315.403C98.1287,-331.529 128.105,-356.113 157,-373 162.469,-376.196 168.445,-379.194 174.404,-381.915"/>
<polygon fill="midnightblue" stroke="midnightblue" points="81.8156,-312.65 72.0062,-308.647 77.1781,-317.894 81.8156,-312.65"/>
</g>
<!-- Node6 -->
<g id="node7" class="node"><title>Node6</title>
<g id="a_node7"><a xlink:href="classTransition_1_1EaseInOut_1_1Quadratic.html" target="_top" xlink:title="Transition::EaseInOut\l::Quadratic\&lt; T \&gt;">
<polygon fill="none" stroke="black" points="159,-333 159,-363 271,-363 271,-333 159,-333"/>
<text text-anchor="start" x="167" y="-351" font-family="Helvetica,sans-Serif" font-size="10.00">Transition::EaseInOut</text>
<text text-anchor="middle" x="215" y="-340" font-family="Helvetica,sans-Serif" font-size="10.00">::Quadratic&lt; T &gt;</text>
</a>
</g>
</g>
<!-- Node0&#45;&gt;Node6 -->
<g id="edge6" class="edge"><title>Node0&#45;&gt;Node6</title>
<path fill="none" stroke="midnightblue" d="M100.812,-311.631C121.083,-318.145 145.946,-326.133 167.201,-332.963"/>
<polygon fill="midnightblue" stroke="midnightblue" points="101.857,-308.291 91.2656,-308.564 99.7155,-314.955 101.857,-308.291"/>
</g>
<!-- Node7 -->
<g id="node8" class="node"><title>Node7</title>
<g id="a_node8"><a xlink:href="classTransition_1_1EaseInOut_1_1Quartic.html" target="_top" xlink:title="Transition::EaseInOut\l::Quartic\&lt; T \&gt;">
<polygon fill="none" stroke="black" points="159,-284 159,-314 271,-314 271,-284 159,-284"/>
<text text-anchor="start" x="167" y="-302" font-family="Helvetica,sans-Serif" font-size="10.00">Transition::EaseInOut</text>
<text text-anchor="middle" x="215" y="-291" font-family="Helvetica,sans-Serif" font-size="10.00">::Quartic&lt; T &gt;</text>
</a>
</g>
</g>
<!-- Node0&#45;&gt;Node7 -->
<g id="edge7" class="edge"><title>Node0&#45;&gt;Node7</title>
<path fill="none" stroke="midnightblue" d="M131.572,-299C140.71,-299 149.966,-299 158.813,-299"/>
<polygon fill="midnightblue" stroke="midnightblue" points="131.334,-295.5 121.334,-299 131.334,-302.5 131.334,-295.5"/>
</g>
<!-- Node8 -->
<g id="node9" class="node"><title>Node8</title>
<g id="a_node9"><a xlink:href="classTransition_1_1EaseInOut_1_1Quintic.html" target="_top" xlink:title="Transition::EaseInOut\l::Quintic\&lt; T \&gt;">
<polygon fill="none" stroke="black" points="159,-235 159,-265 271,-265 271,-235 159,-235"/>
<text text-anchor="start" x="167" y="-253" font-family="Helvetica,sans-Serif" font-size="10.00">Transition::EaseInOut</text>
<text text-anchor="middle" x="215" y="-242" font-family="Helvetica,sans-Serif" font-size="10.00">::Quintic&lt; T &gt;</text>
</a>
</g>
</g>
<!-- Node0&#45;&gt;Node8 -->
<g id="edge8" class="edge"><title>Node0&#45;&gt;Node8</title>
<path fill="none" stroke="midnightblue" d="M100.812,-286.369C121.083,-279.855 145.946,-271.867 167.201,-265.037"/>
<polygon fill="midnightblue" stroke="midnightblue" points="99.7155,-283.045 91.2656,-289.436 101.857,-289.709 99.7155,-283.045"/>
</g>
<!-- Node9 -->
<g id="node10" class="node"><title>Node9</title>
<g id="a_node10"><a xlink:href="classTransition_1_1EaseOut_1_1Cubic.html" target="_top" xlink:title="Transition::EaseOut\l::Cubic\&lt; T \&gt;">
<polygon fill="none" stroke="black" points="163,-186 163,-216 267,-216 267,-186 163,-186"/>
<text text-anchor="start" x="171" y="-204" font-family="Helvetica,sans-Serif" font-size="10.00">Transition::EaseOut</text>
<text text-anchor="middle" x="215" y="-193" font-family="Helvetica,sans-Serif" font-size="10.00">::Cubic&lt; T &gt;</text>
</a>
</g>
</g>
<!-- Node0&#45;&gt;Node9 -->
<g id="edge9" class="edge"><title>Node0&#45;&gt;Node9</title>
<path fill="none" stroke="midnightblue" d="M80.0401,-282.671C98.6173,-266.845 128.476,-242.828 157,-226 163.05,-222.431 169.702,-219.063 176.261,-216.023"/>
<polygon fill="midnightblue" stroke="midnightblue" points="77.629,-280.129 72.3438,-289.311 82.2017,-285.429 77.629,-280.129"/>
</g>
<!-- Node10 -->
<g id="node11" class="node"><title>Node10</title>
<g id="a_node11"><a xlink:href="classTransition_1_1EaseOut_1_1Quadratic.html" target="_top" xlink:title="Transition::EaseOut\l::Quadratic\&lt; T \&gt;">
<polygon fill="none" stroke="black" points="163,-137 163,-167 267,-167 267,-137 163,-137"/>
<text text-anchor="start" x="171" y="-155" font-family="Helvetica,sans-Serif" font-size="10.00">Transition::EaseOut</text>
<text text-anchor="middle" x="215" y="-144" font-family="Helvetica,sans-Serif" font-size="10.00">::Quadratic&lt; T &gt;</text>
</a>
</g>
</g>
<!-- Node0&#45;&gt;Node10 -->
<g id="edge10" class="edge"><title>Node0&#45;&gt;Node10</title>
<path fill="none" stroke="midnightblue" d="M71.8681,-280.591C87.3867,-254.467 118.938,-206.539 157,-177 161.78,-173.29 167.197,-170.007 172.743,-167.141"/>
<polygon fill="midnightblue" stroke="midnightblue" points="68.7181,-279.046 66.7254,-289.452 74.7723,-282.56 68.7181,-279.046"/>
</g>
<!-- Node11 -->
<g id="node12" class="node"><title>Node11</title>
<g id="a_node12"><a xlink:href="classTransition_1_1EaseOut_1_1Quartic.html" target="_top" xlink:title="Transition::EaseOut\l::Quartic\&lt; T \&gt;">
<polygon fill="none" stroke="black" points="163,-88 163,-118 267,-118 267,-88 163,-88"/>
<text text-anchor="start" x="171" y="-106" font-family="Helvetica,sans-Serif" font-size="10.00">Transition::EaseOut</text>
<text text-anchor="middle" x="215" y="-95" font-family="Helvetica,sans-Serif" font-size="10.00">::Quartic&lt; T &gt;</text>
</a>
</g>
</g>
<!-- Node0&#45;&gt;Node11 -->
<g id="edge11" class="edge"><title>Node0&#45;&gt;Node11</title>
<path fill="none" stroke="midnightblue" d="M67.6593,-279.641C79.6135,-244.896 109.078,-171.529 157,-128 161.159,-124.222 165.981,-120.947 171.024,-118.127"/>
<polygon fill="midnightblue" stroke="midnightblue" points="64.2226,-278.885 64.3921,-289.478 70.8658,-281.091 64.2226,-278.885"/>
</g>
<!-- Node12 -->
<g id="node13" class="node"><title>Node12</title>
<g id="a_node13"><a xlink:href="classTransition_1_1EaseOut_1_1Quintic.html" target="_top" xlink:title="Transition::EaseOut\l::Quintic\&lt; T \&gt;">
<polygon fill="none" stroke="black" points="163,-39 163,-69 267,-69 267,-39 163,-39"/>
<text text-anchor="start" x="171" y="-57" font-family="Helvetica,sans-Serif" font-size="10.00">Transition::EaseOut</text>
<text text-anchor="middle" x="215" y="-46" font-family="Helvetica,sans-Serif" font-size="10.00">::Quintic&lt; T &gt;</text>
</a>
</g>
</g>
<!-- Node0&#45;&gt;Node12 -->
<g id="edge12" class="edge"><title>Node0&#45;&gt;Node12</title>
<path fill="none" stroke="midnightblue" d="M65.043,-279.143C73.542,-236.929 98.8558,-137.365 157,-79 160.813,-75.1723 165.311,-71.8862 170.081,-69.076"/>
<polygon fill="midnightblue" stroke="midnightblue" points="61.5543,-278.753 63.117,-289.232 68.4301,-280.066 61.5543,-278.753"/>
</g>
<!-- Node13 -->
<g id="node14" class="node"><title>Node13</title>
<g id="a_node14"><a xlink:href="classTransition_1_1Linear.html" target="_top" xlink:title="Transition::Linear\&lt; T \&gt;">
<polygon fill="none" stroke="black" points="157,-0.5 157,-19.5 273,-19.5 273,-0.5 157,-0.5"/>
<text text-anchor="middle" x="215" y="-7.5" font-family="Helvetica,sans-Serif" font-size="10.00">Transition::Linear&lt; T &gt;</text>
</a>
</g>
</g>
<!-- Node0&#45;&gt;Node13 -->
<g id="edge13" class="edge"><title>Node0&#45;&gt;Node13</title>
<path fill="none" stroke="midnightblue" d="M62.8467,-279.142C67.238,-229.975 85.3351,-101.401 157,-30 161.383,-25.6328 166.774,-22.2163 172.474,-19.5443"/>
<polygon fill="midnightblue" stroke="midnightblue" points="59.3375,-279.12 62.0343,-289.365 66.3155,-279.674 59.3375,-279.12"/>
</g>
</g>
</svg>
