<?xml version="1.0" encoding="UTF-8" standalone="no"?>
<!DOCTYPE svg PUBLIC "-//W3C//DTD SVG 1.1//EN"
 "http://www.w3.org/Graphics/SVG/1.1/DTD/svg11.dtd">
<!-- Generated by graphviz version 2.38.0 (20140413.2041)
 -->
<!-- Title: Graphical Class Hierarchy Pages: 1 -->
<svg width="570pt" height="529pt"
 viewBox="0.00 0.00 570.00 529.00" xmlns="http://www.w3.org/2000/svg" xmlns:xlink="http://www.w3.org/1999/xlink">
<g id="graph0" class="graph" transform="scale(1 1) rotate(0) translate(4 525)">
<title>Graphical Class Hierarchy</title>
<!-- Node51 -->
<g id="node1" class="node"><title>Node51</title>
<g id="a_node1"><a xlink:href="classMixer_1_1AudioSource.html" target="_top" xlink:title="Mixer::AudioSource">
<polygon fill="none" stroke="black" points="192.5,-240 192.5,-259 294.5,-259 294.5,-240 192.5,-240"/>
<text text-anchor="middle" x="243.5" y="-247" font-family="Helvetica,sans-Serif" font-size="10.00">Mixer::AudioSource</text>
</a>
</g>
</g>
<!-- Node10 -->
<g id="node2" class="node"><title>Node10</title>
<g id="a_node2"><a xlink:href="classMixer_1_1CheapSawtoothGenerator.html" target="_top" xlink:title="Mixer::CheapSawtoothGenerator\&lt; T \&gt;">
<polygon fill="none" stroke="black" points="372,-381 372,-400 555,-400 555,-381 372,-381"/>
<text text-anchor="middle" x="463.5" y="-388" font-family="Helvetica,sans-Serif" font-size="10.00">Mixer::CheapSawtoothGenerator&lt; T &gt;</text>
</a>
</g>
</g>
<!-- Node51&#45;&gt;Node10 -->
<g id="edge1" class="edge"><title>Node51&#45;&gt;Node10</title>
<path fill="none" stroke="midnightblue" d="M304.676,-255.056C313.581,-258.029 322.075,-262.329 329,-268.5 365.205,-300.761 328.336,-339.762 365,-371.5 369.303,-375.225 374.116,-378.305 379.238,-380.845"/>
<polygon fill="midnightblue" stroke="midnightblue" points="305.48,-251.647 294.907,-252.326 303.595,-258.389 305.48,-251.647"/>
</g>
<!-- Node11 -->
<g id="node3" class="node"><title>Node11</title>
<g id="a_node3"><a xlink:href="classMixer_1_1CheapSquareGenerator.html" target="_top" xlink:title="Mixer::CheapSquareGenerator\&lt; T \&gt;">
<polygon fill="none" stroke="black" points="377,-343 377,-362 550,-362 550,-343 377,-343"/>
<text text-anchor="middle" x="463.5" y="-350" font-family="Helvetica,sans-Serif" font-size="10.00">Mixer::CheapSquareGenerator&lt; T &gt;</text>
</a>
</g>
</g>
<!-- Node51&#45;&gt;Node11 -->
<g id="edge2" class="edge"><title>Node51&#45;&gt;Node11</title>
<path fill="none" stroke="midnightblue" d="M304.739,-256.404C313.422,-259.227 321.831,-263.128 329,-268.5 355.427,-288.303 338.291,-314.078 365,-333.5 370.161,-337.253 375.866,-340.318 381.851,-342.815"/>
<polygon fill="midnightblue" stroke="midnightblue" points="305.443,-252.967 294.87,-253.653 303.563,-259.71 305.443,-252.967"/>
</g>
<!-- Node8 -->
<g id="node4" class="node"><title>Node8</title>
<g id="a_node4"><a xlink:href="classMixer_1_1ComplexWaveformGenerator.html" target="_top" xlink:title="Mixer::ComplexWaveformGenerator\&lt; T \&gt;">
<polygon fill="none" stroke="black" points="365,-153 365,-172 562,-172 562,-153 365,-153"/>
<text text-anchor="middle" x="463.5" y="-160" font-family="Helvetica,sans-Serif" font-size="10.00">Mixer::ComplexWaveformGenerator&lt; T &gt;</text>
</a>
</g>
</g>
<!-- Node51&#45;&gt;Node8 -->
<g id="edge3" class="edge"><title>Node51&#45;&gt;Node8</title>
<path fill="none" stroke="midnightblue" d="M304.479,-241.668C313.127,-238.964 321.594,-235.343 329,-230.5 351.616,-215.709 342.174,-195.965 365,-181.5 371.118,-177.623 377.853,-174.507 384.838,-172.006"/>
<polygon fill="midnightblue" stroke="midnightblue" points="303.406,-238.333 294.685,-244.348 305.254,-245.085 303.406,-238.333"/>
</g>
<!-- Node52 -->
<g id="node5" class="node"><title>Node52</title>
<g id="a_node5"><a xlink:href="classMixer_1_1Recorder.html" target="_top" xlink:title="Mixer::Recorder\&lt; T \&gt;">
<polygon fill="none" stroke="black" points="408.5,-191 408.5,-210 518.5,-210 518.5,-191 408.5,-191"/>
<text text-anchor="middle" x="463.5" y="-198" font-family="Helvetica,sans-Serif" font-size="10.00">Mixer::Recorder&lt; T &gt;</text>
</a>
</g>
</g>
<!-- Node51&#45;&gt;Node52 -->
<g id="edge4" class="edge"><title>Node51&#45;&gt;Node52</title>
<path fill="none" stroke="midnightblue" d="M299.84,-237.686C309.588,-235.426 319.614,-232.985 329,-230.5 345.173,-226.217 348.767,-223.55 365,-219.5 378.972,-216.014 394.202,-212.781 408.383,-210.006"/>
<polygon fill="midnightblue" stroke="midnightblue" points="298.794,-234.334 289.822,-239.97 300.35,-241.159 298.794,-234.334"/>
</g>
<!-- Node12 -->
<g id="node6" class="node"><title>Node12</title>
<g id="a_node6"><a xlink:href="classMixer_1_1SawtoothGenerator.html" target="_top" xlink:title="Mixer::SawtoothGenerator\&lt; T \&gt;">
<polygon fill="none" stroke="black" points="386,-305 386,-324 541,-324 541,-305 386,-305"/>
<text text-anchor="middle" x="463.5" y="-312" font-family="Helvetica,sans-Serif" font-size="10.00">Mixer::SawtoothGenerator&lt; T &gt;</text>
</a>
</g>
</g>
<!-- Node51&#45;&gt;Node12 -->
<g id="edge5" class="edge"><title>Node51&#45;&gt;Node12</title>
<path fill="none" stroke="midnightblue" d="M304.611,-259.702C312.992,-262.072 321.346,-264.968 329,-268.5 347.16,-276.88 346.722,-287.382 365,-295.5 373.747,-299.385 383.284,-302.479 392.858,-304.941"/>
<polygon fill="midnightblue" stroke="midnightblue" points="305.36,-256.281 294.801,-257.156 303.601,-263.056 305.36,-256.281"/>
</g>
<!-- Node17 -->
<g id="node7" class="node"><title>Node17</title>
<g id="a_node7"><a xlink:href="classMixer_1_1SimpleNote.html" target="_top" xlink:title="Mixer::SimpleNote\&lt;\l T, A, D \&gt;">
<polygon fill="none" stroke="black" points="411.5,-103.5 411.5,-133.5 515.5,-133.5 515.5,-103.5 411.5,-103.5"/>
<text text-anchor="start" x="419.5" y="-121.5" font-family="Helvetica,sans-Serif" font-size="10.00">Mixer::SimpleNote&lt;</text>
<text text-anchor="middle" x="463.5" y="-110.5" font-family="Helvetica,sans-Serif" font-size="10.00"> T, A, D &gt;</text>
</a>
</g>
</g>
<!-- Node51&#45;&gt;Node17 -->
<g id="edge6" class="edge"><title>Node51&#45;&gt;Node17</title>
<path fill="none" stroke="midnightblue" d="M304.381,-243.604C313.322,-240.672 321.905,-236.474 329,-230.5 361.011,-203.548 333.395,-170.927 365,-143.5 377.868,-132.333 395.077,-126.046 411.454,-122.541"/>
<polygon fill="midnightblue" stroke="midnightblue" points="303.297,-240.272 294.592,-246.311 305.164,-247.019 303.297,-240.272"/>
</g>
<!-- Node18 -->
<g id="node8" class="node"><title>Node18</title>
<g id="a_node8"><a xlink:href="classMixer_1_1SimplePlayer.html" target="_top" xlink:title="Mixer::SimplePlayer\l\&lt; T, K \&gt;">
<polygon fill="none" stroke="black" points="411.5,-54.5 411.5,-84.5 515.5,-84.5 515.5,-54.5 411.5,-54.5"/>
<text text-anchor="start" x="419.5" y="-72.5" font-family="Helvetica,sans-Serif" font-size="10.00">Mixer::SimplePlayer</text>
<text text-anchor="middle" x="463.5" y="-61.5" font-family="Helvetica,sans-Serif" font-size="10.00">&lt; T, K &gt;</text>
</a>
</g>
</g>
<!-- Node51&#45;&gt;Node18 -->
<g id="edge7" class="edge"><title>Node51&#45;&gt;Node18</title>
<path fill="none" stroke="midnightblue" d="M304.791,-244.517C313.761,-241.486 322.245,-237.017 329,-230.5 374.306,-186.787 320.137,-137.668 365,-93.5 377.298,-81.3923 394.666,-75.06 411.343,-71.8468"/>
<polygon fill="midnightblue" stroke="midnightblue" points="303.618,-241.211 294.928,-247.272 305.5,-247.953 303.618,-241.211"/>
</g>
<!-- Node13 -->
<g id="node9" class="node"><title>Node13</title>
<g id="a_node9"><a xlink:href="classMixer_1_1SineGenerator.html" target="_top" xlink:title="Mixer::SineGenerator\&lt; T \&gt;">
<polygon fill="none" stroke="black" points="397,-267 397,-286 530,-286 530,-267 397,-267"/>
<text text-anchor="middle" x="463.5" y="-274" font-family="Helvetica,sans-Serif" font-size="10.00">Mixer::SineGenerator&lt; T &gt;</text>
</a>
</g>
</g>
<!-- Node51&#45;&gt;Node13 -->
<g id="edge8" class="edge"><title>Node51&#45;&gt;Node13</title>
<path fill="none" stroke="midnightblue" d="M304.747,-256.962C333.264,-260.494 367.39,-264.72 396.595,-268.337"/>
<polygon fill="midnightblue" stroke="midnightblue" points="304.868,-253.45 294.514,-255.694 304.008,-260.397 304.868,-253.45"/>
</g>
<!-- Node14 -->
<g id="node10" class="node"><title>Node14</title>
<g id="a_node10"><a xlink:href="classMixer_1_1SquareGenerator.html" target="_top" xlink:title="Mixer::SquareGenerator\&lt; T \&gt;">
<polygon fill="none" stroke="black" points="391.5,-229 391.5,-248 535.5,-248 535.5,-229 391.5,-229"/>
<text text-anchor="middle" x="463.5" y="-236" font-family="Helvetica,sans-Serif" font-size="10.00">Mixer::SquareGenerator&lt; T &gt;</text>
</a>
</g>
</g>
<!-- Node51&#45;&gt;Node14 -->
<g id="edge9" class="edge"><title>Node51&#45;&gt;Node14</title>
<path fill="none" stroke="midnightblue" d="M304.535,-246.471C331.37,-245.117 363.203,-243.51 391.237,-242.096"/>
<polygon fill="midnightblue" stroke="midnightblue" points="304.324,-242.977 294.514,-246.976 304.677,-249.968 304.324,-242.977"/>
</g>
<!-- Node15 -->
<g id="node11" class="node"><title>Node15</title>
<g id="a_node11"><a xlink:href="classMixer_1_1TriangleGenerator.html" target="_top" xlink:title="Mixer::TriangleGenerator\&lt; T \&gt;">
<polygon fill="none" stroke="black" points="389.5,-419 389.5,-438 537.5,-438 537.5,-419 389.5,-419"/>
<text text-anchor="middle" x="463.5" y="-426" font-family="Helvetica,sans-Serif" font-size="10.00">Mixer::TriangleGenerator&lt; T &gt;</text>
</a>
</g>
</g>
<!-- Node51&#45;&gt;Node15 -->
<g id="edge10" class="edge"><title>Node51&#45;&gt;Node15</title>
<path fill="none" stroke="midnightblue" d="M304.224,-254.239C313.413,-257.278 322.117,-261.812 329,-268.5 375.387,-313.57 317.97,-365.1 365,-409.5 371.897,-416.011 380.331,-420.602 389.323,-423.796"/>
<polygon fill="midnightblue" stroke="midnightblue" points="305.098,-250.85 294.529,-251.587 303.251,-257.602 305.098,-250.85"/>
</g>
<!-- Node40 -->
<g id="node12" class="node"><title>Node40</title>
<g id="a_node12"><a xlink:href="classMixer_1_1iPlayer.html" target="_top" xlink:title="Mixer::iPlayer">
<polygon fill="none" stroke="black" points="205,-50 205,-69 282,-69 282,-50 205,-50"/>
<text text-anchor="middle" x="243.5" y="-57" font-family="Helvetica,sans-Serif" font-size="10.00">Mixer::iPlayer</text>
</a>
</g>
</g>
<!-- Node40&#45;&gt;Node18 -->
<g id="edge11" class="edge"><title>Node40&#45;&gt;Node18</title>
<path fill="none" stroke="midnightblue" d="M292.52,-61.7028C327.766,-63.3195 375.553,-65.5116 411.483,-67.1598"/>
<polygon fill="midnightblue" stroke="midnightblue" points="292.623,-58.2039 282.473,-61.2419 292.302,-65.1965 292.623,-58.2039"/>
</g>
<!-- Node0 -->
<g id="node13" class="node"><title>Node0</title>
<g id="a_node13"><a xlink:href="classDataFlow_1_1iSource.html" target="_top" xlink:title="DataFlow::iSource\&lt; T \&gt;">
<polygon fill="none" stroke="black" points="0,-278 0,-297 122,-297 122,-278 0,-278"/>
<text text-anchor="middle" x="61" y="-285" font-family="Helvetica,sans-Serif" font-size="10.00">DataFlow::iSource&lt; T &gt;</text>
</a>
</g>
</g>
<!-- Node0&#45;&gt;Node8 -->
<g id="edge19" class="edge"><title>Node0&#45;&gt;Node8</title>
<path fill="none" stroke="midnightblue" d="M74.1116,-269.512C90.2996,-247.131 121.254,-209.763 158,-192.5 222.426,-162.234 302.835,-155.433 364.843,-155.824"/>
<polygon fill="midnightblue" stroke="midnightblue" points="71.1628,-267.621 68.2849,-277.818 76.8933,-271.641 71.1628,-267.621"/>
</g>
<!-- Node0&#45;&gt;Node17 -->
<g id="edge28" class="edge"><title>Node0&#45;&gt;Node17</title>
<path fill="none" stroke="midnightblue" d="M69.4915,-268.573C82.5002,-238.476 112.327,-180.371 158,-153.5 199.736,-128.946 336.033,-121.614 411.342,-119.428"/>
<polygon fill="midnightblue" stroke="midnightblue" points="66.1988,-267.376 65.5931,-277.953 72.6628,-270.062 66.1988,-267.376"/>
</g>
<!-- Node0&#45;&gt;Node18 -->
<g id="edge29" class="edge"><title>Node0&#45;&gt;Node18</title>
<path fill="none" stroke="midnightblue" d="M67.0945,-268.348C77.604,-232.862 105.246,-157.176 158,-120.5 198.104,-92.6187 335.434,-78.5877 411.231,-72.8174"/>
<polygon fill="midnightblue" stroke="midnightblue" points="63.7232,-267.408 64.3741,-277.982 70.4598,-269.31 63.7232,-267.408"/>
</g>
<!-- Node1 -->
<g id="node14" class="node"><title>Node1</title>
<g id="a_node14"><a xlink:href="classDataFlow_1_1Applicator.html" target="_top" xlink:title="DataFlow::Applicator\l\&lt; T, VolumeControl \&gt;">
<polygon fill="none" stroke="black" points="188,-0.5 188,-30.5 299,-30.5 299,-0.5 188,-0.5"/>
<text text-anchor="start" x="196" y="-18.5" font-family="Helvetica,sans-Serif" font-size="10.00">DataFlow::Applicator</text>
<text text-anchor="middle" x="243.5" y="-7.5" font-family="Helvetica,sans-Serif" font-size="10.00">&lt; T, VolumeControl &gt;</text>
</a>
</g>
</g>
<!-- Node0&#45;&gt;Node1 -->
<g id="edge12" class="edge"><title>Node0&#45;&gt;Node1</title>
<path fill="none" stroke="midnightblue" d="M63.8582,-267.787C69.3147,-221.206 89.5068,-103.529 158,-40.5 166.331,-32.834 176.906,-27.511 187.731,-23.8169"/>
<polygon fill="midnightblue" stroke="midnightblue" points="60.3719,-267.473 62.7902,-277.788 67.3323,-268.216 60.3719,-267.473"/>
</g>
<!-- Node2 -->
<g id="node15" class="node"><title>Node2</title>
<g id="a_node15"><a xlink:href="classDataFlow_1_1Consolidator.html" target="_top" xlink:title="DataFlow::Consolidator\l\&lt; T, Consolidation::Accumulation \&gt;">
<polygon fill="none" stroke="black" points="158,-490.5 158,-520.5 329,-520.5 329,-490.5 158,-490.5"/>
<text text-anchor="start" x="166" y="-508.5" font-family="Helvetica,sans-Serif" font-size="10.00">DataFlow::Consolidator</text>
<text text-anchor="middle" x="243.5" y="-497.5" font-family="Helvetica,sans-Serif" font-size="10.00">&lt; T, Consolidation::Accumulation &gt;</text>
</a>
</g>
</g>
<!-- Node0&#45;&gt;Node2 -->
<g id="edge13" class="edge"><title>Node0&#45;&gt;Node2</title>
<path fill="none" stroke="midnightblue" d="M66.1325,-307.196C75.4039,-346.429 101.616,-434.583 158,-481.5 162.103,-484.914 166.664,-487.843 171.48,-490.356"/>
<polygon fill="midnightblue" stroke="midnightblue" points="69.5163,-306.29 63.9124,-297.298 62.686,-307.822 69.5163,-306.29"/>
</g>
<!-- Node3 -->
<g id="node16" class="node"><title>Node3</title>
<g id="a_node16"><a xlink:href="classDataFlow_1_1Applicator.html" target="_top" xlink:title="DataFlow::Applicator\l\&lt; T, K \&gt;">
<polygon fill="none" stroke="black" points="189.5,-441.5 189.5,-471.5 297.5,-471.5 297.5,-441.5 189.5,-441.5"/>
<text text-anchor="start" x="197.5" y="-459.5" font-family="Helvetica,sans-Serif" font-size="10.00">DataFlow::Applicator</text>
<text text-anchor="middle" x="243.5" y="-448.5" font-family="Helvetica,sans-Serif" font-size="10.00">&lt; T, K &gt;</text>
</a>
</g>
</g>
<!-- Node0&#45;&gt;Node3 -->
<g id="edge14" class="edge"><title>Node0&#45;&gt;Node3</title>
<path fill="none" stroke="midnightblue" d="M69.4452,-306.672C82.5401,-337.845 112.676,-399.359 158,-432.5 167.233,-439.251 178.309,-444.106 189.355,-447.597"/>
<polygon fill="midnightblue" stroke="midnightblue" points="72.6647,-305.298 65.6602,-297.349 66.1788,-307.931 72.6647,-305.298"/>
</g>
<!-- Node4 -->
<g id="node17" class="node"><title>Node4</title>
<g id="a_node17"><a xlink:href="classDataFlow_1_1Consolidator.html" target="_top" xlink:title="DataFlow::Consolidator\l\&lt; T, K \&gt;">
<polygon fill="none" stroke="black" points="184,-392.5 184,-422.5 303,-422.5 303,-392.5 184,-392.5"/>
<text text-anchor="start" x="192" y="-410.5" font-family="Helvetica,sans-Serif" font-size="10.00">DataFlow::Consolidator</text>
<text text-anchor="middle" x="243.5" y="-399.5" font-family="Helvetica,sans-Serif" font-size="10.00">&lt; T, K &gt;</text>
</a>
</g>
</g>
<!-- Node0&#45;&gt;Node4 -->
<g id="edge15" class="edge"><title>Node0&#45;&gt;Node4</title>
<path fill="none" stroke="midnightblue" d="M75.1923,-305.072C92.1048,-326.402 123.407,-362.049 158,-382.5 165.902,-387.171 174.741,-391.026 183.645,-394.191"/>
<polygon fill="midnightblue" stroke="midnightblue" points="77.9429,-302.907 69.0502,-297.148 72.4103,-307.196 77.9429,-302.907"/>
</g>
<!-- Node5 -->
<g id="node18" class="node"><title>Node5</title>
<g id="a_node18"><a xlink:href="classDataFlow_1_1iBuffer.html" target="_top" xlink:title="DataFlow::iBuffer\&lt; T \&gt;">
<polygon fill="none" stroke="black" points="185,-354 185,-373 302,-373 302,-354 185,-354"/>
<text text-anchor="middle" x="243.5" y="-361" font-family="Helvetica,sans-Serif" font-size="10.00">DataFlow::iBuffer&lt; T &gt;</text>
</a>
</g>
</g>
<!-- Node0&#45;&gt;Node5 -->
<g id="edge16" class="edge"><title>Node0&#45;&gt;Node5</title>
<path fill="none" stroke="midnightblue" d="M83.3825,-302.879C102.196,-315.738 130.758,-333.667 158,-344.5 167.501,-348.278 177.917,-351.39 188.091,-353.922"/>
<polygon fill="midnightblue" stroke="midnightblue" points="85.1851,-299.869 74.9786,-297.027 81.185,-305.614 85.1851,-299.869"/>
</g>
<!-- Node9 -->
<g id="node21" class="node"><title>Node9</title>
<g id="a_node21"><a xlink:href="classMixer_1_1iWaveformGenerator.html" target="_top" xlink:title="Mixer::iWaveformGenerator\&lt; T \&gt;">
<polygon fill="none" stroke="black" points="163,-316 163,-335 324,-335 324,-316 163,-316"/>
<text text-anchor="middle" x="243.5" y="-323" font-family="Helvetica,sans-Serif" font-size="10.00">Mixer::iWaveformGenerator&lt; T &gt;</text>
</a>
</g>
</g>
<!-- Node0&#45;&gt;Node9 -->
<g id="edge20" class="edge"><title>Node0&#45;&gt;Node9</title>
<path fill="none" stroke="midnightblue" d="M117.485,-299.181C143.082,-304.57 173.084,-310.886 197.28,-315.98"/>
<polygon fill="midnightblue" stroke="midnightblue" points="118.054,-295.724 107.548,-297.089 116.612,-302.574 118.054,-295.724"/>
</g>
<!-- Node16 -->
<g id="node22" class="node"><title>Node16</title>
<g id="a_node22"><a xlink:href="classMixer_1_1Multiplexer.html" target="_top" xlink:title="Mixer::Multiplexer\&lt; T \&gt;">
<polygon fill="none" stroke="black" points="184.5,-278 184.5,-297 302.5,-297 302.5,-278 184.5,-278"/>
<text text-anchor="middle" x="243.5" y="-285" font-family="Helvetica,sans-Serif" font-size="10.00">Mixer::Multiplexer&lt; T &gt;</text>
</a>
</g>
</g>
<!-- Node0&#45;&gt;Node16 -->
<g id="edge27" class="edge"><title>Node0&#45;&gt;Node16</title>
<path fill="none" stroke="midnightblue" d="M132.159,-287.5C149.474,-287.5 167.83,-287.5 184.496,-287.5"/>
<polygon fill="midnightblue" stroke="midnightblue" points="132.104,-284 122.104,-287.5 132.104,-291 132.104,-284"/>
</g>
<!-- Node19 -->
<g id="node23" class="node"><title>Node19</title>
<g id="a_node23"><a xlink:href="classOggFileLoader.html" target="_top" xlink:title="OggFileLoader\&lt; T, K \&gt;">
<polygon fill="none" stroke="black" points="185.5,-202 185.5,-221 301.5,-221 301.5,-202 185.5,-202"/>
<text text-anchor="middle" x="243.5" y="-209" font-family="Helvetica,sans-Serif" font-size="10.00">OggFileLoader&lt; T, K &gt;</text>
</a>
</g>
</g>
<!-- Node0&#45;&gt;Node19 -->
<g id="edge30" class="edge"><title>Node0&#45;&gt;Node19</title>
<path fill="none" stroke="midnightblue" d="M83.3825,-272.121C102.196,-259.262 130.758,-241.333 158,-230.5 167.501,-226.722 177.917,-223.61 188.091,-221.078"/>
<polygon fill="midnightblue" stroke="midnightblue" points="81.185,-269.386 74.9786,-277.973 85.1851,-275.131 81.185,-269.386"/>
</g>
<!-- Node6 -->
<g id="node19" class="node"><title>Node6</title>
<g id="a_node19"><a xlink:href="classDataFlow_1_1QueueBuffer.html" target="_top" xlink:title="DataFlow::QueueBuffer\&lt; T \&gt;">
<polygon fill="none" stroke="black" points="392,-495 392,-514 535,-514 535,-495 392,-495"/>
<text text-anchor="middle" x="463.5" y="-502" font-family="Helvetica,sans-Serif" font-size="10.00">DataFlow::QueueBuffer&lt; T &gt;</text>
</a>
</g>
</g>
<!-- Node5&#45;&gt;Node6 -->
<g id="edge17" class="edge"><title>Node5&#45;&gt;Node6</title>
<path fill="none" stroke="midnightblue" d="M311.794,-372.62C318.066,-375.406 323.952,-378.965 329,-383.5 364.761,-415.629 328.605,-454.092 365,-485.5 372.703,-492.148 382.034,-496.74 391.834,-499.872"/>
<polygon fill="midnightblue" stroke="midnightblue" points="312.972,-369.324 302.38,-369.069 310.501,-375.873 312.972,-369.324"/>
</g>
<!-- Node7 -->
<g id="node20" class="node"><title>Node7</title>
<g id="a_node20"><a xlink:href="classDataFlow_1_1RepeatingBuffer.html" target="_top" xlink:title="DataFlow::RepeatingBuffer\&lt; T \&gt;">
<polygon fill="none" stroke="black" points="384,-457 384,-476 543,-476 543,-457 384,-457"/>
<text text-anchor="middle" x="463.5" y="-464" font-family="Helvetica,sans-Serif" font-size="10.00">DataFlow::RepeatingBuffer&lt; T &gt;</text>
</a>
</g>
</g>
<!-- Node5&#45;&gt;Node7 -->
<g id="edge18" class="edge"><title>Node5&#45;&gt;Node7</title>
<path fill="none" stroke="midnightblue" d="M312.04,-373.96C318.092,-376.497 323.863,-379.632 329,-383.5 355.071,-403.131 338.542,-428.393 365,-447.5 370.732,-451.64 377.129,-454.94 383.831,-457.565"/>
<polygon fill="midnightblue" stroke="midnightblue" points="312.945,-370.565 302.351,-370.443 310.557,-377.145 312.945,-370.565"/>
</g>
<!-- Node9&#45;&gt;Node10 -->
<g id="edge21" class="edge"><title>Node9&#45;&gt;Node10</title>
<path fill="none" stroke="midnightblue" d="M312.202,-338.004C317.989,-339.885 323.665,-342.038 329,-344.5 347.16,-352.88 346.722,-363.382 365,-371.5 373.747,-375.385 383.284,-378.479 392.858,-380.941"/>
<polygon fill="midnightblue" stroke="midnightblue" points="312.979,-334.584 302.397,-335.088 310.984,-341.293 312.979,-334.584"/>
</g>
<!-- Node9&#45;&gt;Node11 -->
<g id="edge22" class="edge"><title>Node9&#45;&gt;Node11</title>
<path fill="none" stroke="midnightblue" d="M331.739,-336.305C349.555,-338.511 368.178,-340.818 385.601,-342.976"/>
<polygon fill="midnightblue" stroke="midnightblue" points="331.713,-332.775 321.359,-335.019 330.853,-339.722 331.713,-332.775"/>
</g>
<!-- Node9&#45;&gt;Node12 -->
<g id="edge23" class="edge"><title>Node9&#45;&gt;Node12</title>
<path fill="none" stroke="midnightblue" d="M334.17,-320.975C351.377,-320.107 369.249,-319.205 385.995,-318.36"/>
<polygon fill="midnightblue" stroke="midnightblue" points="333.939,-317.482 324.128,-321.482 334.292,-324.474 333.939,-317.482"/>
</g>
<!-- Node9&#45;&gt;Node13 -->
<g id="edge24" class="edge"><title>Node9&#45;&gt;Node13</title>
<path fill="none" stroke="midnightblue" d="M299.84,-313.686C309.588,-311.426 319.614,-308.985 329,-306.5 345.173,-302.217 348.767,-299.55 365,-295.5 378.972,-292.014 394.202,-288.781 408.383,-286.006"/>
<polygon fill="midnightblue" stroke="midnightblue" points="298.794,-310.334 289.822,-315.97 300.35,-317.159 298.794,-310.334"/>
</g>
<!-- Node9&#45;&gt;Node14 -->
<g id="edge25" class="edge"><title>Node9&#45;&gt;Node14</title>
<path fill="none" stroke="midnightblue" d="M319.068,-312.028C322.525,-310.39 325.858,-308.555 329,-306.5 351.616,-291.709 342.174,-271.965 365,-257.5 373.012,-252.423 382.082,-248.651 391.385,-245.857"/>
<polygon fill="midnightblue" stroke="midnightblue" points="317.573,-308.859 309.675,-315.92 320.253,-315.325 317.573,-308.859"/>
</g>
<!-- Node9&#45;&gt;Node15 -->
<g id="edge26" class="edge"><title>Node9&#45;&gt;Node15</title>
<path fill="none" stroke="midnightblue" d="M321.068,-339.388C323.836,-340.924 326.494,-342.622 329,-344.5 355.427,-364.303 338.291,-390.078 365,-409.5 372.253,-414.774 380.582,-418.689 389.251,-421.581"/>
<polygon fill="midnightblue" stroke="midnightblue" points="322.436,-336.163 311.903,-335.019 319.424,-342.482 322.436,-336.163"/>
</g>
</g>
</svg>
