<?xml version="1.0" encoding="UTF-8" standalone="no"?>
<!DOCTYPE svg PUBLIC "-//W3C//DTD SVG 1.1//EN"
 "http://www.w3.org/Graphics/SVG/1.1/DTD/svg11.dtd">
<!-- Generated by graphviz version 2.38.0 (20140413.2041)
 -->
<!-- Title: Graphical Class Hierarchy Pages: 1 -->
<svg width="335pt" height="66pt"
 viewBox="0.00 0.00 335.00 66.00" xmlns="http://www.w3.org/2000/svg" xmlns:xlink="http://www.w3.org/1999/xlink">
<g id="graph0" class="graph" transform="scale(1 1) rotate(0) translate(4 62)">
<title>Graphical Class Hierarchy</title>
<!-- Node0 -->
<g id="node1" class="node"><title>Node0</title>
<g id="a_node1"><a xlink:href="classDataFlow_1_1iConsolidationMethod.html" target="_top" xlink:title="DataFlow::iConsolidation\lMethod\&lt; T \&gt;">
<polygon fill="none" stroke="black" points="0,-14 0,-44 126,-44 126,-14 0,-14"/>
<text text-anchor="start" x="8" y="-32" font-family="Helvetica,sans-Serif" font-size="10.00">DataFlow::iConsolidation</text>
<text text-anchor="middle" x="63" y="-21" font-family="Helvetica,sans-Serif" font-size="10.00">Method&lt; T &gt;</text>
</a>
</g>
</g>
<!-- Node1 -->
<g id="node2" class="node"><title>Node1</title>
<g id="a_node2"><a xlink:href="classConsolidation_1_1Accumulation.html" target="_top" xlink:title="Consolidation::Accumulation\&lt; T \&gt;">
<polygon fill="none" stroke="black" points="162,-38.5 162,-57.5 327,-57.5 327,-38.5 162,-38.5"/>
<text text-anchor="middle" x="244.5" y="-45.5" font-family="Helvetica,sans-Serif" font-size="10.00">Consolidation::Accumulation&lt; T &gt;</text>
</a>
</g>
</g>
<!-- Node0&#45;&gt;Node1 -->
<g id="edge1" class="edge"><title>Node0&#45;&gt;Node1</title>
<path fill="none" stroke="midnightblue" d="M136.192,-36.6415C144.632,-37.5349 153.288,-38.4511 161.845,-39.3569"/>
<polygon fill="midnightblue" stroke="midnightblue" points="136.338,-33.1375 126.025,-35.5653 135.601,-40.0986 136.338,-33.1375"/>
</g>
<!-- Node2 -->
<g id="node3" class="node"><title>Node2</title>
<g id="a_node3"><a xlink:href="classConsolidation_1_1Multiplication.html" target="_top" xlink:title="Consolidation::Multiplication\&lt; T \&gt;">
<polygon fill="none" stroke="black" points="163,-0.5 163,-19.5 326,-19.5 326,-0.5 163,-0.5"/>
<text text-anchor="middle" x="244.5" y="-7.5" font-family="Helvetica,sans-Serif" font-size="10.00">Consolidation::Multiplication&lt; T &gt;</text>
</a>
</g>
</g>
<!-- Node0&#45;&gt;Node2 -->
<g id="edge2" class="edge"><title>Node0&#45;&gt;Node2</title>
<path fill="none" stroke="midnightblue" d="M136.178,-21.36C144.935,-20.4331 153.924,-19.4815 162.795,-18.5426"/>
<polygon fill="midnightblue" stroke="midnightblue" points="135.601,-17.9014 126.025,-22.4347 136.338,-24.8625 135.601,-17.9014"/>
</g>
</g>
</svg>
