<?xml version="1.0" encoding="UTF-8" standalone="no"?>
<!DOCTYPE svg PUBLIC "-//W3C//DTD SVG 1.1//EN"
 "http://www.w3.org/Graphics/SVG/1.1/DTD/svg11.dtd">
<!-- Generated by graphviz version 2.38.0 (20140413.2041)
 -->
<!-- Title: Graphical Class Hierarchy Pages: 1 -->
<svg width="570pt" height="513pt"
 viewBox="0.00 0.00 570.00 512.50" xmlns="http://www.w3.org/2000/svg" xmlns:xlink="http://www.w3.org/1999/xlink">
<g id="graph0" class="graph" transform="scale(1 1) rotate(0) translate(4 508.5)">
<title>Graphical Class Hierarchy</title>
<!-- Node49 -->
<g id="node1" class="node"><title>Node49</title>
<g id="a_node1"><a xlink:href="classMixer_1_1AudioSource.html" target="_top" xlink:title="Mixer::AudioSource">
<polygon fill="none" stroke="black" points="192.5,-248 192.5,-267 294.5,-267 294.5,-248 192.5,-248"/>
<text text-anchor="middle" x="243.5" y="-255" font-family="Helvetica,sans-Serif" font-size="10.00">Mixer::AudioSource</text>
</a>
</g>
</g>
<!-- Node9 -->
<g id="node2" class="node"><title>Node9</title>
<g id="a_node2"><a xlink:href="classMixer_1_1CheapSawtoothGenerator.html" target="_top" xlink:title="Mixer::CheapSawtoothGenerator\&lt; T \&gt;">
<polygon fill="none" stroke="black" points="372,-409 372,-428 555,-428 555,-409 372,-409"/>
<text text-anchor="middle" x="463.5" y="-416" font-family="Helvetica,sans-Serif" font-size="10.00">Mixer::CheapSawtoothGenerator&lt; T &gt;</text>
</a>
</g>
</g>
<!-- Node49&#45;&gt;Node9 -->
<g id="edge1" class="edge"><title>Node49&#45;&gt;Node9</title>
<path fill="none" stroke="midnightblue" d="M304.465,-268.651C313.545,-272.476 322.15,-277.61 329,-284.5 366.759,-322.482 325.089,-363.787 365,-399.5 369.113,-403.18 373.72,-406.237 378.635,-408.769"/>
<polygon fill="midnightblue" stroke="midnightblue" points="305.479,-265.294 294.885,-265.12 303.058,-271.862 305.479,-265.294"/>
</g>
<!-- Node10 -->
<g id="node3" class="node"><title>Node10</title>
<g id="a_node3"><a xlink:href="classMixer_1_1CheapSquareGenerator.html" target="_top" xlink:title="Mixer::CheapSquareGenerator\&lt; T \&gt;">
<polygon fill="none" stroke="black" points="377,-371 377,-390 550,-390 550,-371 377,-371"/>
<text text-anchor="middle" x="463.5" y="-378" font-family="Helvetica,sans-Serif" font-size="10.00">Mixer::CheapSquareGenerator&lt; T &gt;</text>
</a>
</g>
</g>
<!-- Node49&#45;&gt;Node10 -->
<g id="edge2" class="edge"><title>Node49&#45;&gt;Node10</title>
<path fill="none" stroke="midnightblue" d="M304.029,-269.59C313.081,-273.305 321.79,-278.159 329,-284.5 357.367,-309.449 335.225,-338.25 365,-361.5 369.893,-365.321 375.338,-368.443 381.083,-370.987"/>
<polygon fill="midnightblue" stroke="midnightblue" points="305.115,-266.261 294.522,-266.117 302.713,-272.836 305.115,-266.261"/>
</g>
<!-- Node7 -->
<g id="node4" class="node"><title>Node7</title>
<g id="a_node4"><a xlink:href="classMixer_1_1ComplexWaveformGenerator.html" target="_top" xlink:title="Mixer::ComplexWaveformGenerator\&lt; T \&gt;">
<polygon fill="none" stroke="black" points="365,-143 365,-162 562,-162 562,-143 365,-143"/>
<text text-anchor="middle" x="463.5" y="-150" font-family="Helvetica,sans-Serif" font-size="10.00">Mixer::ComplexWaveformGenerator&lt; T &gt;</text>
</a>
</g>
</g>
<!-- Node49&#45;&gt;Node7 -->
<g id="edge3" class="edge"><title>Node49&#45;&gt;Node7</title>
<path fill="none" stroke="midnightblue" d="M304.469,-247.552C313.25,-244.344 321.76,-240.104 329,-234.5 354.502,-214.761 338.792,-190.292 365,-171.5 370.326,-167.681 376.219,-164.578 382.393,-162.061"/>
<polygon fill="midnightblue" stroke="midnightblue" points="303.325,-244.244 294.881,-250.644 305.473,-250.906 303.325,-244.244"/>
</g>
<!-- Node50 -->
<g id="node5" class="node"><title>Node50</title>
<g id="a_node5"><a xlink:href="classMixer_1_1Recorder.html" target="_top" xlink:title="Mixer::Recorder\&lt; T \&gt;">
<polygon fill="none" stroke="black" points="408.5,-181 408.5,-200 518.5,-200 518.5,-181 408.5,-181"/>
<text text-anchor="middle" x="463.5" y="-188" font-family="Helvetica,sans-Serif" font-size="10.00">Mixer::Recorder&lt; T &gt;</text>
</a>
</g>
</g>
<!-- Node49&#45;&gt;Node50 -->
<g id="edge4" class="edge"><title>Node49&#45;&gt;Node50</title>
<path fill="none" stroke="midnightblue" d="M300.354,-245.205C310.112,-242.243 320.009,-238.693 329,-234.5 346.654,-226.267 347.056,-217.081 365,-209.5 378.583,-203.762 393.968,-199.737 408.437,-196.922"/>
<polygon fill="midnightblue" stroke="midnightblue" points="299.333,-241.856 290.682,-247.973 301.259,-248.586 299.333,-241.856"/>
</g>
<!-- Node11 -->
<g id="node6" class="node"><title>Node11</title>
<g id="a_node6"><a xlink:href="classMixer_1_1SawtoothGenerator.html" target="_top" xlink:title="Mixer::SawtoothGenerator\&lt; T \&gt;">
<polygon fill="none" stroke="black" points="386,-333 386,-352 541,-352 541,-333 386,-333"/>
<text text-anchor="middle" x="463.5" y="-340" font-family="Helvetica,sans-Serif" font-size="10.00">Mixer::SawtoothGenerator&lt; T &gt;</text>
</a>
</g>
</g>
<!-- Node49&#45;&gt;Node11 -->
<g id="edge5" class="edge"><title>Node49&#45;&gt;Node11</title>
<path fill="none" stroke="midnightblue" d="M298.569,-270.184C309.112,-273.904 319.752,-278.607 329,-284.5 348.894,-297.176 344.4,-312.007 365,-323.5 371.928,-327.365 379.514,-330.455 387.298,-332.923"/>
<polygon fill="midnightblue" stroke="midnightblue" points="299.549,-266.822 288.956,-267.038 297.372,-273.475 299.549,-266.822"/>
</g>
<!-- Node15 -->
<g id="node7" class="node"><title>Node15</title>
<g id="a_node7"><a xlink:href="classMixer_1_1SimpleNote.html" target="_top" xlink:title="Mixer::SimpleNote\&lt;\l T, A, D \&gt;">
<polygon fill="none" stroke="black" points="411.5,-93.5 411.5,-123.5 515.5,-123.5 515.5,-93.5 411.5,-93.5"/>
<text text-anchor="start" x="419.5" y="-111.5" font-family="Helvetica,sans-Serif" font-size="10.00">Mixer::SimpleNote&lt;</text>
<text text-anchor="middle" x="463.5" y="-100.5" font-family="Helvetica,sans-Serif" font-size="10.00"> T, A, D &gt;</text>
</a>
</g>
</g>
<!-- Node49&#45;&gt;Node15 -->
<g id="edge6" class="edge"><title>Node49&#45;&gt;Node15</title>
<path fill="none" stroke="midnightblue" d="M304.146,-249.105C313.263,-245.719 321.963,-241.017 329,-234.5 363.964,-202.119 329.799,-165.623 365,-133.5 377.65,-121.956 394.903,-115.587 411.381,-112.123"/>
<polygon fill="midnightblue" stroke="midnightblue" points="303.005,-245.795 294.548,-252.177 305.139,-252.462 303.005,-245.795"/>
</g>
<!-- Node16 -->
<g id="node8" class="node"><title>Node16</title>
<g id="a_node8"><a xlink:href="classMixer_1_1SimplePlayer.html" target="_top" xlink:title="Mixer::SimplePlayer\l\&lt; T, K \&gt;">
<polygon fill="none" stroke="black" points="411.5,-44.5 411.5,-74.5 515.5,-74.5 515.5,-44.5 411.5,-44.5"/>
<text text-anchor="start" x="419.5" y="-62.5" font-family="Helvetica,sans-Serif" font-size="10.00">Mixer::SimplePlayer</text>
<text text-anchor="middle" x="463.5" y="-51.5" font-family="Helvetica,sans-Serif" font-size="10.00">&lt; T, K &gt;</text>
</a>
</g>
</g>
<!-- Node49&#45;&gt;Node16 -->
<g id="edge7" class="edge"><title>Node49&#45;&gt;Node16</title>
<path fill="none" stroke="midnightblue" d="M304.446,-249.859C313.609,-246.394 322.248,-241.47 329,-234.5 377.005,-184.948 316.394,-132.463 365,-83.5 377.22,-71.1903 394.67,-64.8239 411.438,-61.6404"/>
<polygon fill="midnightblue" stroke="midnightblue" points="303.215,-246.578 294.763,-252.967 305.354,-253.244 303.215,-246.578"/>
</g>
<!-- Node12 -->
<g id="node9" class="node"><title>Node12</title>
<g id="a_node9"><a xlink:href="classMixer_1_1SineGenerator.html" target="_top" xlink:title="Mixer::SineGenerator\&lt; T \&gt;">
<polygon fill="none" stroke="black" points="397,-295 397,-314 530,-314 530,-295 397,-295"/>
<text text-anchor="middle" x="463.5" y="-302" font-family="Helvetica,sans-Serif" font-size="10.00">Mixer::SineGenerator&lt; T &gt;</text>
</a>
</g>
</g>
<!-- Node49&#45;&gt;Node12 -->
<g id="edge8" class="edge"><title>Node49&#45;&gt;Node12</title>
<path fill="none" stroke="midnightblue" d="M294.031,-269.431C315.766,-274.557 341.609,-280.505 365,-285.5 380.179,-288.741 396.736,-292.052 411.825,-294.983"/>
<polygon fill="midnightblue" stroke="midnightblue" points="294.576,-265.963 284.039,-267.064 292.963,-272.775 294.576,-265.963"/>
</g>
<!-- Node13 -->
<g id="node10" class="node"><title>Node13</title>
<g id="a_node10"><a xlink:href="classMixer_1_1SquareGenerator.html" target="_top" xlink:title="Mixer::SquareGenerator\&lt; T \&gt;">
<polygon fill="none" stroke="black" points="391.5,-257 391.5,-276 535.5,-276 535.5,-257 391.5,-257"/>
<text text-anchor="middle" x="463.5" y="-264" font-family="Helvetica,sans-Serif" font-size="10.00">Mixer::SquareGenerator&lt; T &gt;</text>
</a>
</g>
</g>
<!-- Node49&#45;&gt;Node13 -->
<g id="edge9" class="edge"><title>Node49&#45;&gt;Node13</title>
<path fill="none" stroke="midnightblue" d="M304.535,-259.979C331.37,-261.086 363.203,-262.401 391.237,-263.558"/>
<polygon fill="midnightblue" stroke="midnightblue" points="304.649,-256.48 294.514,-259.565 304.361,-263.474 304.649,-256.48"/>
</g>
<!-- Node14 -->
<g id="node11" class="node"><title>Node14</title>
<g id="a_node11"><a xlink:href="classMixer_1_1TriangleGenerator.html" target="_top" xlink:title="Mixer::TriangleGenerator\&lt; T \&gt;">
<polygon fill="none" stroke="black" points="389.5,-219 389.5,-238 537.5,-238 537.5,-219 389.5,-219"/>
<text text-anchor="middle" x="463.5" y="-226" font-family="Helvetica,sans-Serif" font-size="10.00">Mixer::TriangleGenerator&lt; T &gt;</text>
</a>
</g>
</g>
<!-- Node49&#45;&gt;Node14 -->
<g id="edge10" class="edge"><title>Node49&#45;&gt;Node14</title>
<path fill="none" stroke="midnightblue" d="M304.49,-249.52C331.202,-245.966 362.872,-241.753 390.82,-238.035"/>
<polygon fill="midnightblue" stroke="midnightblue" points="303.965,-246.059 294.514,-250.847 304.888,-252.998 303.965,-246.059"/>
</g>
<!-- Node40 -->
<g id="node12" class="node"><title>Node40</title>
<g id="a_node12"><a xlink:href="classMixer_1_1iPlayer.html" target="_top" xlink:title="Mixer::iPlayer">
<polygon fill="none" stroke="black" points="205,-50 205,-69 282,-69 282,-50 205,-50"/>
<text text-anchor="middle" x="243.5" y="-57" font-family="Helvetica,sans-Serif" font-size="10.00">Mixer::iPlayer</text>
</a>
</g>
</g>
<!-- Node40&#45;&gt;Node16 -->
<g id="edge11" class="edge"><title>Node40&#45;&gt;Node16</title>
<path fill="none" stroke="midnightblue" d="M292.52,-59.5C327.766,-59.5 375.553,-59.5 411.483,-59.5"/>
<polygon fill="midnightblue" stroke="midnightblue" points="292.473,-56.0001 282.473,-59.5 292.473,-63.0001 292.473,-56.0001"/>
</g>
<!-- Node0 -->
<g id="node13" class="node"><title>Node0</title>
<g id="a_node13"><a xlink:href="classDataFlow_1_1iSource.html" target="_top" xlink:title="DataFlow::iSource\&lt; T \&gt;">
<polygon fill="none" stroke="black" points="0,-206 0,-225 122,-225 122,-206 0,-206"/>
<text text-anchor="middle" x="61" y="-213" font-family="Helvetica,sans-Serif" font-size="10.00">DataFlow::iSource&lt; T &gt;</text>
</a>
</g>
</g>
<!-- Node0&#45;&gt;Node7 -->
<g id="edge18" class="edge"><title>Node0&#45;&gt;Node7</title>
<path fill="none" stroke="midnightblue" d="M117.702,-203.967C130.889,-201.378 144.922,-198.738 158,-196.5 236.71,-183.034 327.335,-170.29 389.116,-162.017"/>
<polygon fill="midnightblue" stroke="midnightblue" points="116.939,-200.55 107.811,-205.93 118.301,-207.417 116.939,-200.55"/>
</g>
<!-- Node0&#45;&gt;Node15 -->
<g id="edge26" class="edge"><title>Node0&#45;&gt;Node15</title>
<path fill="none" stroke="midnightblue" d="M86.569,-200.871C105.501,-190.185 132.643,-176.115 158,-167.5 244.42,-138.138 349.891,-121.793 411.299,-114.099"/>
<polygon fill="midnightblue" stroke="midnightblue" points="84.6508,-197.936 77.725,-205.954 88.139,-204.005 84.6508,-197.936"/>
</g>
<!-- Node0&#45;&gt;Node16 -->
<g id="edge27" class="edge"><title>Node0&#45;&gt;Node16</title>
<path fill="none" stroke="midnightblue" d="M75.6014,-197.655C92.546,-176.745 123.504,-142.656 158,-124.5 201.47,-101.621 336.697,-78.4653 411.483,-66.9581"/>
<polygon fill="midnightblue" stroke="midnightblue" points="72.6796,-195.707 69.2279,-205.724 78.1728,-200.046 72.6796,-195.707"/>
</g>
<!-- Node1 -->
<g id="node14" class="node"><title>Node1</title>
<g id="a_node14"><a xlink:href="classDataFlow_1_1Consolidator.html" target="_top" xlink:title="DataFlow::Consolidator\l\&lt; T, Consolidation::Accumulation \&gt;">
<polygon fill="none" stroke="black" points="158,-0.5 158,-30.5 329,-30.5 329,-0.5 158,-0.5"/>
<text text-anchor="start" x="166" y="-18.5" font-family="Helvetica,sans-Serif" font-size="10.00">DataFlow::Consolidator</text>
<text text-anchor="middle" x="243.5" y="-7.5" font-family="Helvetica,sans-Serif" font-size="10.00">&lt; T, Consolidation::Accumulation &gt;</text>
</a>
</g>
</g>
<!-- Node0&#45;&gt;Node1 -->
<g id="edge12" class="edge"><title>Node0&#45;&gt;Node1</title>
<path fill="none" stroke="midnightblue" d="M67.2657,-196.055C78.0615,-159.914 106.162,-82.278 158,-40.5 162.765,-36.66 168.103,-33.4096 173.72,-30.6583"/>
<polygon fill="midnightblue" stroke="midnightblue" points="63.8481,-195.277 64.4637,-205.854 70.5783,-197.201 63.8481,-195.277"/>
</g>
<!-- Node2 -->
<g id="node15" class="node"><title>Node2</title>
<g id="a_node15"><a xlink:href="classDataFlow_1_1Applicator.html" target="_top" xlink:title="DataFlow::Applicator\l\&lt; T, K \&gt;">
<polygon fill="none" stroke="black" points="189.5,-419.5 189.5,-449.5 297.5,-449.5 297.5,-419.5 189.5,-419.5"/>
<text text-anchor="start" x="197.5" y="-437.5" font-family="Helvetica,sans-Serif" font-size="10.00">DataFlow::Applicator</text>
<text text-anchor="middle" x="243.5" y="-426.5" font-family="Helvetica,sans-Serif" font-size="10.00">&lt; T, K &gt;</text>
</a>
</g>
</g>
<!-- Node0&#45;&gt;Node2 -->
<g id="edge13" class="edge"><title>Node0&#45;&gt;Node2</title>
<path fill="none" stroke="midnightblue" d="M66.1011,-235.296C75.3158,-274.727 101.431,-363.331 158,-410.5 166.902,-417.923 177.965,-423.053 189.123,-426.599"/>
<polygon fill="midnightblue" stroke="midnightblue" points="69.4773,-234.354 63.896,-225.348 62.6431,-235.869 69.4773,-234.354"/>
</g>
<!-- Node3 -->
<g id="node16" class="node"><title>Node3</title>
<g id="a_node16"><a xlink:href="classDataFlow_1_1Consolidator.html" target="_top" xlink:title="DataFlow::Consolidator\l\&lt; T, K \&gt;">
<polygon fill="none" stroke="black" points="184,-370.5 184,-400.5 303,-400.5 303,-370.5 184,-370.5"/>
<text text-anchor="start" x="192" y="-388.5" font-family="Helvetica,sans-Serif" font-size="10.00">DataFlow::Consolidator</text>
<text text-anchor="middle" x="243.5" y="-377.5" font-family="Helvetica,sans-Serif" font-size="10.00">&lt; T, K &gt;</text>
</a>
</g>
</g>
<!-- Node0&#45;&gt;Node3 -->
<g id="edge14" class="edge"><title>Node0&#45;&gt;Node3</title>
<path fill="none" stroke="midnightblue" d="M69.4859,-234.617C82.6395,-265.71 112.858,-327.112 158,-360.5 165.626,-366.14 174.515,-370.515 183.607,-373.906"/>
<polygon fill="midnightblue" stroke="midnightblue" points="72.708,-233.249 65.6824,-225.319 66.2291,-235.899 72.708,-233.249"/>
</g>
<!-- Node4 -->
<g id="node17" class="node"><title>Node4</title>
<g id="a_node17"><a xlink:href="classDataFlow_1_1iBuffer.html" target="_top" xlink:title="DataFlow::iBuffer\&lt; T \&gt;">
<polygon fill="none" stroke="black" points="185,-332 185,-351 302,-351 302,-332 185,-332"/>
<text text-anchor="middle" x="243.5" y="-339" font-family="Helvetica,sans-Serif" font-size="10.00">DataFlow::iBuffer&lt; T &gt;</text>
</a>
</g>
</g>
<!-- Node0&#45;&gt;Node4 -->
<g id="edge15" class="edge"><title>Node0&#45;&gt;Node4</title>
<path fill="none" stroke="midnightblue" d="M73.2512,-233.94C89.0568,-258.193 120.178,-300.322 158,-322.5 166.172,-327.292 175.439,-330.876 184.767,-333.556"/>
<polygon fill="midnightblue" stroke="midnightblue" points="76.0953,-231.889 67.7867,-225.315 70.1822,-235.636 76.0953,-231.889"/>
</g>
<!-- Node8 -->
<g id="node20" class="node"><title>Node8</title>
<g id="a_node20"><a xlink:href="classMixer_1_1iWaveformGenerator.html" target="_top" xlink:title="Mixer::iWaveformGenerator\&lt; T \&gt;">
<polygon fill="none" stroke="black" points="163,-294 163,-313 324,-313 324,-294 163,-294"/>
<text text-anchor="middle" x="243.5" y="-301" font-family="Helvetica,sans-Serif" font-size="10.00">Mixer::iWaveformGenerator&lt; T &gt;</text>
</a>
</g>
</g>
<!-- Node0&#45;&gt;Node8 -->
<g id="edge19" class="edge"><title>Node0&#45;&gt;Node8</title>
<path fill="none" stroke="midnightblue" d="M82.9006,-231.012C101.765,-244.458 130.671,-263.712 158,-276.5 173.065,-283.549 190.458,-289.456 205.534,-293.93"/>
<polygon fill="midnightblue" stroke="midnightblue" points="84.8937,-228.134 74.7397,-225.11 80.7915,-233.806 84.8937,-228.134"/>
</g>
<!-- Node17 -->
<g id="node21" class="node"><title>Node17</title>
<g id="a_node21"><a xlink:href="classOggFileLoader.html" target="_top" xlink:title="OggFileLoader\&lt; T, K \&gt;">
<polygon fill="none" stroke="black" points="185.5,-206 185.5,-225 301.5,-225 301.5,-206 185.5,-206"/>
<text text-anchor="middle" x="243.5" y="-213" font-family="Helvetica,sans-Serif" font-size="10.00">OggFileLoader&lt; T, K &gt;</text>
</a>
</g>
</g>
<!-- Node0&#45;&gt;Node17 -->
<g id="edge28" class="edge"><title>Node0&#45;&gt;Node17</title>
<path fill="none" stroke="midnightblue" d="M132.315,-215.5C149.902,-215.5 168.552,-215.5 185.41,-215.5"/>
<polygon fill="midnightblue" stroke="midnightblue" points="132.104,-212 122.104,-215.5 132.104,-219 132.104,-212"/>
</g>
<!-- Node5 -->
<g id="node18" class="node"><title>Node5</title>
<g id="a_node18"><a xlink:href="classDataFlow_1_1QueueBuffer.html" target="_top" xlink:title="DataFlow::QueueBuffer\&lt; T \&gt;">
<polygon fill="none" stroke="black" points="392,-485 392,-504 535,-504 535,-485 392,-485"/>
<text text-anchor="middle" x="463.5" y="-492" font-family="Helvetica,sans-Serif" font-size="10.00">DataFlow::QueueBuffer&lt; T &gt;</text>
</a>
</g>
</g>
<!-- Node4&#45;&gt;Node5 -->
<g id="edge16" class="edge"><title>Node4&#45;&gt;Node5</title>
<path fill="none" stroke="midnightblue" d="M311.67,-350.324C318.018,-353.16 323.954,-356.812 329,-361.5 367.925,-397.665 325.36,-440.119 365,-475.5 372.591,-482.275 381.862,-486.937 391.635,-490.099"/>
<polygon fill="midnightblue" stroke="midnightblue" points="312.722,-346.98 302.13,-346.727 310.252,-353.53 312.722,-346.98"/>
</g>
<!-- Node6 -->
<g id="node19" class="node"><title>Node6</title>
<g id="a_node19"><a xlink:href="classDataFlow_1_1RepeatingBuffer.html" target="_top" xlink:title="DataFlow::RepeatingBuffer\&lt; T \&gt;">
<polygon fill="none" stroke="black" points="384,-447 384,-466 543,-466 543,-447 384,-447"/>
<text text-anchor="middle" x="463.5" y="-454" font-family="Helvetica,sans-Serif" font-size="10.00">DataFlow::RepeatingBuffer&lt; T &gt;</text>
</a>
</g>
</g>
<!-- Node4&#45;&gt;Node6 -->
<g id="edge17" class="edge"><title>Node4&#45;&gt;Node6</title>
<path fill="none" stroke="midnightblue" d="M312.052,-351.47C318.148,-354.102 323.925,-357.392 329,-361.5 358.053,-385.014 335.484,-414.571 365,-437.5 370.584,-441.838 376.88,-445.273 383.517,-447.984"/>
<polygon fill="midnightblue" stroke="midnightblue" points="312.859,-348.037 302.266,-347.853 310.432,-354.603 312.859,-348.037"/>
</g>
<!-- Node8&#45;&gt;Node9 -->
<g id="edge20" class="edge"><title>Node8&#45;&gt;Node9</title>
<path fill="none" stroke="midnightblue" d="M322.361,-317.848C324.676,-319.263 326.898,-320.81 329,-322.5 358.439,-346.175 335.225,-376.25 365,-399.5 369.893,-403.321 375.338,-406.443 381.083,-408.987"/>
<polygon fill="midnightblue" stroke="midnightblue" points="323.517,-314.505 313.027,-313.019 320.3,-320.722 323.517,-314.505"/>
</g>
<!-- Node8&#45;&gt;Node10 -->
<g id="edge21" class="edge"><title>Node8&#45;&gt;Node10</title>
<path fill="none" stroke="midnightblue" d="M316.628,-316.497C320.923,-318.251 325.085,-320.241 329,-322.5 349.433,-334.288 344.4,-350.007 365,-361.5 371.928,-365.365 379.514,-368.455 387.298,-370.923"/>
<polygon fill="midnightblue" stroke="midnightblue" points="317.649,-313.144 307.055,-313.023 315.261,-319.724 317.649,-313.144"/>
</g>
<!-- Node8&#45;&gt;Node11 -->
<g id="edge22" class="edge"><title>Node8&#45;&gt;Node11</title>
<path fill="none" stroke="midnightblue" d="M308.026,-314.865C340.184,-320.618 378.778,-327.522 409.344,-332.991"/>
<polygon fill="midnightblue" stroke="midnightblue" points="308.289,-311.356 297.829,-313.04 307.056,-318.247 308.289,-311.356"/>
</g>
<!-- Node8&#45;&gt;Node12 -->
<g id="edge23" class="edge"><title>Node8&#45;&gt;Node12</title>
<path fill="none" stroke="midnightblue" d="M334.292,-303.912C355.183,-304.008 377.046,-304.108 396.679,-304.198"/>
<polygon fill="midnightblue" stroke="midnightblue" points="334.144,-300.411 324.128,-303.865 334.112,-307.411 334.144,-300.411"/>
</g>
<!-- Node8&#45;&gt;Node13 -->
<g id="edge24" class="edge"><title>Node8&#45;&gt;Node13</title>
<path fill="none" stroke="midnightblue" d="M310.757,-292.255C341.236,-287.082 377.014,-281.009 406.171,-276.06"/>
<polygon fill="midnightblue" stroke="midnightblue" points="309.914,-288.848 300.64,-293.972 311.085,-295.749 309.914,-288.848"/>
</g>
<!-- Node8&#45;&gt;Node14 -->
<g id="edge25" class="edge"><title>Node8&#45;&gt;Node14</title>
<path fill="none" stroke="midnightblue" d="M294.502,-290.882C306.167,-287.033 318.299,-282.259 329,-276.5 347.092,-266.764 346.37,-256.164 365,-247.5 373.366,-243.61 382.493,-240.515 391.699,-238.054"/>
<polygon fill="midnightblue" stroke="midnightblue" points="293.355,-287.573 284.856,-293.899 295.445,-294.254 293.355,-287.573"/>
</g>
</g>
</svg>
