<?xml version="1.0" encoding="UTF-8" standalone="no"?>
<!DOCTYPE svg PUBLIC "-//W3C//DTD SVG 1.1//EN"
 "http://www.w3.org/Graphics/SVG/1.1/DTD/svg11.dtd">
<!-- Generated by graphviz version 2.38.0 (20140413.2041)
 -->
<!-- Title: Graphical Class Hierarchy Pages: 1 -->
<svg width="430pt" height="252pt"
 viewBox="0.00 0.00 430.00 252.00" xmlns="http://www.w3.org/2000/svg" xmlns:xlink="http://www.w3.org/1999/xlink">
<g id="graph0" class="graph" transform="scale(1 1) rotate(0) translate(4 248)">
<title>Graphical Class Hierarchy</title>
<!-- Node19 -->
<g id="node1" class="node"><title>Node19</title>
<g id="a_node1"><a xlink:href="classMixer_1_1AudioSource.html" target="_top" xlink:title="Mixer::AudioSource">
<polygon fill="none" stroke="black" points="10,-178 10,-197 112,-197 112,-178 10,-178"/>
<text text-anchor="middle" x="61" y="-185" font-family="Helvetica,sans-Serif" font-size="10.00">Mixer::AudioSource</text>
</a>
</g>
</g>
<!-- Node5 -->
<g id="node2" class="node"><title>Node5</title>
<g id="a_node2"><a xlink:href="classMixer_1_1SimplePlayer.html" target="_top" xlink:title="Mixer::SimplePlayer\l\&lt; T, K \&gt;">
<polygon fill="none" stroke="black" points="172.5,-213.5 172.5,-243.5 276.5,-243.5 276.5,-213.5 172.5,-213.5"/>
<text text-anchor="start" x="180.5" y="-231.5" font-family="Helvetica,sans-Serif" font-size="10.00">Mixer::SimplePlayer</text>
<text text-anchor="middle" x="224.5" y="-220.5" font-family="Helvetica,sans-Serif" font-size="10.00">&lt; T, K &gt;</text>
</a>
</g>
</g>
<!-- Node19&#45;&gt;Node5 -->
<g id="edge1" class="edge"><title>Node19&#45;&gt;Node5</title>
<path fill="none" stroke="midnightblue" d="M109.213,-199.486C129.075,-204.528 152.23,-210.407 172.484,-215.548"/>
<polygon fill="midnightblue" stroke="midnightblue" points="110.011,-196.078 99.4573,-197.009 108.289,-202.862 110.011,-196.078"/>
</g>
<!-- Node6 -->
<g id="node3" class="node"><title>Node6</title>
<g id="a_node3"><a xlink:href="classMixer_1_1SineGenerator.html" target="_top" xlink:title="Mixer::SineGenerator\&lt; T \&gt;">
<polygon fill="none" stroke="black" points="158,-175 158,-194 291,-194 291,-175 158,-175"/>
<text text-anchor="middle" x="224.5" y="-182" font-family="Helvetica,sans-Serif" font-size="10.00">Mixer::SineGenerator&lt; T &gt;</text>
</a>
</g>
</g>
<!-- Node19&#45;&gt;Node6 -->
<g id="edge2" class="edge"><title>Node19&#45;&gt;Node6</title>
<path fill="none" stroke="midnightblue" d="M122.241,-186.381C133.859,-186.165 146.083,-185.938 157.863,-185.719"/>
<polygon fill="midnightblue" stroke="midnightblue" points="122.148,-182.882 112.214,-186.567 122.278,-189.881 122.148,-182.882"/>
</g>
<!-- Node11 -->
<g id="node4" class="node"><title>Node11</title>
<g id="a_node4"><a xlink:href="classMixer_1_1iPlayer.html" target="_top" xlink:title="Mixer::iPlayer">
<polygon fill="none" stroke="black" points="22.5,-219 22.5,-238 99.5,-238 99.5,-219 22.5,-219"/>
<text text-anchor="middle" x="61" y="-226" font-family="Helvetica,sans-Serif" font-size="10.00">Mixer::iPlayer</text>
</a>
</g>
</g>
<!-- Node11&#45;&gt;Node5 -->
<g id="edge3" class="edge"><title>Node11&#45;&gt;Node5</title>
<path fill="none" stroke="midnightblue" d="M110.118,-228.5C129.756,-228.5 152.489,-228.5 172.421,-228.5"/>
<polygon fill="midnightblue" stroke="midnightblue" points="109.865,-225 99.8646,-228.5 109.865,-232 109.865,-225"/>
</g>
<!-- Node0 -->
<g id="node5" class="node"><title>Node0</title>
<g id="a_node5"><a xlink:href="classDataFlow_1_1iSource.html" target="_top" xlink:title="DataFlow::iSource\&lt; T \&gt;">
<polygon fill="none" stroke="black" points="0,-118 0,-137 122,-137 122,-118 0,-118"/>
<text text-anchor="middle" x="61" y="-125" font-family="Helvetica,sans-Serif" font-size="10.00">DataFlow::iSource&lt; T &gt;</text>
</a>
</g>
</g>
<!-- Node0&#45;&gt;Node5 -->
<g id="edge8" class="edge"><title>Node0&#45;&gt;Node5</title>
<path fill="none" stroke="midnightblue" d="M86.0431,-142.564C97.2902,-149.951 110.671,-159.237 122,-168.5 139.276,-182.625 139.188,-191.496 158,-203.5 163.849,-207.232 170.34,-210.541 176.898,-213.432"/>
<polygon fill="midnightblue" stroke="midnightblue" points="87.8595,-139.571 77.5605,-137.085 84.061,-145.451 87.8595,-139.571"/>
</g>
<!-- Node0&#45;&gt;Node6 -->
<g id="edge9" class="edge"><title>Node0&#45;&gt;Node6</title>
<path fill="none" stroke="midnightblue" d="M93.7202,-140.931C112.293,-148.574 136.292,-158.074 158,-165.5 167.747,-168.834 178.433,-172.097 188.296,-174.951"/>
<polygon fill="midnightblue" stroke="midnightblue" points="94.8549,-137.612 84.277,-137.013 92.1721,-144.078 94.8549,-137.612"/>
</g>
<!-- Node1 -->
<g id="node6" class="node"><title>Node1</title>
<g id="a_node6"><a xlink:href="classDataFlow_1_1Applicator.html" target="_top" xlink:title="DataFlow::Applicator\l\&lt; T, K \&gt;">
<polygon fill="none" stroke="black" points="170.5,-49.5 170.5,-79.5 278.5,-79.5 278.5,-49.5 170.5,-49.5"/>
<text text-anchor="start" x="178.5" y="-67.5" font-family="Helvetica,sans-Serif" font-size="10.00">DataFlow::Applicator</text>
<text text-anchor="middle" x="224.5" y="-56.5" font-family="Helvetica,sans-Serif" font-size="10.00">&lt; T, K &gt;</text>
</a>
</g>
</g>
<!-- Node0&#45;&gt;Node1 -->
<g id="edge4" class="edge"><title>Node0&#45;&gt;Node1</title>
<path fill="none" stroke="midnightblue" d="M95.4566,-114.14C113.886,-106.81 137.182,-97.5927 158,-89.5 166.282,-86.2806 175.166,-82.8644 183.636,-79.6255"/>
<polygon fill="midnightblue" stroke="midnightblue" points="94.0299,-110.941 86.034,-117.892 96.6194,-117.444 94.0299,-110.941"/>
</g>
<!-- Node2 -->
<g id="node7" class="node"><title>Node2</title>
<g id="a_node7"><a xlink:href="classDataFlow_1_1Consolidator.html" target="_top" xlink:title="DataFlow::Consolidator\l\&lt; T, K \&gt;">
<polygon fill="none" stroke="black" points="165,-0.5 165,-30.5 284,-30.5 284,-0.5 165,-0.5"/>
<text text-anchor="start" x="173" y="-18.5" font-family="Helvetica,sans-Serif" font-size="10.00">DataFlow::Consolidator</text>
<text text-anchor="middle" x="224.5" y="-7.5" font-family="Helvetica,sans-Serif" font-size="10.00">&lt; T, K &gt;</text>
</a>
</g>
</g>
<!-- Node0&#45;&gt;Node2 -->
<g id="edge5" class="edge"><title>Node0&#45;&gt;Node2</title>
<path fill="none" stroke="midnightblue" d="M76.7292,-110.452C94.347,-90.9717 125.55,-59.243 158,-39.5 163.484,-36.1637 169.504,-33.1802 175.604,-30.5463"/>
<polygon fill="midnightblue" stroke="midnightblue" points="74.0676,-108.179 70.0465,-117.981 79.3026,-112.826 74.0676,-108.179"/>
</g>
<!-- Node3 -->
<g id="node8" class="node"><title>Node3</title>
<g id="a_node8"><a xlink:href="classDataFlow_1_1iBuffer.html" target="_top" xlink:title="DataFlow::iBuffer\&lt; T \&gt;">
<polygon fill="none" stroke="black" points="166,-137 166,-156 283,-156 283,-137 166,-137"/>
<text text-anchor="middle" x="224.5" y="-144" font-family="Helvetica,sans-Serif" font-size="10.00">DataFlow::iBuffer&lt; T &gt;</text>
</a>
</g>
</g>
<!-- Node0&#45;&gt;Node3 -->
<g id="edge6" class="edge"><title>Node0&#45;&gt;Node3</title>
<path fill="none" stroke="midnightblue" d="M132.354,-135.777C143.59,-137.099 155.1,-138.453 165.993,-139.734"/>
<polygon fill="midnightblue" stroke="midnightblue" points="132.477,-132.267 122.137,-134.575 131.659,-139.219 132.477,-132.267"/>
</g>
<!-- Node7 -->
<g id="node10" class="node"><title>Node7</title>
<g id="a_node10"><a xlink:href="classOggFileLoader.html" target="_top" xlink:title="OggFileLoader\&lt; T, K \&gt;">
<polygon fill="none" stroke="black" points="166.5,-99 166.5,-118 282.5,-118 282.5,-99 166.5,-99"/>
<text text-anchor="middle" x="224.5" y="-106" font-family="Helvetica,sans-Serif" font-size="10.00">OggFileLoader&lt; T, K &gt;</text>
</a>
</g>
</g>
<!-- Node0&#45;&gt;Node7 -->
<g id="edge10" class="edge"><title>Node0&#45;&gt;Node7</title>
<path fill="none" stroke="midnightblue" d="M132.072,-119.256C143.489,-117.913 155.197,-116.536 166.259,-115.234"/>
<polygon fill="midnightblue" stroke="midnightblue" points="131.659,-115.781 122.137,-120.425 132.477,-122.733 131.659,-115.781"/>
</g>
<!-- Node4 -->
<g id="node9" class="node"><title>Node4</title>
<g id="a_node9"><a xlink:href="classQueueBuffer.html" target="_top" xlink:title="QueueBuffer\&lt; T \&gt;">
<polygon fill="none" stroke="black" points="327,-137 327,-156 422,-156 422,-137 327,-137"/>
<text text-anchor="middle" x="374.5" y="-144" font-family="Helvetica,sans-Serif" font-size="10.00">QueueBuffer&lt; T &gt;</text>
</a>
</g>
</g>
<!-- Node3&#45;&gt;Node4 -->
<g id="edge7" class="edge"><title>Node3&#45;&gt;Node4</title>
<path fill="none" stroke="midnightblue" d="M293.417,-146.5C304.693,-146.5 316.159,-146.5 326.758,-146.5"/>
<polygon fill="midnightblue" stroke="midnightblue" points="293.144,-143 283.144,-146.5 293.144,-150 293.144,-143"/>
</g>
</g>
</svg>
