<?xml version="1.0" encoding="UTF-8" standalone="no"?>
<!DOCTYPE svg PUBLIC "-//W3C//DTD SVG 1.1//EN"
 "http://www.w3.org/Graphics/SVG/1.1/DTD/svg11.dtd">
<!-- Generated by graphviz version 2.38.0 (20140413.2041)
 -->
<!-- Title: Mixer::iWaveformGenerator&lt; T &gt; Pages: 1 -->
<svg width="1035pt" height="408pt"
 viewBox="0.00 0.00 1034.50 408.00" xmlns="http://www.w3.org/2000/svg" xmlns:xlink="http://www.w3.org/1999/xlink">
<g id="graph0" class="graph" transform="scale(1 1) rotate(0) translate(4 404)">
<title>Mixer::iWaveformGenerator&lt; T &gt;</title>
<!-- Node0 -->
<g id="node1" class="node"><title>Node0</title>
<polygon fill="#bfbfbf" stroke="black" points="470,-204.5 470,-294.5 631,-294.5 631,-204.5 470,-204.5"/>
<text text-anchor="middle" x="550.5" y="-282.5" font-family="Helvetica,sans-Serif" font-size="10.00">Mixer::iWaveformGenerator&lt; T &gt;</text>
<polyline fill="none" stroke="black" points="470,-275.5 631,-275.5 "/>
<text text-anchor="middle" x="550.5" y="-263.5" font-family="Helvetica,sans-Serif" font-size="10.00"> </text>
<polyline fill="none" stroke="black" points="470,-256.5 631,-256.5 "/>
<text text-anchor="start" x="478" y="-244.5" font-family="Helvetica,sans-Serif" font-size="10.00">+ getFrequency()</text>
<text text-anchor="start" x="478" y="-233.5" font-family="Helvetica,sans-Serif" font-size="10.00">+ setFrequency()</text>
<text text-anchor="start" x="478" y="-222.5" font-family="Helvetica,sans-Serif" font-size="10.00">+ setFrequency()</text>
<text text-anchor="start" x="478" y="-211.5" font-family="Helvetica,sans-Serif" font-size="10.00">+ ~iWaveformGenerator()</text>
</g>
<!-- Node2 -->
<g id="node3" class="node"><title>Node2</title>
<g id="a_node3"><a xlink:href="$classMixer_1_1CheapSawtoothGenerator.html" xlink:title="{Mixer::CheapSawtoothGenerator\&lt; T \&gt;\n|&#45; frequency\l&#45; period\l&#45; m\l&#45; position\l&#45; putOnes\l&#45; transitioner\l&#45; transitioner2\l|+ get()\l+ getFrequency()\l+ setFrequency()\l+ setFrequency()\l+ CheapSawtoothGenerator()\l}">
<polygon fill="none" stroke="black" points="0,-0.5 0,-167.5 183,-167.5 183,-0.5 0,-0.5"/>
<text text-anchor="middle" x="91.5" y="-155.5" font-family="Helvetica,sans-Serif" font-size="10.00">Mixer::CheapSawtoothGenerator&lt; T &gt;</text>
<polyline fill="none" stroke="black" points="0,-148.5 183,-148.5 "/>
<text text-anchor="start" x="8" y="-136.5" font-family="Helvetica,sans-Serif" font-size="10.00">&#45; frequency</text>
<text text-anchor="start" x="8" y="-125.5" font-family="Helvetica,sans-Serif" font-size="10.00">&#45; period</text>
<text text-anchor="start" x="8" y="-114.5" font-family="Helvetica,sans-Serif" font-size="10.00">&#45; m</text>
<text text-anchor="start" x="8" y="-103.5" font-family="Helvetica,sans-Serif" font-size="10.00">&#45; position</text>
<text text-anchor="start" x="8" y="-92.5" font-family="Helvetica,sans-Serif" font-size="10.00">&#45; putOnes</text>
<text text-anchor="start" x="8" y="-81.5" font-family="Helvetica,sans-Serif" font-size="10.00">&#45; transitioner</text>
<text text-anchor="start" x="8" y="-70.5" font-family="Helvetica,sans-Serif" font-size="10.00">&#45; transitioner2</text>
<polyline fill="none" stroke="black" points="0,-63.5 183,-63.5 "/>
<text text-anchor="start" x="8" y="-51.5" font-family="Helvetica,sans-Serif" font-size="10.00">+ get()</text>
<text text-anchor="start" x="8" y="-40.5" font-family="Helvetica,sans-Serif" font-size="10.00">+ getFrequency()</text>
<text text-anchor="start" x="8" y="-29.5" font-family="Helvetica,sans-Serif" font-size="10.00">+ setFrequency()</text>
<text text-anchor="start" x="8" y="-18.5" font-family="Helvetica,sans-Serif" font-size="10.00">+ setFrequency()</text>
<text text-anchor="start" x="8" y="-7.5" font-family="Helvetica,sans-Serif" font-size="10.00">+ CheapSawtoothGenerator()</text>
</a>
</g>
</g>
<!-- Node0&#45;&gt;Node2 -->
<g id="edge2" class="edge"><title>Node0&#45;&gt;Node2</title>
<path fill="none" stroke="midnightblue" d="M459.533,-240.06C384.509,-230.351 276.915,-209.966 191.5,-168 188.665,-166.607 185.841,-165.118 183.035,-163.548"/>
<polygon fill="none" stroke="midnightblue" points="459.54,-243.588 469.898,-241.36 460.411,-236.643 459.54,-243.588"/>
</g>
<!-- Node3 -->
<g id="node4" class="node"><title>Node3</title>
<g id="a_node4"><a xlink:href="$classMixer_1_1CheapSquareGenerator.html" xlink:title="{Mixer::CheapSquareGenerator\&lt; T \&gt;\n|&#45; frequency\l&#45; halfPeriod\l&#45; counter\l&#45; putOnes\l&#45; transitioner\l|+ get()\l+ getFrequency()\l+ setFrequency()\l+ setFrequency()\l+ CheapSquareGenerator()\l}">
<polygon fill="none" stroke="black" points="201,-11.5 201,-156.5 374,-156.5 374,-11.5 201,-11.5"/>
<text text-anchor="middle" x="287.5" y="-144.5" font-family="Helvetica,sans-Serif" font-size="10.00">Mixer::CheapSquareGenerator&lt; T &gt;</text>
<polyline fill="none" stroke="black" points="201,-137.5 374,-137.5 "/>
<text text-anchor="start" x="209" y="-125.5" font-family="Helvetica,sans-Serif" font-size="10.00">&#45; frequency</text>
<text text-anchor="start" x="209" y="-114.5" font-family="Helvetica,sans-Serif" font-size="10.00">&#45; halfPeriod</text>
<text text-anchor="start" x="209" y="-103.5" font-family="Helvetica,sans-Serif" font-size="10.00">&#45; counter</text>
<text text-anchor="start" x="209" y="-92.5" font-family="Helvetica,sans-Serif" font-size="10.00">&#45; putOnes</text>
<text text-anchor="start" x="209" y="-81.5" font-family="Helvetica,sans-Serif" font-size="10.00">&#45; transitioner</text>
<polyline fill="none" stroke="black" points="201,-74.5 374,-74.5 "/>
<text text-anchor="start" x="209" y="-62.5" font-family="Helvetica,sans-Serif" font-size="10.00">+ get()</text>
<text text-anchor="start" x="209" y="-51.5" font-family="Helvetica,sans-Serif" font-size="10.00">+ getFrequency()</text>
<text text-anchor="start" x="209" y="-40.5" font-family="Helvetica,sans-Serif" font-size="10.00">+ setFrequency()</text>
<text text-anchor="start" x="209" y="-29.5" font-family="Helvetica,sans-Serif" font-size="10.00">+ setFrequency()</text>
<text text-anchor="start" x="209" y="-18.5" font-family="Helvetica,sans-Serif" font-size="10.00">+ CheapSquareGenerator()</text>
</a>
</g>
</g>
<!-- Node0&#45;&gt;Node3 -->
<g id="edge3" class="edge"><title>Node0&#45;&gt;Node3</title>
<path fill="none" stroke="midnightblue" d="M460.769,-211.009C434.727,-198.682 406.781,-183.994 382.5,-168 377.104,-164.446 371.691,-160.609 366.335,-156.601"/>
<polygon fill="none" stroke="midnightblue" points="459.35,-214.209 469.892,-215.269 462.312,-207.867 459.35,-214.209"/>
</g>
<!-- Node4 -->
<g id="node5" class="node"><title>Node4</title>
<g id="a_node5"><a xlink:href="$classMixer_1_1SawtoothGenerator.html" xlink:title="{Mixer::SawtoothGenerator\&lt; T \&gt;\n|&#45; frequency\l&#45; harmonics\l&#45; complexSource\l&#45; generators\l&#45; volumeControllers\l|+ get()\l+ getFrequency()\l+ setFrequency()\l+ setFrequency()\l+ SawtoothGenerator()\l}">
<polygon fill="none" stroke="black" points="392,-11.5 392,-156.5 547,-156.5 547,-11.5 392,-11.5"/>
<text text-anchor="middle" x="469.5" y="-144.5" font-family="Helvetica,sans-Serif" font-size="10.00">Mixer::SawtoothGenerator&lt; T &gt;</text>
<polyline fill="none" stroke="black" points="392,-137.5 547,-137.5 "/>
<text text-anchor="start" x="400" y="-125.5" font-family="Helvetica,sans-Serif" font-size="10.00">&#45; frequency</text>
<text text-anchor="start" x="400" y="-114.5" font-family="Helvetica,sans-Serif" font-size="10.00">&#45; harmonics</text>
<text text-anchor="start" x="400" y="-103.5" font-family="Helvetica,sans-Serif" font-size="10.00">&#45; complexSource</text>
<text text-anchor="start" x="400" y="-92.5" font-family="Helvetica,sans-Serif" font-size="10.00">&#45; generators</text>
<text text-anchor="start" x="400" y="-81.5" font-family="Helvetica,sans-Serif" font-size="10.00">&#45; volumeControllers</text>
<polyline fill="none" stroke="black" points="392,-74.5 547,-74.5 "/>
<text text-anchor="start" x="400" y="-62.5" font-family="Helvetica,sans-Serif" font-size="10.00">+ get()</text>
<text text-anchor="start" x="400" y="-51.5" font-family="Helvetica,sans-Serif" font-size="10.00">+ getFrequency()</text>
<text text-anchor="start" x="400" y="-40.5" font-family="Helvetica,sans-Serif" font-size="10.00">+ setFrequency()</text>
<text text-anchor="start" x="400" y="-29.5" font-family="Helvetica,sans-Serif" font-size="10.00">+ setFrequency()</text>
<text text-anchor="start" x="400" y="-18.5" font-family="Helvetica,sans-Serif" font-size="10.00">+ SawtoothGenerator()</text>
</a>
</g>
</g>
<!-- Node0&#45;&gt;Node4 -->
<g id="edge4" class="edge"><title>Node0&#45;&gt;Node4</title>
<path fill="none" stroke="midnightblue" d="M524.04,-195.089C517.965,-182.828 511.41,-169.596 505.023,-156.703"/>
<polygon fill="none" stroke="midnightblue" points="521.005,-196.848 528.58,-204.255 527.277,-193.74 521.005,-196.848"/>
</g>
<!-- Node5 -->
<g id="node6" class="node"><title>Node5</title>
<g id="a_node6"><a xlink:href="$classMixer_1_1SineGenerator.html" xlink:title="{Mixer::SineGenerator\&lt; T \&gt;\n|&#45; step\l&#45; position\l&#45; transitioner\l&#45; sinetableUninitialized\l&#45; sinetable\l|+ get()\l+ getFrequency()\l+ setFrequency()\l+ setFrequency()\l+ SineGenerator()\l&#45; filler()\l}">
<polygon fill="none" stroke="black" points="565,-6 565,-162 698,-162 698,-6 565,-6"/>
<text text-anchor="middle" x="631.5" y="-150" font-family="Helvetica,sans-Serif" font-size="10.00">Mixer::SineGenerator&lt; T &gt;</text>
<polyline fill="none" stroke="black" points="565,-143 698,-143 "/>
<text text-anchor="start" x="573" y="-131" font-family="Helvetica,sans-Serif" font-size="10.00">&#45; step</text>
<text text-anchor="start" x="573" y="-120" font-family="Helvetica,sans-Serif" font-size="10.00">&#45; position</text>
<text text-anchor="start" x="573" y="-109" font-family="Helvetica,sans-Serif" font-size="10.00">&#45; transitioner</text>
<text text-anchor="start" x="573" y="-98" font-family="Helvetica,sans-Serif" font-size="10.00">&#45; sinetableUninitialized</text>
<text text-anchor="start" x="573" y="-87" font-family="Helvetica,sans-Serif" font-size="10.00">&#45; sinetable</text>
<polyline fill="none" stroke="black" points="565,-80 698,-80 "/>
<text text-anchor="start" x="573" y="-68" font-family="Helvetica,sans-Serif" font-size="10.00">+ get()</text>
<text text-anchor="start" x="573" y="-57" font-family="Helvetica,sans-Serif" font-size="10.00">+ getFrequency()</text>
<text text-anchor="start" x="573" y="-46" font-family="Helvetica,sans-Serif" font-size="10.00">+ setFrequency()</text>
<text text-anchor="start" x="573" y="-35" font-family="Helvetica,sans-Serif" font-size="10.00">+ setFrequency()</text>
<text text-anchor="start" x="573" y="-24" font-family="Helvetica,sans-Serif" font-size="10.00">+ SineGenerator()</text>
<text text-anchor="start" x="573" y="-13" font-family="Helvetica,sans-Serif" font-size="10.00">&#45; filler()</text>
</a>
</g>
</g>
<!-- Node0&#45;&gt;Node5 -->
<g id="edge5" class="edge"><title>Node0&#45;&gt;Node5</title>
<path fill="none" stroke="midnightblue" d="M576.928,-195.154C582.176,-184.562 587.783,-173.243 593.332,-162.043"/>
<polygon fill="none" stroke="midnightblue" points="573.723,-193.74 572.42,-204.255 579.995,-196.848 573.723,-193.74"/>
</g>
<!-- Node6 -->
<g id="node7" class="node"><title>Node6</title>
<g id="a_node7"><a xlink:href="$classMixer_1_1SquareGenerator.html" xlink:title="{Mixer::SquareGenerator\&lt; T \&gt;\n|&#45; frequency\l&#45; harmonics\l&#45; complexSource\l&#45; generators\l&#45; volumeControllers\l|+ get()\l+ getFrequency()\l+ setFrequency()\l+ setFrequency()\l+ SquareGenerator()\l}">
<polygon fill="none" stroke="black" points="716.5,-11.5 716.5,-156.5 860.5,-156.5 860.5,-11.5 716.5,-11.5"/>
<text text-anchor="middle" x="788.5" y="-144.5" font-family="Helvetica,sans-Serif" font-size="10.00">Mixer::SquareGenerator&lt; T &gt;</text>
<polyline fill="none" stroke="black" points="716.5,-137.5 860.5,-137.5 "/>
<text text-anchor="start" x="724.5" y="-125.5" font-family="Helvetica,sans-Serif" font-size="10.00">&#45; frequency</text>
<text text-anchor="start" x="724.5" y="-114.5" font-family="Helvetica,sans-Serif" font-size="10.00">&#45; harmonics</text>
<text text-anchor="start" x="724.5" y="-103.5" font-family="Helvetica,sans-Serif" font-size="10.00">&#45; complexSource</text>
<text text-anchor="start" x="724.5" y="-92.5" font-family="Helvetica,sans-Serif" font-size="10.00">&#45; generators</text>
<text text-anchor="start" x="724.5" y="-81.5" font-family="Helvetica,sans-Serif" font-size="10.00">&#45; volumeControllers</text>
<polyline fill="none" stroke="black" points="716.5,-74.5 860.5,-74.5 "/>
<text text-anchor="start" x="724.5" y="-62.5" font-family="Helvetica,sans-Serif" font-size="10.00">+ get()</text>
<text text-anchor="start" x="724.5" y="-51.5" font-family="Helvetica,sans-Serif" font-size="10.00">+ getFrequency()</text>
<text text-anchor="start" x="724.5" y="-40.5" font-family="Helvetica,sans-Serif" font-size="10.00">+ setFrequency()</text>
<text text-anchor="start" x="724.5" y="-29.5" font-family="Helvetica,sans-Serif" font-size="10.00">+ setFrequency()</text>
<text text-anchor="start" x="724.5" y="-18.5" font-family="Helvetica,sans-Serif" font-size="10.00">+ SquareGenerator()</text>
</a>
</g>
</g>
<!-- Node0&#45;&gt;Node6 -->
<g id="edge6" class="edge"><title>Node0&#45;&gt;Node6</title>
<path fill="none" stroke="midnightblue" d="M640.314,-208.76C663.104,-197.005 686.938,-183.172 707.5,-168 712.198,-164.533 716.872,-160.787 721.465,-156.868"/>
<polygon fill="none" stroke="midnightblue" points="638.64,-205.685 631.304,-213.329 641.806,-211.928 638.64,-205.685"/>
</g>
<!-- Node7 -->
<g id="node8" class="node"><title>Node7</title>
<g id="a_node8"><a xlink:href="$classMixer_1_1TriangleGenerator.html" xlink:title="{Mixer::TriangleGenerator\&lt; T \&gt;\n|&#45; frequency\l&#45; harmonics\l&#45; complexSource\l&#45; generators\l&#45; volumeControllers\l|+ get()\l+ getFrequency()\l+ setFrequency()\l+ setFrequency()\l+ TriangleGenerator()\l}">
<polygon fill="none" stroke="black" points="878.5,-11.5 878.5,-156.5 1026.5,-156.5 1026.5,-11.5 878.5,-11.5"/>
<text text-anchor="middle" x="952.5" y="-144.5" font-family="Helvetica,sans-Serif" font-size="10.00">Mixer::TriangleGenerator&lt; T &gt;</text>
<polyline fill="none" stroke="black" points="878.5,-137.5 1026.5,-137.5 "/>
<text text-anchor="start" x="886.5" y="-125.5" font-family="Helvetica,sans-Serif" font-size="10.00">&#45; frequency</text>
<text text-anchor="start" x="886.5" y="-114.5" font-family="Helvetica,sans-Serif" font-size="10.00">&#45; harmonics</text>
<text text-anchor="start" x="886.5" y="-103.5" font-family="Helvetica,sans-Serif" font-size="10.00">&#45; complexSource</text>
<text text-anchor="start" x="886.5" y="-92.5" font-family="Helvetica,sans-Serif" font-size="10.00">&#45; generators</text>
<text text-anchor="start" x="886.5" y="-81.5" font-family="Helvetica,sans-Serif" font-size="10.00">&#45; volumeControllers</text>
<polyline fill="none" stroke="black" points="878.5,-74.5 1026.5,-74.5 "/>
<text text-anchor="start" x="886.5" y="-62.5" font-family="Helvetica,sans-Serif" font-size="10.00">+ get()</text>
<text text-anchor="start" x="886.5" y="-51.5" font-family="Helvetica,sans-Serif" font-size="10.00">+ getFrequency()</text>
<text text-anchor="start" x="886.5" y="-40.5" font-family="Helvetica,sans-Serif" font-size="10.00">+ setFrequency()</text>
<text text-anchor="start" x="886.5" y="-29.5" font-family="Helvetica,sans-Serif" font-size="10.00">+ setFrequency()</text>
<text text-anchor="start" x="886.5" y="-18.5" font-family="Helvetica,sans-Serif" font-size="10.00">+ TriangleGenerator()</text>
</a>
</g>
</g>
<!-- Node0&#45;&gt;Node7 -->
<g id="edge7" class="edge"><title>Node0&#45;&gt;Node7</title>
<path fill="none" stroke="midnightblue" d="M641.359,-238.741C707.972,-228.554 798.747,-208.163 869.5,-168 875.348,-164.68 881.068,-160.837 886.595,-156.661"/>
<polygon fill="none" stroke="midnightblue" points="640.677,-235.304 631.297,-240.231 641.702,-242.229 640.677,-235.304"/>
</g>
<!-- Node1 -->
<g id="node2" class="node"><title>Node1</title>
<g id="a_node2"><a xlink:href="$classDataFlow_1_1iSource.html" xlink:title="{DataFlow::iSource\&lt; T \&gt;\n||+ get()\l+ ~iSource()\l}">
<polygon fill="none" stroke="black" points="489.5,-331.5 489.5,-399.5 611.5,-399.5 611.5,-331.5 489.5,-331.5"/>
<text text-anchor="middle" x="550.5" y="-387.5" font-family="Helvetica,sans-Serif" font-size="10.00">DataFlow::iSource&lt; T &gt;</text>
<polyline fill="none" stroke="black" points="489.5,-380.5 611.5,-380.5 "/>
<text text-anchor="middle" x="550.5" y="-368.5" font-family="Helvetica,sans-Serif" font-size="10.00"> </text>
<polyline fill="none" stroke="black" points="489.5,-361.5 611.5,-361.5 "/>
<text text-anchor="start" x="497.5" y="-349.5" font-family="Helvetica,sans-Serif" font-size="10.00">+ get()</text>
<text text-anchor="start" x="497.5" y="-338.5" font-family="Helvetica,sans-Serif" font-size="10.00">+ ~iSource()</text>
</a>
</g>
</g>
<!-- Node1&#45;&gt;Node0 -->
<g id="edge1" class="edge"><title>Node1&#45;&gt;Node0</title>
<path fill="none" stroke="midnightblue" d="M550.5,-320.972C550.5,-312.346 550.5,-303.284 550.5,-294.638"/>
<polygon fill="none" stroke="midnightblue" points="547,-321.22 550.5,-331.22 554,-321.22 547,-321.22"/>
</g>
</g>
</svg>
