<?xml version="1.0" encoding="UTF-8" standalone="no"?>
<!DOCTYPE svg PUBLIC "-//W3C//DTD SVG 1.1//EN"
 "http://www.w3.org/Graphics/SVG/1.1/DTD/svg11.dtd">
<!-- Generated by graphviz version 2.38.0 (20140413.2041)
 -->
<!-- Title: Transition::Linear&lt; T &gt; Pages: 1 -->
<svg width="129pt" height="248pt"
 viewBox="0.00 0.00 129.00 248.00" xmlns="http://www.w3.org/2000/svg" xmlns:xlink="http://www.w3.org/1999/xlink">
<g id="graph0" class="graph" transform="scale(1 1) rotate(0) translate(4 244)">
<title>Transition::Linear&lt; T &gt;</title>
<!-- Node0 -->
<g id="node1" class="node"><title>Node0</title>
<polygon fill="#bfbfbf" stroke="black" points="2.5,-0.5 2.5,-68.5 118.5,-68.5 118.5,-0.5 2.5,-0.5"/>
<text text-anchor="middle" x="60.5" y="-56.5" font-family="Helvetica,sans-Serif" font-size="10.00">Transition::Linear&lt; T &gt;</text>
<polyline fill="none" stroke="black" points="2.5,-49.5 118.5,-49.5 "/>
<text text-anchor="middle" x="60.5" y="-37.5" font-family="Helvetica,sans-Serif" font-size="10.00"> </text>
<polyline fill="none" stroke="black" points="2.5,-30.5 118.5,-30.5 "/>
<text text-anchor="start" x="10.5" y="-18.5" font-family="Helvetica,sans-Serif" font-size="10.00">+ init()</text>
<text text-anchor="start" x="10.5" y="-7.5" font-family="Helvetica,sans-Serif" font-size="10.00">+ operator()()</text>
</g>
<!-- Node1 -->
<g id="node2" class="node"><title>Node1</title>
<g id="a_node2"><a xlink:href="$classTransitionFunction.html" xlink:title="{TransitionFunction\&lt; T \&gt;\n|# m\l# x1\l# x2\l# y1\l# y2\l|+ init()\l+ operator()()\l+ ~TransitionFunction()\l# TransitionFunction()\l}">
<polygon fill="none" stroke="black" points="-7.10543e-15,-105.5 -7.10543e-15,-239.5 121,-239.5 121,-105.5 -7.10543e-15,-105.5"/>
<text text-anchor="middle" x="60.5" y="-227.5" font-family="Helvetica,sans-Serif" font-size="10.00">TransitionFunction&lt; T &gt;</text>
<polyline fill="none" stroke="black" points="-7.10543e-15,-220.5 121,-220.5 "/>
<text text-anchor="start" x="8" y="-208.5" font-family="Helvetica,sans-Serif" font-size="10.00"># m</text>
<text text-anchor="start" x="8" y="-197.5" font-family="Helvetica,sans-Serif" font-size="10.00"># x1</text>
<text text-anchor="start" x="8" y="-186.5" font-family="Helvetica,sans-Serif" font-size="10.00"># x2</text>
<text text-anchor="start" x="8" y="-175.5" font-family="Helvetica,sans-Serif" font-size="10.00"># y1</text>
<text text-anchor="start" x="8" y="-164.5" font-family="Helvetica,sans-Serif" font-size="10.00"># y2</text>
<polyline fill="none" stroke="black" points="-7.10543e-15,-157.5 121,-157.5 "/>
<text text-anchor="start" x="8" y="-145.5" font-family="Helvetica,sans-Serif" font-size="10.00">+ init()</text>
<text text-anchor="start" x="8" y="-134.5" font-family="Helvetica,sans-Serif" font-size="10.00">+ operator()()</text>
<text text-anchor="start" x="8" y="-123.5" font-family="Helvetica,sans-Serif" font-size="10.00">+ ~TransitionFunction()</text>
<text text-anchor="start" x="8" y="-112.5" font-family="Helvetica,sans-Serif" font-size="10.00"># TransitionFunction()</text>
</a>
</g>
</g>
<!-- Node1&#45;&gt;Node0 -->
<g id="edge1" class="edge"><title>Node1&#45;&gt;Node0</title>
<path fill="none" stroke="#8b1a1a" d="M60.5,-95.3667C60.5,-86.0791 60.5,-76.9969 60.5,-68.8265"/>
<polygon fill="none" stroke="#8b1a1a" points="57.0001,-95.4919 60.5,-105.492 64.0001,-95.492 57.0001,-95.4919"/>
</g>
</g>
</svg>
