<?xml version="1.0" encoding="UTF-8" standalone="no"?>
<!DOCTYPE svg PUBLIC "-//W3C//DTD SVG 1.1//EN"
 "http://www.w3.org/Graphics/SVG/1.1/DTD/svg11.dtd">
<!-- Generated by graphviz version 2.38.0 (20140413.2041)
 -->
<!-- Title: TransitionFunction&lt; T &gt; Pages: 1 -->
<svg width="1588pt" height="259pt"
 viewBox="0.00 0.00 1588.00 259.00" xmlns="http://www.w3.org/2000/svg" xmlns:xlink="http://www.w3.org/1999/xlink">
<g id="graph0" class="graph" transform="scale(1 1) rotate(0) translate(4 255)">
<title>TransitionFunction&lt; T &gt;</title>
<!-- Node0 -->
<g id="node1" class="node"><title>Node0</title>
<polygon fill="#bfbfbf" stroke="black" points="711.5,-116.5 711.5,-250.5 832.5,-250.5 832.5,-116.5 711.5,-116.5"/>
<text text-anchor="middle" x="772" y="-238.5" font-family="Helvetica,sans-Serif" font-size="10.00">TransitionFunction&lt; T &gt;</text>
<polyline fill="none" stroke="black" points="711.5,-231.5 832.5,-231.5 "/>
<text text-anchor="start" x="719.5" y="-219.5" font-family="Helvetica,sans-Serif" font-size="10.00"># m</text>
<text text-anchor="start" x="719.5" y="-208.5" font-family="Helvetica,sans-Serif" font-size="10.00"># x1</text>
<text text-anchor="start" x="719.5" y="-197.5" font-family="Helvetica,sans-Serif" font-size="10.00"># x2</text>
<text text-anchor="start" x="719.5" y="-186.5" font-family="Helvetica,sans-Serif" font-size="10.00"># y1</text>
<text text-anchor="start" x="719.5" y="-175.5" font-family="Helvetica,sans-Serif" font-size="10.00"># y2</text>
<polyline fill="none" stroke="black" points="711.5,-168.5 832.5,-168.5 "/>
<text text-anchor="start" x="719.5" y="-156.5" font-family="Helvetica,sans-Serif" font-size="10.00">+ init()</text>
<text text-anchor="start" x="719.5" y="-145.5" font-family="Helvetica,sans-Serif" font-size="10.00">+ operator()()</text>
<text text-anchor="start" x="719.5" y="-134.5" font-family="Helvetica,sans-Serif" font-size="10.00">+ ~TransitionFunction()</text>
<text text-anchor="start" x="719.5" y="-123.5" font-family="Helvetica,sans-Serif" font-size="10.00"># TransitionFunction()</text>
</g>
<!-- Node1 -->
<g id="node2" class="node"><title>Node1</title>
<g id="a_node2"><a xlink:href="$classTransition_1_1EaseIn_1_1Cubic.html" xlink:title="{Transition::EaseIn\l::Cubic\&lt; T \&gt;\n||+ init()\l+ operator()()\l}">
<polygon fill="none" stroke="black" points="0,-0.5 0,-79.5 96,-79.5 96,-0.5 0,-0.5"/>
<text text-anchor="start" x="8" y="-67.5" font-family="Helvetica,sans-Serif" font-size="10.00">Transition::EaseIn</text>
<text text-anchor="middle" x="48" y="-56.5" font-family="Helvetica,sans-Serif" font-size="10.00">::Cubic&lt; T &gt;</text>
<polyline fill="none" stroke="black" points="0,-49.5 96,-49.5 "/>
<text text-anchor="middle" x="48" y="-37.5" font-family="Helvetica,sans-Serif" font-size="10.00"> </text>
<polyline fill="none" stroke="black" points="0,-30.5 96,-30.5 "/>
<text text-anchor="start" x="8" y="-18.5" font-family="Helvetica,sans-Serif" font-size="10.00">+ init()</text>
<text text-anchor="start" x="8" y="-7.5" font-family="Helvetica,sans-Serif" font-size="10.00">+ operator()()</text>
</a>
</g>
</g>
<!-- Node0&#45;&gt;Node1 -->
<g id="edge1" class="edge"><title>Node0&#45;&gt;Node1</title>
<path fill="none" stroke="midnightblue" d="M701.049,-181.828C576.177,-178.446 310.871,-161.337 105,-80 101.989,-78.8104 98.9792,-77.4379 96.0036,-75.9344"/>
<polygon fill="none" stroke="midnightblue" points="701.159,-185.332 711.243,-182.082 701.333,-178.334 701.159,-185.332"/>
</g>
<!-- Node2 -->
<g id="node3" class="node"><title>Node2</title>
<g id="a_node3"><a xlink:href="$classTransition_1_1EaseIn_1_1Quadratic.html" xlink:title="{Transition::EaseIn\l::Quadratic\&lt; T \&gt;\n||+ init()\l+ operator()()\l}">
<polygon fill="none" stroke="black" points="114,-0.5 114,-79.5 210,-79.5 210,-0.5 114,-0.5"/>
<text text-anchor="start" x="122" y="-67.5" font-family="Helvetica,sans-Serif" font-size="10.00">Transition::EaseIn</text>
<text text-anchor="middle" x="162" y="-56.5" font-family="Helvetica,sans-Serif" font-size="10.00">::Quadratic&lt; T &gt;</text>
<polyline fill="none" stroke="black" points="114,-49.5 210,-49.5 "/>
<text text-anchor="middle" x="162" y="-37.5" font-family="Helvetica,sans-Serif" font-size="10.00"> </text>
<polyline fill="none" stroke="black" points="114,-30.5 210,-30.5 "/>
<text text-anchor="start" x="122" y="-18.5" font-family="Helvetica,sans-Serif" font-size="10.00">+ init()</text>
<text text-anchor="start" x="122" y="-7.5" font-family="Helvetica,sans-Serif" font-size="10.00">+ operator()()</text>
</a>
</g>
</g>
<!-- Node0&#45;&gt;Node2 -->
<g id="edge2" class="edge"><title>Node0&#45;&gt;Node2</title>
<path fill="none" stroke="midnightblue" d="M701.057,-178.747C593.191,-170.994 383.146,-147.792 219,-80 216.008,-78.7642 213.013,-77.3552 210.048,-75.8234"/>
<polygon fill="none" stroke="midnightblue" points="700.953,-182.248 711.172,-179.45 701.439,-175.265 700.953,-182.248"/>
</g>
<!-- Node3 -->
<g id="node4" class="node"><title>Node3</title>
<g id="a_node4"><a xlink:href="$classTransition_1_1EaseIn_1_1Quartic.html" xlink:title="{Transition::EaseIn\l::Quartic\&lt; T \&gt;\n||+ init()\l+ operator()()\l}">
<polygon fill="none" stroke="black" points="228,-0.5 228,-79.5 324,-79.5 324,-0.5 228,-0.5"/>
<text text-anchor="start" x="236" y="-67.5" font-family="Helvetica,sans-Serif" font-size="10.00">Transition::EaseIn</text>
<text text-anchor="middle" x="276" y="-56.5" font-family="Helvetica,sans-Serif" font-size="10.00">::Quartic&lt; T &gt;</text>
<polyline fill="none" stroke="black" points="228,-49.5 324,-49.5 "/>
<text text-anchor="middle" x="276" y="-37.5" font-family="Helvetica,sans-Serif" font-size="10.00"> </text>
<polyline fill="none" stroke="black" points="228,-30.5 324,-30.5 "/>
<text text-anchor="start" x="236" y="-18.5" font-family="Helvetica,sans-Serif" font-size="10.00">+ init()</text>
<text text-anchor="start" x="236" y="-7.5" font-family="Helvetica,sans-Serif" font-size="10.00">+ operator()()</text>
</a>
</g>
</g>
<!-- Node0&#45;&gt;Node3 -->
<g id="edge3" class="edge"><title>Node0&#45;&gt;Node3</title>
<path fill="none" stroke="midnightblue" d="M701.198,-174.179C612.236,-161.903 456.289,-134.277 333,-80 330.037,-78.6956 327.065,-77.2324 324.119,-75.6586"/>
<polygon fill="none" stroke="midnightblue" points="700.8,-177.657 711.179,-175.531 701.739,-170.721 700.8,-177.657"/>
</g>
<!-- Node4 -->
<g id="node5" class="node"><title>Node4</title>
<g id="a_node5"><a xlink:href="$classTransition_1_1EaseIn_1_1Quintic.html" xlink:title="{Transition::EaseIn\l::Quintic\&lt; T \&gt;\n||+ init()\l+ operator()()\l}">
<polygon fill="none" stroke="black" points="342,-0.5 342,-79.5 438,-79.5 438,-0.5 342,-0.5"/>
<text text-anchor="start" x="350" y="-67.5" font-family="Helvetica,sans-Serif" font-size="10.00">Transition::EaseIn</text>
<text text-anchor="middle" x="390" y="-56.5" font-family="Helvetica,sans-Serif" font-size="10.00">::Quintic&lt; T &gt;</text>
<polyline fill="none" stroke="black" points="342,-49.5 438,-49.5 "/>
<text text-anchor="middle" x="390" y="-37.5" font-family="Helvetica,sans-Serif" font-size="10.00"> </text>
<polyline fill="none" stroke="black" points="342,-30.5 438,-30.5 "/>
<text text-anchor="start" x="350" y="-18.5" font-family="Helvetica,sans-Serif" font-size="10.00">+ init()</text>
<text text-anchor="start" x="350" y="-7.5" font-family="Helvetica,sans-Serif" font-size="10.00">+ operator()()</text>
</a>
</g>
</g>
<!-- Node0&#45;&gt;Node4 -->
<g id="edge4" class="edge"><title>Node0&#45;&gt;Node4</title>
<path fill="none" stroke="midnightblue" d="M701.181,-166.582C633.765,-149.959 530.496,-120.62 447,-80 444.089,-78.5837 441.158,-77.0324 438.243,-75.3902"/>
<polygon fill="none" stroke="midnightblue" points="700.728,-170.074 711.273,-169.041 702.386,-163.273 700.728,-170.074"/>
</g>
<!-- Node5 -->
<g id="node6" class="node"><title>Node5</title>
<g id="a_node6"><a xlink:href="$classTransition_1_1EaseInOut_1_1Cubic.html" xlink:title="{Transition::EaseInOut\l::Cubic\&lt; T \&gt;\n||+ init()\l+ operator()()\l}">
<polygon fill="none" stroke="black" points="456,-0.5 456,-79.5 568,-79.5 568,-0.5 456,-0.5"/>
<text text-anchor="start" x="464" y="-67.5" font-family="Helvetica,sans-Serif" font-size="10.00">Transition::EaseInOut</text>
<text text-anchor="middle" x="512" y="-56.5" font-family="Helvetica,sans-Serif" font-size="10.00">::Cubic&lt; T &gt;</text>
<polyline fill="none" stroke="black" points="456,-49.5 568,-49.5 "/>
<text text-anchor="middle" x="512" y="-37.5" font-family="Helvetica,sans-Serif" font-size="10.00"> </text>
<polyline fill="none" stroke="black" points="456,-30.5 568,-30.5 "/>
<text text-anchor="start" x="464" y="-18.5" font-family="Helvetica,sans-Serif" font-size="10.00">+ init()</text>
<text text-anchor="start" x="464" y="-7.5" font-family="Helvetica,sans-Serif" font-size="10.00">+ operator()()</text>
</a>
</g>
</g>
<!-- Node0&#45;&gt;Node5 -->
<g id="edge5" class="edge"><title>Node0&#45;&gt;Node5</title>
<path fill="none" stroke="midnightblue" d="M702.058,-146.95C664.677,-127.646 618.03,-103.068 577,-80 574.132,-78.3876 571.205,-76.7182 568.256,-75.0183"/>
<polygon fill="none" stroke="midnightblue" points="700.861,-150.27 711.353,-151.74 704.068,-144.048 700.861,-150.27"/>
</g>
<!-- Node6 -->
<g id="node7" class="node"><title>Node6</title>
<g id="a_node7"><a xlink:href="$classTransition_1_1EaseInOut_1_1Quadratic.html" xlink:title="{Transition::EaseInOut\l::Quadratic\&lt; T \&gt;\n||+ init()\l+ operator()()\l}">
<polygon fill="none" stroke="black" points="586,-0.5 586,-79.5 698,-79.5 698,-0.5 586,-0.5"/>
<text text-anchor="start" x="594" y="-67.5" font-family="Helvetica,sans-Serif" font-size="10.00">Transition::EaseInOut</text>
<text text-anchor="middle" x="642" y="-56.5" font-family="Helvetica,sans-Serif" font-size="10.00">::Quadratic&lt; T &gt;</text>
<polyline fill="none" stroke="black" points="586,-49.5 698,-49.5 "/>
<text text-anchor="middle" x="642" y="-37.5" font-family="Helvetica,sans-Serif" font-size="10.00"> </text>
<polyline fill="none" stroke="black" points="586,-30.5 698,-30.5 "/>
<text text-anchor="start" x="594" y="-18.5" font-family="Helvetica,sans-Serif" font-size="10.00">+ init()</text>
<text text-anchor="start" x="594" y="-7.5" font-family="Helvetica,sans-Serif" font-size="10.00">+ operator()()</text>
</a>
</g>
</g>
<!-- Node0&#45;&gt;Node6 -->
<g id="edge6" class="edge"><title>Node0&#45;&gt;Node6</title>
<path fill="none" stroke="midnightblue" d="M704.171,-108.67C694.999,-98.687 685.902,-88.7857 677.613,-79.7634"/>
<polygon fill="none" stroke="midnightblue" points="701.844,-111.311 711.187,-116.307 706.999,-106.575 701.844,-111.311"/>
</g>
<!-- Node7 -->
<g id="node8" class="node"><title>Node7</title>
<g id="a_node8"><a xlink:href="$classTransition_1_1EaseInOut_1_1Quartic.html" xlink:title="{Transition::EaseInOut\l::Quartic\&lt; T \&gt;\n||+ init()\l+ operator()()\l}">
<polygon fill="none" stroke="black" points="716,-0.5 716,-79.5 828,-79.5 828,-0.5 716,-0.5"/>
<text text-anchor="start" x="724" y="-67.5" font-family="Helvetica,sans-Serif" font-size="10.00">Transition::EaseInOut</text>
<text text-anchor="middle" x="772" y="-56.5" font-family="Helvetica,sans-Serif" font-size="10.00">::Quartic&lt; T &gt;</text>
<polyline fill="none" stroke="black" points="716,-49.5 828,-49.5 "/>
<text text-anchor="middle" x="772" y="-37.5" font-family="Helvetica,sans-Serif" font-size="10.00"> </text>
<polyline fill="none" stroke="black" points="716,-30.5 828,-30.5 "/>
<text text-anchor="start" x="724" y="-18.5" font-family="Helvetica,sans-Serif" font-size="10.00">+ init()</text>
<text text-anchor="start" x="724" y="-7.5" font-family="Helvetica,sans-Serif" font-size="10.00">+ operator()()</text>
</a>
</g>
</g>
<!-- Node0&#45;&gt;Node7 -->
<g id="edge7" class="edge"><title>Node0&#45;&gt;Node7</title>
<path fill="none" stroke="midnightblue" d="M772,-106.03C772,-96.9466 772,-87.9896 772,-79.7634"/>
<polygon fill="none" stroke="midnightblue" points="768.5,-106.307 772,-116.307 775.5,-106.307 768.5,-106.307"/>
</g>
<!-- Node8 -->
<g id="node9" class="node"><title>Node8</title>
<g id="a_node9"><a xlink:href="$classTransition_1_1EaseInOut_1_1Quintic.html" xlink:title="{Transition::EaseInOut\l::Quintic\&lt; T \&gt;\n||+ init()\l+ operator()()\l}">
<polygon fill="none" stroke="black" points="846,-0.5 846,-79.5 958,-79.5 958,-0.5 846,-0.5"/>
<text text-anchor="start" x="854" y="-67.5" font-family="Helvetica,sans-Serif" font-size="10.00">Transition::EaseInOut</text>
<text text-anchor="middle" x="902" y="-56.5" font-family="Helvetica,sans-Serif" font-size="10.00">::Quintic&lt; T &gt;</text>
<polyline fill="none" stroke="black" points="846,-49.5 958,-49.5 "/>
<text text-anchor="middle" x="902" y="-37.5" font-family="Helvetica,sans-Serif" font-size="10.00"> </text>
<polyline fill="none" stroke="black" points="846,-30.5 958,-30.5 "/>
<text text-anchor="start" x="854" y="-18.5" font-family="Helvetica,sans-Serif" font-size="10.00">+ init()</text>
<text text-anchor="start" x="854" y="-7.5" font-family="Helvetica,sans-Serif" font-size="10.00">+ operator()()</text>
</a>
</g>
</g>
<!-- Node0&#45;&gt;Node8 -->
<g id="edge8" class="edge"><title>Node0&#45;&gt;Node8</title>
<path fill="none" stroke="midnightblue" d="M839.829,-108.67C849.001,-98.687 858.098,-88.7857 866.387,-79.7634"/>
<polygon fill="none" stroke="midnightblue" points="837.001,-106.575 832.813,-116.307 842.156,-111.311 837.001,-106.575"/>
</g>
<!-- Node9 -->
<g id="node10" class="node"><title>Node9</title>
<g id="a_node10"><a xlink:href="$classTransition_1_1EaseOut_1_1Cubic.html" xlink:title="{Transition::EaseOut\l::Cubic\&lt; T \&gt;\n||+ init()\l+ operator()()\l}">
<polygon fill="none" stroke="black" points="976,-0.5 976,-79.5 1080,-79.5 1080,-0.5 976,-0.5"/>
<text text-anchor="start" x="984" y="-67.5" font-family="Helvetica,sans-Serif" font-size="10.00">Transition::EaseOut</text>
<text text-anchor="middle" x="1028" y="-56.5" font-family="Helvetica,sans-Serif" font-size="10.00">::Cubic&lt; T &gt;</text>
<polyline fill="none" stroke="black" points="976,-49.5 1080,-49.5 "/>
<text text-anchor="middle" x="1028" y="-37.5" font-family="Helvetica,sans-Serif" font-size="10.00"> </text>
<polyline fill="none" stroke="black" points="976,-30.5 1080,-30.5 "/>
<text text-anchor="start" x="984" y="-18.5" font-family="Helvetica,sans-Serif" font-size="10.00">+ init()</text>
<text text-anchor="start" x="984" y="-7.5" font-family="Helvetica,sans-Serif" font-size="10.00">+ operator()()</text>
</a>
</g>
</g>
<!-- Node0&#45;&gt;Node9 -->
<g id="edge9" class="edge"><title>Node0&#45;&gt;Node9</title>
<path fill="none" stroke="midnightblue" d="M842.21,-147.42C879.668,-128.249 926.302,-103.649 967,-80 969.934,-78.2949 972.928,-76.5156 975.937,-74.6968"/>
<polygon fill="none" stroke="midnightblue" points="840.211,-144.511 832.894,-152.173 843.392,-150.746 840.211,-144.511"/>
</g>
<!-- Node10 -->
<g id="node11" class="node"><title>Node10</title>
<g id="a_node11"><a xlink:href="$classTransition_1_1EaseOut_1_1Quadratic.html" xlink:title="{Transition::EaseOut\l::Quadratic\&lt; T \&gt;\n||+ init()\l+ operator()()\l}">
<polygon fill="none" stroke="black" points="1098,-0.5 1098,-79.5 1202,-79.5 1202,-0.5 1098,-0.5"/>
<text text-anchor="start" x="1106" y="-67.5" font-family="Helvetica,sans-Serif" font-size="10.00">Transition::EaseOut</text>
<text text-anchor="middle" x="1150" y="-56.5" font-family="Helvetica,sans-Serif" font-size="10.00">::Quadratic&lt; T &gt;</text>
<polyline fill="none" stroke="black" points="1098,-49.5 1202,-49.5 "/>
<text text-anchor="middle" x="1150" y="-37.5" font-family="Helvetica,sans-Serif" font-size="10.00"> </text>
<polyline fill="none" stroke="black" points="1098,-30.5 1202,-30.5 "/>
<text text-anchor="start" x="1106" y="-18.5" font-family="Helvetica,sans-Serif" font-size="10.00">+ init()</text>
<text text-anchor="start" x="1106" y="-7.5" font-family="Helvetica,sans-Serif" font-size="10.00">+ operator()()</text>
</a>
</g>
</g>
<!-- Node0&#45;&gt;Node10 -->
<g id="edge10" class="edge"><title>Node0&#45;&gt;Node10</title>
<path fill="none" stroke="midnightblue" d="M842.576,-165.26C908.15,-147.954 1007.65,-118.378 1089,-80 1091.96,-78.6056 1094.94,-77.0922 1097.92,-75.4983"/>
<polygon fill="none" stroke="midnightblue" points="841.542,-161.912 832.753,-167.827 843.313,-168.685 841.542,-161.912"/>
</g>
<!-- Node11 -->
<g id="node12" class="node"><title>Node11</title>
<g id="a_node12"><a xlink:href="$classTransition_1_1EaseOut_1_1Quartic.html" xlink:title="{Transition::EaseOut\l::Quartic\&lt; T \&gt;\n||+ init()\l+ operator()()\l}">
<polygon fill="none" stroke="black" points="1220,-0.5 1220,-79.5 1324,-79.5 1324,-0.5 1220,-0.5"/>
<text text-anchor="start" x="1228" y="-67.5" font-family="Helvetica,sans-Serif" font-size="10.00">Transition::EaseOut</text>
<text text-anchor="middle" x="1272" y="-56.5" font-family="Helvetica,sans-Serif" font-size="10.00">::Quartic&lt; T &gt;</text>
<polyline fill="none" stroke="black" points="1220,-49.5 1324,-49.5 "/>
<text text-anchor="middle" x="1272" y="-37.5" font-family="Helvetica,sans-Serif" font-size="10.00"> </text>
<polyline fill="none" stroke="black" points="1220,-30.5 1324,-30.5 "/>
<text text-anchor="start" x="1228" y="-18.5" font-family="Helvetica,sans-Serif" font-size="10.00">+ init()</text>
<text text-anchor="start" x="1228" y="-7.5" font-family="Helvetica,sans-Serif" font-size="10.00">+ operator()()</text>
</a>
</g>
</g>
<!-- Node0&#45;&gt;Node11 -->
<g id="edge11" class="edge"><title>Node0&#45;&gt;Node11</title>
<path fill="none" stroke="midnightblue" d="M842.534,-173.558C931.219,-160.638 1086.88,-132.347 1211,-80 1213.9,-78.7788 1216.81,-77.4243 1219.7,-75.974"/>
<polygon fill="none" stroke="midnightblue" points="841.987,-170.1 832.585,-174.984 842.98,-177.03 841.987,-170.1"/>
</g>
<!-- Node12 -->
<g id="node13" class="node"><title>Node12</title>
<g id="a_node13"><a xlink:href="$classTransition_1_1EaseOut_1_1Quintic.html" xlink:title="{Transition::EaseOut\l::Quintic\&lt; T \&gt;\n||+ init()\l+ operator()()\l}">
<polygon fill="none" stroke="black" points="1342,-0.5 1342,-79.5 1446,-79.5 1446,-0.5 1342,-0.5"/>
<text text-anchor="start" x="1350" y="-67.5" font-family="Helvetica,sans-Serif" font-size="10.00">Transition::EaseOut</text>
<text text-anchor="middle" x="1394" y="-56.5" font-family="Helvetica,sans-Serif" font-size="10.00">::Quintic&lt; T &gt;</text>
<polyline fill="none" stroke="black" points="1342,-49.5 1446,-49.5 "/>
<text text-anchor="middle" x="1394" y="-37.5" font-family="Helvetica,sans-Serif" font-size="10.00"> </text>
<polyline fill="none" stroke="black" points="1342,-30.5 1446,-30.5 "/>
<text text-anchor="start" x="1350" y="-18.5" font-family="Helvetica,sans-Serif" font-size="10.00">+ init()</text>
<text text-anchor="start" x="1350" y="-7.5" font-family="Helvetica,sans-Serif" font-size="10.00">+ operator()()</text>
</a>
</g>
</g>
<!-- Node0&#45;&gt;Node12 -->
<g id="edge12" class="edge"><title>Node0&#45;&gt;Node12</title>
<path fill="none" stroke="midnightblue" d="M842.834,-178.343C951.65,-170.039 1164.97,-146.097 1333,-80 1335.92,-78.8497 1338.86,-77.552 1341.77,-76.1469"/>
<polygon fill="none" stroke="midnightblue" points="842.349,-174.869 832.635,-179.099 842.866,-181.85 842.349,-174.869"/>
</g>
<!-- Node13 -->
<g id="node14" class="node"><title>Node13</title>
<g id="a_node14"><a xlink:href="$classTransition_1_1Linear.html" xlink:title="{Transition::Linear\&lt; T \&gt;\n||+ init()\l+ operator()()\l}">
<polygon fill="none" stroke="black" points="1464,-6 1464,-74 1580,-74 1580,-6 1464,-6"/>
<text text-anchor="middle" x="1522" y="-62" font-family="Helvetica,sans-Serif" font-size="10.00">Transition::Linear&lt; T &gt;</text>
<polyline fill="none" stroke="black" points="1464,-55 1580,-55 "/>
<text text-anchor="middle" x="1522" y="-43" font-family="Helvetica,sans-Serif" font-size="10.00"> </text>
<polyline fill="none" stroke="black" points="1464,-36 1580,-36 "/>
<text text-anchor="start" x="1472" y="-24" font-family="Helvetica,sans-Serif" font-size="10.00">+ init()</text>
<text text-anchor="start" x="1472" y="-13" font-family="Helvetica,sans-Serif" font-size="10.00">+ operator()()</text>
</a>
</g>
</g>
<!-- Node0&#45;&gt;Node13 -->
<g id="edge13" class="edge"><title>Node0&#45;&gt;Node13</title>
<path fill="none" stroke="midnightblue" d="M843.076,-180.592C969.602,-175.299 1240.73,-155.327 1455,-80 1459.7,-78.3484 1464.44,-76.3596 1469.11,-74.1654"/>
<polygon fill="none" stroke="midnightblue" points="842.605,-177.108 832.752,-181.005 842.884,-184.103 842.605,-177.108"/>
</g>
</g>
</svg>
