<?xml version="1.0" encoding="UTF-8" standalone="no"?>
<!DOCTYPE svg PUBLIC "-//W3C//DTD SVG 1.1//EN"
 "http://www.w3.org/Graphics/SVG/1.1/DTD/svg11.dtd">
<!-- Generated by graphviz version 2.38.0 (20140413.2041)
 -->
<!-- Title: DataFlow::Applicator&lt; T, K &gt; Pages: 1 -->
<svg width="130pt" height="215pt"
 viewBox="0.00 0.00 130.00 215.00" xmlns="http://www.w3.org/2000/svg" xmlns:xlink="http://www.w3.org/1999/xlink">
<g id="graph0" class="graph" transform="scale(1 1) rotate(0) translate(4 211)">
<title>DataFlow::Applicator&lt; T, K &gt;</title>
<!-- Node0 -->
<g id="node1" class="node"><title>Node0</title>
<polygon fill="#bfbfbf" stroke="black" points="7,-0.5 7,-101.5 115,-101.5 115,-0.5 7,-0.5"/>
<text text-anchor="start" x="15" y="-89.5" font-family="Helvetica,sans-Serif" font-size="10.00">DataFlow::Applicator</text>
<text text-anchor="middle" x="61" y="-78.5" font-family="Helvetica,sans-Serif" font-size="10.00">&lt; T, K &gt;</text>
<polyline fill="none" stroke="black" points="7,-71.5 115,-71.5 "/>
<text text-anchor="start" x="15" y="-59.5" font-family="Helvetica,sans-Serif" font-size="10.00">&#45; method</text>
<text text-anchor="start" x="15" y="-48.5" font-family="Helvetica,sans-Serif" font-size="10.00">&#45; source</text>
<polyline fill="none" stroke="black" points="7,-41.5 115,-41.5 "/>
<text text-anchor="start" x="15" y="-29.5" font-family="Helvetica,sans-Serif" font-size="10.00">+ get()</text>
<text text-anchor="start" x="15" y="-18.5" font-family="Helvetica,sans-Serif" font-size="10.00">+ getMethod()</text>
<text text-anchor="start" x="15" y="-7.5" font-family="Helvetica,sans-Serif" font-size="10.00">+ attach()</text>
</g>
<!-- Node1 -->
<g id="node2" class="node"><title>Node1</title>
<g id="a_node2"><a xlink:href="$classDataFlow_1_1iSource.html" xlink:title="{DataFlow::iSource\&lt; T \&gt;\n||+ get()\l+ ~iSource()\l}">
<polygon fill="none" stroke="black" points="0,-138.5 0,-206.5 122,-206.5 122,-138.5 0,-138.5"/>
<text text-anchor="middle" x="61" y="-194.5" font-family="Helvetica,sans-Serif" font-size="10.00">DataFlow::iSource&lt; T &gt;</text>
<polyline fill="none" stroke="black" points="0,-187.5 122,-187.5 "/>
<text text-anchor="middle" x="61" y="-175.5" font-family="Helvetica,sans-Serif" font-size="10.00"> </text>
<polyline fill="none" stroke="black" points="0,-168.5 122,-168.5 "/>
<text text-anchor="start" x="8" y="-156.5" font-family="Helvetica,sans-Serif" font-size="10.00">+ get()</text>
<text text-anchor="start" x="8" y="-145.5" font-family="Helvetica,sans-Serif" font-size="10.00">+ ~iSource()</text>
</a>
</g>
</g>
<!-- Node1&#45;&gt;Node0 -->
<g id="edge1" class="edge"><title>Node1&#45;&gt;Node0</title>
<path fill="none" stroke="midnightblue" d="M61,-128.045C61,-119.469 61,-110.408 61,-101.646"/>
<polygon fill="none" stroke="midnightblue" points="57.5001,-128.213 61,-138.213 64.5001,-128.213 57.5001,-128.213"/>
</g>
</g>
</svg>
