<?xml version="1.0" encoding="UTF-8" standalone="no"?>
<!DOCTYPE svg PUBLIC "-//W3C//DTD SVG 1.1//EN"
 "http://www.w3.org/Graphics/SVG/1.1/DTD/svg11.dtd">
<!-- Generated by graphviz version 2.38.0 (20140413.2041)
 -->
<!-- Title: Mixer::iWaveformGenerator&lt; T &gt; Pages: 1 -->
<svg width="169pt" height="397pt"
 viewBox="0.00 0.00 169.00 397.00" xmlns="http://www.w3.org/2000/svg" xmlns:xlink="http://www.w3.org/1999/xlink">
<g id="graph0" class="graph" transform="scale(1 1) rotate(0) translate(4 393)">
<title>Mixer::iWaveformGenerator&lt; T &gt;</title>
<!-- Node0 -->
<g id="node1" class="node"><title>Node0</title>
<polygon fill="#bfbfbf" stroke="black" points="0,-193.5 0,-283.5 161,-283.5 161,-193.5 0,-193.5"/>
<text text-anchor="middle" x="80.5" y="-271.5" font-family="Helvetica,sans-Serif" font-size="10.00">Mixer::iWaveformGenerator&lt; T &gt;</text>
<polyline fill="none" stroke="black" points="0,-264.5 161,-264.5 "/>
<text text-anchor="middle" x="80.5" y="-252.5" font-family="Helvetica,sans-Serif" font-size="10.00"> </text>
<polyline fill="none" stroke="black" points="0,-245.5 161,-245.5 "/>
<text text-anchor="start" x="8" y="-233.5" font-family="Helvetica,sans-Serif" font-size="10.00">+ getFrequency()</text>
<text text-anchor="start" x="8" y="-222.5" font-family="Helvetica,sans-Serif" font-size="10.00">+ setFrequency()</text>
<text text-anchor="start" x="8" y="-211.5" font-family="Helvetica,sans-Serif" font-size="10.00">+ setFrequency()</text>
<text text-anchor="start" x="8" y="-200.5" font-family="Helvetica,sans-Serif" font-size="10.00">+ ~iWaveformGenerator()</text>
</g>
<!-- Node2 -->
<g id="node3" class="node"><title>Node2</title>
<g id="a_node3"><a xlink:href="$classMixer_1_1SineGenerator.html" xlink:title="{Mixer::SineGenerator\&lt; T \&gt;\n|&#45; step\l&#45; position\l&#45; transitioner\l&#45; sinetableUninitialized\l&#45; sinetable\l|+ get()\l+ getFrequency()\l+ setFrequency()\l+ setFrequency()\l+ SineGenerator()\l&#45; filler()\l}">
<polygon fill="none" stroke="black" points="14,-0.5 14,-156.5 147,-156.5 147,-0.5 14,-0.5"/>
<text text-anchor="middle" x="80.5" y="-144.5" font-family="Helvetica,sans-Serif" font-size="10.00">Mixer::SineGenerator&lt; T &gt;</text>
<polyline fill="none" stroke="black" points="14,-137.5 147,-137.5 "/>
<text text-anchor="start" x="22" y="-125.5" font-family="Helvetica,sans-Serif" font-size="10.00">&#45; step</text>
<text text-anchor="start" x="22" y="-114.5" font-family="Helvetica,sans-Serif" font-size="10.00">&#45; position</text>
<text text-anchor="start" x="22" y="-103.5" font-family="Helvetica,sans-Serif" font-size="10.00">&#45; transitioner</text>
<text text-anchor="start" x="22" y="-92.5" font-family="Helvetica,sans-Serif" font-size="10.00">&#45; sinetableUninitialized</text>
<text text-anchor="start" x="22" y="-81.5" font-family="Helvetica,sans-Serif" font-size="10.00">&#45; sinetable</text>
<polyline fill="none" stroke="black" points="14,-74.5 147,-74.5 "/>
<text text-anchor="start" x="22" y="-62.5" font-family="Helvetica,sans-Serif" font-size="10.00">+ get()</text>
<text text-anchor="start" x="22" y="-51.5" font-family="Helvetica,sans-Serif" font-size="10.00">+ getFrequency()</text>
<text text-anchor="start" x="22" y="-40.5" font-family="Helvetica,sans-Serif" font-size="10.00">+ setFrequency()</text>
<text text-anchor="start" x="22" y="-29.5" font-family="Helvetica,sans-Serif" font-size="10.00">+ setFrequency()</text>
<text text-anchor="start" x="22" y="-18.5" font-family="Helvetica,sans-Serif" font-size="10.00">+ SineGenerator()</text>
<text text-anchor="start" x="22" y="-7.5" font-family="Helvetica,sans-Serif" font-size="10.00">&#45; filler()</text>
</a>
</g>
</g>
<!-- Node0&#45;&gt;Node2 -->
<g id="edge2" class="edge"><title>Node0&#45;&gt;Node2</title>
<path fill="none" stroke="midnightblue" d="M80.5,-183.232C80.5,-174.62 80.5,-165.572 80.5,-156.558"/>
<polygon fill="none" stroke="midnightblue" points="77.0001,-183.488 80.5,-193.488 84.0001,-183.488 77.0001,-183.488"/>
</g>
<!-- Node1 -->
<g id="node2" class="node"><title>Node1</title>
<g id="a_node2"><a xlink:href="$classDataFlow_1_1iSource.html" xlink:title="{DataFlow::iSource\&lt; T \&gt;\n||+ get()\l+ ~iSource()\l}">
<polygon fill="none" stroke="black" points="19.5,-320.5 19.5,-388.5 141.5,-388.5 141.5,-320.5 19.5,-320.5"/>
<text text-anchor="middle" x="80.5" y="-376.5" font-family="Helvetica,sans-Serif" font-size="10.00">DataFlow::iSource&lt; T &gt;</text>
<polyline fill="none" stroke="black" points="19.5,-369.5 141.5,-369.5 "/>
<text text-anchor="middle" x="80.5" y="-357.5" font-family="Helvetica,sans-Serif" font-size="10.00"> </text>
<polyline fill="none" stroke="black" points="19.5,-350.5 141.5,-350.5 "/>
<text text-anchor="start" x="27.5" y="-338.5" font-family="Helvetica,sans-Serif" font-size="10.00">+ get()</text>
<text text-anchor="start" x="27.5" y="-327.5" font-family="Helvetica,sans-Serif" font-size="10.00">+ ~iSource()</text>
</a>
</g>
</g>
<!-- Node1&#45;&gt;Node0 -->
<g id="edge1" class="edge"><title>Node1&#45;&gt;Node0</title>
<path fill="none" stroke="midnightblue" d="M80.5,-309.972C80.5,-301.346 80.5,-292.284 80.5,-283.638"/>
<polygon fill="none" stroke="midnightblue" points="77.0001,-310.22 80.5,-320.22 84.0001,-310.22 77.0001,-310.22"/>
</g>
</g>
</svg>
