<?xml version="1.0" encoding="UTF-8" standalone="no"?>
<!DOCTYPE svg PUBLIC "-//W3C//DTD SVG 1.1//EN"
 "http://www.w3.org/Graphics/SVG/1.1/DTD/svg11.dtd">
<!-- Generated by graphviz version 2.38.0 (20140413.2041)
 -->
<!-- Title: Consolidation::Multiplication&lt; T &gt; Pages: 1 -->
<svg width="171pt" height="226pt"
 viewBox="0.00 0.00 171.00 226.00" xmlns="http://www.w3.org/2000/svg" xmlns:xlink="http://www.w3.org/1999/xlink">
<g id="graph0" class="graph" transform="scale(1 1) rotate(0) translate(4 222)">
<title>Consolidation::Multiplication&lt; T &gt;</title>
<!-- Node0 -->
<g id="node1" class="node"><title>Node0</title>
<polygon fill="#bfbfbf" stroke="black" points="0,-0.5 0,-79.5 163,-79.5 163,-0.5 0,-0.5"/>
<text text-anchor="middle" x="81.5" y="-67.5" font-family="Helvetica,sans-Serif" font-size="10.00">Consolidation::Multiplication&lt; T &gt;</text>
<polyline fill="none" stroke="black" points="0,-60.5 163,-60.5 "/>
<text text-anchor="start" x="8" y="-48.5" font-family="Helvetica,sans-Serif" font-size="10.00">&#45; workspace</text>
<polyline fill="none" stroke="black" points="0,-41.5 163,-41.5 "/>
<text text-anchor="start" x="8" y="-29.5" font-family="Helvetica,sans-Serif" font-size="10.00">+ init()</text>
<text text-anchor="start" x="8" y="-18.5" font-family="Helvetica,sans-Serif" font-size="10.00">+ add()</text>
<text text-anchor="start" x="8" y="-7.5" font-family="Helvetica,sans-Serif" font-size="10.00">+ get()</text>
</g>
<!-- Node1 -->
<g id="node2" class="node"><title>Node1</title>
<g id="a_node2"><a xlink:href="$classDataFlow_1_1iConsolidationMethod.html" xlink:title="{DataFlow::iConsolidation\lMethod\&lt; T \&gt;\n||+ init()\l+ add()\l+ get()\l+ ~iConsolidationMethod()\l}">
<polygon fill="none" stroke="black" points="16,-116.5 16,-217.5 147,-217.5 147,-116.5 16,-116.5"/>
<text text-anchor="start" x="24" y="-205.5" font-family="Helvetica,sans-Serif" font-size="10.00">DataFlow::iConsolidation</text>
<text text-anchor="middle" x="81.5" y="-194.5" font-family="Helvetica,sans-Serif" font-size="10.00">Method&lt; T &gt;</text>
<polyline fill="none" stroke="black" points="16,-187.5 147,-187.5 "/>
<text text-anchor="middle" x="81.5" y="-175.5" font-family="Helvetica,sans-Serif" font-size="10.00"> </text>
<polyline fill="none" stroke="black" points="16,-168.5 147,-168.5 "/>
<text text-anchor="start" x="24" y="-156.5" font-family="Helvetica,sans-Serif" font-size="10.00">+ init()</text>
<text text-anchor="start" x="24" y="-145.5" font-family="Helvetica,sans-Serif" font-size="10.00">+ add()</text>
<text text-anchor="start" x="24" y="-134.5" font-family="Helvetica,sans-Serif" font-size="10.00">+ get()</text>
<text text-anchor="start" x="24" y="-123.5" font-family="Helvetica,sans-Serif" font-size="10.00">+ ~iConsolidationMethod()</text>
</a>
</g>
</g>
<!-- Node1&#45;&gt;Node0 -->
<g id="edge1" class="edge"><title>Node1&#45;&gt;Node0</title>
<path fill="none" stroke="midnightblue" d="M81.5,-106.186C81.5,-97.2207 81.5,-88.1815 81.5,-79.8082"/>
<polygon fill="none" stroke="midnightblue" points="78.0001,-106.237 81.5,-116.238 85.0001,-106.238 78.0001,-106.237"/>
</g>
</g>
</svg>
